<?xml version="1.0" standalone="no"?>
<!DOCTYPE svg PUBLIC "-//W3C//DTD SVG 1.1//EN" "http://www.w3.org/Graphics/SVG/1.1/DTD/svg11.dtd" >
<svg xmlns="http://www.w3.org/2000/svg" xmlns:xlink="http://www.w3.org/1999/xlink" version="1.1">
<metadata>
Created by FontForge 20170731 at Tue May  4 19:24:49 2021
 By Aleksey,,,
Copyright (c) 2021 by Fontastica. All rights reserved.
</metadata>
<defs>
<font id="UnivaNova-HeavyItalic" horiz-adv-x="1256" vert-adv-y="2048" >
  <font-face 
    font-family="Univa Nova Heavy"
    font-weight="900"
    font-style="italic"
    font-stretch="normal"
    units-per-em="2048"
    panose-1="0 0 10 0 0 0 0 0 0 0"
    ascent="1638"
    descent="-410"
    x-height="1145"
    cap-height="1508"
    bbox="-69 -534 2810 2118"
    underline-thickness="50"
    underline-position="-150"
    slope="-9"
    unicode-range="U+0020-F8FF"
  />
<missing-glyph horiz-adv-x="932" vert-adv-y="2275" 
d="M1017 1167l-184 -1158h-732l184 1158h732zM905 1097h-530l195 -438zM917 999l-313 -411l183 -413zM515 588l-183 408l-130 -819zM744 80l-195 436l-333 -436h528z" />
    <glyph glyph-name="f_f.liga" unicode="ff" horiz-adv-x="1674" vert-adv-y="2275" 
d="M778 883l-140 -883h-319l140 883h-209l41 262h209l6 44q15 91 45 161t98 128q61 51 145 77.5t172 26.5q48 0 76 -7.5t71 -28.5l10 -4l15 -7l-53 -316l-137 92l-11 8q-1 0 -4 1t-5 1q-52 0 -69.5 -20t-26.5 -75l-13 -81h349l8 48q14 91 43 159t99 126q60 51 144.5 77.5
t171.5 26.5q47 0 86 -11q16 -4 71 -22l18 -6l-56 -324l-136 92l-11 6q-2 2 -6 4h-4q-51 0 -68.5 -20t-26.5 -75l-13 -81h251l-41 -262h-251l-140 -883h-319l140 883h-350z" />
    <glyph glyph-name="f_f_t.liga" unicode="fft" horiz-adv-x="2276" vert-adv-y="2275" 
d="M1928 -2q-68 0 -119 17.5t-78.5 47t-44 67.5t-16 79t4.5 83l94 591h-322l-140 -883h-319l140 883h-350l-140 -883h-319l140 883h-209l41 262h209l6 44q15 91 45 161t98 128q61 51 145 77.5t172 26.5q47 0 76.5 -8t70.5 -28l10 -4l15 -7l-53 -316l-137 92l-11 8q-1 0 -4 1
t-5 1q-52 0 -69.5 -20t-26.5 -75l-13 -81h349l8 48q14 91 43 159t99 126q60 51 144.5 77.5t171.5 26.5q37 0 85 -11q24 -6 72 -22l18 -6l-56 -324l-136 92l-11 6q-2 2 -6 4h-4q-51 0 -68.5 -20t-26.5 -75l-13 -81h322l65 408h320l-65 -408h216l-41 -262h-216l-96 -605l-1 -8
q0 -7 1 -7v-3h2q1 0 181 6l32 1l-41 -260l-29 -1q-189 -8 -210 -8z" />
    <glyph glyph-name="f_t.liga" unicode="ft" horiz-adv-x="1633" vert-adv-y="2275" 
d="M1284 -2q-68 0 -118.5 17.5t-77.5 47t-43.5 67.5t-16 79.5t4.5 82.5l94 591h-349l-140 -883h-319l140 883h-209l41 262h209l6 44q15 91 45 161t98 128q60 51 144.5 77.5t172.5 26.5q47 0 76.5 -8t70.5 -28l10 -4l15 -7l-54 -323l-127 93l-10 8q-7 5 -8 5q-5 3 -11 3
q-52 0 -69.5 -20t-26.5 -75l-13 -81h349l65 408h319l-65 -408h215l-41 -262h-215l-98 -617v-7l1 1h3q30 0 90.5 2t91.5 2h30l-41 -257l-29 -1q-187 -8 -210 -8z" />
    <glyph glyph-name=".notdef" horiz-adv-x="932" vert-adv-y="2275" 
d="M1017 1167l-184 -1158h-732l184 1158h732zM905 1097h-530l195 -438zM917 999l-313 -411l183 -413zM515 588l-183 408l-130 -819zM744 80l-195 436l-333 -436h528z" />
    <glyph glyph-name=".null" horiz-adv-x="0" vert-adv-y="2275" 
 />
    <glyph glyph-name="nonmarkingreturn" horiz-adv-x="682" 
 />
    <glyph glyph-name="space" unicode=" " horiz-adv-x="541" vert-adv-y="2275" 
 />
    <glyph glyph-name="exclam" unicode="!" horiz-adv-x="709" vert-adv-y="2275" 
d="M760 1508l-201 -1175h-304l167 1175h338zM346 -55q-59 0 -97.5 30t-50.5 68t-6 76q10 62 66.5 117.5t142.5 55.5q87 0 126.5 -56t29.5 -117q-10 -62 -67 -118t-144 -56z" />
    <glyph glyph-name="quotedbl" unicode="&#x22;" horiz-adv-x="959" vert-adv-y="2275" 
d="M688 1500l-109 -688h-263l109 688h263zM1010 1500l-109 -688h-264l109 688h264z" />
    <glyph glyph-name="numbersign" unicode="#" horiz-adv-x="1491" vert-adv-y="2275" 
d="M702 410l-156 -410h-320l155 410h-218l96 264h224l58 153h-223l100 265h225l158 416h320l-159 -416h61l158 416h321l-159 -416h224l-99 -265h-226l-58 -153h228l-101 -264h-229l-157 -410h-319l156 410h-60zM921 827h-59l-58 -153h60z" />
    <glyph glyph-name="dollar" unicode="$" horiz-adv-x="1404" vert-adv-y="2275" 
d="M880 -10l-34 -220h-309l33 213q-114 17 -196.5 62.5t-127 111.5t-64 141.5t-16.5 163.5l3 56l2 25h322v-20v-53t2 -53q15 -122 119 -159l65 410q-191 61 -280.5 166.5t-63.5 267.5q25 155 152 270.5t327 149.5l34 217h309l-34 -218q145 -29 230.5 -113.5t108.5 -203.5
q11 -57 9 -216v-25h-327l1 21q4 88 -8.5 146.5t-60.5 95.5l-57 -358q198 -62 290.5 -167.5t65.5 -272.5q-25 -162 -155.5 -281.5t-339.5 -156.5zM726 964l44 282q-96 -36 -112 -140q-8 -52 7.5 -84.5t60.5 -57.5zM973 572l-48 -303q110 45 127 151q9 57 -9 91.5t-70 60.5z
" />
    <glyph glyph-name="percent" unicode="%" horiz-adv-x="2081" vert-adv-y="2275" 
d="M542 557q-92 0 -165 40q-60 33 -96 90t-46.5 125.5t-9.5 129t11 122.5q10 63 27.5 122.5t49.5 129t86.5 126.5t125.5 90q84 40 178 40q93 0 166 -40q59 -33 95 -90t46.5 -126t10 -129t-10.5 -123q-10 -62 -28.5 -122t-50.5 -129t-86.5 -126.5t-123.5 -89.5
q-87 -40 -179 -40zM1892 1508l-1117 -1508h-348l1120 1508h345zM437 939l269 457q-22 4 -30 4q-68 0 -130 -71q-70 -86 -98 -265q-11 -64 -11 -125zM570 730q68 0 129 70q69 83 98 264q11 80 10 129l-272 -459q15 -4 35 -4zM1663 -22q-92 0 -166 40q-60 33 -96 90
t-46.5 125.5t-9.5 129t11 122.5q10 63 27.5 122.5t49.5 129t86.5 126.5t125.5 90q84 40 178 40q93 0 166 -40q59 -33 95.5 -90.5t47 -126t9.5 -128.5t-11 -123q-10 -62 -28.5 -122t-50.5 -129t-86.5 -126.5t-123.5 -89.5q-86 -40 -178 -40zM1557 360l269 457q-20 4 -30 4
q-68 0 -129 -71q-71 -87 -99 -265q-11 -64 -11 -125zM1690 151q69 0 129 70q69 83 98 264q12 77 10 129l-271 -459q13 -4 34 -4z" />
    <glyph glyph-name="ampersand" unicode="&#x26;" horiz-adv-x="1691" vert-adv-y="2275" 
d="M663 -32q-255 0 -383 126t-97 320q37 238 315 393q-111 153 -86 309q12 77 55 150.5t109.5 133.5t163.5 96t207 36q107 0 192 -32t136 -86t73 -125t10 -148q-41 -255 -361 -402l183 -186q28 67 40 140q10 62 10 94v24l336 20l-4 -25q-1 -4 -15 -101q-32 -199 -156 -370
l300 -307l-432 -16l-97 102q-223 -146 -499 -146zM805 938q122 48 169 89q44 38 55 109q9 59 -22 95t-100 36q-33 0 -75 -16q-30 -11 -57 -43q-26 -31 -34 -82q-9 -54 7.5 -97.5t56.5 -90.5zM702 233q141 0 268 78l-289 299q-154 -80 -172 -195q-15 -89 33 -135.5t160 -46.5
z" />
    <glyph glyph-name="quotesingle" unicode="'" horiz-adv-x="638" vert-adv-y="2275" 
d="M688 1500l-109 -688h-263l109 688h263z" />
    <glyph glyph-name="parenleft" unicode="(" horiz-adv-x="900" vert-adv-y="2275" 
d="M750 -276l18 -34h-347l-7 12q-56 98 -91.5 216t-48 240t-9 242t22.5 237q64 406 279 741q39 62 112 154q13 19 33 40l11 11h345l-26 -33q-12 -15 -34 -42t-28 -34q-296 -364 -370 -837q-57 -355 36 -662q37 -121 104 -251z" />
    <glyph glyph-name="parenright" unicode=")" horiz-adv-x="900" vert-adv-y="2275" 
d="M392 -298l-10 -12h-344l25 33l20 25q120 157 163 227q189 300 247 662q73 462 -106 838l-38 75l-15 33h347l6 -13q18 -33 20 -39q41 -85 63 -153q109 -338 45 -741q-39 -246 -146.5 -495.5t-276.5 -439.5z" />
    <glyph glyph-name="asterisk" unicode="*" horiz-adv-x="1048" vert-adv-y="2275" 
d="M764 732l-99 165l-151 -167l-218 176l159 170l-205 64l130 257l198 -66l30 205h318l-35 -207l221 66l49 -257l-229 -64l107 -174z" />
    <glyph glyph-name="plus" unicode="+" horiz-adv-x="1380" vert-adv-y="2275" 
d="M918 427l-68 -427h-318l68 427h-461l42 269h461l68 428h318l-68 -428h460l-42 -269h-460z" />
    <glyph glyph-name="comma" unicode="," horiz-adv-x="712" vert-adv-y="2275" 
d="M638 317l-290 -500h-308l237 500h361z" />
    <glyph glyph-name="hyphen" unicode="-" horiz-adv-x="1006" vert-adv-y="2275" 
d="M1025 694l-42 -264h-824l42 264h824z" />
    <glyph glyph-name="period" unicode="." horiz-adv-x="638" vert-adv-y="2275" 
d="M315 -17q-88 0 -132.5 51.5t-33.5 116.5q10 65 70.5 116.5t149.5 51.5t133 -51.5t34 -116.5q-10 -64 -71.5 -116t-149.5 -52z" />
    <glyph glyph-name="slash" unicode="/" horiz-adv-x="1081" vert-adv-y="2275" 
d="M1274 1508l-886 -1508h-342l886 1508h342z" />
    <glyph glyph-name="zero" unicode="0" horiz-adv-x="1383" vert-adv-y="2275" 
d="M685 -21q-154 0 -261 99.5t-148 276t-6 397.5q26 165 89 308.5t150 245.5t196 160t224 58q154 0 261 -99t148 -275.5t6 -397.5t-131.5 -397.5t-235 -276t-292.5 -99.5zM730 267q110 6 203.5 143.5t125.5 341.5t-18 341t-157 143q-110 -6 -203.5 -143t-125.5 -341
q-20 -138 -5.5 -244.5t62.5 -171.5t118 -69z" />
    <glyph glyph-name="one" unicode="1" horiz-adv-x="1393" vert-adv-y="2275" 
d="M1278 268l-42 -268h-1003l42 268h340l153 965h-340l44 275h665l-197 -1240h338z" />
    <glyph glyph-name="two" unicode="2" horiz-adv-x="1385" vert-adv-y="2275" 
d="M1302 270l-43 -270h-1143l33 207l676 510q209 156 234 313q10 48 3.5 91.5t-25 76.5t-60.5 53t-103 20q-153 0 -219 -125q-14 -23 -25 -62q-3 -10 -9 -32.5t-10 -33.5l-6 -21h-331l14 45q25 78 31 95q22 59 43 95q80 141 221.5 222.5t332.5 81.5q141 0 242.5 -42
t154.5 -113.5t71.5 -159t2.5 -186.5q-43 -271 -373 -515l-337 -250h625z" />
    <glyph glyph-name="three" unicode="3" horiz-adv-x="1385" vert-adv-y="2275" 
d="M688 -26q-134 0 -238 37t-166.5 101t-88.5 149.5t-11 183.5l15 90h326l-15 -90q-15 -97 40.5 -151.5t179.5 -54.5t196 54t87 152q16 96 -39 146.5t-180 50.5h-218l41 263h218q106 0 169.5 50.5t77.5 136.5q14 85 -33.5 132t-155.5 47q-213 0 -242 -179l-15 -92h-323
l15 92q14 90 63.5 170.5t126 141.5t185 96.5t232.5 35.5q164 0 279 -61.5t162 -161.5t28 -221q-29 -183 -182 -306q75 -66 104.5 -156t14.5 -185q-32 -203 -209 -337t-444 -134z" />
    <glyph glyph-name="four" unicode="4" horiz-adv-x="1380" vert-adv-y="2275" 
d="M1156 344l-54 -344h-322l54 344h-718l33 204l916 960h276l-142 -895h199l-43 -269h-199zM877 613l57 357l-342 -357h285z" />
    <glyph glyph-name="five" unicode="5" horiz-adv-x="1392" vert-adv-y="2275" 
d="M697 -26q-134 0 -236.5 40.5t-160 109.5t-83.5 153.5t-20 179.5l6 54l3 24h317l-2 -21v-15q0 -44 5 -79t19.5 -70.5t37.5 -58.5t63 -37.5t93 -14.5q99 0 179 69q87 76 110 213q16 108 -33.5 180t-173.5 72q-55 0 -109 -23t-94 -61q-56 -56 -64 -93l-3 -23h-301l227 935
h974l-43 -271h-668l-54 -224q95 26 190 26q135 0 237.5 -46.5t158 -122t77.5 -165.5t7 -184q-12 -75 -46 -150.5t-92 -147t-133 -127t-175.5 -89t-212.5 -33.5z" />
    <glyph glyph-name="six" unicode="6" horiz-adv-x="1384" vert-adv-y="2275" 
d="M702 -29q-140 0 -245.5 50t-169.5 141q-104 147 -68 375q66 414 505 795l110 90q38 31 71 54q20 14 27 18q5 4 13 7q17 6 21 6l470 23l-60 -43l-185 -128q-229 -161 -386 -328q47 6 91 6q136 0 239.5 -49t159 -127.5t77.5 -171t7 -186.5q-16 -97 -70 -191t-138.5 -170.5
t-207 -123.5t-261.5 -47zM746 236q126 0 205 76t97 184l3 24q8 52 -6.5 104.5t-50.5 88.5q-60 59 -155 59q-124 0 -203.5 -78t-95.5 -185l-4 -23q-2 -11 0 -33q4 -108 57 -159q60 -58 153 -58z" />
    <glyph glyph-name="seven" unicode="7" horiz-adv-x="1383" vert-adv-y="2275" 
d="M729 21l-5 -21h-335l13 46q41 140 113 325q188 480 518 866h-741l43 271h1183l-31 -197l-8 -11l-1 -1q-76 -65 -210 -226q-192 -226 -314 -465.5t-207 -526.5q-2 -7 -6 -19t-7 -22t-5 -19z" />
    <glyph glyph-name="eight" unicode="8" horiz-adv-x="1385" vert-adv-y="2275" 
d="M688 -26q-134 0 -238 37t-166.5 101t-88.5 149.5t-11 183.5q16 96 73.5 186t152.5 156q-111 122 -82 305q30 188 195.5 316t411.5 128q165 0 279.5 -61t161.5 -161t28 -222q-29 -183 -182 -306q75 -66 104.5 -156t14.5 -185q-32 -203 -209 -337t-444 -134zM835 905
q107 0 170 50t77 137q14 85 -33.5 132t-155.5 47q-213 0 -242 -179q-14 -88 31 -137.5t153 -49.5zM730 239q124 0 196 54t87 152q16 96 -39 146.5t-180 50.5q-124 0 -196 -50.5t-88 -146.5q-15 -98 40 -152t180 -54z" />
    <glyph glyph-name="nine" unicode="9" horiz-adv-x="1384" vert-adv-y="2275" 
d="M658 -16l-471 -22l59 43q33 23 187 128q216 147 382 325q-45 -6 -89 -6q-79 0 -148 17t-120.5 47t-93.5 70.5t-66.5 88.5t-41.5 100.5t-18 106t5 106.5q16 97 70 191t138.5 171t207.5 124.5t261 47.5q77 0 146 -18q75 -19 134 -52.5t97.5 -75.5t65.5 -93t36.5 -105
t12 -111.5t-8.5 -111.5q-28 -177 -127.5 -350t-240.5 -317.5t-328 -279.5l-15 -10l-10 -6q-8 -5 -24 -8zM782 718q124 0 203 77.5t96 184.5l4 26q3 15 1 32q-2 94 -53.5 155.5t-157.5 61.5q-125 0 -204.5 -76t-96.5 -184l-4 -25q-2 -10 0 -32q4 -109 56 -160q62 -60 156 -60
z" />
    <glyph glyph-name="colon" unicode=":" horiz-adv-x="638" vert-adv-y="2275" 
d="M445 805q-89 0 -133 50t-33 115q10 66 69.5 117t149.5 51t134 -51t34 -117q-11 -64 -72 -114.5t-149 -50.5zM315 -17q-88 0 -132.5 51.5t-33.5 116.5q10 65 70.5 116.5t149.5 51.5t133 -51.5t34 -116.5q-10 -64 -71.5 -116t-149.5 -52z" />
    <glyph glyph-name="semicolon" unicode=";" horiz-adv-x="712" vert-adv-y="2275" 
d="M475 805q-89 0 -133 50t-33 115q10 66 69.5 117t149.5 51q89 0 133.5 -51.5t34.5 -116.5q-11 -63 -72.5 -114t-148.5 -51zM638 317l-290 -500h-308l237 500h361z" />
    <glyph glyph-name="less" unicode="&#x3c;" horiz-adv-x="1384" vert-adv-y="2275" 
d="M696 562l625 -256l-47 -299l-1089 457l32 196l1233 456l-47 -298z" />
    <glyph glyph-name="equal" unicode="=" horiz-adv-x="1380" vert-adv-y="2275" 
d="M1450 883l-43 -270h-1239l43 270h1239zM1391 510l-43 -271h-1239l43 271h1239z" />
    <glyph glyph-name="greater" unicode="&#x3e;" horiz-adv-x="1384" vert-adv-y="2275" 
d="M1378 660l-32 -196l-1233 -457l47 299l707 256l-625 256l47 298z" />
    <glyph glyph-name="question" unicode="?" horiz-adv-x="1261" vert-adv-y="2275" 
d="M835 455l-21 -131h-322l21 131q9 55 32.5 104t63.5 93.5t71 72.5t83 70q38 30 79 64q38 32 68 65q68 75 80 151q15 88 -25 142t-141 54q-103 0 -164.5 -63.5t-76.5 -156.5q-4 -26 -6.5 -74.5t-4.5 -67.5l-3 -24h-328l3 22q1 10 5 64.5t9 83.5q14 89 62 173t123 153.5
t185.5 112t237.5 42.5q126 0 221.5 -38t149.5 -102t75 -145t7 -171q-18 -116 -86 -212.5t-188 -189.5q-10 -8 -34.5 -26t-45 -33.5t-37.5 -30.5q-63 -52 -83 -94q-7 -16 -10 -39zM589 -55q-59 0 -97.5 30t-50.5 68t-6 76q10 62 66.5 117.5t142.5 55.5q87 0 126.5 -56
t29.5 -117q-10 -62 -67 -118t-144 -56z" />
    <glyph glyph-name="at" unicode="@" horiz-adv-x="1869" vert-adv-y="2275" 
d="M909 -227q-108 0 -201.5 18t-165 50.5t-131 77.5t-99 100.5t-68.5 118.5t-40 131.5t-14 140t11 142.5q18 116 69 229t137.5 217t198 183.5t262 126.5t318.5 47q108 0 202 -19t166 -53.5t130.5 -83t96 -107.5t61.5 -126.5t27 -140t-7 -148.5q-9 -58 -29 -117t-52 -119.5
t-80.5 -117t-107.5 -98.5h181l-36 -35q-31 -31 -91 -97q-64 -66 -101 -96q-130 -105 -295.5 -164.5t-341.5 -59.5zM950 31q184 0 330 92q-100 3 -161 59q-112 -59 -233 -59q-182 0 -271 116q-82 105 -57 274q13 85 53 171q28 60 71.5 114.5t102.5 101t138.5 74.5t167.5 28
q131 0 218 -64h193q-100 152 -358 152q-134 0 -247.5 -47t-189.5 -125t-124 -171.5t-64 -194.5q-13 -66 -8.5 -130t18 -121.5t48.5 -107t84 -85.5t123 -56.5t166 -20.5zM1365 389q14 3 46 18q48 25 85.5 108t48.5 153q18 117 -15 210l-153 -420q-6 -15 -12 -45v-24zM947 382
q10 0 37 15q45 26 78 91t43 123q9 57 1 89q-12 42 -50 42q-72 0 -122 -80q-40 -61 -53 -147q-11 -63 -1 -94q13 -39 67 -39z" />
    <glyph glyph-name="A" unicode="A" horiz-adv-x="1835" vert-adv-y="2275" 
d="M680 375l-223 -375h-347l915 1508h266l434 -1508h-350l-105 375h-590zM1192 645l-111 395l-238 -395h349z" />
    <glyph glyph-name="B" unicode="B" horiz-adv-x="1479" vert-adv-y="2275" 
d="M771 0h-661l239 1508h653q278 0 407 -121q126 -119 94 -319q-27 -177 -180 -295q74 -60 103 -145.5t14 -176.5q-34 -213 -211 -332t-458 -119zM967 1237h-340l-54 -338h340q131 0 191.5 37t75.5 132q15 93 -35.5 131t-177.5 38zM883 628h-353l-56 -358h351
q133 0 205.5 42.5t87.5 138.5q15 94 -44.5 135.5t-190.5 41.5z" />
    <glyph glyph-name="C" unicode="C" horiz-adv-x="1808" vert-adv-y="2275" 
d="M906 -26q-142 0 -267 39q-76 25 -139.5 63.5t-109 85.5t-79.5 103.5t-54 116t-29.5 123.5t-9 125.5t10.5 123.5q15 93 50.5 185.5t93 184t145 172t194.5 133.5q212 107 441 107q266 0 437 -123.5t224 -321.5q20 -72 22 -177l-2 -46h-318l-3 17q-4 19 -8 55q-9 66 -24 105
q-40 104 -135.5 165t-234.5 61q-97 0 -189 -36q-108 -41 -189 -123t-121.5 -171.5t-56.5 -186.5q-13 -66 -6.5 -139t27.5 -137t70.5 -119t121.5 -86q81 -34 180 -34q139 0 253.5 60.5t187.5 163.5q31 44 56 104q3 7 10 26t12 29l7 18h325l-14 -46q-30 -96 -78 -177
q-117 -198 -326 -320.5t-475 -122.5z" />
    <glyph glyph-name="D" unicode="D" horiz-adv-x="1636" vert-adv-y="2275" 
d="M641 0h-531l239 1508h531q125 0 232.5 -20t189.5 -57.5t148 -90t107.5 -117t67.5 -140t28.5 -158t-9.5 -171.5q-20 -125 -72 -237t-139 -206.5t-201.5 -163.5t-266 -108t-324.5 -39zM829 1237h-202l-153 -967h202q290 0 448.5 127.5t194.5 356.5q37 228 -81.5 355.5
t-408.5 127.5z" />
    <glyph glyph-name="E" unicode="E" horiz-adv-x="1361" vert-adv-y="2275" 
d="M1295 270l-43 -270h-1142l239 1508h1142l-43 -271h-821l-54 -338h690l-43 -271h-690l-56 -358h821z" />
    <glyph glyph-name="F" unicode="F" horiz-adv-x="1361" vert-adv-y="2275" 
d="M530 628l-99 -628h-321l239 1508h1142l-43 -271h-821l-54 -338h690l-43 -271h-690z" />
    <glyph glyph-name="G" unicode="G" horiz-adv-x="1808" vert-adv-y="2275" 
d="M906 -26q-142 0 -267 39q-76 25 -139.5 63.5t-109 85.5t-79.5 103.5t-54 116t-29.5 123.5t-9 125.5t10.5 123.5q15 93 50.5 185.5t93 184t145 172t194.5 133.5q214 107 432 107h11q76 0 164 -18q202 -41 325 -166t159 -292q13 -61 13 -143h-328l-2 23q-7 60 -24 105
q-39 101 -133 163.5t-227 62.5q-86 0 -181 -36q-81 -29 -147.5 -83.5t-110 -121.5t-70.5 -136.5t-38 -139.5q-7 -55 -7.5 -110.5t13.5 -112t38.5 -104.5t68 -89t100.5 -65q83 -34 180 -34t182 31t147 84t106 118t68 139h-555l43 270l879 -3l-142 -878h-314l16 103
q-209 -129 -472 -129z" />
    <glyph glyph-name="H" unicode="H" horiz-adv-x="1533" vert-adv-y="2275" 
d="M530 628l-99 -628h-321l239 1508h321l-97 -609h670l97 609h321l-239 -1508h-321l99 628h-670z" />
    <glyph glyph-name="I" unicode="I" horiz-adv-x="858" vert-adv-y="2275" 
d="M790 264l-42 -264h-638l42 264h156l155 979h-156l42 265h638l-42 -265h-157l-155 -979h157z" />
    <glyph glyph-name="J" unicode="J" horiz-adv-x="1535" vert-adv-y="2275" 
d="M764 -26q-90 0 -167 15.5t-134.5 43.5t-103 66.5t-75.5 86t-50 100t-28 110t-7 114.5t10 115q4 24 14 70l5 23l318 -6l-14 -89q-9 -45 -7.5 -91t8.5 -88.5t29 -80t53 -65t80 -43.5t111 -16q74 0 136 23t105 60.5t75.5 88.5t50.5 103t27 109l140 885h323l-137 -867
q-16 -98 -49 -188t-95 -179t-145 -154t-205 -105.5t-268 -40.5z" />
    <glyph glyph-name="K" unicode="K" horiz-adv-x="1668" vert-adv-y="2275" 
d="M517 540l-86 -540h-321l239 1508h321l-91 -573l766 573h453l-886 -670l577 -838h-398l-438 643z" />
    <glyph glyph-name="L" unicode="L" horiz-adv-x="1361" vert-adv-y="2275" 
d="M1295 270l-43 -270h-1142l239 1508h321l-196 -1238h821z" />
    <glyph glyph-name="M" unicode="M" horiz-adv-x="1695" vert-adv-y="2275" 
d="M582 953l-151 -953h-321l239 1508h259l386 -580l571 580h259l-239 -1508h-323l151 953l-418 -422h-129z" />
    <glyph glyph-name="N" unicode="N" horiz-adv-x="1533" vert-adv-y="2275" 
d="M581 947l-150 -947h-321l239 1508h283l558 -948l150 948h321l-239 -1508h-283z" />
    <glyph glyph-name="O" unicode="O" horiz-adv-x="1865" vert-adv-y="2275" 
d="M928 -26q-91 0 -173 15t-147.5 42t-122 65t-98 84t-74.5 99.5t-52 111.5t-31 118.5t-10.5 122t9.5 122.5q18 111 66.5 220.5t131 211t189.5 179.5t252 124.5t307 46.5q103 0 193.5 -18.5t160.5 -52.5t129 -81t98.5 -103t69.5 -120t41.5 -131.5t15 -137.5t-9.5 -138
q-17 -111 -65.5 -220.5t-131 -211t-189 -178.5t-251.5 -123.5t-308 -46.5zM970 239q100 0 188 30.5t152.5 81.5t115 118t79.5 139t41 146q14 68 6 141t-30.5 136.5t-75 117.5t-126.5 85q-88 37 -187 37q-93 0 -196 -37q-111 -39 -195 -120.5t-128 -172t-59 -187.5t0 -187.5
t73.5 -171.5t156.5 -121q86 -35 185 -35z" />
    <glyph glyph-name="P" unicode="P" horiz-adv-x="1444" vert-adv-y="2275" 
d="M530 628l-99 -628h-321l239 1508h653q271 0 402.5 -117t98.5 -323q-14 -90 -62.5 -174.5t-132.5 -144.5q-170 -121 -446 -121h-332zM967 1237h-340l-54 -338h340q127 0 189.5 38.5t77.5 131.5t-35.5 130.5t-177.5 37.5z" />
    <glyph glyph-name="Q" unicode="Q" horiz-adv-x="1865" vert-adv-y="2275" 
d="M1529 175l205 -183l-247 -204l-257 231q-139 -45 -302 -45q-103 0 -193.5 18.5t-160 52t-128.5 80.5t-98.5 103t-70 119.5t-42.5 131.5t-15.5 137.5t9.5 137.5q18 111 66.5 220.5t131 211t189.5 179.5t252 124.5t307 46.5q103 0 193.5 -18.5t160.5 -52.5t129 -81
t98.5 -103t69.5 -120t41.5 -131.5t15 -137.5t-9.5 -138q-25 -162 -111 -313.5t-233 -265.5zM970 239q100 0 188 30.5t152.5 81.5t115 118t79.5 139t41 146q14 68 6 141t-30.5 136.5t-75 117.5t-126.5 85q-88 37 -187 37q-93 0 -196 -37q-111 -39 -195 -120.5t-128 -172
t-59 -187.5t0 -187.5t73.5 -171.5t156.5 -121q86 -35 185 -35z" />
    <glyph glyph-name="R" unicode="R" horiz-adv-x="1504" vert-adv-y="2275" 
d="M530 628l-99 -628h-321l239 1508h653q271 0 402.5 -117t98.5 -323q-23 -145 -123.5 -255t-277.5 -156l292 -657h-371l-269 628h-224zM967 1237h-340l-54 -338h340q127 0 189.5 38.5t77.5 131.5t-35.5 130.5t-177.5 37.5z" />
    <glyph glyph-name="S" unicode="S" horiz-adv-x="1496" vert-adv-y="2275" 
d="M744 -24q-215 0 -357.5 89t-181.5 244q-18 71 -10 212l1 25h331l-1 -21l-1 -45q-1 -57 12.5 -97.5t50.5 -74.5q66 -62 199 -62q112 0 188 32q120 52 136 151q10 68 -26 104q-25 26 -118 53q-60 17 -218 47q-99 20 -170.5 42t-135.5 57.5t-100 81t-51 110.5t-2 148
q21 132 123 238t254 163t323 57q215 0 358 -90t181 -247q13 -44 13 -106q1 -35 -3 -105l-1 -25h-331v21q2 42 2 64q-2 41 -7 61q-20 75 -85.5 116t-168.5 41q-110 0 -188 -34q-121 -52 -138 -152q-10 -65 27 -103q25 -26 118 -52q69 -20 215 -48q100 -20 172 -42t136.5 -57
t100 -80t51 -111t1.5 -150q-21 -132 -123 -237t-253.5 -161.5t-322.5 -56.5z" />
    <glyph glyph-name="T" unicode="T" horiz-adv-x="1481" vert-adv-y="2275" 
d="M1096 1237l-196 -1237h-322l196 1237h-468l43 271h1261l-43 -271h-471z" />
    <glyph glyph-name="U" unicode="U" horiz-adv-x="1534" vert-adv-y="2275" 
d="M762 -26q-106 0 -192.5 21t-147 57t-105 87.5t-69.5 109.5t-37 125t-11 132.5t12 134.5l137 867h322l-140 -885q-8 -46 -7.5 -90t8.5 -88t29 -80.5t52.5 -65t80 -44.5t110.5 -16q74 0 136.5 23t105.5 60.5t75.5 88.5t51 103t27.5 109l140 885h322l-137 -867
q-16 -98 -49 -188t-95 -179t-145 -154t-205.5 -105.5t-268.5 -40.5z" />
    <glyph glyph-name="V" unicode="V" horiz-adv-x="1791" vert-adv-y="2275" 
d="M1920 1508l-889 -1508h-269l-413 1508h348l277 -1029l602 1029h344z" />
    <glyph glyph-name="W" unicode="W" horiz-adv-x="2463" vert-adv-y="2275" 
d="M2592 1508l-759 -1510h-282l-167 960l-474 -958h-284l-277 1508h343l164 -957l472 957h288l166 -959l471 959h339z" />
    <glyph glyph-name="X" unicode="X" horiz-adv-x="1891" vert-adv-y="2275" 
d="M1031 529l-518 -529h-398l755 763l-521 745h401l354 -514l519 514h398l-757 -745l514 -763h-395z" />
    <glyph glyph-name="Y" unicode="Y" horiz-adv-x="1891" vert-adv-y="2275" 
d="M1220 719l-114 -719h-322l115 724l-550 784h402l353 -514l520 514h397z" />
    <glyph glyph-name="Z" unicode="Z" horiz-adv-x="1523" vert-adv-y="2275" 
d="M1456 270l-43 -270h-1303l31 194l1014 1043h-840l43 271h1286l-31 -196l-1012 -1042h855z" />
    <glyph glyph-name="bracketleft" unicode="[" horiz-adv-x="806" vert-adv-y="2275" 
d="M753 -45l-42 -265h-600l300 1893h600l-42 -264h-282l-216 -1364h282z" />
    <glyph glyph-name="backslash" unicode="\" horiz-adv-x="1081" vert-adv-y="2275" 
d="M627 1508l408 -1508h-342l-408 1508h342z" />
    <glyph glyph-name="bracketright" unicode="]" horiz-adv-x="806" vert-adv-y="2275" 
d="M896 1583l-300 -1893h-599l42 265h281l216 1364h-281l42 264h599z" />
    <glyph glyph-name="asciicircum" unicode="^" horiz-adv-x="1482" vert-adv-y="2275" 
d="M903 1024l-342 -584h-341l636 1068h247l300 -1068h-342z" />
    <glyph glyph-name="underscore" unicode="_" horiz-adv-x="1212" vert-adv-y="2275" 
d="M1211 -5l-42 -264h-1212l42 264h1212z" />
    <glyph glyph-name="grave" unicode="`" horiz-adv-x="1029" vert-adv-y="2275" 
d="M853 1671l129 -500h-323l-159 500h353z" />
    <glyph glyph-name="a" unicode="a" horiz-adv-x="1290" vert-adv-y="2275" 
d="M587 -23q-225 0 -336.5 101.5t-84.5 272.5q26 166 153 260t322 111q34 3 107 7l230 14q3 73 -37.5 107.5t-138.5 34.5q-99 0 -149.5 -33t-69.5 -103h-318q42 178 190 287t388 109q130 0 226 -34.5t148 -96t71 -140.5t4 -173l-111 -701h-320l4 25q-128 -48 -278 -48z
M629 239q128 0 208.5 60t96.5 161l4 24q-113 -5 -178 -10q-162 -12 -197 -25q-66 -26 -77 -98q-10 -60 24.5 -86t118.5 -26z" />
    <glyph glyph-name="b" unicode="b" horiz-adv-x="1417" vert-adv-y="2275" 
d="M704 -23q-149 0 -270 63l-6 -40h-318l239 1508h318l-68 -426q138 63 290 63q85 0 158.5 -19t127.5 -52t98 -78t69.5 -97t42.5 -109.5t17.5 -115t-6.5 -112.5q-13 -79 -48 -159.5t-96 -157t-139 -136t-184.5 -96t-224.5 -36.5zM746 241q67 0 139 36q80 41 129 120.5
t62 164.5q13 84 -11 165t-90 120q-57 36 -127 36q-68 0 -140 -37q-79 -40 -128.5 -120t-62.5 -164q-13 -87 10.5 -165t91.5 -120q59 -36 127 -36z" />
    <glyph glyph-name="c" unicode="c" horiz-adv-x="1429" vert-adv-y="2275" 
d="M707 -22q-99 0 -182.5 25.5t-140 69t-100 101.5t-63 123t-27.5 133t5 132q13 79 48 159t96 156.5t139 136t184.5 95.5t224.5 36q181 0 303 -82.5t174 -214.5q34 -87 42 -224l2 -27h-329v20q-1 72 -26.5 135t-79.5 95q-57 36 -127 36q-68 0 -140 -37q-78 -39 -128 -119.5
t-63 -164.5q-13 -83 11 -164.5t89 -119.5q62 -36 129 -36q69 0 139 35q63 33 102.5 86.5t70.5 128.5l14 33h327l-35 -86q-37 -89 -93.5 -167t-136.5 -146t-191 -108t-238 -40z" />
    <glyph glyph-name="d" unicode="d" horiz-adv-x="1417" vert-adv-y="2275" 
d="M706 -23q-85 0 -159 19t-127.5 52t-97.5 78.5t-69.5 98t-42.5 109.5t-17.5 115t6.5 113q13 79 48 159t96 156.5t139 136t184.5 95.5t224.5 36q149 0 269 -63l68 426h318l-239 -1508h-318l6 40q-140 -63 -289 -63zM748 241q67 0 139 36q80 41 129 120.5t62 164.5
q13 84 -11 165t-90 120q-57 36 -127 36q-68 0 -140 -37q-79 -40 -128.5 -120t-62.5 -164q-13 -87 10.5 -165t91.5 -120q59 -36 127 -36z" />
    <glyph glyph-name="e" unicode="e" horiz-adv-x="1448" vert-adv-y="2275" 
d="M720 -23q-86 0 -161 18.5t-130.5 51t-100.5 77.5t-72 97t-44.5 109.5t-18.5 116t6 115.5q13 81 49 162t98.5 157t142.5 134.5t188 94t228 35.5q86 0 161.5 -18.5t130.5 -51t100.5 -77t72 -96.5t44.5 -109t19 -115.5t-6 -115.5q-7 -42 -26 -97l-8 -20h-875
q15 -89 77 -146.5t167 -57.5q154 0 262 133q10 11 28 40l297 -72q-30 -51 -73 -104q-99 -118 -243 -189.5t-313 -71.5zM574 711h526q-22 77 -81.5 124.5t-154.5 47.5t-169 -47.5t-121 -124.5z" />
    <glyph glyph-name="f" unicode="f" horiz-adv-x="1005" vert-adv-y="2275" 
d="M778 883l-140 -883h-319l140 883h-209l41 262h209l6 44q15 91 45 161t98 128q60 51 144.5 77.5t172.5 26.5q48 0 76 -7.5t71 -28.5l10 -4l15 -7l-53 -316l-137 92l-11 8q-1 0 -4 1t-5 1q-52 0 -69.5 -20t-26.5 -75l-13 -81h250l-41 -262h-250z" />
    <glyph glyph-name="g" unicode="g" horiz-adv-x="1417" vert-adv-y="2275" 
d="M669 -408q-145 0 -252 45q-120 50 -180 133.5t-77 198.5l-3 20h334q7 -32 32 -61q61 -74 192 -74q101 0 170.5 50t101.5 132q-135 -59 -281 -59q-124 0 -218 38l-52 23q-142 77 -201.5 224t-35.5 300q13 79 48 159t96 156.5t139 136t184.5 95.5t224.5 36q153 0 271 -62
l6 41h317l-156 -983q-13 -81 -44 -157.5t-86.5 -148.5t-128.5 -125.5t-176.5 -85.5t-224.5 -32zM748 241q67 0 139 36q80 41 129 120.5t62 164.5q13 84 -11 165t-90 120q-57 36 -127 36q-68 0 -140 -37q-79 -40 -128.5 -120t-62.5 -164q-13 -87 10.5 -165t91.5 -120
q59 -36 127 -36z" />
    <glyph glyph-name="h" unicode="h" vert-adv-y="2275" 
d="M540 704l-112 -704h-318l239 1508h318l-61 -387q95 24 203 24q126 0 217 -30.5t154 -102.5q108 -125 77 -315l-110 -697h-319l106 672q9 64 3 111.5t-47.5 74.5t-121.5 27q-104 0 -157 -45q-26 -22 -46 -62t-25 -74z" />
    <glyph glyph-name="i" unicode="i" horiz-adv-x="600" vert-adv-y="2275" 
d="M486 1182q-85 0 -129 49.5t-34 111.5q10 64 68.5 114.5t146.5 50.5t132 -50.5t34 -114.5q-10 -62 -71.5 -111.5t-146.5 -49.5zM640 1145l-181 -1145h-318l181 1145h318z" />
    <glyph glyph-name="j" unicode="j" horiz-adv-x="730" vert-adv-y="2275" 
d="M618 1182q-86 0 -130 49t-34 112q10 64 68.5 114.5t147.5 50.5q87 0 129.5 -50.5t32.5 -114.5q-10 -62 -69.5 -111.5t-144.5 -49.5zM77 -409l-32 -1l43 271l32 -1q19 0 60.5 -3.5t64.5 -3.5q2 5 4 21l3 27l197 1244h321l-199 -1259q-7 -44 -21.5 -83.5t-42 -79t-64.5 -68
t-93.5 -46.5t-124.5 -18q-14 0 -42 1.5t-43 1.5q-9 0 -19.5 -0.5t-23.5 -1.5t-20 -1z" />
    <glyph glyph-name="k" unicode="k" horiz-adv-x="1482" vert-adv-y="2275" 
d="M485 341l-54 -342h-321l239 1509h321l-123 -774l553 412h454l-674 -506l440 -641h-396l-303 444z" />
    <glyph glyph-name="l" unicode="l" horiz-adv-x="699" vert-adv-y="2275" 
d="M408 -2q-68 0 -119 17.5t-78 47t-43.5 67.5t-16 79.5t4.5 82.5l193 1216h318l-190 -1199q-3 -22 -4 -32v-17q9 0 43 2t52 2h63l-41 -259l-28 -1q-18 -1 -49 -2.5t-56.5 -2.5t-48.5 -1z" />
    <glyph glyph-name="m" unicode="m" horiz-adv-x="1847" vert-adv-y="2275" 
d="M535 672l-106 -672h-319l181 1145h318l-3 -24q83 20 174 20q196 0 309 -100q146 100 344 100q98 0 176.5 -25t126 -68t78.5 -100t36 -120.5t-3 -130.5l-110 -697h-320l106 672q34 211 -135 211q-91 0 -143 -67q-40 -53 -55 -144l-106 -672h-319l106 672q34 211 -137 211
q-47 0 -84 -18t-59.5 -49.5t-35.5 -66.5t-20 -77z" />
    <glyph glyph-name="n" unicode="n" vert-adv-y="2275" 
d="M540 704l-112 -704h-318l181 1145h318l-3 -24q95 24 203 24q126 0 217 -30.5t154 -102.5q108 -125 77 -315l-110 -697h-319l106 672q9 64 3 111.5t-47.5 74.5t-121.5 27q-104 0 -157 -45q-26 -22 -46 -62t-25 -74z" />
    <glyph glyph-name="o" unicode="o" horiz-adv-x="1419" vert-adv-y="2275" 
d="M706 -23q-85 0 -159 19t-128 52t-97.5 78t-69 97.5t-42.5 110t-17.5 115t6.5 113.5q13 79 48 159t96 156.5t139 136t184.5 95.5t224.5 36q85 0 159 -19t127.5 -52t97.5 -78t69.5 -97t42.5 -109.5t17.5 -115t-6.5 -112.5q-13 -79 -48 -159.5t-96 -157t-139 -136
t-184.5 -96t-224.5 -36.5zM748 241q67 0 139 36q80 41 129 120.5t62 164.5q13 84 -11 165t-90 120q-57 36 -127 36q-68 0 -140 -37q-79 -40 -128.5 -120t-62.5 -164q-13 -87 10.5 -165t91.5 -120q59 -36 127 -36z" />
    <glyph glyph-name="p" unicode="p" horiz-adv-x="1417" vert-adv-y="2275" 
d="M434 41l-70 -447h-318l245 1551h318l-9 -62q137 63 290 63q75 0 141 -14.5t116.5 -40.5t93 -62t71 -79t50 -91t30 -98t11.5 -100.5t-7 -98.5q-13 -79 -48 -159t-95.5 -157t-138.5 -136.5t-184.5 -95.5t-224.5 -36q-150 0 -271 63zM746 242q69 0 139 35q79 41 128.5 121
t62.5 164q13 86 -10.5 164.5t-90.5 119.5q-61 38 -127 38t-140 -38q-80 -41 -129 -120t-62 -164q-13 -87 10.5 -165t91.5 -120q58 -35 127 -35z" />
    <glyph glyph-name="q" unicode="q" horiz-adv-x="1417" vert-adv-y="2275" 
d="M1488 1145l-245 -1551h-318l70 447q-140 -63 -288 -63q-99 0 -182.5 25.5t-140 69t-100 101.5t-63 123t-27.5 133t5 132q13 79 48 159t96 157t139.5 136.5t185 95.5t224.5 36q148 0 269 -63l9 62h318zM748 242q69 0 139 35q79 41 128.5 120.5t62.5 164.5
q13 86 -10.5 164.5t-90.5 119.5q-61 38 -127 38t-140 -38q-80 -41 -129 -120t-62 -164q-13 -87 10.5 -165t91.5 -120q58 -35 127 -35z" />
    <glyph glyph-name="r" unicode="r" horiz-adv-x="851" vert-adv-y="2275" 
d="M540 704l-112 -704h-318l181 1145h318l-3 -24q97 24 286 24h30l-41 -260h-30q-62 0 -93 -1q-100 -3 -147 -44q-25 -22 -45.5 -62.5t-25.5 -73.5z" />
    <glyph glyph-name="s" unicode="s" horiz-adv-x="1180" vert-adv-y="2275" 
d="M590 -14q-168 0 -277 76t-135 200q-7 40 -5 89q1 16 3.5 46t3.5 40l2 15h315v-12q0 -1 -3 -62q-2 -61 31.5 -94t106.5 -33q68 0 114 23.5t53 67.5q4 24 -2.5 36t-28.5 24q-31 16 -83 26q-19 4 -56 10.5t-41 7.5q-96 19 -161 43.5t-114.5 63.5t-67.5 97.5t-5 138.5
q23 146 174 251q150 105 356 105q168 0 278 -75t134 -199q8 -45 5 -88q-1 -39 -8 -87l-2 -12h-324l2 12q6 26 8 39q11 66 -22.5 106t-111.5 40q-112 0 -149 -50q-17 -20 -20 -40q-4 -25 2 -37t29 -23q26 -14 83 -26q17 -3 97 -16q94 -18 160 -43.5t115 -65.5t67 -99t6 -137
q-23 -147 -173 -252q-152 -106 -356 -106z" />
    <glyph glyph-name="t" unicode="t" horiz-adv-x="966" vert-adv-y="2275" 
d="M618 -2q-68 0 -119 17.5t-78 47t-43.5 67.5t-16 79.5t4.5 82.5l94 591h-210l41 262h210l65 408h319l-65 -408h217l-41 -262h-217l-91 -574l-6 -36v-12l4 -1q30 0 91 2t91 2h31l-41 -257l-29 -1q-189 -8 -211 -8z" />
    <glyph glyph-name="u" unicode="u" vert-adv-y="2275" 
d="M628 0q-126 0 -217.5 30.5t-153.5 103.5q-106 123 -76 315l110 696h318l-106 -672q-9 -47 -5.5 -86t19 -67t54 -44t98.5 -16q105 0 158 46q24 21 44.5 62.5t25.5 73.5l111 703h320l-181 -1145h-320l4 25q-93 -25 -203 -25z" />
    <glyph glyph-name="v" unicode="v" horiz-adv-x="1513" vert-adv-y="2275" 
d="M1584 1147l-695 -1147h-265l-332 1147h345l193 -680l408 680h346z" />
    <glyph glyph-name="w" unicode="w" horiz-adv-x="2044" vert-adv-y="2275" 
d="M1118 601l-319 -606h-264l-243 1157h333l127 -617l320 617h263l128 -617l321 617h332l-609 -1157h-262z" />
    <glyph glyph-name="x" unicode="x" horiz-adv-x="1607" vert-adv-y="2275" 
d="M858 334l-328 -334h-400l567 569l-405 578h400l240 -347l350 347h397l-587 -578l382 -569h-393z" />
    <glyph glyph-name="y" unicode="y" horiz-adv-x="1513" vert-adv-y="2275" 
d="M1584 1147l-942 -1555h-338l297 498l-309 1057h346l192 -680l408 680h346z" />
    <glyph glyph-name="z" unicode="z" horiz-adv-x="1250" vert-adv-y="2275" 
d="M1182 262l-41 -262h-1029l30 189l679 694h-571l41 262h1028l-29 -185l-681 -698h573z" />
    <glyph glyph-name="braceleft" unicode="{" horiz-adv-x="824" vert-adv-y="2275" 
d="M515 -310q-70 0 -124 18.5t-85.5 50t-51.5 72.5t-22 85t3 89l79 500q-20 0 -60 -0.5t-61 -0.5h-30l42 264h30l75 -1q30 0 43 1h4v11l78 488q9 59 35.5 112.5t70.5 100.5t115 75t159 28q111 0 191 -31l16 -6l-43 -272l-38 11q-14 3 -41.5 11t-41.5 12q-41 11 -79 11h-7
l-2 -1q-3 -2 -5 -4q-2 -5 -4 -15q-1 -3 -2.5 -10t-2.5 -11l-76 -485q-15 -96 -64 -157q29 -61 14 -157l-77 -484q-2 -14 -2 -21q-2 -9 0 -14l1 -2q4 -3 11 -3q32 0 84 9l90 18l38 7l-41 -263l-21 -5q-116 -31 -198 -31z" />
    <glyph glyph-name="bar" unicode="|" horiz-adv-x="775" vert-adv-y="2275" 
d="M798 1583l-251 -1583h-318l251 1583h318z" />
    <glyph glyph-name="braceright" unicode="}" horiz-adv-x="824" vert-adv-y="2275" 
d="M211 -310q-83 0 -175 27l-33 9l41 264l121 -26q50 -9 81 -9l12 2q1 0 4 3l5 14l80 505q15 97 64 158q-29 60 -14 156l80 506q0 8 -2 14q0 6 -13 6q-34 0 -83 -11q-32 -7 -89 -22l-42 -9l43 270l20 6q99 30 200 30q71 0 125.5 -19t85.5 -50t50.5 -72t21 -85.5t-3.5 -89.5
l-78 -488v-11h149l-42 -264h-92q-9 0 -29 0.5t-29 0.5l-79 -500q-9 -58 -35.5 -111.5t-71 -100.5t-115 -75t-157.5 -28z" />
    <glyph glyph-name="asciitilde" unicode="~" horiz-adv-x="1438" vert-adv-y="2275" 
d="M436 351l-23 -29l-217 183l38 49q68 88 170.5 138.5t229.5 50.5q85 0 223 -46q78 -25 85 -27q50 -12 86 -12q52 0 101 52q10 10 55 60l23 26l214 -180l-52 -62q-68 -81 -168 -127t-218 -46q-98 0 -238 48q-10 3 -37 12.5t-43 13.5q-45 12 -77 12q-45 0 -85 -35
q-17 -17 -35 -38q-28 -39 -32 -43z" />
    <glyph glyph-name="exclamdown" unicode="&#xa1;" horiz-adv-x="709" vert-adv-y="2275" 
d="M488 840q-59 0 -97.5 29.5t-50.5 67.5t-7 76q10 61 67 117t143 56q59 0 98 -29.5t51 -67.5t6 -76q-9 -61 -66 -117t-144 -56zM632 798l-171 -1174h-338l205 1174h304z" />
    <glyph glyph-name="cent" unicode="&#xa2;" horiz-adv-x="1405" vert-adv-y="2275" 
d="M890 187l-35 -219h-312l35 220q-86 22 -154.5 66.5t-109 101.5t-67 125t-29.5 136.5t5 136.5q11 67 38 135.5t73 136.5t106 125t142 102t175 67l35 222h312l-35 -221q145 -34 231.5 -129t110.5 -219q4 -21 6.5 -44t4.5 -54.5t3 -44.5l2 -27h-319l-3 18q-18 152 -82 208
l-87 -550q99 64 144 208l6 20h326l-10 -27q-5 -13 -17.5 -45t-22.5 -55t-21 -45q-64 -124 -179.5 -218.5t-271.5 -129.5zM624 480l87 547q-69 -45 -112 -119.5t-56 -153.5q-12 -80 6.5 -154.5t74.5 -119.5z" />
    <glyph glyph-name="sterling" unicode="&#xa3;" horiz-adv-x="1433" vert-adv-y="2275" 
d="M273 -56l-29 -27l-157 218l13 13q95 90 185 125q4 2 12 4.5t11 3.5q5 1 12 5q3 1 11 8l12 11q50 45 74 90.5t33 105.5q4 19 4 44h-263l43 270h140q-35 129 -17 244q12 76 43.5 145.5t85.5 130t124.5 105.5t165 70.5t202.5 25.5q96 0 174.5 -20.5t131.5 -56.5t92 -85
t56 -106t23.5 -119.5t-6.5 -125.5q-6 -33 -19 -88l-5 -18l-6 -21h-319l5 24q2 13 9.5 47t10.5 52q10 49 4 94.5t-24.5 80.5t-61.5 56t-107 21q-222 0 -257 -223q-15 -97 37 -233h451l-43 -270h-348q-2 -23 -6 -44q-17 -110 -69 -198l14 -4q23 -7 63.5 -21t55.5 -19
q63 -20 117 -20q94 0 159 82q37 48 57 77l21 30l219 -166l-18 -26q-38 -54 -64 -80q-81 -85 -196 -133.5t-243 -48.5q-114 0 -241 46q-11 4 -41.5 15t-47.5 16q-50 15 -86 15q-46 0 -102 -40q-18 -12 -50 -40q-10 -9 -26.5 -24.5t-18.5 -17.5z" />
    <glyph glyph-name="currency" unicode="&#xa4;" horiz-adv-x="1497" vert-adv-y="2275" 
d="M573 167l-192 -158l-179 206l179 147q-39 97 -22 200q18 108 86 200l-133 150l246 203l139 -158q105 43 211 43q103 0 197 -43l188 155l183 -202l-181 -150q40 -95 23 -198q-17 -106 -85 -201l130 -146l-243 -202l-142 153q-106 -43 -209 -43q-96 0 -196 44zM811 387
q72 0 128 54.5t66 120.5q10 64 -28.5 119t-109.5 55q-60 0 -119 -48q-65 -53 -77 -126q-10 -66 29 -120.5t111 -54.5z" />
    <glyph glyph-name="yen" unicode="&#xa5;" horiz-adv-x="1527" vert-adv-y="2275" 
d="M971 301l-48 -301h-322l48 301l-1 5h-297l42 261h260v25h-256l39 248h211l-319 668h360l234 -496l386 496h370l-537 -668h242l-39 -248h-286l-8 -25h290l-42 -261h-326z" />
    <glyph glyph-name="brokenbar" unicode="&#xa6;" horiz-adv-x="775" vert-adv-y="2275" 
d="M797 1581l-118 -745h-318l118 745h318zM665 745l-118 -745h-318l118 745h318z" />
    <glyph glyph-name="section" unicode="&#xa7;" horiz-adv-x="1352" vert-adv-y="2275" 
d="M615 -353q-117 0 -204 34.5t-134.5 93t-68 131t-13.5 154.5l5 54l3 24h314v-21q-8 -100 14 -144q28 -60 126 -60q79 0 116 27q38 28 45 71q8 54 -31 93t-115 71l-76 32q-93 40 -156.5 77t-119.5 89.5t-78 121t-9 152.5q14 85 68 164t141 137q-61 96 -40 217
q24 159 169.5 265t355.5 106q213 0 323 -113q55 -56 75.5 -123.5t21.5 -153.5l-1 -102h-327l3 22q10 99 -11 144q-27 63 -125 63q-80 0 -119 -28q-37 -27 -44 -72q-11 -67 54 -114q30 -22 79 -44q16 -7 47 -20t42 -18q93 -39 157.5 -77t119.5 -90.5t76.5 -121t8.5 -152.5
q-14 -86 -68 -164.5t-142 -135.5q61 -95 41 -217q-25 -159 -169.5 -265.5t-353.5 -106.5zM876 402q102 42 116 132q6 46 -22 83q-29 37 -142 92q-34 17 -96 44t-69 30q-49 -21 -78.5 -56t-36.5 -78q-7 -42 24 -84q27 -35 139 -90q88 -43 165 -73z" />
    <glyph glyph-name="dieresis" unicode="&#xa8;" horiz-adv-x="977" vert-adv-y="2275" 
d="M488 1237q-89 0 -133.5 51t-34.5 116q11 66 71 117t150 51q89 0 133 -52t33 -116q-10 -64 -70.5 -115.5t-148.5 -51.5zM886 1237q-89 0 -133.5 51t-34.5 116q11 66 71 117t150 51q89 0 133 -52t33 -116q-10 -64 -70.5 -115.5t-148.5 -51.5z" />
    <glyph glyph-name="copyright" unicode="&#xa9;" horiz-adv-x="1778" vert-adv-y="2275" 
d="M889 -24q-161 0 -297.5 46t-231 122.5t-161.5 177.5t-98.5 210t-31.5 220t31.5 220.5t98.5 210.5t161.5 177.5t231 122.5t297.5 46q160 0 297 -46t231.5 -123t161.5 -178t98.5 -210t31.5 -220t-31.5 -220t-98.5 -210t-161.5 -177.5t-231.5 -122.5t-297 -46zM889 194
q113 0 207.5 32.5t158.5 86.5t109 126.5t65.5 151t20.5 161.5t-20.5 162t-65.5 151t-109 126.5t-158.5 86.5t-207.5 32t-207.5 -32t-158.5 -86.5t-109 -126.5t-65.5 -151t-20.5 -162t20.5 -161.5t65.5 -151t109 -126.5t158.5 -86.5t207.5 -32.5zM887 307q-150 0 -261.5 78
t-156.5 190q-35 87 -35 177q0 73 20 137q37 126 153 218t280 92q137 0 245.5 -60.5t158.5 -159.5q18 -34 32 -90q7 -31 17 -90l3 -20h-259l-3 15l-9 42q-33 141 -183 141q-51 0 -89.5 -20t-59.5 -53.5t-31 -71.5t-10 -80q0 -23 8 -71q8 -42 32.5 -79t61.5 -56q36 -18 88 -18
q94 0 136 48.5t55 134.5l2 17h261l-3 -21q-12 -69 -16 -87q-10 -49 -30 -88q-53 -103 -158.5 -164t-248.5 -61z" />
    <glyph glyph-name="ordfeminine" unicode="&#xaa;" horiz-adv-x="765" vert-adv-y="2275" 
d="M475 778q-140 0 -210 64.5t-53 170.5q17 103 100 166h-53l5 35q19 119 112.5 195.5t249.5 76.5q158 0 227.5 -78t50.5 -197l-67 -420h-236q-48 -13 -126 -13zM507 1247q20 2 64 4l97 6q-4 18 -21 25.5t-52 7.5q-39 0 -58.5 -9.5t-29.5 -33.5zM506 975q55 0 90.5 23
t46.5 65q-20 -1 -72 -5q-35 -2 -62 -6q-30 -3 -36 -6q-20 -7 -25 -33q-3 -23 9 -30.5t49 -7.5z" />
    <glyph glyph-name="guillemotleft" unicode="&#xab;" horiz-adv-x="1174" vert-adv-y="1800" 
d="M526 553l182 -474h-291l-184 474l333 472h291zM859 553l182 -474h-291l-181 474l330 472h291z" />
    <glyph glyph-name="logicalnot" unicode="&#xac;" horiz-adv-x="1380" vert-adv-y="2275" 
d="M1420 696l-97 -613h-320l55 344h-919l42 269h1239z" />
    <glyph glyph-name="registered" unicode="&#xae;" horiz-adv-x="1359" vert-adv-y="2275" 
d="M678 372q-120 0 -222.5 34.5t-173.5 92t-121.5 133t-74 157.5t-23.5 165t23.5 165t74 158t121.5 133.5t173.5 92t222.5 34.5t222.5 -34.5t173.5 -92.5t121.5 -133.5t74 -157.5t23.5 -165t-23.5 -165t-74 -157.5t-121.5 -133t-173.5 -92t-222.5 -34.5zM678 536
q105 0 188 36.5t132.5 97t75 133.5t25.5 151q0 79 -25.5 151.5t-75 133.5t-132.5 97.5t-188 36.5t-188 -36.5t-132.5 -97.5t-75 -133.5t-25.5 -151.5q0 -78 25.5 -151t75 -133.5t132.5 -97t188 -36.5zM570 912v-242h-129v592h251q104 0 162 -46.5t58 -128.5
q0 -60 -32.5 -102t-91.5 -60l152 -255h-151l-139 242h-80zM695 1145h-125v-117h125q49 0 68.5 13.5t19.5 45.5t-20 45t-68 13z" />
    <glyph glyph-name="macron" unicode="&#xaf;" horiz-adv-x="1006" vert-adv-y="2275" 
d="M1148 1469l-42 -265h-824l42 265h824z" />
    <glyph glyph-name="degree" unicode="&#xb0;" horiz-adv-x="990" vert-adv-y="2275" 
d="M612 750q-101 0 -180 36t-122.5 93.5t-61.5 126.5t-7 139t50.5 138.5t101.5 125.5t151.5 92t191.5 35q101 0 179.5 -35.5t121.5 -92.5t60.5 -125.5t6.5 -137.5q-11 -70 -50 -139t-100 -126.5t-150.5 -93.5t-191.5 -36zM653 1012q50 0 86 40t44 93q8 52 -15 91t-73 39
q-54 0 -89.5 -38t-44.5 -92q-6 -37 5.5 -73.5t38.5 -48.5q24 -11 48 -11z" />
    <glyph glyph-name="plusminus" unicode="&#xb1;" horiz-adv-x="1380" vert-adv-y="2275" 
d="M1353 270l-43 -270h-1239l43 270h461l39 250h-461l43 270h461l53 334h318l-53 -334h460l-43 -270h-460l-39 -250h460z" />
    <glyph glyph-name="uni00B2" unicode="&#xb2;" horiz-adv-x="665" vert-adv-y="1800" 
d="M744 950l-26 -168h-544l20 126l294 223q78 57 87 111q11 73 -51 73q-26 0 -40.5 -11t-23.5 -38q-10 -28 -11 -42l-4 -24h-214l10 27q7 18 19 54q14 38 25 57q38 66 106.5 105t159.5 39q131 0 186 -69.5t39 -167.5q-19 -124 -169 -237l-78 -58h215z" />
    <glyph glyph-name="uni00B3" unicode="&#xb3;" horiz-adv-x="669" vert-adv-y="1800" 
d="M458 780q-126 0 -190 65t-49 160l11 66h151l21 138h-134l11 66q14 89 93 151.5t198 62.5t179 -62.5t46 -151.5q-12 -72 -65 -125q51 -63 38 -145q-15 -95 -99 -160t-211 -65zM473 1232l-1 -7h56q59 0 66 50q4 25 -8 36t-43 11q-40 0 -54 -20q-7 -15 -10 -30
q-1 -6 -2 -12.5t-2 -15t-2 -12.5zM484 947q73 0 82 58q5 29 -10 41.5t-54 12.5h-73l-9 -54q-5 -29 11 -43.5t53 -14.5z" />
    <glyph glyph-name="acute" unicode="&#xb4;" horiz-adv-x="1029" vert-adv-y="2275" 
d="M1058 1671l-318 -500h-324l291 500h351z" />
    <glyph glyph-name="paragraph" unicode="&#xb6;" horiz-adv-x="1353" vert-adv-y="2275" 
d="M1046 1276l-262 -1655h-260l145 916q-118 11 -203 55t-130 110.5t-60 146t-1 168.5q15 94 65 180t128.5 154t192 108.5t244.5 40.5h458l-298 -1879h-263l262 1655h-18z" />
    <glyph glyph-name="periodcentered" unicode="&#xb7;" horiz-adv-x="638" vert-adv-y="2275" 
d="M382 401q-88 0 -133 51.5t-34 115.5q10 65 70 116t149 51t133.5 -51t34.5 -116q-11 -65 -71.5 -116t-148.5 -51z" />
    <glyph glyph-name="cedilla" unicode="&#xb8;" horiz-adv-x="810" vert-adv-y="2275" 
d="M330 -440q-85 0 -138 28t-109 83l-12 11l139 168l-57 24l193 334h274l-86 -143q90 -26 129.5 -95.5t27.5 -148.5q-17 -107 -117.5 -184t-243.5 -77zM371 -231q7 0 21.5 14t16.5 28q2 17 0 28l-4 6h-9l-33 -33l-17 -18l-94 39q40 -33 66 -48q25 -16 53 -16z" />
    <glyph glyph-name="uni00B9" unicode="&#xb9;" horiz-adv-x="663" vert-adv-y="1800" 
d="M719 945l-27 -168h-486l27 168h142l55 349h-142l27 172h344l-82 -521h142z" />
    <glyph glyph-name="ordmasculine" unicode="&#xba;" horiz-adv-x="844" vert-adv-y="2275" 
d="M545 779q-62 0 -114 16t-87 43t-61.5 63t-38.5 76.5t-17 82t3 80.5q9 60 42 121.5t85.5 115.5t131.5 88t170 34q61 0 113 -16t87 -43t62 -63t39 -76t17.5 -81.5t-2.5 -79.5q-10 -60 -43 -121.5t-85 -116t-131.5 -89t-170.5 -34.5zM577 979q31 0 65 18q38 19 62 58.5
t31 84.5q6 42 -6 83.5t-41 58.5q-29 18 -60 18q-32 0 -66 -18q-37 -19 -61.5 -59t-31.5 -83q-17 -103 50 -143q28 -18 58 -18z" />
    <glyph glyph-name="guillemotright" unicode="&#xbb;" horiz-adv-x="1174" vert-adv-y="1800" 
d="M781 553l-330 -474h-293l334 474l-185 472h293zM1114 553l-328 -474h-294l333 474l-184 472h292z" />
    <glyph glyph-name="questiondown" unicode="&#xbf;" horiz-adv-x="1253" vert-adv-y="2275" 
d="M771 822q-59 0 -98 29.5t-51 67.5t-6 76q10 62 66.5 118t143.5 56q86 0 125.5 -56.5t29.5 -117.5t-67 -117t-143 -56zM549 -422q-126 0 -221.5 38t-149.5 102t-75 145t-7 171q19 116 87 212.5t187 189.5q10 8 34.5 26t45 33.5t37.5 30.5q63 52 83 94q7 16 10 39l21 131
h322l-21 -131q-9 -55 -32 -104t-63.5 -93.5t-70.5 -72t-83 -70.5q-11 -8 -80 -64q-30 -25 -68 -65q-68 -75 -80 -151q-14 -88 25.5 -142t140.5 -54q103 0 164.5 63.5t76.5 156.5q4 26 6.5 74.5t4.5 67.5l3 24h328l-2 -22q-2 -18 -6.5 -69t-8.5 -79q-14 -89 -61.5 -173
t-122.5 -153.5t-186 -112t-238 -42.5z" />
    <glyph glyph-name="Agrave" unicode="&#xc0;" horiz-adv-x="1835" vert-adv-y="2275" 
d="M1308 2033l131 -499h-324l-161 499h354zM680 375l-223 -375h-347l915 1508h266l434 -1508h-350l-105 375h-590zM1192 645l-111 395l-238 -395h349z" />
    <glyph glyph-name="Aacute" unicode="&#xc1;" horiz-adv-x="1835" vert-adv-y="2275" 
d="M1525 2033l-319 -499h-323l290 499h352zM680 375l-223 -375h-347l915 1508h266l434 -1508h-350l-105 375h-590zM1192 645l-111 395l-238 -395h349z" />
    <glyph glyph-name="Acircumflex" unicode="&#xc2;" horiz-adv-x="1835" vert-adv-y="2275" 
d="M1511 1471l-333 174l-389 -174l49 307l387 175l335 -175zM680 375l-223 -375h-347l915 1508h266l434 -1508h-350l-105 375h-590zM1192 645l-111 395l-238 -395h349z" />
    <glyph glyph-name="Atilde" unicode="&#xc3;" horiz-adv-x="1835" vert-adv-y="2275" 
d="M1299 1622q-75 0 -159 40q-42 20 -53 24l-9 4q-8 -24 -16 -44l-8 -18h-311l9 26q6 18 22 76q30 97 115.5 165t214.5 68q73 0 161 -41q12 -5 31 -13.5t25 -11.5l7 -3q0 1 1 3t1 4q9 30 13 39l8 18h306l-21 -81q-13 -49 -38.5 -92t-65 -81t-100 -60t-133.5 -22zM680 375
l-223 -375h-347l915 1508h266l434 -1508h-350l-105 375h-590zM1192 645l-111 395l-238 -395h349z" />
    <glyph glyph-name="Adieresis" unicode="&#xc4;" horiz-adv-x="1835" vert-adv-y="2275" 
d="M975 1564q-89 0 -134 51t-34 116q11 66 71 117t150 51q89 0 133 -51.5t33 -116.5q-10 -63 -71 -115t-148 -52zM1373 1564q-90 0 -134.5 51t-33.5 116q11 66 71 117t150 51q89 0 133 -51.5t33 -116.5q-10 -64 -70.5 -115.5t-148.5 -51.5zM680 375l-223 -375h-347l915 1508
h266l434 -1508h-350l-105 375h-590zM1192 645l-111 395l-238 -395h349z" />
    <glyph glyph-name="Aring" unicode="&#xc5;" horiz-adv-x="1835" vert-adv-y="2275" 
d="M1169 1552q-56 0 -111 23q-64 29 -91 86t-17 118q13 87 93.5 157t197.5 70q56 0 111 -25q64 -29 90.5 -85t16.5 -117q-14 -87 -93 -157t-197 -70zM1198 1734q8 0 15 11q10 12 14 34q2 23 -3 33q-3 11 -12 11q-8 0 -16 -10q-10 -16 -13 -34q-3 -16 2 -34q5 -11 13 -11z
M680 375l-223 -375h-347l915 1508h266l434 -1508h-350l-105 375h-590zM1192 645l-111 395l-238 -395h349z" />
    <glyph glyph-name="AE" unicode="&#xc6;" horiz-adv-x="2957" vert-adv-y="2275" 
d="M722 442l-265 -442h-347l915 1508h1157l-43 -271h-819l-54 -338h690l-43 -271h-690l-56 -358h819l-43 -270h-1142l70 442h-149zM906 680l29 187l-101 -187h72z" />
    <glyph glyph-name="Ccedilla" unicode="&#xc7;" horiz-adv-x="1808" vert-adv-y="2275" 
d="M776 -534q-59 0 -107.5 17.5t-75 37.5t-65.5 58l-11 11l132 156q5 -4 30.5 -16.5t51.5 -25t29 -13.5q32 -16 58 -16q6 0 20.5 14t16.5 27q2 14 -1 28l-2 7q-7 -1 -13 -1l-4 -3q-7 -7 -10 -11l-11 -16l-16 -23l-200 82l123 213q-90 19 -165 55t-128.5 82.5t-95.5 103.5
t-65 120t-37 130.5t-12 135.5t11 135q15 94 50.5 186.5t93 183t144.5 170.5t195 135q211 107 441 107q266 0 436.5 -123t224.5 -321q24 -85 22 -178l-2 -46h-318l-3 17q-6 35 -13 82q-7 46 -19 78q-41 104 -136 165t-234 61q-96 0 -189 -36q-82 -31 -149 -85t-110 -120
t-70 -135t-38 -141q-13 -66 -6 -139t28 -137t70.5 -119t120.5 -86q83 -34 180 -34q177 0 305.5 91.5t192.5 236.5q4 9 10.5 27.5t10.5 27.5l7 18h325l-14 -46q-29 -91 -74 -169q-105 -185 -294 -307.5t-435 -141.5l-3 -6q61 -17 100.5 -57t52.5 -87.5t5 -97.5
q-17 -108 -117.5 -185t-243.5 -77z" />
    <glyph glyph-name="Egrave" unicode="&#xc8;" horiz-adv-x="1361" vert-adv-y="2275" 
d="M1070 2033l132 -499h-325l-158 499h351zM1295 270l-43 -270h-1142l239 1508h1142l-43 -271h-821l-54 -338h690l-43 -271h-690l-56 -358h821z" />
    <glyph glyph-name="Eacute" unicode="&#xc9;" horiz-adv-x="1361" vert-adv-y="2275" 
d="M1288 2033l-319 -499h-323l289 499h353zM1295 270l-43 -270h-1142l239 1508h1142l-43 -271h-821l-54 -338h690l-43 -271h-690l-56 -358h821z" />
    <glyph glyph-name="Ecircumflex" unicode="&#xca;" horiz-adv-x="1361" vert-adv-y="2275" 
d="M1295 270l-43 -270h-1142l239 1508h210l43 270l386 175l336 -175l-43 -270h210l-43 -271h-821l-54 -338h690l-43 -271h-690l-56 -358h821zM1205 1508l-264 137l-306 -137h570z" />
    <glyph glyph-name="Edieresis" unicode="&#xcb;" horiz-adv-x="1361" vert-adv-y="2275" 
d="M740 1549q-89 0 -133.5 50.5t-33.5 116.5q10 65 70 116.5t150 51.5q89 0 133 -52t34 -116q-11 -64 -72.5 -115.5t-147.5 -51.5zM1138 1549q-89 0 -134 50.5t-34 116.5q10 65 70.5 116.5t150.5 51.5q89 0 133 -52t34 -116q-11 -65 -71.5 -116t-148.5 -51zM1295 270
l-43 -270h-1142l239 1508h1142l-43 -271h-821l-54 -338h690l-43 -271h-690l-56 -358h821z" />
    <glyph glyph-name="Igrave" unicode="&#xcc;" horiz-adv-x="858" vert-adv-y="2275" 
d="M818 2033l133 -499h-324l-161 499h352zM790 264l-42 -264h-638l42 264h156l155 979h-156l42 265h638l-42 -265h-157l-155 -979h157z" />
    <glyph glyph-name="Iacute" unicode="&#xcd;" horiz-adv-x="858" vert-adv-y="2275" 
d="M1036 2033l-316 -499h-326l291 499h351zM790 264l-42 -264h-638l42 264h156l155 979h-156l42 265h638l-42 -265h-157l-155 -979h157z" />
    <glyph glyph-name="Icircumflex" unicode="&#xce;" horiz-adv-x="853" vert-adv-y="2275" 
d="M787 264l-42 -264h-636l42 264h156l155 979h-156l39 249l-46 -21l49 307l386 175l336 -175l-49 -307l-40 21l-39 -249h-157l-155 -979h157zM951 1508l-262 137l-308 -137h570z" />
    <glyph glyph-name="Idieresis" unicode="&#xcf;" horiz-adv-x="854" vert-adv-y="2275" 
d="M481 1564q-89 0 -134 51t-34 116q11 66 71 117t150 51q89 0 133 -51.5t33 -116.5q-10 -63 -71 -115t-148 -52zM879 1564q-89 0 -134 51t-34 116q11 66 71 117t150 51q89 0 133 -51.5t33 -116.5q-10 -64 -70.5 -115.5t-148.5 -51.5zM788 264l-42 -264h-638l42 264h157
l155 979h-157l42 265h638l-42 -265h-158l-155 -979h158z" />
    <glyph glyph-name="Ntilde" unicode="&#xd1;" horiz-adv-x="1533" vert-adv-y="2275" 
d="M1148 1622q-75 0 -159 40q-38 18 -54 25l-7 2q-1 -1 -1 -2t-0.5 -1.5t-0.5 -1.5l-13 -36l-7 -20h-311l23 80q14 49 38.5 92t64 81t99.5 60t134 22q69 0 160 -41l62 -28l3 8q5 22 13 38l8 18h309l-8 -26l-23 -77q-29 -96 -115.5 -164.5t-214.5 -68.5zM581 947l-150 -947
h-321l239 1508h283l558 -948l150 948h321l-239 -1508h-283z" />
    <glyph glyph-name="Ograve" unicode="&#xd2;" horiz-adv-x="1865" vert-adv-y="2275" 
d="M928 -26q-91 0 -173 15t-147.5 42t-122 65t-98 84t-74.5 99.5t-52 111.5t-31 118.5t-10.5 122t9.5 122.5q17 108 63.5 214.5t125 206t180.5 177.5t240 127.5t292 55.5l-160 498h354l129 -499h-208q93 -6 175 -29t145.5 -58.5t116.5 -82.5t88.5 -102.5t62 -117.5
t37 -126.5t13 -131.5t-9.5 -132q-17 -111 -65.5 -220.5t-131 -211t-189 -178.5t-251.5 -123.5t-308 -46.5zM970 239q100 0 188 30.5t152.5 81.5t115 118t79.5 139t41 146q14 68 6 141t-30.5 136.5t-75 117.5t-126.5 85q-88 37 -187 37q-93 0 -196 -37q-111 -39 -195 -120.5
t-128 -172t-59 -187.5t0 -187.5t73.5 -171.5t156.5 -121q86 -35 185 -35z" />
    <glyph glyph-name="Oacute" unicode="&#xd3;" horiz-adv-x="1865" vert-adv-y="2275" 
d="M1540 2033l-300 -471h-328l276 471h352zM928 -26q-91 0 -173 15t-147.5 42t-122 65t-98 84t-74.5 99.5t-52 111.5t-31 118.5t-10.5 122t9.5 122.5q17 106 62 211t122 203.5t175.5 176t232.5 128.5t284 61l118 1q96 -4 181 -25.5t150 -56.5t120 -82.5t92 -103t64.5 -118
t38.5 -128.5t14 -133.5t-10 -133.5q-17 -111 -65.5 -220.5t-131 -211t-189 -178.5t-251.5 -123.5t-308 -46.5zM970 239q100 0 188 30.5t152.5 81.5t115 118t79.5 139t41 146q14 68 6 141t-30.5 136.5t-75 117.5t-126.5 85q-88 37 -187 37q-93 0 -196 -37
q-111 -39 -195 -120.5t-128 -172t-59 -187.5t0 -187.5t73.5 -171.5t156.5 -121q86 -35 185 -35z" />
    <glyph glyph-name="Ocircumflex" unicode="&#xd4;" horiz-adv-x="1865" vert-adv-y="2275" 
d="M1527 1471l-334 174l-388 -174l49 307l387 175l335 -175zM928 -26q-91 0 -173 15t-147.5 42t-122 65t-98 84t-74.5 99.5t-52 111.5t-31 118.5t-10.5 122t9.5 122.5q18 111 66.5 220.5t131 211t189.5 179.5t252 124.5t307 46.5q103 0 193.5 -18.5t160.5 -52.5t129 -81
t98.5 -103t69.5 -120t41.5 -131.5t15 -137.5t-9.5 -138q-17 -111 -65.5 -220.5t-131 -211t-189 -178.5t-251.5 -123.5t-308 -46.5zM970 239q100 0 188 30.5t152.5 81.5t115 118t79.5 139t41 146q14 68 6 141t-30.5 136.5t-75 117.5t-126.5 85q-88 37 -187 37q-93 0 -196 -37
q-111 -39 -195 -120.5t-128 -172t-59 -187.5t0 -187.5t73.5 -171.5t156.5 -121q86 -35 185 -35z" />
    <glyph glyph-name="Otilde" unicode="&#xd5;" horiz-adv-x="1865" vert-adv-y="2275" 
d="M1313 1622q-74 0 -158 40q-45 21 -54 25l-9 3q-2 -4 -2 -7q-2 -7 -7 -19.5t-6 -17.5l-9 -18h-310l8 26q4 12 11.5 37.5t11.5 38.5q30 97 116 165t215 68q69 0 160 -41q28 -11 55 -25l7 -3q-1 2 1 6l10 37l5 21h312l-5 -24q-7 -37 -20 -79q-29 -96 -116.5 -164.5
t-215.5 -68.5zM928 -26q-91 0 -173 15t-147.5 42t-122 65t-98 84t-74.5 99.5t-52 111.5t-31 118.5t-10.5 122t9.5 122.5q18 111 66.5 220.5t131 211t189.5 179.5t252 124.5t307 46.5q103 0 193.5 -18.5t160.5 -52.5t129 -81t98.5 -103t69.5 -120t41.5 -131.5t15 -137.5
t-9.5 -138q-17 -111 -65.5 -220.5t-131 -211t-189 -178.5t-251.5 -123.5t-308 -46.5zM970 239q100 0 188 30.5t152.5 81.5t115 118t79.5 139t41 146q14 68 6 141t-30.5 136.5t-75 117.5t-126.5 85q-88 37 -187 37q-93 0 -196 -37q-111 -39 -195 -120.5t-128 -172t-59 -187.5
t0 -187.5t73.5 -171.5t156.5 -121q86 -35 185 -35z" />
    <glyph glyph-name="Odieresis" unicode="&#xd6;" horiz-adv-x="1865" vert-adv-y="2275" 
d="M967 1564q-89 0 -133 51t-34 116q11 66 70.5 117t149.5 51q89 0 133 -51.5t33 -116.5q-10 -64 -70.5 -115.5t-148.5 -51.5zM1365 1564q-90 0 -135 51t-34 116q11 66 71.5 117t150.5 51q89 0 133 -51.5t33 -116.5q-10 -64 -70.5 -115.5t-148.5 -51.5zM928 -26
q-91 0 -173 15t-147.5 42t-122 65t-98 84t-74.5 99.5t-52 111.5t-31 118.5t-10.5 122t9.5 122.5q18 111 66.5 220.5t131 211t189.5 179.5t252 124.5t307 46.5q103 0 193.5 -18.5t160.5 -52.5t129 -81t98.5 -103t69.5 -120t41.5 -131.5t15 -137.5t-9.5 -138
q-17 -111 -65.5 -220.5t-131 -211t-189 -178.5t-251.5 -123.5t-308 -46.5zM970 239q100 0 188 30.5t152.5 81.5t115 118t79.5 139t41 146q14 68 6 141t-30.5 136.5t-75 117.5t-126.5 85q-88 37 -187 37q-93 0 -196 -37q-111 -39 -195 -120.5t-128 -172t-59 -187.5t0 -187.5
t73.5 -171.5t156.5 -121q86 -35 185 -35z" />
    <glyph glyph-name="multiply" unicode="&#xd7;" horiz-adv-x="1459" vert-adv-y="2275" 
d="M1098 13l-311 346l-427 -350l-178 204l422 349l-312 350l244 203l315 -352l421 349l182 -202l-423 -348l313 -347z" />
    <glyph glyph-name="Oslash" unicode="&#xd8;" horiz-adv-x="1865" vert-adv-y="2275" 
d="M771 -15l-158 -271l-278 110l157 268q-168 110 -230.5 289t-32.5 373q18 111 66.5 220.5t131 211t189.5 179.5t252 124.5t307 46.5q85 0 157 -13l150 258l282 -103l-153 -261q166 -109 229.5 -290t32.5 -373q-17 -111 -65.5 -220.5t-131 -211t-189 -178.5t-251.5 -123.5
t-308 -46.5q-88 0 -157 11zM652 364l532 904q-26 3 -51 3q-96 0 -195 -36q-111 -39 -195.5 -121t-128.5 -172.5t-59 -187.5q-17 -109 6 -212t91 -178zM970 239q100 0 188 30.5t152.5 81.5t115 118t79.5 139t41 146q18 110 -4 213t-91 178l-530 -904q32 -2 49 -2z" />
    <glyph glyph-name="Ugrave" unicode="&#xd9;" horiz-adv-x="1534" vert-adv-y="2275" 
d="M1156 2033l132 -499h-323l-160 499h351zM762 -26q-106 0 -192.5 21t-147 57t-105 87.5t-69.5 109.5t-37 125t-11 132.5t12 134.5l137 867h322l-140 -885q-8 -46 -7.5 -90t8.5 -88t29 -80.5t52.5 -65t80 -44.5t110.5 -16q74 0 136.5 23t105.5 60.5t75.5 88.5t51 103
t27.5 109l140 885h322l-137 -867q-16 -98 -49 -188t-95 -179t-145 -154t-205.5 -105.5t-268.5 -40.5z" />
    <glyph glyph-name="Uacute" unicode="&#xda;" horiz-adv-x="1534" vert-adv-y="2275" 
d="M1374 2033l-318 -499h-324l289 499h353zM762 -26q-106 0 -192.5 21t-147 57t-105 87.5t-69.5 109.5t-37 125t-11 132.5t12 134.5l137 867h322l-140 -885q-8 -46 -7.5 -90t8.5 -88t29 -80.5t52.5 -65t80 -44.5t110.5 -16q74 0 136.5 23t105.5 60.5t75.5 88.5t51 103
t27.5 109l140 885h322l-137 -867q-16 -98 -49 -188t-95 -179t-145 -154t-205.5 -105.5t-268.5 -40.5z" />
    <glyph glyph-name="Ucircumflex" unicode="&#xdb;" horiz-adv-x="1534" vert-adv-y="2275" 
d="M1354 1546l-334 173l-388 -173l48 305l389 176l333 -176zM762 -26q-106 0 -192.5 21t-147 57t-105 87.5t-69.5 109.5t-37 125t-11 132.5t12 134.5l137 867h322l-140 -885q-8 -46 -7.5 -90t8.5 -88t29 -80.5t52.5 -65t80 -44.5t110.5 -16q74 0 136.5 23t105.5 60.5
t75.5 88.5t51 103t27.5 109l140 885h322l-137 -867q-16 -98 -49 -188t-95 -179t-145 -154t-205.5 -105.5t-268.5 -40.5z" />
    <glyph glyph-name="Udieresis" unicode="&#xdc;" horiz-adv-x="1534" vert-adv-y="2275" 
d="M818 1564q-90 0 -134.5 51t-33.5 116q11 66 71 117t150 51q89 0 133 -51.5t33 -116.5q-10 -63 -71 -115t-148 -52zM1216 1564q-90 0 -135 51t-34 116q11 66 71.5 117t150.5 51q89 0 133 -51.5t33 -116.5q-10 -64 -70.5 -115.5t-148.5 -51.5zM762 -26q-106 0 -192.5 21
t-147 57t-105 87.5t-69.5 109.5t-37 125t-11 132.5t12 134.5l137 867h322l-140 -885q-8 -46 -7.5 -90t8.5 -88t29 -80.5t52.5 -65t80 -44.5t110.5 -16q74 0 136.5 23t105.5 60.5t75.5 88.5t51 103t27.5 109l140 885h322l-137 -867q-16 -98 -49 -188t-95 -179t-145 -154
t-205.5 -105.5t-268.5 -40.5z" />
    <glyph glyph-name="Yacute" unicode="&#xdd;" horiz-adv-x="1891" vert-adv-y="2275" 
d="M1553 2033l-318 -499h-325l290 499h353zM1220 719l-114 -719h-322l115 724l-550 784h402l353 -514l520 514h397z" />
    <glyph glyph-name="germandbls" unicode="&#xdf;" horiz-adv-x="1387" vert-adv-y="2275" 
d="M650 633l-161 -1013h-317l224 1470q0 3 9 37q34 85 67 135q82 122 223.5 198t310.5 76q131 0 231 -36t158.5 -98.5t82 -145.5t8.5 -178q-29 -182 -189 -297q74 -60 101 -144.5t13 -178.5q-16 -99 -65.5 -185.5t-128.5 -153.5t-194.5 -106t-253.5 -39h-115l42 265h115
q238 0 273 219q14 91 -45 133t-186 42h-203zM725 1094l-2 -2l-30 -187h188q116 0 191.5 45t88.5 128q15 95 -32.5 144t-166.5 49q-116 0 -182 -78q-27 -31 -55 -99z" />
    <glyph glyph-name="agrave" unicode="&#xe0;" horiz-adv-x="1290" vert-adv-y="2275" 
d="M978 1671l130 -500h-323l-159 500h352z" />
    <glyph glyph-name="aacute" unicode="&#xe1;" horiz-adv-x="1290" vert-adv-y="2275" 
d="M1196 1671l-319 -500h-325l290 500h354zM587 -23q-225 0 -336.5 101.5t-84.5 272.5q26 166 153 260t322 111q34 3 107 7l230 14q3 73 -37.5 107.5t-138.5 34.5q-99 0 -149.5 -33t-69.5 -103h-318q42 178 190 287t388 109q130 0 226 -34.5t148 -96t71 -140.5t4 -173
l-111 -701h-320l4 25q-128 -48 -278 -48zM629 239q128 0 208.5 60t96.5 161l4 24q-113 -5 -178 -10q-162 -12 -197 -25q-66 -26 -77 -98q-10 -60 24.5 -86t118.5 -26z" />
    <glyph glyph-name="acircumflex" unicode="&#xe2;" horiz-adv-x="1290" vert-adv-y="2275" 
d="M1182 1109l-333 175l-390 -176l49 306l390 178l332 -178zM587 -23q-225 0 -336.5 101.5t-84.5 272.5q26 166 153 260t322 111q34 3 107 7l230 14q3 73 -37.5 107.5t-138.5 34.5q-99 0 -149.5 -33t-69.5 -103h-318q42 178 190 287t388 109q130 0 226 -34.5t148 -96
t71 -140.5t4 -173l-111 -701h-320l4 25q-128 -48 -278 -48zM629 239q128 0 208.5 60t96.5 161l4 24q-113 -5 -178 -10q-162 -12 -197 -25q-66 -26 -77 -98q-10 -60 24.5 -86t118.5 -26z" />
    <glyph glyph-name="atilde" unicode="&#xe3;" horiz-adv-x="1290" vert-adv-y="2275" 
d="M969 1260q-73 0 -159 40q-8 3 -26 12t-28 13l-10 4q0 -5 -2 -7q-10 -31 -13 -38l-7 -18h-311l32 102q30 98 114 165t215 67q74 0 162 -40q11 -5 29.5 -14t25.5 -12l6 -3q1 3 3 8t3 7q6 13 18 32l8 16h298l-5 -24q-4 -18 -23 -77q-29 -97 -115 -165t-215 -68zM587 -23
q-225 0 -336.5 101.5t-84.5 272.5q26 166 153 260t322 111q34 3 107 7l230 14q3 73 -37.5 107.5t-138.5 34.5q-99 0 -149.5 -33t-69.5 -103h-318q42 178 190 287t388 109q130 0 226 -34.5t148 -96t71 -140.5t4 -173l-111 -701h-320l4 25q-128 -48 -278 -48zM629 239
q128 0 208.5 60t96.5 161l4 24q-113 -5 -178 -10q-162 -12 -197 -25q-66 -26 -77 -98q-10 -60 24.5 -86t118.5 -26z" />
    <glyph glyph-name="adieresis" unicode="&#xe4;" horiz-adv-x="1290" vert-adv-y="2275" 
d="M640 1207q-89 0 -133.5 51.5t-33.5 116.5q10 65 70.5 116.5t149.5 51.5t133.5 -52t34.5 -116q-11 -64 -72 -116t-149 -52zM1038 1207q-89 0 -133.5 51.5t-33.5 116.5q10 65 70.5 116.5t149.5 51.5t133 -52t34 -116q-11 -65 -71 -116.5t-149 -51.5zM587 -23
q-225 0 -336.5 101.5t-84.5 272.5q26 166 153 260t322 111q34 3 107 7l230 14q3 73 -37.5 107.5t-138.5 34.5q-99 0 -149.5 -33t-69.5 -103h-318q42 178 190 287t388 109q130 0 226 -34.5t148 -96t71 -140.5t4 -173l-111 -701h-320l4 25q-128 -48 -278 -48zM629 239
q128 0 208.5 60t96.5 161l4 24q-113 -5 -178 -10q-162 -12 -197 -25q-66 -26 -77 -98q-10 -60 24.5 -86t118.5 -26z" />
    <glyph glyph-name="aring" unicode="&#xe5;" horiz-adv-x="1290" vert-adv-y="2275" 
d="M845 1198q-62 0 -111 23q-65 28 -92 84.5t-17 118.5q13 86 93.5 156t197.5 70q54 0 111 -24q64 -29 90.5 -85t16.5 -117q-14 -87 -92.5 -156.5t-196.5 -69.5zM873 1379q7 0 15 11q11 16 15 34q2 17 -3 33q-5 10 -13 10t-16 -10q-10 -13 -12 -33q-3 -19 1 -34
q6 -11 13 -11zM587 -23q-225 0 -336.5 101.5t-84.5 272.5q26 166 153 260t322 111q34 3 107 7l230 14q3 73 -37.5 107.5t-138.5 34.5q-99 0 -149.5 -33t-69.5 -103h-318q42 178 190 287t388 109q130 0 226 -34.5t148 -96t71 -140.5t4 -173l-111 -701h-320l4 25
q-128 -48 -278 -48zM629 239q128 0 208.5 60t96.5 161l4 24q-113 -5 -178 -10q-162 -12 -197 -25q-66 -26 -77 -98q-10 -60 24.5 -86t118.5 -26z" />
    <glyph glyph-name="ae" unicode="&#xe6;" horiz-adv-x="2457" vert-adv-y="2275" 
d="M587 -23q-225 0 -336.5 101.5t-84.5 272.5q26 166 153 260t322 111q34 3 107 7l230 14q3 73 -37.5 107.5t-138.5 34.5q-99 0 -149.5 -33t-69.5 -103h-318q42 178 190 287t388 109q233 0 352 -109v1q18 -16 30 -31q192 139 428 139q86 0 161.5 -18.5t130.5 -51t100.5 -77
t72 -96.5t44.5 -109t19 -115.5t-6 -115.5l-24 -96l-6 -21h-36l41 -11l-14 -22l-37 -64q-46 -77 -106 -141t-137.5 -117t-177 -83t-210.5 -30q-159 0 -280 66l-7 -43h-320l4 25q-128 -48 -278 -48zM1323 711h526q-22 76 -82.5 124t-154.5 48q-95 0 -169 -47.5t-120 -124.5z
M629 239q128 0 208.5 60t96.5 161l4 24q-113 -5 -178 -10q-162 -12 -197 -25q-66 -26 -77 -98q-10 -60 24.5 -86t118.5 -26zM1510 241q201 0 307 204h-550q15 -89 76.5 -146.5t166.5 -57.5z" />
    <glyph glyph-name="ccedilla" unicode="&#xe7;" horiz-adv-x="1430" vert-adv-y="2275" 
d="M566 -534q-59 0 -107.5 17.5t-75 37.5t-65.5 58l-11 11l132 156q5 -4 30.5 -16.5t51.5 -25t29 -13.5q32 -16 58 -16q6 0 20.5 14t16.5 27q2 14 -1 28l-2 7q-7 -1 -13 -1l-4 -3q-7 -7 -10 -11l-11 -16l-16 -23l-200 82l131 226q-65 21 -119 57t-90.5 80t-63.5 96.5
t-38.5 106.5t-15 110t6.5 107q13 79 48 159t96 156.5t139 136t184.5 95.5t224.5 36q181 0 303 -82.5t173 -214.5q36 -87 43 -224l2 -27h-329v20q-2 166 -106 229q-60 37 -127 37q-68 0 -140 -37q-79 -40 -128.5 -120t-62.5 -164q-13 -83 11 -164t90 -120q61 -36 128 -36
q71 0 140 36q62 31 101 85t71 129l14 33h327l-35 -86q-26 -64 -62.5 -123t-90 -117.5t-116.5 -102.5t-145.5 -75t-174.5 -40h-2l-6 -11q61 -17 100.5 -57t52.5 -87.5t5 -97.5q-17 -108 -117.5 -185t-243.5 -77z" />
    <glyph glyph-name="egrave" unicode="&#xe8;" horiz-adv-x="1448" vert-adv-y="2275" 
d="M1056 1671l132 -500h-325l-159 500h352zM720 -23q-86 0 -161 18.5t-130.5 51t-100.5 77.5t-72 97t-44.5 109.5t-18.5 116t6 115.5q13 81 49 162t98.5 157t142.5 134.5t188 94t228 35.5q86 0 161.5 -18.5t130.5 -51t100.5 -77t72 -96.5t44.5 -109t19 -115.5t-6 -115.5
q-7 -42 -26 -97l-8 -20h-875q15 -89 77 -146.5t167 -57.5q154 0 262 133q10 11 28 40l297 -72q-30 -51 -73 -104q-99 -118 -243 -189.5t-313 -71.5zM574 711h526q-22 77 -81.5 124.5t-154.5 47.5t-169 -47.5t-121 -124.5z" />
    <glyph glyph-name="eacute" unicode="&#xe9;" horiz-adv-x="1448" vert-adv-y="2275" 
d="M1275 1671l-320 -500h-324l292 500h352zM720 -23q-86 0 -161 18.5t-130.5 51t-100.5 77.5t-72 97t-44.5 109.5t-18.5 116t6 115.5q13 81 49 162t98.5 157t142.5 134.5t188 94t228 35.5q86 0 161.5 -18.5t130.5 -51t100.5 -77t72 -96.5t44.5 -109t19 -115.5t-6 -115.5
q-7 -42 -26 -97l-8 -20h-875q15 -89 77 -146.5t167 -57.5q154 0 262 133q10 11 28 40l297 -72q-30 -51 -73 -104q-99 -118 -243 -189.5t-313 -71.5zM574 711h526q-22 77 -81.5 124.5t-154.5 47.5t-169 -47.5t-121 -124.5z" />
    <glyph glyph-name="ecircumflex" unicode="&#xea;" horiz-adv-x="1448" vert-adv-y="2275" 
d="M1262 1109l-335 175l-389 -176l49 306l389 178l334 -178zM720 -23q-86 0 -161 18.5t-130.5 51t-100.5 77.5t-72 97t-44.5 109.5t-18.5 116t6 115.5q13 81 49 162t98.5 157t142.5 134.5t188 94t228 35.5q86 0 161.5 -18.5t130.5 -51t100.5 -77t72 -96.5t44.5 -109
t19 -115.5t-6 -115.5q-7 -42 -26 -97l-8 -20h-875q15 -89 77 -146.5t167 -57.5q154 0 262 133q10 11 28 40l297 -72q-30 -51 -73 -104q-99 -118 -243 -189.5t-313 -71.5zM574 711h526q-22 77 -81.5 124.5t-154.5 47.5t-169 -47.5t-121 -124.5z" />
    <glyph glyph-name="edieresis" unicode="&#xeb;" horiz-adv-x="1448" vert-adv-y="2275" 
d="M718 1209q-89 0 -133 51t-33 116q11 66 71 117.5t149 51.5t133 -52t34 -117q-10 -63 -71.5 -115t-149.5 -52zM1116 1209q-89 0 -133.5 51t-33.5 116q11 66 71.5 117.5t149.5 51.5t132.5 -52t33.5 -117q-10 -64 -70.5 -115.5t-149.5 -51.5zM720 -23q-86 0 -161 18.5
t-130.5 51t-100.5 77.5t-72 97t-44.5 109.5t-18.5 116t6 115.5q13 81 49 162t98.5 157t142.5 134.5t188 94t228 35.5q86 0 161.5 -18.5t130.5 -51t100.5 -77t72 -96.5t44.5 -109t19 -115.5t-6 -115.5q-7 -42 -26 -97l-8 -20h-875q15 -89 77 -146.5t167 -57.5q154 0 262 133
q10 11 28 40l297 -72q-30 -51 -73 -104q-99 -118 -243 -189.5t-313 -71.5zM574 711h526q-22 77 -81.5 124.5t-154.5 47.5t-169 -47.5t-121 -124.5z" />
    <glyph glyph-name="igrave" unicode="&#xec;" horiz-adv-x="692" vert-adv-y="2275" 
d="M683 1671l129 -500h-323l-159 500h353zM689 1145l-181 -1145h-319l181 1145h319z" />
    <glyph glyph-name="iacute" unicode="&#xed;" horiz-adv-x="692" vert-adv-y="2275" 
d="M892 1671l-318 -500h-324l291 500h351zM682 1145l-181 -1145h-319l181 1145h319z" />
    <glyph glyph-name="icircumflex" unicode="&#xee;" horiz-adv-x="581" vert-adv-y="2275" 
d="M828 1109l-334 175l-389 -175l48 305l388 178l335 -178zM630 1145l-181 -1145h-319l181 1145h319z" />
    <glyph glyph-name="idieresis" unicode="&#xef;" horiz-adv-x="585" vert-adv-y="2275" 
d="M347 1193q-87 0 -131 49.5t-33 112.5q10 63 69.5 114t146.5 51q82 0 127 -47q62 47 143 47q87 0 130.5 -51t33.5 -114q-11 -63 -71 -112.5t-145 -49.5q-82 0 -128 46q-60 -46 -142 -46zM632 1145l-181 -1145h-320l181 1145h320z" />
    <glyph glyph-name="ntilde" unicode="&#xf1;" vert-adv-y="2275" 
d="M952 1260q-73 0 -159 40q-8 3 -26 12t-28 13l-9 4l-14 -44l-7 -19h-314l32 102q30 97 115 164.5t215 67.5q74 0 162 -40q11 -5 29.5 -14t25.5 -12l6 -3q16 44 17 45l7 18h306l-6 -25l-22 -76q-26 -96 -113.5 -164.5t-216.5 -68.5zM540 704l-112 -704h-318l181 1145h318
l-3 -24q95 24 203 24q126 0 217 -30.5t154 -102.5q108 -125 77 -315l-110 -697h-319l106 672q9 64 3 111.5t-47.5 74.5t-121.5 27q-104 0 -157 -45q-26 -22 -46 -62t-25 -74z" />
    <glyph glyph-name="ograve" unicode="&#xf2;" horiz-adv-x="1419" vert-adv-y="2275" 
d="M1042 1671l131 -500h-324l-160 500h353zM706 -23q-85 0 -159 19t-128 52t-97.5 78t-69 97.5t-42.5 110t-17.5 115t6.5 113.5q13 79 48 159t96 156.5t139 136t184.5 95.5t224.5 36q85 0 159 -19t127.5 -52t97.5 -78t69.5 -97t42.5 -109.5t17.5 -115t-6.5 -112.5
q-13 -79 -48 -159.5t-96 -157t-139 -136t-184.5 -96t-224.5 -36.5zM748 241q67 0 139 36q80 41 129 120.5t62 164.5q13 84 -11 165t-90 120q-57 36 -127 36q-68 0 -140 -37q-79 -40 -128.5 -120t-62.5 -164q-13 -87 10.5 -165t91.5 -120q59 -36 127 -36z" />
    <glyph glyph-name="oacute" unicode="&#xf3;" horiz-adv-x="1419" vert-adv-y="2275" 
d="M1260 1671l-318 -500h-324l290 500h352zM706 -23q-85 0 -159 19t-128 52t-97.5 78t-69 97.5t-42.5 110t-17.5 115t6.5 113.5q13 79 48 159t96 156.5t139 136t184.5 95.5t224.5 36q85 0 159 -19t127.5 -52t97.5 -78t69.5 -97t42.5 -109.5t17.5 -115t-6.5 -112.5
q-13 -79 -48 -159.5t-96 -157t-139 -136t-184.5 -96t-224.5 -36.5zM748 241q67 0 139 36q80 41 129 120.5t62 164.5q13 84 -11 165t-90 120q-57 36 -127 36q-68 0 -140 -37q-79 -40 -128.5 -120t-62.5 -164q-13 -87 10.5 -165t91.5 -120q59 -36 127 -36z" />
    <glyph glyph-name="ocircumflex" unicode="&#xf4;" horiz-adv-x="1419" vert-adv-y="2275" 
d="M1248 1109l-335 175l-389 -176l49 306l389 178l334 -178zM706 -23q-85 0 -159 19t-128 52t-97.5 78t-69 97.5t-42.5 110t-17.5 115t6.5 113.5q13 79 48 159t96 156.5t139 136t184.5 95.5t224.5 36q85 0 159 -19t127.5 -52t97.5 -78t69.5 -97t42.5 -109.5t17.5 -115
t-6.5 -112.5q-13 -79 -48 -159.5t-96 -157t-139 -136t-184.5 -96t-224.5 -36.5zM748 241q67 0 139 36q80 41 129 120.5t62 164.5q13 84 -11 165t-90 120q-57 36 -127 36q-68 0 -140 -37q-79 -40 -128.5 -120t-62.5 -164q-13 -87 10.5 -165t91.5 -120q59 -36 127 -36z" />
    <glyph glyph-name="otilde" unicode="&#xf5;" horiz-adv-x="1419" vert-adv-y="2275" 
d="M1033 1260q-72 0 -158 40q-8 3 -26 12t-28 13l-9 3v-2q-1 -2 -1 -3q-9 -30 -11 -38l-8 -19h-311l5 24q5 22 22 77q27 96 114.5 164.5t215.5 68.5q74 0 162 -40q11 -5 29.5 -14t25.5 -12l7 -3l9 30l14 33h301l-12 -59q-11 -52 -35 -97.5t-63 -87t-102 -66t-141 -24.5z
M706 -23q-85 0 -159 19t-128 52t-97.5 78t-69 97.5t-42.5 110t-17.5 115t6.5 113.5q13 79 48 159t96 156.5t139 136t184.5 95.5t224.5 36q85 0 159 -19t127.5 -52t97.5 -78t69.5 -97t42.5 -109.5t17.5 -115t-6.5 -112.5q-13 -79 -48 -159.5t-96 -157t-139 -136t-184.5 -96
t-224.5 -36.5zM748 241q67 0 139 36q80 41 129 120.5t62 164.5q13 84 -11 165t-90 120q-57 36 -127 36q-68 0 -140 -37q-79 -40 -128.5 -120t-62.5 -164q-13 -87 10.5 -165t91.5 -120q59 -36 127 -36z" />
    <glyph glyph-name="odieresis" unicode="&#xf6;" horiz-adv-x="1419" vert-adv-y="2275" 
d="M700 1209q-90 0 -134.5 51t-33.5 116q11 66 71.5 117.5t150.5 51.5q88 0 132 -52.5t34 -116.5q-10 -63 -71.5 -115t-148.5 -52zM1097 1209q-89 0 -133.5 51t-33.5 116q11 66 71.5 117.5t149.5 51.5q88 0 132 -52t34 -117q-10 -64 -70.5 -115.5t-149.5 -51.5zM706 -23
q-85 0 -159 19t-128 52t-97.5 78t-69 97.5t-42.5 110t-17.5 115t6.5 113.5q13 79 48 159t96 156.5t139 136t184.5 95.5t224.5 36q85 0 159 -19t127.5 -52t97.5 -78t69.5 -97t42.5 -109.5t17.5 -115t-6.5 -112.5q-13 -79 -48 -159.5t-96 -157t-139 -136t-184.5 -96
t-224.5 -36.5zM748 241q67 0 139 36q80 41 129 120.5t62 164.5q13 84 -11 165t-90 120q-57 36 -127 36q-68 0 -140 -37q-79 -40 -128.5 -120t-62.5 -164q-13 -87 10.5 -165t91.5 -120q59 -36 127 -36z" />
    <glyph glyph-name="divide" unicode="&#xf7;" horiz-adv-x="1380" vert-adv-y="2275" 
d="M848 730h-80q-70 11 -104 58.5t-25 104.5q11 66 71 116.5t151 50.5q88 0 132.5 -51.5t33.5 -115.5q-8 -55 -57.5 -103t-121.5 -60zM1420 696l-42 -269h-1239l42 269h1239zM702 54q-91 0 -135.5 50.5t-33.5 116.5q9 57 57.5 104.5t122.5 58.5h80q69 -12 103 -60t25 -103
q-10 -64 -70.5 -115.5t-148.5 -51.5z" />
    <glyph glyph-name="oslash" unicode="&#xf8;" horiz-adv-x="1419" vert-adv-y="2275" 
d="M676 -23l-104 -211h-337l152 306q-118 84 -164 217t-24 273q13 79 48 159t96 156.5t139 136t184.5 95.5t224.5 36h25l111 223h338l-158 -315q62 -43 102 -95q61 -79 83 -186.5t6 -209.5q-13 -79 -48 -159.5t-96 -157t-139 -136t-184.5 -96t-224.5 -36.5h-30zM537 377
l246 497q-38 -9 -73 -27q-78 -38 -128 -119.5t-63 -165.5q-15 -102 18 -185zM1058 749l-249 -502q39 11 78 30q81 43 129.5 121t61.5 164q15 102 -20 187z" />
    <glyph glyph-name="ugrave" unicode="&#xf9;" vert-adv-y="2275" 
d="M961 1671l132 -500h-326l-159 500h353zM628 0q-126 0 -217.5 30.5t-153.5 103.5q-106 123 -76 315l110 696h318l-106 -672q-9 -47 -5.5 -86t19 -67t54 -44t98.5 -16q105 0 158 46q24 21 44.5 62.5t25.5 73.5l111 703h320l-181 -1145h-320l4 25q-93 -25 -203 -25z" />
    <glyph glyph-name="uacute" unicode="&#xfa;" vert-adv-y="2275" 
d="M1178 1671l-319 -500h-324l292 500h351zM628 0q-126 0 -217.5 30.5t-153.5 103.5q-106 123 -76 315l110 696h318l-106 -672q-9 -47 -5.5 -86t19 -67t54 -44t98.5 -16q105 0 158 46q24 21 44.5 62.5t25.5 73.5l111 703h320l-181 -1145h-320l4 25q-93 -25 -203 -25z" />
    <glyph glyph-name="ucircumflex" unicode="&#xfb;" vert-adv-y="2275" 
d="M628 0q-126 0 -217.5 30.5t-153.5 103.5q-106 123 -76 315l110 696h156l43 269l390 178l334 -178l-43 -269h157l-181 -1145h-320l4 25q-93 -25 -203 -25zM669 260q105 0 158 46q24 21 44.5 62.5t25.5 73.5l111 703h89l-266 139l-308 -139h86l-106 -672q-9 -47 -5.5 -86
t19 -67t54 -44t98.5 -16z" />
    <glyph glyph-name="udieresis" unicode="&#xfc;" vert-adv-y="2275" 
d="M619 1219q-90 0 -134.5 51t-33.5 116q10 65 70.5 116t150.5 51q88 0 132 -51.5t34 -115.5q-11 -64 -71.5 -115.5t-147.5 -51.5zM1015 1219q-89 0 -133 51t-33 116q10 65 69.5 116t149.5 51q89 0 133.5 -51t34.5 -116q-11 -64 -71.5 -115.5t-149.5 -51.5zM628 0
q-126 0 -217.5 30.5t-153.5 103.5q-106 123 -76 315l110 696h318l-106 -672q-9 -47 -5.5 -86t19 -67t54 -44t98.5 -16q105 0 158 46q24 21 44.5 62.5t25.5 73.5l111 703h320l-181 -1145h-320l4 25q-93 -25 -203 -25z" />
    <glyph glyph-name="yacute" unicode="&#xfd;" horiz-adv-x="1513" vert-adv-y="2275" 
d="M1307 1671l-319 -500h-324l290 500h353zM1584 1147l-942 -1555h-338l297 498l-309 1057h346l192 -680l408 680h346z" />
    <glyph glyph-name="ydieresis" unicode="&#xff;" horiz-adv-x="1513" vert-adv-y="2275" 
d="M766 1236q-89 0 -133.5 51t-34.5 116q11 66 71 117t150 51q89 0 133 -52t33 -116q-10 -64 -70.5 -115.5t-148.5 -51.5zM1164 1236q-89 0 -133.5 51t-34.5 116q11 66 71 117t150 51q89 0 133 -52t33 -116q-10 -64 -70.5 -115.5t-148.5 -51.5zM1584 1147l-942 -1555h-338
l297 498l-309 1057h346l192 -680l408 680h346z" />
    <glyph glyph-name="Amacron" unicode="&#x100;" horiz-adv-x="1835" vert-adv-y="2275" 
d="M1620 1829l-42 -263h-824l42 263h824zM680 375l-223 -375h-347l915 1508h266l434 -1508h-350l-105 375h-590zM1192 645l-111 395l-238 -395h349z" />
    <glyph glyph-name="amacron" unicode="&#x101;" horiz-adv-x="1290" vert-adv-y="2275" 
d="M1290 1469l-42 -265h-823l42 265h823zM587 -23q-225 0 -336.5 101.5t-84.5 272.5q26 166 153 260t322 111q34 3 107 7l230 14q3 73 -37.5 107.5t-138.5 34.5q-99 0 -149.5 -33t-69.5 -103h-318q42 178 190 287t388 109q130 0 226 -34.5t148 -96t71 -140.5t4 -173
l-111 -701h-320l4 25q-128 -48 -278 -48zM629 239q128 0 208.5 60t96.5 161l4 24q-113 -5 -178 -10q-162 -12 -197 -25q-66 -26 -77 -98q-10 -60 24.5 -86t118.5 -26z" />
    <glyph glyph-name="Abreve" unicode="&#x102;" horiz-adv-x="1835" vert-adv-y="2275" 
d="M1163 1556q-116 0 -193.5 45.5t-106 115.5t-15.5 154l15 92h315l-4 -23l-9 -51q-6 -40 0 -55q7 -15 40 -15q30 0 44.5 12t18.5 40l15 92h311l-15 -92q-20 -130 -131 -222.5t-285 -92.5zM680 375l-223 -375h-347l915 1508h266l434 -1508h-350l-105 375h-590zM1192 645
l-111 395l-238 -395h349z" />
    <glyph glyph-name="abreve" unicode="&#x103;" horiz-adv-x="1290" vert-adv-y="2275" 
d="M835 1195q-173 0 -255.5 92t-61.5 223l14 90h314l-11 -73q-7 -41 0 -56q8 -17 41 -17q29 0 42 12.5t18 44.5q3 13 6.5 36t4.5 30l3 23h313l-14 -90q-21 -131 -130.5 -223t-283.5 -92zM587 -23q-225 0 -336.5 101.5t-84.5 272.5q26 166 153 260t322 111q34 3 107 7l230 14
q3 73 -37.5 107.5t-138.5 34.5q-99 0 -149.5 -33t-69.5 -103h-318q42 178 190 287t388 109q130 0 226 -34.5t148 -96t71 -140.5t4 -173l-111 -701h-320l4 25q-128 -48 -278 -48zM629 239q128 0 208.5 60t96.5 161l4 24q-113 -5 -178 -10q-162 -12 -197 -25q-66 -26 -77 -98
q-10 -60 24.5 -86t118.5 -26z" />
    <glyph glyph-name="Cacute" unicode="&#x106;" horiz-adv-x="1808" vert-adv-y="2275" 
d="M906 -26q-142 0 -267 39q-76 25 -139.5 63.5t-109 85.5t-79.5 103.5t-54 116t-29.5 123.5t-9 125.5t10.5 123.5q15 93 50.5 185.5t93 184t145 172t194.5 133.5q186 92 376 105h-227l289 499h352l-318 -498q171 -5 304 -65.5t212.5 -157t113.5 -221.5q20 -72 22 -177
l-2 -46h-318l-3 17q-4 19 -8 55q-9 66 -24 105q-40 104 -135.5 165t-234.5 61q-97 0 -189 -36q-108 -41 -189 -123t-121.5 -171.5t-56.5 -186.5q-13 -66 -6.5 -139t27.5 -137t70.5 -119t121.5 -86q81 -34 180 -34q139 0 253.5 60.5t187.5 163.5q31 44 56 104q3 7 10 26
t12 29l7 18h325l-14 -46q-30 -96 -78 -177q-117 -198 -326 -320.5t-475 -122.5z" />
    <glyph glyph-name="cacute" unicode="&#x107;" horiz-adv-x="1429" vert-adv-y="2275" 
d="M1251 1671l-318 -500h-323l289 500h352zM707 -22q-99 0 -182.5 25.5t-140 69t-100 101.5t-63 123t-27.5 133t5 132q13 79 48 159t96 156.5t139 136t184.5 95.5t224.5 36q181 0 303 -82.5t174 -214.5q34 -87 42 -224l2 -27h-329v20q-1 72 -26.5 135t-79.5 95
q-57 36 -127 36q-68 0 -140 -37q-78 -39 -128 -119.5t-63 -164.5q-13 -83 11 -164.5t89 -119.5q62 -36 129 -36q69 0 139 35q63 33 102.5 86.5t70.5 128.5l14 33h327l-35 -86q-37 -89 -93.5 -167t-136.5 -146t-191 -108t-238 -40z" />
    <glyph glyph-name="Ccircumflex" unicode="&#x108;" horiz-adv-x="1808" vert-adv-y="2275" 
d="M1490 1471l-334 174l-389 -174l49 307l387 175l336 -175zM906 -26q-142 0 -267 39q-76 25 -139.5 63.5t-109 85.5t-79.5 103.5t-54 116t-29.5 123.5t-9 125.5t10.5 123.5q15 93 50.5 185.5t93 184t145 172t194.5 133.5q212 107 441 107q266 0 437 -123.5t224 -321.5
q20 -72 22 -177l-2 -46h-318l-3 17q-4 19 -8 55q-9 66 -24 105q-40 104 -135.5 165t-234.5 61q-97 0 -189 -36q-108 -41 -189 -123t-121.5 -171.5t-56.5 -186.5q-13 -66 -6.5 -139t27.5 -137t70.5 -119t121.5 -86q81 -34 180 -34q139 0 253.5 60.5t187.5 163.5q31 44 56 104
q3 7 10 26t12 29l7 18h325l-14 -46q-30 -96 -78 -177q-117 -198 -326 -320.5t-475 -122.5z" />
    <glyph glyph-name="ccircumflex" unicode="&#x109;" horiz-adv-x="1429" vert-adv-y="2275" 
d="M1239 1109l-335 175l-388 -176l49 306l388 178l334 -178zM707 -22q-99 0 -182.5 25.5t-140 69t-100 101.5t-63 123t-27.5 133t5 132q13 79 48 159t96 156.5t139 136t184.5 95.5t224.5 36q181 0 303 -82.5t174 -214.5q34 -87 42 -224l2 -27h-329v20q-1 72 -26.5 135
t-79.5 95q-57 36 -127 36q-68 0 -140 -37q-78 -39 -128 -119.5t-63 -164.5q-13 -83 11 -164.5t89 -119.5q62 -36 129 -36q69 0 139 35q63 33 102.5 86.5t70.5 128.5l14 33h327l-35 -86q-37 -89 -93.5 -167t-136.5 -146t-191 -108t-238 -40z" />
    <glyph glyph-name="Cdotaccent" unicode="&#x10a;" horiz-adv-x="1808" vert-adv-y="2275" 
d="M1152 1617q-87 0 -131.5 49.5t-33.5 112.5q10 63 70 113.5t147 50.5q85 0 129.5 -51t34.5 -113t-70.5 -112t-145.5 -50zM906 -26q-142 0 -267 39q-76 25 -139.5 63.5t-109 85.5t-79.5 103.5t-54 116t-29.5 123.5t-9 125.5t10.5 123.5q15 93 50.5 185.5t93 184t145 172
t194.5 133.5q212 107 441 107q266 0 437 -123.5t224 -321.5q20 -72 22 -177l-2 -46h-318l-3 17q-4 19 -8 55q-9 66 -24 105q-40 104 -135.5 165t-234.5 61q-97 0 -189 -36q-108 -41 -189 -123t-121.5 -171.5t-56.5 -186.5q-13 -66 -6.5 -139t27.5 -137t70.5 -119t121.5 -86
q81 -34 180 -34q139 0 253.5 60.5t187.5 163.5q31 44 56 104q3 7 10 26t12 29l7 18h325l-14 -46q-30 -96 -78 -177q-117 -198 -326 -320.5t-475 -122.5z" />
    <glyph glyph-name="cdotaccent" unicode="&#x10b;" horiz-adv-x="1429" vert-adv-y="2275" 
d="M901 1255q-87 0 -130.5 49t-33.5 113q11 64 69.5 114t145.5 50q85 0 129 -51t34 -113q-10 -63 -68.5 -112.5t-145.5 -49.5zM707 -22q-99 0 -182.5 25.5t-140 69t-100 101.5t-63 123t-27.5 133t5 132q13 79 48 159t96 156.5t139 136t184.5 95.5t224.5 36q181 0 303 -82.5
t174 -214.5q34 -87 42 -224l2 -27h-329v20q-1 72 -26.5 135t-79.5 95q-57 36 -127 36q-68 0 -140 -37q-78 -39 -128 -119.5t-63 -164.5q-13 -83 11 -164.5t89 -119.5q62 -36 129 -36q69 0 139 35q63 33 102.5 86.5t70.5 128.5l14 33h327l-35 -86q-37 -89 -93.5 -167
t-136.5 -146t-191 -108t-238 -40z" />
    <glyph glyph-name="Ccaron" unicode="&#x10c;" horiz-adv-x="1808" vert-adv-y="2275" 
d="M1578 2027l-48 -305l-391 -176l-332 177l48 304l334 -173zM906 -26q-142 0 -267 39q-76 25 -139.5 63.5t-109 85.5t-79.5 103.5t-54 116t-29.5 123.5t-9 125.5t10.5 123.5q15 93 50.5 185.5t93 184t145 172t194.5 133.5q212 107 441 107q266 0 437 -123.5t224 -321.5
q20 -72 22 -177l-2 -46h-318l-3 17q-4 19 -8 55q-9 66 -24 105q-40 104 -135.5 165t-234.5 61q-97 0 -189 -36q-108 -41 -189 -123t-121.5 -171.5t-56.5 -186.5q-13 -66 -6.5 -139t27.5 -137t70.5 -119t121.5 -86q81 -34 180 -34q139 0 253.5 60.5t187.5 163.5q31 44 56 104
q3 7 10 26t12 29l7 18h325l-14 -46q-30 -96 -78 -177q-117 -198 -326 -320.5t-475 -122.5z" />
    <glyph glyph-name="ccaron" unicode="&#x10d;" horiz-adv-x="1429" vert-adv-y="2275" 
d="M1327 1666l-48 -305l-391 -179l-331 179l48 305l332 -175zM707 -22q-99 0 -182.5 25.5t-140 69t-100 101.5t-63 123t-27.5 133t5 132q13 79 48 159t96 156.5t139 136t184.5 95.5t224.5 36q181 0 303 -82.5t174 -214.5q34 -87 42 -224l2 -27h-329v20q-1 72 -26.5 135
t-79.5 95q-57 36 -127 36q-68 0 -140 -37q-78 -39 -128 -119.5t-63 -164.5q-13 -83 11 -164.5t89 -119.5q62 -36 129 -36q69 0 139 35q63 33 102.5 86.5t70.5 128.5l14 33h327l-35 -86q-37 -89 -93.5 -167t-136.5 -146t-191 -108t-238 -40z" />
    <glyph glyph-name="Emacron" unicode="&#x112;" horiz-adv-x="1361" vert-adv-y="2275" 
d="M1383 1829l-42 -263h-825l42 263h825zM1295 270l-43 -270h-1142l239 1508h1142l-43 -271h-821l-54 -338h690l-43 -271h-690l-56 -358h821z" />
    <glyph glyph-name="emacron" unicode="&#x113;" horiz-adv-x="1448" vert-adv-y="2275" 
d="M1369 1469l-42 -265h-824l42 265h824zM720 -23q-86 0 -161 18.5t-130.5 51t-100.5 77.5t-72 97t-44.5 109.5t-18.5 116t6 115.5q13 81 49 162t98.5 157t142.5 134.5t188 94t228 35.5q86 0 161.5 -18.5t130.5 -51t100.5 -77t72 -96.5t44.5 -109t19 -115.5t-6 -115.5
q-7 -42 -26 -97l-8 -20h-875q15 -89 77 -146.5t167 -57.5q154 0 262 133q10 11 28 40l297 -72q-30 -51 -73 -104q-99 -118 -243 -189.5t-313 -71.5zM574 711h526q-22 77 -81.5 124.5t-154.5 47.5t-169 -47.5t-121 -124.5z" />
    <glyph glyph-name="Ebreve" unicode="&#x114;" horiz-adv-x="1361" vert-adv-y="2275" 
d="M927 1556q-116 0 -193.5 45.5t-106 115.5t-15.5 154l15 92h313l-4 -23q-1 -7 -3 -20.5t-3.5 -24.5t-2.5 -21q-4 -34 4 -44.5t38 -10.5q28 0 42 12t19 40l15 92h313l-15 -92q-20 -130 -131 -222.5t-285 -92.5zM1295 270l-43 -270h-1142l239 1508h1142l-43 -271h-821
l-54 -338h690l-43 -271h-690l-56 -358h821z" />
    <glyph glyph-name="ebreve" unicode="&#x115;" horiz-adv-x="1448" vert-adv-y="2275" 
d="M913 1195q-117 0 -195 45.5t-106 115.5t-15 154l14 90h315l-11 -73q-7 -41 0 -56q8 -17 39 -17q28 0 42.5 13.5t19.5 42.5l14 90h312l-14 -90q-21 -131 -131 -223t-284 -92zM720 -23q-86 0 -161 18.5t-130.5 51t-100.5 77.5t-72 97t-44.5 109.5t-18.5 116t6 115.5
q13 81 49 162t98.5 157t142.5 134.5t188 94t228 35.5q86 0 161.5 -18.5t130.5 -51t100.5 -77t72 -96.5t44.5 -109t19 -115.5t-6 -115.5q-7 -42 -26 -97l-8 -20h-875q15 -89 77 -146.5t167 -57.5q154 0 262 133q10 11 28 40l297 -72q-30 -51 -73 -104q-99 -118 -243 -189.5
t-313 -71.5zM574 711h526q-22 77 -81.5 124.5t-154.5 47.5t-169 -47.5t-121 -124.5z" />
    <glyph glyph-name="Edotaccent" unicode="&#x116;" horiz-adv-x="1361" vert-adv-y="2275" 
d="M937 1617q-87 0 -131 49t-33 113q10 64 69.5 114t146.5 50q86 0 131 -50.5t35 -113.5q-11 -63 -71.5 -112.5t-146.5 -49.5zM1295 270l-43 -270h-1142l239 1508h1142l-43 -271h-821l-54 -338h690l-43 -271h-690l-56 -358h821z" />
    <glyph glyph-name="edotaccent" unicode="&#x117;" horiz-adv-x="1448" vert-adv-y="2275" 
d="M923 1255q-88 0 -131.5 49t-33.5 113q11 63 70.5 113.5t145.5 50.5t130 -50.5t33 -113.5q-10 -64 -68.5 -113t-145.5 -49zM720 -23q-86 0 -161 18.5t-130.5 51t-100.5 77.5t-72 97t-44.5 109.5t-18.5 116t6 115.5q13 81 49 162t98.5 157t142.5 134.5t188 94t228 35.5
q86 0 161.5 -18.5t130.5 -51t100.5 -77t72 -96.5t44.5 -109t19 -115.5t-6 -115.5q-7 -42 -26 -97l-8 -20h-875q15 -89 77 -146.5t167 -57.5q154 0 262 133q10 11 28 40l297 -72q-30 -51 -73 -104q-99 -118 -243 -189.5t-313 -71.5zM574 711h526q-22 77 -81.5 124.5
t-154.5 47.5t-169 -47.5t-121 -124.5z" />
    <glyph glyph-name="Ecaron" unicode="&#x11a;" horiz-adv-x="1361" vert-adv-y="2275" 
d="M1363 2027l-48 -305l-391 -176l-331 177l48 304l333 -173zM1295 270l-43 -270h-1142l239 1508h1142l-43 -271h-821l-54 -338h690l-43 -271h-690l-56 -358h821z" />
    <glyph glyph-name="ecaron" unicode="&#x11b;" horiz-adv-x="1448" vert-adv-y="2275" 
d="M1350 1666l-48 -305l-391 -179l-332 179l48 305l333 -175zM720 -23q-86 0 -161 18.5t-130.5 51t-100.5 77.5t-72 97t-44.5 109.5t-18.5 116t6 115.5q13 81 49 162t98.5 157t142.5 134.5t188 94t228 35.5q86 0 161.5 -18.5t130.5 -51t100.5 -77t72 -96.5t44.5 -109
t19 -115.5t-6 -115.5q-7 -42 -26 -97l-8 -20h-875q15 -89 77 -146.5t167 -57.5q154 0 262 133q10 11 28 40l297 -72q-30 -51 -73 -104q-99 -118 -243 -189.5t-313 -71.5zM574 711h526q-22 77 -81.5 124.5t-154.5 47.5t-169 -47.5t-121 -124.5z" />
    <glyph glyph-name="Gcircumflex" unicode="&#x11c;" horiz-adv-x="1808" vert-adv-y="2275" 
d="M1488 1471l-334 174l-388 -174l49 307l387 175l335 -175zM906 -26q-142 0 -267 39q-76 25 -139.5 63.5t-109 85.5t-79.5 103.5t-54 116t-29.5 123.5t-9 125.5t10.5 123.5q15 93 50.5 185.5t93 184t145 172t194.5 133.5q214 107 432 107h11q76 0 164 -18q202 -41 325 -166
t159 -292q13 -61 13 -143h-328l-2 23q-7 60 -24 105q-39 101 -133 163.5t-227 62.5q-86 0 -181 -36q-81 -29 -147.5 -83.5t-110 -121.5t-70.5 -136.5t-38 -139.5q-7 -55 -7.5 -110.5t13.5 -112t38.5 -104.5t68 -89t100.5 -65q83 -34 180 -34t182 31t147 84t106 118t68 139
h-555l43 270l879 -3l-142 -878h-314l16 103q-209 -129 -472 -129z" />
    <glyph glyph-name="gcircumflex" unicode="&#x11d;" horiz-adv-x="1417" vert-adv-y="2275" 
d="M1254 1155l-335 174l-388 -176l48 306l389 178l334 -178zM669 -408q-145 0 -252 45q-120 50 -180 133.5t-77 198.5l-3 20h334q7 -32 32 -61q61 -74 192 -74q101 0 170.5 50t101.5 132q-135 -59 -281 -59q-124 0 -218 38l-52 23q-142 77 -201.5 224t-35.5 300
q13 79 48 159t96 156.5t139 136t184.5 95.5t224.5 36q153 0 271 -62l6 41h317l-156 -983q-13 -81 -44 -157.5t-86.5 -148.5t-128.5 -125.5t-176.5 -85.5t-224.5 -32zM748 241q67 0 139 36q80 41 129 120.5t62 164.5q13 84 -11 165t-90 120q-57 36 -127 36q-68 0 -140 -37
q-79 -40 -128.5 -120t-62.5 -164q-13 -87 10.5 -165t91.5 -120q59 -36 127 -36z" />
    <glyph glyph-name="Gbreve" unicode="&#x11e;" horiz-adv-x="1808" vert-adv-y="2275" 
d="M1140 1556q-117 0 -194.5 45.5t-105.5 115.5t-15 154l15 92h313l-12 -74q-7 -41 -1 -55q8 -15 42 -15q28 0 41.5 11.5t18.5 40.5l15 92h314l-15 -92q-20 -130 -131.5 -222.5t-284.5 -92.5zM906 -26q-142 0 -267 39q-76 25 -139.5 63.5t-109 85.5t-79.5 103.5t-54 116
t-29.5 123.5t-9 125.5t10.5 123.5q15 93 50.5 185.5t93 184t145 172t194.5 133.5q214 107 432 107h11q76 0 164 -18q202 -41 325 -166t159 -292q13 -61 13 -143h-328l-2 23q-7 60 -24 105q-39 101 -133 163.5t-227 62.5q-86 0 -181 -36q-81 -29 -147.5 -83.5t-110 -121.5
t-70.5 -136.5t-38 -139.5q-7 -55 -7.5 -110.5t13.5 -112t38.5 -104.5t68 -89t100.5 -65q83 -34 180 -34t182 31t147 84t106 118t68 139h-555l43 270l879 -3l-142 -878h-314l16 103q-209 -129 -472 -129z" />
    <glyph glyph-name="gbreve" unicode="&#x11f;" horiz-adv-x="1417" vert-adv-y="2275" 
d="M898 1195q-88 0 -155 26t-104 70.5t-51.5 100.5t-4.5 118l14 90h313l-11 -73q-7 -39 0 -56q9 -17 40 -17q36 0 49 21q10 16 15 47q2 11 5 30.5t4 24.5l3 23h313l-14 -90q-21 -131 -131.5 -223t-284.5 -92zM669 -408q-145 0 -252 45q-120 50 -180 133.5t-77 198.5l-3 20
h334q7 -32 32 -61q61 -74 192 -74q101 0 170.5 50t101.5 132q-135 -59 -281 -59q-124 0 -218 38l-52 23q-142 77 -201.5 224t-35.5 300q13 79 48 159t96 156.5t139 136t184.5 95.5t224.5 36q153 0 271 -62l6 41h317l-156 -983q-13 -81 -44 -157.5t-86.5 -148.5
t-128.5 -125.5t-176.5 -85.5t-224.5 -32zM748 241q67 0 139 36q80 41 129 120.5t62 164.5q13 84 -11 165t-90 120q-57 36 -127 36q-68 0 -140 -37q-79 -40 -128.5 -120t-62.5 -164q-13 -87 10.5 -165t91.5 -120q59 -36 127 -36z" />
    <glyph glyph-name="Gdotaccent" unicode="&#x120;" horiz-adv-x="1808" vert-adv-y="2275" 
d="M1150 1617q-87 0 -131.5 49.5t-33.5 112.5q10 63 70 113.5t147 50.5q85 0 129.5 -51t34.5 -113t-70.5 -112t-145.5 -50zM906 -26q-142 0 -267 39q-76 25 -139.5 63.5t-109 85.5t-79.5 103.5t-54 116t-29.5 123.5t-9 125.5t10.5 123.5q15 93 50.5 185.5t93 184t145 172
t194.5 133.5q214 107 432 107h11q76 0 164 -18q202 -41 325 -166t159 -292q13 -61 13 -143h-328l-2 23q-7 60 -24 105q-39 101 -133 163.5t-227 62.5q-86 0 -181 -36q-81 -29 -147.5 -83.5t-110 -121.5t-70.5 -136.5t-38 -139.5q-7 -55 -7.5 -110.5t13.5 -112t38.5 -104.5
t68 -89t100.5 -65q83 -34 180 -34t182 31t147 84t106 118t68 139h-555l43 270l879 -3l-142 -878h-314l16 103q-209 -129 -472 -129z" />
    <glyph glyph-name="gdotaccent" unicode="&#x121;" horiz-adv-x="1417" vert-adv-y="2275" 
d="M908 1255q-88 0 -131.5 49t-33.5 113q11 64 70.5 114t145.5 50q85 0 128.5 -51t33.5 -113q-10 -63 -68 -112.5t-145 -49.5zM669 -408q-145 0 -252 45q-120 50 -180 133.5t-77 198.5l-3 20h334q7 -32 32 -61q61 -74 192 -74q101 0 170.5 50t101.5 132q-135 -59 -281 -59
q-124 0 -218 38l-52 23q-142 77 -201.5 224t-35.5 300q13 79 48 159t96 156.5t139 136t184.5 95.5t224.5 36q153 0 271 -62l6 41h317l-156 -983q-13 -81 -44 -157.5t-86.5 -148.5t-128.5 -125.5t-176.5 -85.5t-224.5 -32zM748 241q67 0 139 36q80 41 129 120.5t62 164.5
q13 84 -11 165t-90 120q-57 36 -127 36q-68 0 -140 -37q-79 -40 -128.5 -120t-62.5 -164q-13 -87 10.5 -165t91.5 -120q59 -36 127 -36z" />
    <glyph glyph-name="Itilde" unicode="&#x128;" horiz-adv-x="876" vert-adv-y="2275" 
d="M818 1622q-73 0 -165 42q-6 3 -23.5 12t-27.5 13l-5 2l-2 -7l-12 -36l-7 -20h-313l32 102q31 98 116 165.5t215 67.5q69 0 160 -41l62 -28l3 9l16 36l8 19h306l-32 -103q-31 -98 -116 -165.5t-215 -67.5zM799 264l-42 -264h-637l42 264h156l155 979h-156l42 265h637
l-42 -265h-157l-155 -979h157z" />
    <glyph glyph-name="itilde" unicode="&#x129;" horiz-adv-x="604" vert-adv-y="2275" 
d="M625 1260q-73 0 -159 40q-8 3 -26 12t-28 13l-9 3q-8 -28 -13 -43l-7 -19h-313l32 102q31 98 115 165t215 67q73 0 161 -40q11 -5 29.5 -14t25.5 -12l6 -2q8 18 16 43l7 19h310l-32 -101q-30 -98 -115 -165.5t-215 -67.5zM642 1145l-181 -1145h-320l181 1145h320z" />
    <glyph glyph-name="Imacron" unicode="&#x12a;" horiz-adv-x="848" vert-adv-y="2275" 
d="M1126 1829l-42 -263h-824l42 263h824zM785 264l-42 -264h-638l42 264h157l155 979h-157l42 265h638l-42 -265h-157l-155 -979h157z" />
    <glyph glyph-name="imacron" unicode="&#x12b;" horiz-adv-x="576" vert-adv-y="2275" 
d="M933 1469l-42 -265h-824l42 265h824zM629 1145l-181 -1145h-321l181 1145h321z" />
    <glyph glyph-name="dotlessi" unicode="&#x131;" horiz-adv-x="603" vert-adv-y="1800" 
d="M640 1145l-181 -1145h-318l181 1145h318z" />
    <glyph glyph-name="Nacute" unicode="&#x143;" horiz-adv-x="1533" vert-adv-y="2275" 
d="M1374 2033l-318 -499h-324l289 499h353zM581 947l-150 -947h-321l239 1508h283l558 -948l150 948h321l-239 -1508h-283z" />
    <glyph glyph-name="nacute" unicode="&#x144;" vert-adv-y="2275" 
d="M1178 1671l-319 -500h-324l292 500h351zM540 704l-112 -704h-318l181 1145h318l-3 -24q95 24 203 24q126 0 217 -30.5t154 -102.5q108 -125 77 -315l-110 -697h-319l106 672q9 64 3 111.5t-47.5 74.5t-121.5 27q-104 0 -157 -45q-26 -22 -46 -62t-25 -74z" />
    <glyph glyph-name="Ncaron" unicode="&#x147;" horiz-adv-x="1533" vert-adv-y="2275" 
d="M1449 2027l-48 -305l-390 -176l-332 177l48 304l333 -173zM581 947l-150 -947h-321l239 1508h283l558 -948l150 948h321l-239 -1508h-283z" />
    <glyph glyph-name="ncaron" unicode="&#x148;" vert-adv-y="2275" 
d="M1254 1666l-48 -305l-391 -179l-333 179l48 305l334 -175zM540 704l-112 -704h-318l181 1145h318l-3 -24q95 24 203 24q126 0 217 -30.5t154 -102.5q108 -125 77 -315l-110 -697h-319l106 672q9 64 3 111.5t-47.5 74.5t-121.5 27q-104 0 -157 -45q-26 -22 -46 -62
t-25 -74z" />
    <glyph glyph-name="Omacron" unicode="&#x14c;" horiz-adv-x="1865" vert-adv-y="2275" 
d="M1634 1829l-42 -263h-823l42 263h823zM928 -26q-91 0 -173 15t-147.5 42t-122 65t-98 84t-74.5 99.5t-52 111.5t-31 118.5t-10.5 122t9.5 122.5q18 111 66.5 220.5t131 211t189.5 179.5t252 124.5t307 46.5q103 0 193.5 -18.5t160.5 -52.5t129 -81t98.5 -103t69.5 -120
t41.5 -131.5t15 -137.5t-9.5 -138q-17 -111 -65.5 -220.5t-131 -211t-189 -178.5t-251.5 -123.5t-308 -46.5zM970 239q100 0 188 30.5t152.5 81.5t115 118t79.5 139t41 146q14 68 6 141t-30.5 136.5t-75 117.5t-126.5 85q-88 37 -187 37q-93 0 -196 -37
q-111 -39 -195 -120.5t-128 -172t-59 -187.5t0 -187.5t73.5 -171.5t156.5 -121q86 -35 185 -35z" />
    <glyph glyph-name="omacron" unicode="&#x14d;" horiz-adv-x="1419" vert-adv-y="2275" 
d="M1354 1469l-42 -265h-823l42 265h823zM706 -23q-85 0 -159 19t-128 52t-97.5 78t-69 97.5t-42.5 110t-17.5 115t6.5 113.5q13 79 48 159t96 156.5t139 136t184.5 95.5t224.5 36q85 0 159 -19t127.5 -52t97.5 -78t69.5 -97t42.5 -109.5t17.5 -115t-6.5 -112.5
q-13 -79 -48 -159.5t-96 -157t-139 -136t-184.5 -96t-224.5 -36.5zM748 241q67 0 139 36q80 41 129 120.5t62 164.5q13 84 -11 165t-90 120q-57 36 -127 36q-68 0 -140 -37q-79 -40 -128.5 -120t-62.5 -164q-13 -87 10.5 -165t91.5 -120q59 -36 127 -36z" />
    <glyph glyph-name="Obreve" unicode="&#x14e;" horiz-adv-x="1865" vert-adv-y="2275" 
d="M1178 1556q-173 0 -254 92t-61 223l15 92h314l-12 -74q-6 -38 0 -55q8 -15 40 -15q29 0 43.5 12t18.5 40l15 92h312l-15 -92q-20 -131 -131 -223t-285 -92zM928 -26q-91 0 -173 15t-147.5 42t-122 65t-98 84t-74.5 99.5t-52 111.5t-31 118.5t-10.5 122t9.5 122.5
q18 111 66.5 220.5t131 211t189.5 179.5t252 124.5t307 46.5q103 0 193.5 -18.5t160.5 -52.5t129 -81t98.5 -103t69.5 -120t41.5 -131.5t15 -137.5t-9.5 -138q-17 -111 -65.5 -220.5t-131 -211t-189 -178.5t-251.5 -123.5t-308 -46.5zM970 239q100 0 188 30.5t152.5 81.5
t115 118t79.5 139t41 146q14 68 6 141t-30.5 136.5t-75 117.5t-126.5 85q-88 37 -187 37q-93 0 -196 -37q-111 -39 -195 -120.5t-128 -172t-59 -187.5t0 -187.5t73.5 -171.5t156.5 -121q86 -35 185 -35z" />
    <glyph glyph-name="obreve" unicode="&#x14f;" horiz-adv-x="1419" vert-adv-y="2275" 
d="M899 1195q-88 0 -155 26t-104 70.5t-51.5 100.5t-4.5 118l14 90h313l-11 -73q-7 -39 0 -56q9 -17 40 -17q36 0 49 21q10 16 15 47q2 11 5 30.5t4 24.5l3 23h313l-14 -90q-21 -131 -131.5 -223t-284.5 -92zM706 -23q-85 0 -159 19t-128 52t-97.5 78t-69 97.5t-42.5 110
t-17.5 115t6.5 113.5q13 79 48 159t96 156.5t139 136t184.5 95.5t224.5 36q85 0 159 -19t127.5 -52t97.5 -78t69.5 -97t42.5 -109.5t17.5 -115t-6.5 -112.5q-13 -79 -48 -159.5t-96 -157t-139 -136t-184.5 -96t-224.5 -36.5zM748 241q67 0 139 36q80 41 129 120.5t62 164.5
q13 84 -11 165t-90 120q-57 36 -127 36q-68 0 -140 -37q-79 -40 -128.5 -120t-62.5 -164q-13 -87 10.5 -165t91.5 -120q59 -36 127 -36z" />
    <glyph glyph-name="Ohungarumlaut" unicode="&#x150;" horiz-adv-x="1865" vert-adv-y="2275" 
d="M1479 2118l-340 -501h-315l288 501h367zM1854 2118l-340 -501h-316l288 501h368zM928 -26q-91 0 -173 15t-147.5 42t-122 65t-98 84t-74.5 99.5t-52 111.5t-31 118.5t-10.5 122t9.5 122.5q18 111 66.5 220.5t131 211t189.5 179.5t252 124.5t307 46.5q103 0 193.5 -18.5
t160.5 -52.5t129 -81t98.5 -103t69.5 -120t41.5 -131.5t15 -137.5t-9.5 -138q-17 -111 -65.5 -220.5t-131 -211t-189 -178.5t-251.5 -123.5t-308 -46.5zM970 239q100 0 188 30.5t152.5 81.5t115 118t79.5 139t41 146q14 68 6 141t-30.5 136.5t-75 117.5t-126.5 85
q-88 37 -187 37q-93 0 -196 -37q-111 -39 -195 -120.5t-128 -172t-59 -187.5t0 -187.5t73.5 -171.5t156.5 -121q86 -35 185 -35z" />
    <glyph glyph-name="ohungarumlaut" unicode="&#x151;" horiz-adv-x="1419" vert-adv-y="2275" 
d="M1190 1736l-340 -500h-314l287 500h367zM1565 1736l-340 -500h-315l287 500h368zM706 -23q-85 0 -159 19t-128 52t-97.5 78t-69 97.5t-42.5 110t-17.5 115t6.5 113.5q13 79 48 159t96 156.5t139 136t184.5 95.5t224.5 36q85 0 159 -19t127.5 -52t97.5 -78t69.5 -97
t42.5 -109.5t17.5 -115t-6.5 -112.5q-13 -79 -48 -159.5t-96 -157t-139 -136t-184.5 -96t-224.5 -36.5zM748 241q67 0 139 36q80 41 129 120.5t62 164.5q13 84 -11 165t-90 120q-57 36 -127 36q-68 0 -140 -37q-79 -40 -128.5 -120t-62.5 -164q-13 -87 10.5 -165t91.5 -120
q59 -36 127 -36z" />
    <glyph glyph-name="OE" unicode="&#x152;" horiz-adv-x="2975" vert-adv-y="2275" 
d="M928 -26q-91 0 -173 15t-147.5 42t-122 65t-98 84t-74.5 99.5t-52 111.5t-31 118.5t-10.5 122t9.5 122.5q18 111 66.5 220.5t131 211t189.5 179.5t252 124.5t307 46.5q285 0 473 -146l19 118h1143l-43 -271h-819l-54 -338h688l-43 -271h-687l-57 -358h819l-43 -270h-1143
l19 118q-234 -144 -519 -144zM970 239q100 0 188 30.5t152.5 81.5t115 118t79.5 139t41 146q14 68 6 141t-30.5 136.5t-75 117.5t-126.5 85q-88 37 -187 37q-93 0 -196 -37q-111 -39 -195 -120.5t-128 -172t-59 -187.5t0 -187.5t73.5 -171.5t156.5 -121q86 -35 185 -35z" />
    <glyph glyph-name="oe" unicode="&#x153;" horiz-adv-x="2586" vert-adv-y="2275" 
d="M966 -23q-85 0 -159 19t-127.5 52t-97.5 78.5t-69.5 98t-42.5 109.5t-17.5 115t6.5 113q13 79 48 159t96 156.5t139 136t184.5 95.5t224.5 36q263 0 413 -182q201 182 481 182q86 0 161.5 -18.5t130.5 -51t100.5 -77t72 -96.5t44.5 -109t19 -115.5t-6 -115.5
q-7 -42 -26 -97l-8 -20h-875q15 -89 77 -146.5t167 -57.5q154 0 262 133q10 11 28 40l297 -72q-30 -51 -73 -104q-99 -118 -243 -189.5t-313 -71.5q-279 0 -424 183q-209 -183 -470 -183zM1008 241q67 0 139 36q80 41 129 120.5t62 164.5q13 84 -11 165t-90 120
q-57 36 -127 36q-68 0 -140 -37q-79 -40 -128.5 -120t-62.5 -164q-13 -87 10.5 -165t91.5 -120q59 -36 127 -36zM1714 711h526q-22 77 -81.5 124.5t-154.5 47.5t-169 -47.5t-121 -124.5z" />
    <glyph glyph-name="Racute" unicode="&#x154;" horiz-adv-x="1504" vert-adv-y="2275" 
d="M1330 2033l-319 -499h-324l291 499h352zM530 628l-99 -628h-321l239 1508h653q271 0 402.5 -117t98.5 -323q-23 -145 -123.5 -255t-277.5 -156l292 -657h-371l-269 628h-224zM967 1237h-340l-54 -338h340q127 0 189.5 38.5t77.5 131.5t-35.5 130.5t-177.5 37.5z" />
    <glyph glyph-name="racute" unicode="&#x155;" horiz-adv-x="851" vert-adv-y="2275" 
d="M976 1671l-318 -500h-326l292 500h352zM540 704l-112 -704h-318l181 1145h318l-3 -24q97 24 286 24h30l-41 -260h-30q-62 0 -93 -1q-100 -3 -147 -44q-25 -22 -45.5 -62.5t-25.5 -73.5z" />
    <glyph glyph-name="Rcaron" unicode="&#x158;" horiz-adv-x="1504" vert-adv-y="2275" 
d="M1405 2027l-48 -305l-390 -176l-333 176l48 305l334 -173zM530 628l-99 -628h-321l239 1508h653q271 0 402.5 -117t98.5 -323q-23 -145 -123.5 -255t-277.5 -156l292 -657h-371l-269 628h-224zM967 1237h-340l-54 -338h340q127 0 189.5 38.5t77.5 131.5t-35.5 130.5
t-177.5 37.5z" />
    <glyph glyph-name="rcaron" unicode="&#x159;" horiz-adv-x="846" vert-adv-y="2275" 
d="M1048 1666l-48 -305l-392 -179l-330 179l48 305l334 -175zM539 704l-112 -704h-319l181 1145h319l-3 -23q57 14 122 19q54 4 162 4h31l-41 -260h-31q-61 0 -92 -1q-101 -3 -147 -44q-25 -22 -45 -62.5t-25 -73.5z" />
    <glyph glyph-name="Sacute" unicode="&#x15a;" horiz-adv-x="1496" vert-adv-y="2275" 
d="M1342 2033l-300 -471h-328l276 471h352zM744 -24q-215 0 -357.5 89t-181.5 244q-18 71 -10 212l1 25h331l-1 -21l-1 -45q-1 -57 12.5 -97.5t50.5 -74.5q66 -62 199 -62q112 0 188 32q120 52 136 151q10 68 -26 104q-25 26 -118 53q-60 17 -218 47q-99 20 -170.5 42
t-135.5 57.5t-100 81t-51 110.5t-2 148q21 132 123 238t254 163t323 57q215 0 358 -90t181 -247q13 -44 13 -106q1 -35 -3 -105l-1 -25h-331v21q2 42 2 64q-2 41 -7 61q-20 75 -85.5 116t-168.5 41q-110 0 -188 -34q-121 -52 -138 -152q-10 -65 27 -103q25 -26 118 -52
q69 -20 215 -48q100 -20 172 -42t136.5 -57t100 -80t51 -111t1.5 -150q-21 -132 -123 -237t-253.5 -161.5t-322.5 -56.5z" />
    <glyph glyph-name="sacute" unicode="&#x15b;" horiz-adv-x="1180" vert-adv-y="2275" 
d="M1139 1671l-318 -500h-323l290 500h351zM590 -14q-168 0 -277 76t-135 200q-7 40 -5 89q1 16 3.5 46t3.5 40l2 15h315v-12q0 -1 -3 -62q-2 -61 31.5 -94t106.5 -33q68 0 114 23.5t53 67.5q4 24 -2.5 36t-28.5 24q-31 16 -83 26q-19 4 -56 10.5t-41 7.5q-96 19 -161 43.5
t-114.5 63.5t-67.5 97.5t-5 138.5q23 146 174 251q150 105 356 105q168 0 278 -75t134 -199q8 -45 5 -88q-1 -39 -8 -87l-2 -12h-324l2 12q6 26 8 39q11 66 -22.5 106t-111.5 40q-112 0 -149 -50q-17 -20 -20 -40q-4 -25 2 -37t29 -23q26 -14 83 -26q17 -3 97 -16
q94 -18 160 -43.5t115 -65.5t67 -99t6 -137q-23 -147 -173 -252q-152 -106 -356 -106z" />
    <glyph glyph-name="Scircumflex" unicode="&#x15c;" horiz-adv-x="1496" vert-adv-y="2275" 
d="M1342 1471l-333 174l-389 -174l49 307l388 175l334 -175zM744 -24q-215 0 -357.5 89t-181.5 244q-18 71 -10 212l1 25h331l-1 -21l-1 -45q-1 -57 12.5 -97.5t50.5 -74.5q66 -62 199 -62q112 0 188 32q120 52 136 151q10 68 -26 104q-25 26 -118 53q-60 17 -218 47
q-99 20 -170.5 42t-135.5 57.5t-100 81t-51 110.5t-2 148q21 132 123 238t254 163t323 57q215 0 358 -90t181 -247q13 -44 13 -106q1 -35 -3 -105l-1 -25h-331v21q2 42 2 64q-2 41 -7 61q-20 75 -85.5 116t-168.5 41q-110 0 -188 -34q-121 -52 -138 -152q-10 -65 27 -103
q25 -26 118 -52q69 -20 215 -48q100 -20 172 -42t136.5 -57t100 -80t51 -111t1.5 -150q-21 -132 -123 -237t-253.5 -161.5t-322.5 -56.5z" />
    <glyph glyph-name="scircumflex" unicode="&#x15d;" horiz-adv-x="1180" vert-adv-y="2275" 
d="M1127 1109l-334 175l-389 -176l49 306l389 178l333 -178zM590 -14q-168 0 -277 76t-135 200q-7 40 -5 89q1 16 3.5 46t3.5 40l2 15h315v-12q0 -1 -3 -62q-2 -61 31.5 -94t106.5 -33q68 0 114 23.5t53 67.5q4 24 -2.5 36t-28.5 24q-31 16 -83 26q-19 4 -56 10.5t-41 7.5
q-96 19 -161 43.5t-114.5 63.5t-67.5 97.5t-5 138.5q23 146 174 251q150 105 356 105q168 0 278 -75t134 -199q8 -45 5 -88q-1 -39 -8 -87l-2 -12h-324l2 12q6 26 8 39q11 66 -22.5 106t-111.5 40q-112 0 -149 -50q-17 -20 -20 -40q-4 -25 2 -37t29 -23q26 -14 83 -26
q17 -3 97 -16q94 -18 160 -43.5t115 -65.5t67 -99t6 -137q-23 -147 -173 -252q-152 -106 -356 -106z" />
    <glyph glyph-name="Scedilla" unicode="&#x15e;" horiz-adv-x="1496" vert-adv-y="2275" 
d="M632 -534q-59 0 -107.5 17.5t-75 37.5t-65.5 58l-11 11l132 156q5 -4 30.5 -16.5t51.5 -25t29 -13.5q32 -16 58 -16q6 0 20.5 14t16.5 27q2 14 -1 28l-2 7q-7 -1 -13 -1l-4 -3q-7 -7 -10 -11l-11 -16l-16 -23l-200 82l123 213h-2q-150 31 -245 114.5t-125 202.5
q-20 80 -10 212l1 25h331l-1 -21q-1 -15 -1 -46q-1 -56 12.5 -96.5t50.5 -74.5q65 -62 199 -62q112 0 188 32q120 52 136 151q10 68 -26 104q-25 26 -118 53q-60 17 -218 47q-48 10 -88.5 19.5t-81 22t-73 26.5t-64 31.5t-54.5 37t-44 43.5t-32.5 51t-20.5 59.5t-7.5 69
t6.5 79.5q21 132 123 238t254 163t323 57q215 0 357.5 -90t181.5 -247q13 -44 13 -106q0 -16 -0.5 -33.5t-1.5 -38.5t-1 -33l-1 -25h-331v21q0 8 1.5 30t0.5 34q0 37 -6 61q-20 75 -86 116t-169 41q-110 0 -188 -34q-121 -52 -138 -152q-10 -66 27 -103q25 -26 118 -52
q69 -20 215 -48q100 -20 172 -42t136.5 -57t100.5 -80t51.5 -111t1.5 -150q-19 -118 -104 -216t-215.5 -158.5t-284.5 -76.5l-5 -10q61 -17 100.5 -57t52.5 -87.5t5 -97.5q-17 -108 -117.5 -185t-243.5 -77z" />
    <glyph glyph-name="scedilla" unicode="&#x15f;" horiz-adv-x="1180" vert-adv-y="2275" 
d="M471 -534q-59 0 -107.5 17.5t-75 37.5t-65.5 58l-11 11l132 156q5 -4 30.5 -16.5t51.5 -25t29 -13.5q32 -16 58 -16q6 0 20.5 14t16.5 27q2 14 -1 28l-2 7q-7 -1 -13 -1l-4 -3q-7 -7 -10 -11l-11 -16l-16 -23l-200 82l123 213l7 17q-99 31 -162.5 97.5t-82.5 155.5
q-7 40 -5 89q1 16 3.5 46t3.5 40l2 15h315v-12q0 -1 -3 -62q-2 -61 31.5 -94t106.5 -33q68 0 114 23.5t53 67.5q4 24 -2.5 36t-28.5 24q-31 16 -83 26q-19 4 -56 10.5t-41 7.5q-96 19 -161 43.5t-114.5 63.5t-67.5 97.5t-5 138.5q23 146 174 251q150 105 356 105
q168 0 278 -75t134 -199q8 -45 5 -88q-1 -39 -8 -87l-2 -12h-324l2 12q6 26 8 39q11 66 -22.5 106t-111.5 40q-112 0 -149 -50q-17 -20 -20 -40q-4 -25 2 -37t29 -23q26 -14 83 -26q17 -3 97 -16q94 -18 160 -43.5t115 -65.5t67 -99t6 -137q-23 -147 -173 -252
q-117 -81 -266 -100l-6 -22q61 -17 100.5 -57t52.5 -87.5t5 -97.5q-17 -108 -117.5 -185t-243.5 -77z" />
    <glyph glyph-name="Scaron" unicode="&#x160;" horiz-adv-x="1496" vert-adv-y="2275" 
d="M1430 2027l-48 -305l-389 -176l-333 176l48 305l334 -173zM744 -24q-215 0 -357.5 89t-181.5 244q-18 71 -10 212l1 25h331l-1 -21l-1 -45q-1 -57 12.5 -97.5t50.5 -74.5q66 -62 199 -62q112 0 188 32q120 52 136 151q10 68 -26 104q-25 26 -118 53q-60 17 -218 47
q-99 20 -170.5 42t-135.5 57.5t-100 81t-51 110.5t-2 148q21 132 123 238t254 163t323 57q215 0 358 -90t181 -247q13 -44 13 -106q1 -35 -3 -105l-1 -25h-331v21q2 42 2 64q-2 41 -7 61q-20 75 -85.5 116t-168.5 41q-110 0 -188 -34q-121 -52 -138 -152q-10 -65 27 -103
q25 -26 118 -52q69 -20 215 -48q100 -20 172 -42t136.5 -57t100 -80t51 -111t1.5 -150q-21 -132 -123 -237t-253.5 -161.5t-322.5 -56.5z" />
    <glyph glyph-name="scaron" unicode="&#x161;" horiz-adv-x="1180" vert-adv-y="2275" 
d="M1215 1666l-48 -305l-390 -179l-332 179l48 305l333 -175zM590 -14q-168 0 -277 76t-135 200q-7 40 -5 89q1 16 3.5 46t3.5 40l2 15h315v-12q0 -1 -3 -62q-2 -61 31.5 -94t106.5 -33q68 0 114 23.5t53 67.5q4 24 -2.5 36t-28.5 24q-31 16 -83 26q-19 4 -56 10.5t-41 7.5
q-96 19 -161 43.5t-114.5 63.5t-67.5 97.5t-5 138.5q23 146 174 251q150 105 356 105q168 0 278 -75t134 -199q8 -45 5 -88q-1 -39 -8 -87l-2 -12h-324l2 12q6 26 8 39q11 66 -22.5 106t-111.5 40q-112 0 -149 -50q-17 -20 -20 -40q-4 -25 2 -37t29 -23q26 -14 83 -26
q17 -3 97 -16q94 -18 160 -43.5t115 -65.5t67 -99t6 -137q-23 -147 -173 -252q-152 -106 -356 -106z" />
    <glyph glyph-name="Tcaron" unicode="&#x164;" horiz-adv-x="1481" vert-adv-y="2275" 
d="M1422 2027l-48 -305l-389 -176l-333 176l48 305l334 -173zM1096 1237l-196 -1237h-322l196 1237h-468l43 271h1261l-43 -271h-471z" />
    <glyph glyph-name="tcaron" unicode="&#x165;" horiz-adv-x="1400" vert-adv-y="2275" 
d="M618 -2q-68 0 -119 17.5t-78 47t-43.5 67.5t-16 79.5t4.5 82.5l94 591h-210l41 262h210l65 408h319l-65 -408h217l-41 -262h-217l-91 -574l-6 -36v-12l4 -1q30 0 91 2t91 2h31l-41 -257l-29 -1q-23 -1 -97 -4.5t-114 -3.5zM1611 1508l-263 -500h-309l212 500h360z" />
    <glyph glyph-name="Utilde" unicode="&#x168;" horiz-adv-x="1534" vert-adv-y="2275" 
d="M1149 1622q-75 0 -159 40q-38 18 -54 25l-7 2q-1 -1 -1 -2t-0.5 -1.5t-0.5 -1.5l-13 -36l-7 -20h-311l23 80q14 50 38.5 92.5t63.5 80.5t99 60t135 22q69 0 160 -41l62 -28l3 8q5 22 13 38l8 18h309l-8 -26l-23 -77q-29 -96 -115.5 -164.5t-214.5 -68.5zM762 -26
q-106 0 -192.5 21t-147 57t-105 87.5t-69.5 109.5t-37 125t-11 132.5t12 134.5l137 867h322l-140 -885q-8 -46 -7.5 -90t8.5 -88t29 -80.5t52.5 -65t80 -44.5t110.5 -16q74 0 136.5 23t105.5 60.5t75.5 88.5t51 103t27.5 109l140 885h322l-137 -867q-16 -98 -49 -188
t-95 -179t-145 -154t-205.5 -105.5t-268.5 -40.5z" />
    <glyph glyph-name="utilde" unicode="&#x169;" vert-adv-y="2275" 
d="M952 1260q-73 0 -159 40q-8 3 -26 12t-28 13l-9 4l-14 -44l-7 -19h-314l32 102q30 97 115 164.5t215 67.5q74 0 162 -40q11 -5 29.5 -14t25.5 -12l6 -3q16 44 17 45l7 18h306l-6 -25l-22 -76q-26 -96 -113.5 -164.5t-216.5 -68.5zM628 0q-126 0 -217.5 30.5t-153.5 103.5
q-106 123 -76 315l110 696h318l-106 -672q-9 -47 -5.5 -86t19 -67t54 -44t98.5 -16q105 0 158 46q24 21 44.5 62.5t25.5 73.5l111 703h320l-181 -1145h-320l4 25q-93 -25 -203 -25z" />
    <glyph glyph-name="Umacron" unicode="&#x16a;" horiz-adv-x="1534" vert-adv-y="2275" 
d="M1470 1829l-42 -263h-825l42 263h825zM762 -26q-106 0 -192.5 21t-147 57t-105 87.5t-69.5 109.5t-37 125t-11 132.5t12 134.5l137 867h322l-140 -885q-8 -46 -7.5 -90t8.5 -88t29 -80.5t52.5 -65t80 -44.5t110.5 -16q74 0 136.5 23t105.5 60.5t75.5 88.5t51 103
t27.5 109l140 885h322l-137 -867q-16 -98 -49 -188t-95 -179t-145 -154t-205.5 -105.5t-268.5 -40.5z" />
    <glyph glyph-name="umacron" unicode="&#x16b;" vert-adv-y="2275" 
d="M1273 1469l-42 -265h-823l42 265h823zM628 0q-126 0 -217.5 30.5t-153.5 103.5q-106 123 -76 315l110 696h318l-106 -672q-9 -47 -5.5 -86t19 -67t54 -44t98.5 -16q105 0 158 46q24 21 44.5 62.5t25.5 73.5l111 703h320l-181 -1145h-320l4 25q-93 -25 -203 -25z" />
    <glyph glyph-name="Ubreve" unicode="&#x16c;" horiz-adv-x="1534" vert-adv-y="2275" 
d="M1013 1556q-116 0 -193.5 45.5t-106 115.5t-15.5 154l15 92h313l-4 -23q0 -2 -4 -27t-5 -38q-3 -35 4.5 -45.5t37.5 -10.5q29 0 43.5 12t18.5 40l15 92h312l-15 -92q-20 -130 -131 -222.5t-285 -92.5zM762 -26q-106 0 -192.5 21t-147 57t-105 87.5t-69.5 109.5t-37 125
t-11 132.5t12 134.5l137 867h322l-140 -885q-8 -46 -7.5 -90t8.5 -88t29 -80.5t52.5 -65t80 -44.5t110.5 -16q74 0 136.5 23t105.5 60.5t75.5 88.5t51 103t27.5 109l140 885h322l-137 -867q-16 -98 -49 -188t-95 -179t-145 -154t-205.5 -105.5t-268.5 -40.5z" />
    <glyph glyph-name="ubreve" unicode="&#x16d;" vert-adv-y="2275" 
d="M817 1195q-117 0 -195 45.5t-106 115.5t-15 154l14 90h315l-11 -73q-7 -41 0 -56q8 -17 39 -17q54 0 63 56l14 90h311l-14 -90q-21 -131 -131 -223t-284 -92zM628 0q-126 0 -217.5 30.5t-153.5 103.5q-106 123 -76 315l110 696h318l-106 -672q-9 -47 -5.5 -86t19 -67
t54 -44t98.5 -16q105 0 158 46q24 21 44.5 62.5t25.5 73.5l111 703h320l-181 -1145h-320l4 25q-93 -25 -203 -25z" />
    <glyph glyph-name="Uring" unicode="&#x16e;" horiz-adv-x="1534" vert-adv-y="2275" 
d="M989 1552q-57 0 -112 23q-64 29 -91 86t-17 118q13 87 94 157t198 70q55 0 110 -25q64 -29 90.5 -85t16.5 -117q-14 -87 -92.5 -157t-196.5 -70zM1018 1734q7 0 14 11q11 14 15 34q2 22 -4 33q-3 11 -11 11t-17 -10q-10 -17 -12 -34q-4 -19 2 -34q4 -11 13 -11zM762 -26
q-106 0 -192.5 21t-147 57t-105 87.5t-69.5 109.5t-37 125t-11 132.5t12 134.5l137 867h322l-140 -885q-8 -46 -7.5 -90t8.5 -88t29 -80.5t52.5 -65t80 -44.5t110.5 -16q74 0 136.5 23t105.5 60.5t75.5 88.5t51 103t27.5 109l140 885h322l-137 -867q-16 -98 -49 -188
t-95 -179t-145 -154t-205.5 -105.5t-268.5 -40.5z" />
    <glyph glyph-name="uring" unicode="&#x16f;" vert-adv-y="2275" 
d="M833 1197q-60 0 -111 23q-65 28 -92 85t-18 118q14 87 94.5 156.5t197.5 69.5q55 0 110 -24q65 -29 91.5 -84.5t16.5 -117.5q-13 -87 -92 -156.5t-197 -69.5zM861 1378q7 0 16 11q11 16 13 34q3 16 -2 33q-5 10 -13 10t-15 -10q-10 -11 -14 -33q-2 -21 3 -34
q3 -11 12 -11zM628 0q-126 0 -217.5 30.5t-153.5 103.5q-106 123 -76 315l110 696h318l-106 -672q-9 -47 -5.5 -86t19 -67t54 -44t98.5 -16q105 0 158 46q24 21 44.5 62.5t25.5 73.5l111 703h320l-181 -1145h-320l4 25q-93 -25 -203 -25z" />
    <glyph glyph-name="Uhungarumlaut" unicode="&#x170;" horiz-adv-x="1534" vert-adv-y="2275" 
d="M1266 2111l-341 -500h-314l287 500h368zM1641 2111l-340 -500h-315l287 500h368zM762 -26q-106 0 -192.5 21t-147 57t-105 87.5t-69.5 109.5t-37 125t-11 132.5t12 134.5l137 867h322l-140 -885q-8 -46 -7.5 -90t8.5 -88t29 -80.5t52.5 -65t80 -44.5t110.5 -16
q74 0 136.5 23t105.5 60.5t75.5 88.5t51 103t27.5 109l140 885h322l-137 -867q-16 -98 -49 -188t-95 -179t-145 -154t-205.5 -105.5t-268.5 -40.5z" />
    <glyph glyph-name="uhungarumlaut" unicode="&#x171;" horiz-adv-x="1281" vert-adv-y="2275" 
d="M1110 1747l-340 -500h-315l288 500h367zM1485 1747l-340 -500h-315l287 500h368zM628 0q-126 0 -217.5 30.5t-153.5 103.5q-106 123 -76 315l110 696h318l-106 -672q-9 -47 -5.5 -86t19 -67t54 -44t98.5 -16q105 0 158 46q24 21 44.5 62.5t25.5 73.5l111 703h320
l-181 -1145h-320l4 25q-93 -25 -203 -25z" />
    <glyph glyph-name="Wcircumflex" unicode="&#x174;" horiz-adv-x="2463" vert-adv-y="2275" 
d="M1825 1471l-332 174l-390 -174l49 307l389 175l333 -175zM2592 1508l-759 -1510h-282l-167 960l-474 -958h-284l-277 1508h343l164 -957l472 957h288l166 -959l471 959h339z" />
    <glyph glyph-name="wcircumflex" unicode="&#x175;" horiz-adv-x="2044" vert-adv-y="2275" 
d="M1560 1109l-334 175l-389 -176l49 306l388 178l334 -178zM1118 601l-319 -606h-264l-243 1157h333l127 -617l320 617h263l128 -617l321 617h332l-609 -1157h-262z" />
    <glyph glyph-name="Ycircumflex" unicode="&#x176;" horiz-adv-x="1891" vert-adv-y="2275" 
d="M1541 1471l-335 174l-388 -174l49 307l387 175l336 -175zM1220 719l-114 -719h-322l115 724l-550 784h402l353 -514l520 514h397z" />
    <glyph glyph-name="ycircumflex" unicode="&#x177;" horiz-adv-x="1513" vert-adv-y="2275" 
d="M1304 1175l-333 175l-389 -176l48 306l389 178l333 -178zM1584 1147l-942 -1555h-338l297 498l-309 1057h346l192 -680l408 680h346z" />
    <glyph glyph-name="Ydieresis" unicode="&#x178;" horiz-adv-x="1891" vert-adv-y="2275" 
d="M1013 1564q-89 0 -134 51t-34 116q11 66 71 117t150 51q89 0 133 -51.5t33 -116.5q-10 -63 -71 -115t-148 -52zM1411 1564q-89 0 -134 51t-34 116q11 66 71 117t150 51q89 0 133 -51.5t33 -116.5q-10 -64 -70.5 -115.5t-148.5 -51.5zM1220 719l-114 -719h-322l115 724
l-550 784h402l353 -514l520 514h397z" />
    <glyph glyph-name="Zacute" unicode="&#x179;" horiz-adv-x="1523" vert-adv-y="2275" 
d="M1368 2033l-318 -499h-324l290 499h352zM1456 270l-43 -270h-1303l31 194l1014 1043h-840l43 271h1286l-31 -196l-1012 -1042h855z" />
    <glyph glyph-name="zacute" unicode="&#x17a;" horiz-adv-x="1250" vert-adv-y="2275" 
d="M1176 1671l-320 -500h-324l293 500h351zM1182 262l-41 -262h-1029l30 189l679 694h-571l41 262h1028l-29 -185l-681 -698h573z" />
    <glyph glyph-name="Zdotaccent" unicode="&#x17b;" horiz-adv-x="1523" vert-adv-y="2275" 
d="M1018 1617q-87 0 -131 49t-33 113q10 64 69.5 114t146.5 50q86 0 130.5 -51t34.5 -113t-70.5 -112t-146.5 -50zM1456 270l-43 -270h-1303l31 194l1014 1043h-840l43 271h1286l-31 -196l-1012 -1042h855z" />
    <glyph glyph-name="zdotaccent" unicode="&#x17c;" horiz-adv-x="1250" vert-adv-y="2275" 
d="M824 1255q-88 0 -131 49t-33 113q11 63 70 113.5t145 50.5t130 -50.5t33 -113.5q-10 -64 -68.5 -113t-145.5 -49zM1182 262l-41 -262h-1029l30 189l679 694h-571l41 262h1028l-29 -185l-681 -698h573z" />
    <glyph glyph-name="Zcaron" unicode="&#x17d;" horiz-adv-x="1523" vert-adv-y="2275" 
d="M1443 2027l-48 -305l-390 -176l-332 177l48 304l334 -173zM1456 270l-43 -270h-1303l31 194l1014 1043h-840l43 271h1286l-31 -196l-1012 -1042h855z" />
    <glyph glyph-name="zcaron" unicode="&#x17e;" horiz-adv-x="1250" vert-adv-y="2275" 
d="M1251 1666l-48 -305l-391 -179l-332 179l48 305l333 -175zM1182 262l-41 -262h-1029l30 189l679 694h-571l41 262h1028l-29 -185l-681 -698h573z" />
    <glyph glyph-name="circumflex" unicode="&#x2c6;" horiz-adv-x="1017" vert-adv-y="2275" 
d="M1046 1109l-333 175l-390 -176l49 306l387 178l335 -178z" />
    <glyph glyph-name="caron" unicode="&#x2c7;" horiz-adv-x="1017" vert-adv-y="2275" 
d="M1134 1666l-48 -305l-392 -179l-330 179l48 305l334 -175z" />
    <glyph glyph-name="breve" unicode="&#x2d8;" horiz-adv-x="959" vert-adv-y="2275" 
d="M667 1195q-88 0 -154.5 26t-103.5 70.5t-51.5 100.5t-4.5 118l14 90h313l-3 -23q-8 -40 -9 -54q-4 -25 1 -47q3 -13 10.5 -17.5t28.5 -4.5q31 0 43 11.5t20 46.5q1 4 12 65l3 23h312l-14 -90q-21 -132 -131.5 -223.5t-285.5 -91.5z" />
    <glyph glyph-name="dotaccent" unicode="&#x2d9;" horiz-adv-x="712" vert-adv-y="2275" 
d="M554 1255q-87 0 -130.5 49t-33.5 113q11 63 70 113.5t145 50.5t131 -50.5t35 -113.5t-70 -112.5t-147 -49.5z" />
    <glyph glyph-name="ring" unicode="&#x2da;" horiz-adv-x="828" vert-adv-y="2275" 
d="M602 1173q-75 0 -141 30q-83 39 -117 109t-21 150q17 111 119.5 199.5t250.5 88.5q75 0 134 -26t91.5 -68t46 -92.5t5.5 -101.5q-8 -52 -37 -102.5t-74.5 -92.5t-112.5 -68t-144 -26zM639 1428l5 2q5 2 6 4q7 12 11 28q2 17 -3 27q-3 6 -4 6l-3 1l-1 -1q-2 -1 -3 -2.5
t-2 -2.5q-8 -13 -10 -28q-4 -16 1 -28q1 -2 2 -5z" />
    <glyph glyph-name="ogonek" unicode="&#x2db;" horiz-adv-x="803" vert-adv-y="2275" 
d="M338 -376q-75 0 -129.5 25.5t-81.5 66.5t-36.5 88.5t-2.5 96.5q18 111 102.5 199t221.5 140q9 3 36.5 13.5t43.5 16.5l29 10l102 -231l-28 -10q-6 -3 -77 -27l149 -212l-15 -20q-51 -72 -131.5 -114t-182.5 -42z" />
    <glyph glyph-name="tilde" unicode="&#x2dc;" horiz-adv-x="1090" vert-adv-y="2275" 
d="M868 1260q-73 0 -159 40q-8 3 -26 12t-28 13l-9 3q-8 -28 -13 -43l-7 -19h-313l32 102q31 98 115 165t215 67q73 0 161 -40q11 -5 29.5 -14t25.5 -12l6 -2q8 18 16 43l7 19h310l-32 -101q-30 -98 -115 -165.5t-215 -67.5z" />
    <glyph glyph-name="hungarumlaut" unicode="&#x2dd;" horiz-adv-x="1123" vert-adv-y="2275" 
d="M1255 1705l-339 -499h-588l287 499h640z" />
    <glyph glyph-name="Wgrave" unicode="&#x1e80;" horiz-adv-x="2463" vert-adv-y="2275" 
d="M1622 2033l131 -499h-324l-160 499h353zM2592 1508l-759 -1510h-282l-167 960l-474 -958h-284l-277 1508h343l164 -957l472 957h288l166 -959l471 959h339z" />
    <glyph glyph-name="wgrave" unicode="&#x1e81;" horiz-adv-x="2044" vert-adv-y="2275" 
d="M1356 1671l130 -500h-324l-160 500h354zM1118 601l-319 -606h-264l-243 1157h333l127 -617l320 617h263l128 -617l321 617h332l-609 -1157h-262z" />
    <glyph glyph-name="Wacute" unicode="&#x1e82;" horiz-adv-x="2463" vert-adv-y="2275" 
d="M1839 2033l-318 -499h-324l289 499h353zM2592 1508l-759 -1510h-282l-167 960l-474 -958h-284l-277 1508h343l164 -957l472 957h288l166 -959l471 959h339z" />
    <glyph glyph-name="wacute" unicode="&#x1e83;" horiz-adv-x="2044" vert-adv-y="2275" 
d="M1573 1671l-320 -500h-323l290 500h353zM1118 601l-319 -606h-264l-243 1157h333l127 -617l320 617h263l128 -617l321 617h332l-609 -1157h-262z" />
    <glyph glyph-name="Wdieresis" unicode="&#x1e84;" horiz-adv-x="2463" vert-adv-y="2275" 
d="M1293 1564q-90 0 -135 51t-34 116q11 66 71.5 117t150.5 51q89 0 133 -51.5t33 -116.5q-10 -64 -70.5 -115.5t-148.5 -51.5zM1690 1564q-89 0 -134 51t-34 116q11 66 71 117t150 51q89 0 133.5 -51.5t33.5 -116.5q-10 -64 -71 -115.5t-149 -51.5zM2592 1508l-759 -1510
h-282l-167 960l-474 -958h-284l-277 1508h343l164 -957l472 957h288l166 -959l471 959h339z" />
    <glyph glyph-name="wdieresis" unicode="&#x1e85;" horiz-adv-x="2044" vert-adv-y="2275" 
d="M1017 1240q-89 0 -133.5 51.5t-33.5 116.5t71.5 116.5t149.5 51.5t132.5 -51.5t33.5 -116.5q-10 -64 -71.5 -116t-148.5 -52zM1415 1240q-89 0 -133.5 51.5t-33.5 116.5t71.5 116.5t149.5 51.5q88 0 132 -51.5t34 -116.5q-10 -64 -71.5 -116t-148.5 -52zM1118 601
l-319 -606h-264l-243 1157h333l127 -617l320 617h263l128 -617l321 617h332l-609 -1157h-262z" />
    <glyph glyph-name="endash" unicode="&#x2013;" horiz-adv-x="1212" vert-adv-y="2275" 
d="M1322 694l-42 -264h-1212l42 264h1212z" />
    <glyph glyph-name="emdash" unicode="&#x2014;" horiz-adv-x="2197" vert-adv-y="2275" 
d="M2308 694l-42 -264h-2198l42 264h2198z" />
    <glyph glyph-name="quoteleft" unicode="&#x2018;" horiz-adv-x="626" vert-adv-y="2275" 
d="M760 1500l-194 -466h-298l242 466h250z" />
    <glyph glyph-name="quoteright" unicode="&#x2019;" horiz-adv-x="627" vert-adv-y="2275" 
d="M760 1500l-242 -466h-250l194 466h298z" />
    <glyph glyph-name="quotesinglbase" unicode="&#x201a;" horiz-adv-x="627" vert-adv-y="2275" 
d="M566 278l-242 -466h-250l194 466h298z" />
    <glyph glyph-name="quotedblleft" unicode="&#x201c;" horiz-adv-x="896" vert-adv-y="2275" 
d="M760 1500l-194 -466h-298l242 466h250zM1089 1500l-242 -466h-250l194 466h298z" />
    <glyph glyph-name="quotedblright" unicode="&#x201d;" horiz-adv-x="896" vert-adv-y="2275" 
d="M760 1500l-194 -466h-298l242 466h250zM1089 1500l-242 -466h-250l194 466h298z" />
    <glyph glyph-name="quotedblbase" unicode="&#x201e;" horiz-adv-x="896" vert-adv-y="2275" 
d="M529 280l-193 -466h-298l241 466h250zM858 280l-241 -466h-250l193 466h298z" />
    <glyph glyph-name="dagger" unicode="&#x2020;" horiz-adv-x="1264" vert-adv-y="2275" 
d="M927 858l-160 -1007h-319l160 1007h-358l42 266h358l61 384h319l-61 -384h360l-42 -266h-360z" />
    <glyph glyph-name="daggerdbl" unicode="&#x2021;" horiz-adv-x="1264" vert-adv-y="2275" 
d="M828 235l-61 -384h-319l61 384h-358l42 265h358l57 358h-358l42 266h358l61 384h319l-61 -384h360l-42 -266h-360l-57 -358h360l-42 -265h-360z" />
    <glyph glyph-name="bullet" unicode="&#x2022;" horiz-adv-x="1269" vert-adv-y="2275" 
d="M695 393q-171 0 -273 110q-96 104 -71 255q10 65 47 129t94 118t141 87.5t178 33.5q76 0 139 -22t104.5 -59t68 -85t35 -99.5t0.5 -102.5q-10 -65 -47.5 -128.5t-95.5 -117t-142 -86.5t-178 -33z" />
    <glyph glyph-name="ellipsis" unicode="&#x2026;" horiz-adv-x="1433" vert-adv-y="2275" 
d="M315 -17q-88 0 -132.5 51.5t-33.5 116.5q10 65 70.5 116.5t149.5 51.5t133 -51.5t34 -116.5q-10 -64 -71.5 -116t-149.5 -52zM714 -17q-89 0 -133.5 51.5t-33.5 116.5q11 66 71 117t150 51q88 0 132 -51.5t34 -116.5q-10 -64 -71.5 -116t-148.5 -52zM1111 -17
q-89 0 -133 51.5t-33 116.5q10 65 70 116.5t150 51.5q89 0 133 -51.5t34 -116.5q-11 -65 -72 -116.5t-149 -51.5z" />
    <glyph glyph-name="guilsinglleft" unicode="&#x2039;" horiz-adv-x="913" vert-adv-y="2275" 
d="M591 572l189 -484h-353l-191 484l344 483h353z" />
    <glyph glyph-name="guilsinglright" unicode="&#x203a;" horiz-adv-x="915" vert-adv-y="2275" 
d="M859 572l-345 -484h-355l346 484l-193 483h355z" />
    <glyph glyph-name="fraction" unicode="&#x2044;" horiz-adv-x="999" vert-adv-y="2275" 
d="M1307 1508l-1033 -1508h-343l1032 1508h344z" />
    <glyph glyph-name="Euro" unicode="&#x20ac;" horiz-adv-x="1450" vert-adv-y="2275" 
d="M1196 1022l-39 -248h-947l39 248h170q34 84 80.5 157t114 139.5t149 114t188 75.5t227.5 28q189 0 320 -72q12 -6 30 -20q11 -7 17 -13l-51 -317l-43 28q-11 7 -52 35t-64 41q-93 53 -199 53q-266 0 -385 -249h445zM931 -26q-121 0 -219.5 28t-164.5 75t-113 114t-71 140
t-31 157h-168l42 261h947l-42 -261h-447q18 -118 90 -183.5t219 -65.5q111 0 214 50q21 11 68 36.5t73 37.5l51 24l-49 -311l-10 -7q-138 -95 -389 -95z" />
    <glyph glyph-name="trademark" unicode="&#x2122;" horiz-adv-x="1929" vert-adv-y="2275" 
d="M610 1280v-705h-256v705h-263v220h934l255 -315l258 315h208v-925h-257v486l-160 -195h-97l-158 194v-485h-258v705h-206z" />
    <glyph glyph-name="arrowleft" unicode="&#x2190;" horiz-adv-x="1398" vert-adv-y="2275" 
d="M595 430l262 -430h-375l-351 562l529 562h375l-398 -430h829l-42 -264h-829z" />
    <glyph glyph-name="arrowright" unicode="&#x2192;" horiz-adv-x="1398" vert-adv-y="2275" 
d="M1445 562l-528 -562h-375l397 430h-829l42 264h829l-261 430h375z" />
    <glyph glyph-name="minus" unicode="&#x2212;" horiz-adv-x="1380" vert-adv-y="2275" 
d="M1420 696l-42 -269h-1239l42 269h1239z" />
    <glyph glyph-name="approxequal" unicode="&#x2248;" horiz-adv-x="1438" vert-adv-y="2275" 
d="M503 611l-33 -43l-24 -29l-217 183l38 49q69 88 171.5 138.5t228.5 50.5q86 0 224 -46q78 -25 85 -27q48 -12 86 -12q30 0 52 12t50 40q36 40 53 60l24 26l213 -180l-51 -62q-69 -81 -168.5 -127t-217.5 -46q-95 0 -239 48q-8 3 -36 12t-43 14q-45 12 -78 12
q-46 0 -83 -35q-15 -13 -35 -38zM433 173l-32 -43l-24 -29l-217 183l38 49q68 89 170.5 139t229.5 50q87 0 223 -46q5 -1 36.5 -11.5t49.5 -15.5q48 -12 85 -12q52 0 102 52q10 10 27.5 30.5t26.5 29.5l24 26l213 -180l-51 -62q-66 -81 -167 -127t-220 -46q-96 0 -238 48
q-12 4 -38.5 13t-40.5 13q-46 12 -78 12q-46 0 -84 -35q-11 -10 -35 -38z" />
    <glyph glyph-name="notequal" unicode="&#x2260;" horiz-adv-x="1380" vert-adv-y="2275" 
d="M728 239l-165 -239h-349l165 239h-270l43 271h414l72 103h-470l43 270h615l168 241h351l-168 -241h273l-43 -270h-419l-71 -103h474l-43 -271h-620z" />
    <glyph glyph-name="lessequal" unicode="&#x2264;" horiz-adv-x="1384" vert-adv-y="2275" 
d="M1300 193l-27 -166h-1154l43 270h858l-807 340l31 195l1233 459l-47 -299l-706 -256l625 -255l-46 -289z" />
    <glyph glyph-name="greaterequal" unicode="&#x2265;" horiz-adv-x="1384" vert-adv-y="2275" 
d="M1317 297l-43 -270h-1154l27 166l-5 -1l46 289l707 255l-626 256l47 299l1089 -459l-31 -195l-916 -340h859z" />
    <glyph glyph-name="uniF8FF" unicode="&#xf8ff;" horiz-adv-x="1008" vert-adv-y="2275" 
d="M978 1142v-1016h-948v1016h948zM172 366h109v189h373v98h-373v266h373v97h-483v-646zM725 467h-371v-101h483v650h-112v-182h-371v-104h371v-263zM563 241q8 0 14 4q2 0 5 1h2q7 0 7 5v25q-5 0 -7 4l-3 3l-7 1h-8l-5 4l-4 1q-1 2 -2 3.5t-1 2.5q0 7 7 7h5q5 -3 6 -4
q4 -3 7 -3q1 0 3 -1l2 -1l7 15q0 1 -2 1.5t-5.5 1.5t-6.5 2q-12 4 -14 4q-4 0 -14 -4q-5 -3 -8 -3l-4 -6q-3 -3 -3 -11q0 -2 0.5 -4t0.5 -3q0 -2 2 -3l2.5 -2.5t1.5 -2.5l5 -2q1 0 2.5 -0.5t2.5 -0.5q4 0 8 -4h4l3 -2l5 -3l1 -3q0 -5 -2 -5q-4 -2 -7 -2q-2 0 -14 5
q-3 0 -14 7l-4 -15q6 -8 15 -8q1 0 3.5 -1t4.5 -1q3 -2 9 -2zM270 241q18 0 28 10q9 9 12 27q0 14 -9 20q0 4 -3 6q-1 1 -3 3.5t-4 2.5q-5 5 -21 5q-12 0 -19 -5q-7 -2 -15 -12q-5 -12 -5 -20q0 -11 5 -18q8 -14 13 -15q7 -4 21 -4zM731 241q13 0 17 4q7 2 14 9l-12 12
q-3 -5 -10 -5q-2 -3 -9 -3q-6 0 -9 3l-2 2q-1 0 -5 6q-2 0 -2 11q0 6 2 9q0 1 3 3.5t4 3.5q3 4 9 4q7 0 9 -4q7 -1 10 -7l10 13q0 1 -1 2t-2 2.5t-2 3.5l-7 1l-8 4h-9q-18 0 -24 -11q-12 -5 -12 -26q0 -12 3 -18q9 -13 15 -15q5 -4 18 -4zM228 313h-56v-70h21v26h31v14h-31
v17h35v13zM335 313h-16v-70h18v41l31 -41h19v70h-19v-42zM394 300h23v-57h17v57h21v13h-61v-13zM499 313h-20l-32 -70h20l6 11h29l5 -11h22zM596 300h20v-57h20v57h22v13h-62v-13zM683 313h-18v-70h18v70zM812 313h-20l-32 -70h20l6 11h33l2 -11h22zM270 256q-5 0 -14 7
q-5 8 -5 15q0 6 2 11l3 4l5 3q2 4 9 4q5 0 11 -4q4 -1 7 -7l2 -5v-11q0 -1 -1 -3l-1 -2q-6 -7 -7 -7q-7 -5 -11 -5zM489 295l8 -26h-20zM801 295l9 -26h-20zM59 50l-4 -20h-5l-4 1l-11 44q2 2 4 2h7l4 -30q2 0 2 3q0 5 3 10q1 3 2 5.5t1.5 4t0.5 2.5v5h9l6 -15l3 -15
q2 2 2 4l2 11l3 13q0 2 4 2l6 -2q-6 -9 -6 -18q0 -1 -4 -13l-2 -11v-3h-10v3l-2 5l-3 12l-3 14zM129 47l-4 -17h-8q0 1 -3 1v7l-7 31l-3 6q3 2 5 2h5v-7q3 -3 3 -8l4 -15l8 30h8l2 -2l5 -15l1 -13l9 28q0 2 4 2l5 -2v-5l-2 -8q-1 -2 -2 -5t-1 -4l-6 -23h-5l-3 1l-7 16v8
q0 1 -3 3q-4 -2 -4 -3q0 -5 -1 -8zM202 64l-8 -33l-5 -1l-3 1l-2 7q0 7 -5 17l-1 15l-2 7h8l3 -15l4 -15l3 4l4 26h11l4 -15q1 -15 7 -15v15l2 15h6l5 -2l-2 -5q0 -6 -2 -8q0 -2 -0.5 -5t-0.5 -4l-7 -22l-1 -1h-7l-6 17l-3 13zM284 50v-19h-7v44l1 2h28v-8h-22v-12h17v-7
h-17zM343 30q-14 0 -17 12q-3 9 -3 11q0 9 3 12q0 5 6 5l5 7h8q13 0 20 -15q3 -10 0 -15q-3 -8 -7 -12q-5 -5 -15 -5zM394 60v-30h-9v47h9l18 -30v30h6v-46l-1 -1h-5zM460 69v-39h-9v39h-13v8h36v-8h-14zM493 31l-6 -1h-3q0 1 -2 1l2 6l5 12l6 15q1 1 2.5 4.5t3.5 6.5
q0 2 1 2h5l19 -46q-2 0 -2 -1h-2l-7 1l-2 11h-18zM559 30q-3 0 -6 0.5t-4 0.5q-2 1 -4 4t-3 3l-1 4v5h8q7 -9 10 -9q2 0 5 2q2 2 2 4v3q-1 2 -9 4q-11 0 -11 4q-6 7 -4 12q5 8 11 10h8q9 0 10 -7q3 0 3 -6v-2h-8v2q0 6 -7 6h-2q-6 -4 -6 -6l10 -4q2 -1 6.5 -3.5t6.5 -3.5
q0 -1 1 -3t1 -3q0 -8 -4 -10q-1 -6 -6 -6q-2 -1 -7 -1zM614 69v-39h-8v39h-14v8h36v-8h-14zM654 77v-47h-7v47h7zM696 30q-12 0 -21 17q-2 0 -2 6l2 9q1 8 14 15h6q9 0 12 -7q3 0 3 -3l1 -3l-4 -2h-2l-3 2q-4 6 -7 6l-10 -5q-3 -4 -3 -8l1 -7q0 -3 2 -5q0 -7 8 -7q5 0 9 9h5
q4 0 4 -2l-1 -3q-5 -12 -14 -12zM737 31l-6 -1h-1l-2 1l2 6l3 12q4 8 5 15l7 11q0 2 3 2h7l17 -46q-2 0 -2 -1h-4l-4 1l-5 11h-17zM836 30q-4 0 -12 3q-1 2 -5 9q-7 11 0 25q3 3 5 3q1 1 2 2.5t2 2.5t1 2h8q6 0 8 -2q4 0 4 -5q5 0 5 -3v-3q-2 0 -5 -2h-4v2q-2 5 -8 5
q-8 0 -8 -5q-3 -3 -3 -11q0 -6 3 -11q0 -4 8 -4q6 0 8 9h9v-7l-4 -3q-4 -7 -14 -7zM894 30q-12 0 -16 7q-7 9 -7 16q0 1 5 14q9 9 11 10q4 0 11 -2.5t8 -2.5q8 -2 8 -17q0 -12 -5 -18q-3 -7 -15 -7zM942 31l-4 -1h-4v47h14l3 -15l2 -11v-4l7 13q2 9 2 15v2h16v-47h-10v35
l-6 -15v-12l-2 -7v-1h-7l-2 1l-3 16l-6 17v-33zM345 38q12 0 12 9v13q0 2 -2.5 4t-2.5 3q-6 3 -7 3l-10 -5q0 -3 -2 -3v-9q0 -1 4 -11q4 -4 8 -4zM894 38q4 0 5 2q5 2 5 13q0 12 -5 14l-1 1q-1 1 -2 1q0 1 -2 1q-9 0 -9 -6q0 -1 -1 -5t-1 -6q0 -6 2 -11q0 -4 9 -4zM504 64
l-3 -2l-2 -12h10q-2 1 -2 7l-1 5zM750 64l-3 -2l-3 -12h11l-3 7l-2 5v2zM255 40v-9h-9v9h9zM797 40v-9h-9v9h9z" />
    <glyph glyph-name="_FSHallmark" horiz-adv-x="1414" vert-adv-y="2275" 
d="M1354 1133v-152h-1291v152h1291zM1075 258q-62 0 -105 14q-79 21 -130 80t-51 139l150 -3q0 -6 9 -26q3 -19 22 -38.5t38 -25.5q26 -16 74 -16q54 0 84 18q27 16 27 42q0 46 -122 71q-100 28 -188 70q-78 38 -78 127q0 70 44.5 112t120.5 68q93 12 105 12q62 0 145 -30
q55 -20 88 -69.5t33 -108.5h-154q0 34 -41 63q-4 1 -16.5 7.5t-20.5 7.5q-5 0 -18 3.5t-19 3.5q-36 0 -72 -22q-30 -17 -30 -47q0 -50 29 -63q3 -1 16.5 -7t25 -9.5t23.5 -5.5l58 -16l47 -11q6 -1 22 -5.5t24 -4.5q29 -6 36 -11l32 -15q31 -20 50 -42q18 -39 19 -70
q2 -29 -16 -76q-62 -116 -261 -116zM232 466v-208h-169v643h543v-145h-374v-147h312v-143h-312zM669 261q-28 0 -51 25q-27 23 -27 51q0 29 24 53q21 21 54 21q38 0 62 -23q26 -23 26 -51q0 -30 -26 -56q-29 -20 -62 -20zM1352 179v-152h-1292v152h1292z" />
    <glyph glyph-name="_Fontastica" horiz-adv-x="1085" vert-adv-y="2275" 
d="M220 456v-269h-155l-5 6v934h700v-138h-540v-388h540v-145h-540zM1025 1127v-940h-700v146h540v382h-540v149h540v263h160zM212 33q-13 0 -29 7q-11 3 -19.5 17.5t-8.5 28.5q0 22 17.5 37t39.5 15q26 0 46 -28q8 -8 8 -24q0 -23 -15.5 -38t-38.5 -15zM623 33
q-27 0 -48 16l11 20q17 -15 37 -15q12 0 12 10l-1 2q-2 1 -2 3l-5 4q-2 0 -11 3q-3 1 -9.5 2t-9.5 3q-15 8 -15 27q0 30 41 30q22 0 41 -11l-11 -22q-13 12 -40 12l-1 -1l-2 -7q0 -1 1 -2t1 -2l4 -6q3 0 6.5 -1t4.5 -1q12 0 24.5 -10t12.5 -22q0 -15 -12.5 -23.5t-28.5 -8.5
zM859 33q-16 0 -27 7q-12 5 -20 18.5t-8 27.5q0 10 9 25.5t19 19.5q14 7 27 7q7 0 23 -4q9 -5 18 -14l-16 -18q-3 3 -11.5 8.5t-12.5 5.5q-14 0 -23 -14q-4 -5 -4 -16q0 -20 12 -25q8 -6 15 -6q4 0 13.5 5t10.5 8l16 -15q-12 -20 -41 -20zM101 72v-37h-26v101h75v-20h-49
v-24h47v-20h-47zM304 95v-60h-26v101h25l45 -61v61h26v-101h-24zM442 114v-79h-27v79h-30v22h85v-22h-28zM494 54l-6 -19h-27l42 101h28l42 -101h-28l-6 19h-45zM724 114v-79h-26v79h-30v22h87v-22h-31zM792 136v-101h-26v101h26zM935 54l-9 -19h-26l44 101h28l42 -101h-29
l-8 19h-42zM212 54q11 0 19.5 9.5t8.5 22.5q0 10 -9 20t-19 10q-6 0 -16 -6q-13 -7 -13 -24q0 -14 8 -23t21 -9zM531 73l-15 36l-14 -36h29zM969 73l-14 36l-12 -36h26z" />
    <glyph glyph-name="_www.fontastica.com" horiz-adv-x="1953" vert-adv-y="2275" 
d="M66 353v-60h-34l-2 1v209h158v-31h-122v-87h122v-32h-122zM247 503v-210h-158v32h122v86h-122v33h122v59h36zM1250 310q-46 0 -81 28l18 36q11 -10 30.5 -18.5t32.5 -8.5q4 0 16 4q7 3 7 11t-5 10q-9 6 -29 12q-28 8 -31 10q-11 5 -20 15q-7 10 -7 28q0 27 20.5 40.5
t48.5 13.5q39 0 70 -20l-17 -36q-34 18 -57 18q-18 0 -18 -12t33 -22q24 -5 31 -10q16 -9 20 -16q8 -11 8 -29q0 -27 -20.5 -40.5t-49.5 -13.5zM543 309q-39 0 -66.5 26t-27.5 65t27 64.5t67 25.5t67 -25.5t27 -64.5q0 -40 -26.5 -65.5t-67.5 -25.5zM1656 309
q-38 0 -64.5 26.5t-26.5 64.5q0 39 27 64.5t66 25.5q44 0 70 -30l-26 -32q-16 23 -43 23q-21 0 -34.5 -14.5t-13.5 -35.5q0 -16 6 -26q16 -25 42 -25q23 0 43 20l27 -28q-33 -33 -73 -33zM354 375v-62h-45v174h130v-36h-85v-39h78v-37h-78zM703 417v-104h-43v174h40l80 -105
l-1 105h43v-174h-40zM938 450v-137h-45v137h-52v37h150v-37h-53zM1031 343l-12 -30h-47l75 174h47l73 -174h-48l-12 30h-76zM1426 450v-137h-46v137h-52v37h150v-37h-52zM1542 487v-174h-45v174h45zM1787 343l-12 -30h-47l75 174h47l73 -174h-49l-11 30h-76zM544 348
q20 0 33.5 16t13.5 36q0 7 -7 26q-9 25 -40 25q-21 0 -34.5 -14.5t-13.5 -36.5q0 -21 13.5 -36.5t34.5 -15.5zM1093 378l-23 63l-25 -63h48zM1849 378l-24 63l-24 -63h48z" />
    </font>
</defs>
</svg>
