<?xml version="1.0" standalone="no"?>
<!DOCTYPE svg PUBLIC "-//W3C//DTD SVG 1.1//EN" "http://www.w3.org/Graphics/SVG/1.1/DTD/svg11.dtd" >
<svg xmlns="http://www.w3.org/2000/svg" xmlns:xlink="http://www.w3.org/1999/xlink" version="1.1">
<metadata>
Created by FontForge 20170731 at Tue May  4 19:22:53 2021
 By Aleksey,,,
Copyright (c) 2021 by Fontastica. All rights reserved.
</metadata>
<defs>
<font id="UnivaNova-Heavy" horiz-adv-x="1256" vert-adv-y="2048" >
  <font-face 
    font-family="Univa Nova Heavy"
    font-weight="900"
    font-stretch="normal"
    units-per-em="2048"
    panose-1="0 0 10 0 0 0 0 0 0 0"
    ascent="1638"
    descent="-410"
    x-height="1145"
    cap-height="1508"
    bbox="-131 -534 2571 2118"
    underline-thickness="50"
    underline-position="-150"
    unicode-range="U+0020-F8FF"
  />
<missing-glyph horiz-adv-x="932" vert-adv-y="2275" 
d="M832 1167v-1158h-732v1158h732zM731 1097h-530l265 -438zM759 999l-248 -411l248 -413v824zM422 588l-248 408v-819zM731 80l-264 436l-264 -436h528z" />
    <glyph glyph-name="f_f.liga" unicode="ff" horiz-adv-x="1674" vert-adv-y="2275" 
d="M638 883v-883h-319v883h-209v262h209l-1 44q0 89 19 160t78 129q53 51 132.5 77.5t167.5 26.5q48 0 77.5 -7.5t75.5 -28.5l11 -4l16 -7l-3 -316l-152 92l-12 8q-1 0 -4 1t-5 1q-52 0 -66.5 -20t-14.5 -75v-81h349v48q0 91 18.5 159t78.5 126q52 51 132 77.5t167 26.5
q47 0 88 -11q14 -3 75 -22l19 -6l-5 -324l-151 92l-12 6q-2 2 -6 4h-4q-51 0 -65.5 -20t-14.5 -75v-81h251v-262h-251v-883h-319v883h-350z" />
    <glyph glyph-name="f_f_t.liga" unicode="fft" horiz-adv-x="2276" vert-adv-y="2275" 
d="M1928 -2q-85 0 -146 26t-93 70.5t-46 93t-14 104.5v591h-322v-883h-319v883h-350v-883h-319v883h-209v262h209l-1 44q0 89 19 160t78 129q53 51 132.5 77.5t167.5 26.5q47 0 77.5 -8t75.5 -28l11 -4l16 -7l-3 -316l-152 92l-12 8q-1 0 -4 1t-5 1q-52 0 -66.5 -20
t-14.5 -75v-81h349v48q0 91 18.5 159t78.5 126q52 51 132 77.5t167 26.5q37 0 87 -11q20 -5 76 -22l19 -6l-5 -324l-151 92l-12 6q-2 2 -6 4h-4q-51 0 -65.5 -20t-14.5 -75v-81h322v408h320v-408h216v-262h-216v-605q1 -3 1 -8t1 -7l1 -3h2q27 0 57 1t66.5 2.5t56.5 2.5
l32 1v-260l-29 -1q-187 -8 -209 -8z" />
    <glyph glyph-name="f_t.liga" unicode="ft" horiz-adv-x="1633" vert-adv-y="2275" 
d="M1284 -2q-68 0 -121 18t-85.5 46.5t-53.5 68t-29 79t-8 82.5v591h-349v-883h-319v883h-209v262h209l-1 44q0 90 19 160.5t78 128.5q52 51 132.5 77.5t167.5 26.5q47 0 77.5 -8t75.5 -28l11 -4l16 -7l-3 -323l-142 93l-11 8q-6 4 -9 5q-5 3 -11 3q-52 0 -66.5 -20
t-14.5 -75v-81h349v408h319v-408h215v-262h-215v-617l1 -7l1 1h3q30 0 90 2t91 2h30v-257l-29 -1q-184 -8 -209 -8z" />
    <glyph glyph-name=".notdef" horiz-adv-x="932" vert-adv-y="2275" 
d="M832 1167v-1158h-732v1158h732zM731 1097h-530l265 -438zM759 999l-248 -411l248 -413v824zM422 588l-248 408v-819zM731 80l-264 436l-264 -436h528z" />
    <glyph glyph-name=".null" horiz-adv-x="0" vert-adv-y="2275" 
 />
    <glyph glyph-name="nonmarkingreturn" horiz-adv-x="682" 
 />
    <glyph glyph-name="space" unicode=" " horiz-adv-x="541" vert-adv-y="2275" 
 />
    <glyph glyph-name="exclam" unicode="!" horiz-adv-x="709" vert-adv-y="2275" 
d="M521 1508l-15 -1175h-304l-19 1175h338zM355 -55q-86 0 -134 56t-48 118q0 61 48 117t134 56q59 0 102.5 -29.5t62 -67.5t18.5 -76q0 -27 -11 -56.5t-32.5 -56.5t-58 -44t-81.5 -17z" />
    <glyph glyph-name="quotedbl" unicode="&#x22;" horiz-adv-x="959" vert-adv-y="2275" 
d="M450 1500v-688h-263v688h263zM772 1500v-688h-264v688h264z" />
    <glyph glyph-name="numbersign" unicode="#" horiz-adv-x="1491" vert-adv-y="2275" 
d="M637 410l-91 -410h-320l90 410h-218l54 264h224l34 153h-223l58 265h225l92 416h320l-93 -416h61l92 416h321l-93 -416h224l-57 -265h-226l-34 -153h228l-59 -264h-229l-92 -410h-319l91 410h-60zM790 827h-59l-34 -153h60z" />
    <glyph glyph-name="dollar" unicode="$" horiz-adv-x="1404" vert-adv-y="2275" 
d="M882 -10v-220h-309v213q-117 17 -206.5 62.5t-145 111.5t-86.5 141.5t-42 163.5l-6 56l-2 25h322l3 -20q2 -10 7.5 -48t11.5 -58q35 -123 144 -159v410q-200 61 -306.5 166.5t-106.5 267.5q0 155 109 270.5t304 149.5v217h309v-218q149 -29 248 -113.5t141 -203.5
q21 -58 44 -216l3 -25h-327l-2 21q-11 89 -32 147t-75 95v-358q208 -62 316.5 -167.5t108.5 -272.5q0 -162 -111 -281.5t-314 -156.5zM573 964v282q-90 -36 -90 -140q0 -52 20.5 -84.5t69.5 -57.5zM882 572v-303q103 46 103 151q0 57 -23 91.5t-80 60.5z" />
    <glyph glyph-name="percent" unicode="%" horiz-adv-x="2081" vert-adv-y="2275" 
d="M454 557q-92 0 -172 40q-64 33 -109.5 90t-67 125.5t-30 129t-8.5 122.5q0 63 8 122.5t29.5 129t67 126.5t110.5 90q79 40 172 40t172 -40q65 -33 110 -90.5t66.5 -126t30 -128.5t8.5 -123q0 -61 -9 -121.5t-30 -129.5t-66.5 -126.5t-109.5 -89.5q-80 -40 -172 -40z
M1653 1508l-878 -1508h-348l881 1508h345zM288 939l197 457q-22 4 -31 4q-68 0 -118 -71q-57 -86 -57 -265q0 -70 9 -125zM454 730q68 0 118 70q56 83 56 264q0 76 -10 129l-199 -459q15 -4 35 -4zM1666 -22q-92 0 -172 40q-64 33 -109.5 90t-67 125.5t-30 129t-8.5 122.5
q0 63 8 122.5t29.5 129t67 126.5t110.5 90q79 40 172 40t172 -40q65 -33 110 -90.5t66.5 -126t30 -128.5t8.5 -123q0 -61 -9 -121.5t-30 -129.5t-66.5 -126.5t-109.5 -89.5q-80 -40 -172 -40zM1500 360l197 457q-22 4 -31 4q-68 0 -118 -71q-57 -86 -57 -265q0 -70 9 -125z
M1666 151q68 0 118 70q56 83 56 264q0 77 -10 129l-199 -459q15 -4 35 -4z" />
    <glyph glyph-name="ampersand" unicode="&#x26;" horiz-adv-x="1691" vert-adv-y="2275" 
d="M668 -32q-255 0 -403 126t-148 320q0 238 253 393q-135 154 -135 309q0 77 31 150.5t88.5 133.5t148.5 96t201 36q213 0 343 -115t130 -276q0 -255 -297 -402l212 -186q18 69 18 140q0 63 -5 94l-3 24l332 20v-25q0 -16 0.5 -50t0.5 -51q0 -198 -97 -370l349 -307
l-430 -16l-113 102q-200 -146 -476 -146zM656 938q115 47 155 89q38 38 38 109q0 59 -37 95t-106 36q-32 0 -72 -16q-28 -11 -50 -43q-21 -30 -21 -82q0 -54 22.5 -97.5t70.5 -90.5zM665 233q141 0 256 78l-337 299q-141 -79 -141 -195q0 -182 222 -182z" />
    <glyph glyph-name="quotesingle" unicode="'" horiz-adv-x="638" vert-adv-y="2275" 
d="M450 1500v-688h-263v688h263z" />
    <glyph glyph-name="parenleft" unicode="(" horiz-adv-x="900" vert-adv-y="2275" 
d="M794 -276l23 -34h-347l-9 12q-139 190 -206.5 439.5t-67.5 495.5q0 406 162 741q29 62 87 154q11 19 27 40l9 11h345l-20 -33q-8 -13 -25 -38t-25 -38q-238 -363 -238 -837q0 -357 141 -662q57 -124 144 -251z" />
    <glyph glyph-name="parenright" unicode=")" horiz-adv-x="900" vert-adv-y="2275" 
d="M439 -298l-8 -12h-344l20 33l16 25q95 158 127 227q142 300 142 662q0 462 -239 838l-49 75l-21 33h347l8 -13l27 -39q60 -97 87 -153q162 -337 162 -741q0 -246 -68 -495.5t-207 -439.5z" />
    <glyph glyph-name="asterisk" unicode="*" horiz-adv-x="1048" vert-adv-y="2275" 
d="M648 732l-125 165l-125 -167l-245 176l132 170l-216 64l90 257l208 -66l-2 205h318l-2 -207l210 66l90 -257l-219 -64l134 -174z" />
    <glyph glyph-name="plus" unicode="+" horiz-adv-x="1380" vert-adv-y="2275" 
d="M850 427v-427h-318v427h-461v269h461v428h318v-428h460v-269h-460z" />
    <glyph glyph-name="comma" unicode="," horiz-adv-x="712" vert-adv-y="2275" 
d="M588 317l-211 -500h-308l158 500h361z" />
    <glyph glyph-name="hyphen" unicode="-" horiz-adv-x="1006" vert-adv-y="2275" 
d="M915 694v-264h-824v264h824z" />
    <glyph glyph-name="period" unicode="." horiz-adv-x="638" vert-adv-y="2275" 
d="M318 -17q-88 0 -140.5 51.5t-52.5 116.5t52 116.5t141 51.5t141.5 -51.5t52.5 -116.5q0 -64 -53.5 -116t-140.5 -52z" />
    <glyph glyph-name="slash" unicode="/" horiz-adv-x="1081" vert-adv-y="2275" 
d="M1035 1508l-647 -1508h-342l647 1508h342z" />
    <glyph glyph-name="zero" unicode="0" horiz-adv-x="1383" vert-adv-y="2275" 
d="M688 -21q-154 0 -277 99.5t-191.5 276t-68.5 397.5q0 165 40.5 308.5t111 245.5t170.5 160t215 58t215 -58t170.5 -160t111 -245.5t40.5 -308.5q0 -221 -68.5 -397.5t-191.5 -276t-277 -99.5zM688 267q109 6 180.5 143.5t71.5 341.5t-71.5 341t-180.5 143
q-109 -6 -180.5 -143t-71.5 -341q0 -203 72 -341t180 -144z" />
    <glyph glyph-name="one" unicode="1" horiz-adv-x="1393" vert-adv-y="2275" 
d="M1236 268v-268h-1003v268h340v965h-340v275h665v-1240h338z" />
    <glyph glyph-name="two" unicode="2" horiz-adv-x="1385" vert-adv-y="2275" 
d="M1259 270v-270h-1143v207l595 510q185 157 185 313q0 50 -11.5 91.5t-36 76t-69.5 54t-106 19.5q-153 0 -200 -125q-10 -24 -15 -62q-1 -10 -3.5 -32.5t-4.5 -33.5l-3 -21h-331l7 45q11 69 16 95q13 59 28 95q57 141 186 222.5t320 81.5q141 0 249.5 -42t172.5 -113.5
t96 -159t32 -186.5q0 -271 -291 -515l-298 -250h625z" />
    <glyph glyph-name="three" unicode="3" horiz-adv-x="1385" vert-adv-y="2275" 
d="M692 -26q-266 0 -422 134.5t-156 336.5v90h326v-90q0 -97 64 -151.5t188 -54.5t187.5 54t63.5 152q0 96 -63 146.5t-188 50.5h-218v263h218q106 0 161.5 50.5t55.5 136.5q0 85 -55 132t-162 47t-160.5 -46.5t-53.5 -132.5v-92h-323v92q0 90 36.5 170.5t103.5 141.5
t170 96.5t227 35.5q164 0 288.5 -61.5t187.5 -161.5t63 -221q0 -183 -133 -306q85 -66 129 -156t44 -185q0 -132 -67.5 -238t-200.5 -169.5t-311 -63.5z" />
    <glyph glyph-name="four" unicode="4" horiz-adv-x="1380" vert-adv-y="2275" 
d="M1102 344v-344h-322v344h-718v204l764 960h276v-895h199v-269h-199zM780 613v357l-285 -357h285z" />
    <glyph glyph-name="five" unicode="5" horiz-adv-x="1392" vert-adv-y="2275" 
d="M701 -26q-108 0 -200 26.5t-157 72.5t-113 108t-73.5 131.5t-32.5 144.5l-3 54l-1 24h317l2 -21l2 -15q7 -44 17.5 -79t30.5 -70.5t47 -58.5t69 -37.5t95 -14.5q99 0 168 69q76 77 76 213q0 108 -61 180t-185 72q-55 0 -105.5 -23t-84.5 -61q-48 -55 -49 -93v-23h-301
l79 935h974v-271h-668l-18 -224q90 26 185 26q135 0 245 -46.5t177.5 -122t103.5 -165.5t36 -184q0 -75 -22 -150.5t-69 -147t-112.5 -127t-161 -89t-207.5 -33.5z" />
    <glyph glyph-name="six" unicode="6" horiz-adv-x="1384" vert-adv-y="2275" 
d="M707 -29q-140 0 -254 50t-192 141q-127 148 -127 375q0 413 379 795q2 1 36.5 34t59.5 56q31 28 62 54q18 14 24 18q4 3 12 7q17 6 20 6l467 23l-54 -43l-164 -128q-205 -162 -334 -328q45 6 90 6q136 0 247.5 -49t179 -127.5t104 -171t36.5 -186.5q0 -97 -39.5 -191
t-111.5 -170.5t-187 -123.5t-254 -47zM709 236q126 0 193 76t67 184v24q0 52 -23 104.5t-65 88.5q-69 59 -164 59q-83 0 -143.5 -39t-87.5 -97.5t-27 -126.5v-23q0 -6 5 -33q21 -108 82 -159q69 -58 163 -58z" />
    <glyph glyph-name="seven" unicode="7" horiz-adv-x="1383" vert-adv-y="2275" 
d="M726 21l-2 -21h-335l6 46q18 138 61 325q111 480 381 866h-741v271h1183v-197l-6 -11l-1 -1q-64 -64 -174 -226q-156 -225 -240 -464.5t-124 -527.5q-6 -40 -8 -60z" />
    <glyph glyph-name="eight" unicode="8" horiz-adv-x="1385" vert-adv-y="2275" 
d="M692 -26q-266 0 -422 134.5t-156 336.5q0 96 43.5 186t127.5 156q-130 123 -130 305q0 90 36.5 170.5t104 141.5t170 96.5t226.5 35.5t227 -35.5t170.5 -96t104.5 -141t37 -171.5q0 -183 -133 -306q85 -66 129 -156t44 -185q0 -132 -67.5 -238t-200.5 -169.5t-311 -63.5z
M692 905q107 0 162 50t55 137q0 85 -55 132t-162 47t-160.5 -46.5t-53.5 -132.5q0 -88 53 -137.5t161 -49.5zM692 239q124 0 187.5 54t63.5 152q0 96 -63 146.5t-188 50.5q-124 0 -188 -50.5t-64 -146.5q0 -98 64 -152t188 -54z" />
    <glyph glyph-name="nine" unicode="9" horiz-adv-x="1384" vert-adv-y="2275" 
d="M661 -16l-468 -22l52 43q32 25 94 72.5t73 55.5q192 147 330 325q-44 -6 -88 -6q-110 0 -204.5 32.5t-160 86.5t-112 123.5t-68.5 144.5t-22 149q0 77 24 153t74 144.5t119 121.5t166.5 84t208.5 31q77 0 149 -18q93 -23 166.5 -66.5t121 -97t79 -119.5t44.5 -131.5
t13 -134.5q0 -177 -72 -350t-190.5 -317.5t-283.5 -279.5l-14 -10l-9 -6q-6 -4 -22 -8zM668 718q124 0 191 77.5t67 184.5v26q0 12 -4 32q-17 94 -78.5 155.5t-167.5 61.5q-125 0 -192.5 -76t-67.5 -184v-25q0 -4 5 -32q21 -109 82 -160q71 -60 165 -60z" />
    <glyph glyph-name="colon" unicode=":" horiz-adv-x="638" vert-adv-y="2275" 
d="M318 805q-89 0 -141 50t-52 115q0 66 51.5 117t141.5 51t142 -51t52 -117q0 -64 -53 -114.5t-141 -50.5zM318 -17q-88 0 -140.5 51.5t-52.5 116.5t52 116.5t141 51.5t141.5 -51.5t52.5 -116.5q0 -64 -53.5 -116t-140.5 -52z" />
    <glyph glyph-name="semicolon" unicode=";" horiz-adv-x="712" vert-adv-y="2275" 
d="M348 805q-89 0 -141 50t-52 115q0 66 51.5 117t141.5 51q89 0 141.5 -51.5t52.5 -116.5q0 -63 -53.5 -114t-140.5 -51zM588 317l-211 -500h-308l158 500h361z" />
    <glyph glyph-name="less" unicode="&#x3c;" horiz-adv-x="1384" vert-adv-y="2275" 
d="M607 562l666 -256v-299l-1161 457v196l1161 456v-298z" />
    <glyph glyph-name="equal" unicode="=" horiz-adv-x="1380" vert-adv-y="2275" 
d="M1310 883v-270h-1239v270h1239zM1310 510v-271h-1239v271h1239z" />
    <glyph glyph-name="greater" unicode="&#x3e;" horiz-adv-x="1384" vert-adv-y="2275" 
d="M1273 660v-196l-1161 -457v299l666 256l-666 256v298z" />
    <glyph glyph-name="question" unicode="?" horiz-adv-x="1261" vert-adv-y="2275" 
d="M763 455v-131h-322v131q0 55 15.5 104t49 93.5t59.5 72.5t72 70q23 21 69 64q30 28 58 65q56 74 56 151q0 88 -48 142t-149 54q-103 0 -154.5 -63.5t-51.5 -156.5q0 -26 5 -74t6 -68l1 -24h-328l-1 22q-1 18 -5 69t-4 79q0 89 34.5 173t98.5 153.5t168 112t231 42.5
q126 0 227.5 -38t165.5 -102t98 -145t34 -171q0 -116 -52.5 -212.5t-157.5 -189.5q-96 -83 -103 -90q-55 -52 -68 -94q-4 -16 -4 -39zM598 -55q-86 0 -134 56t-48 118q0 61 48 117t134 56q59 0 102.5 -29.5t62 -67.5t18.5 -76q0 -27 -11 -56.5t-32.5 -56.5t-58 -44
t-81.5 -17z" />
    <glyph glyph-name="at" unicode="@" horiz-adv-x="1869" vert-adv-y="2275" 
d="M945 -227q-170 0 -310.5 44.5t-235.5 119.5t-160.5 176t-95 211.5t-29.5 227.5q0 96 23.5 191t69.5 185.5t119 167.5t165 135t215.5 91t264.5 33q186 0 337.5 -56t247.5 -151t147.5 -216t51.5 -255q0 -124 -48 -247.5t-150 -204.5h181l-30 -35q-25 -29 -76 -97
q-55 -68 -86 -96q-113 -105 -269 -164.5t-332 -59.5zM945 31q184 0 316 92q-101 3 -171 59q-102 -59 -223 -59q-182 0 -290 116q-100 105 -100 274q0 85 26 171q18 60 53 114.5t86.5 101t126.5 74.5t163 28q132 0 228 -64h193q-123 152 -382 152q-134 0 -240 -47
t-169.5 -125t-96.5 -171.5t-33 -194.5q0 -81 16.5 -155t55.5 -141.5t97 -116.5t146 -78.5t198 -29.5zM1303 389q14 3 44 18q44 25 68 108t24 153q0 117 -48 210l-87 -420q-4 -20 -4 -45q0 -9 3 -24zM886 382q11 0 35 15q41 26 64 91t23 123q0 59 -13 89q-18 42 -57 42
q-72 0 -109 -80q-30 -61 -30 -147q0 -65 14 -94q19 -39 73 -39z" />
    <glyph glyph-name="A" unicode="A" horiz-adv-x="1835" vert-adv-y="2275" 
d="M621 375l-164 -375h-347l676 1508h266l673 -1508h-350l-164 375h-590zM1090 645l-174 395l-175 -395h349z" />
    <glyph glyph-name="B" unicode="B" horiz-adv-x="1479" vert-adv-y="2275" 
d="M771 0h-661v1508h653q279 0 426 -121q145 -119 145 -319q0 -178 -133 -295q83 -60 125.5 -145.5t42.5 -176.5q0 -213 -158.5 -332t-439.5 -119zM771 1237h-340v-338h340q130 0 185 36.5t55 132.5q0 93 -56.5 131t-183.5 38zM784 628h-353v-358h351q133 0 199 42.5
t66 138.5q0 94 -66 135.5t-197 41.5z" />
    <glyph glyph-name="C" unicode="C" horiz-adv-x="1808" vert-adv-y="2275" 
d="M910 -26q-142 0 -273 39q-111 34 -201.5 95.5t-150 135.5t-100 162t-58 174.5t-17.5 173.5q0 93 21 185.5t63.5 184t117.5 172t174 133.5q195 107 424 107q266 0 456 -123.5t275 -321.5q34 -76 50 -177l6 -46h-318l-6 17q-8 20 -17 55q-21 70 -41 105q-57 104 -161.5 165
t-243.5 61q-97 0 -184 -36q-77 -31 -135 -85t-91 -120.5t-48.5 -135.5t-15.5 -140t15.5 -140t48.5 -135t90.5 -120.5t134.5 -85.5q86 -34 185 -34q139 0 244 60.5t162 163.5q25 47 39 104q2 7 6 26t7 29l5 18h325l-7 -46q-17 -99 -50 -177q-85 -198 -275 -320.5t-456 -122.5
z" />
    <glyph glyph-name="D" unicode="D" horiz-adv-x="1636" vert-adv-y="2275" 
d="M641 0h-531v1508h531q216 0 387 -59.5t278 -163.5t163 -239t56 -292t-56 -292t-163.5 -239t-278.5 -163.5t-386 -59.5zM633 1237h-202v-967h202q290 0 428.5 127.5t138.5 356.5q0 228 -138.5 355.5t-428.5 127.5z" />
    <glyph glyph-name="E" unicode="E" horiz-adv-x="1361" vert-adv-y="2275" 
d="M1252 270v-270h-1142v1508h1142v-271h-821v-338h690v-271h-690v-358h821z" />
    <glyph glyph-name="F" unicode="F" horiz-adv-x="1361" vert-adv-y="2275" 
d="M431 628v-628h-321v1508h1142v-271h-821v-338h690v-271h-690z" />
    <glyph glyph-name="G" unicode="G" horiz-adv-x="1808" vert-adv-y="2275" 
d="M910 -26q-142 0 -273 39q-111 34 -201.5 95.5t-150 135.5t-100 162t-58 174.5t-17.5 173.5q0 93 21 185.5t63.5 184t117.5 172t174 133.5q196 107 415 107h11q75 0 167 -18q141 -28 255.5 -98.5t187.5 -161t113 -198.5q22 -58 36 -143h-328l-6 23q-17 63 -41 105
q-55 101 -158.5 163.5t-236.5 62.5q-86 0 -176 -36q-77 -29 -134.5 -83.5t-90 -121.5t-48.5 -136.5t-16 -139.5t16 -139.5t48.5 -136t90.5 -121t134 -84.5q87 -34 185 -34q97 0 177 31t133.5 84t87 118t46.5 139h-555v270l880 -3l-3 -878h-314v103q-190 -129 -452 -129z" />
    <glyph glyph-name="H" unicode="H" horiz-adv-x="1533" vert-adv-y="2275" 
d="M431 628v-628h-321v1508h321v-609h670v609h321v-1508h-321v628h-670z" />
    <glyph glyph-name="I" unicode="I" horiz-adv-x="858" vert-adv-y="2275" 
d="M748 264v-264h-638v264h156v979h-156v265h638v-265h-157v-979h157z" />
    <glyph glyph-name="J" unicode="J" horiz-adv-x="1535" vert-adv-y="2275" 
d="M768 -26q-142 0 -256.5 39t-188 102.5t-123 149.5t-70 175.5t-20.5 184.5q0 1 3 70l1 23l319 -6v-89q0 -57 10 -109.5t34.5 -103.5t61.5 -88t96 -60t133 -23t132.5 23t95.5 60.5t61 88.5t34 103t10 109v885h323v-867q0 -98 -19 -188t-66.5 -179t-120 -154t-188.5 -105.5
t-262 -40.5z" />
    <glyph glyph-name="K" unicode="K" horiz-adv-x="1668" vert-adv-y="2275" 
d="M431 540v-540h-321v1508h321v-573l675 573h453l-780 -670l710 -838h-398l-540 643z" />
    <glyph glyph-name="L" unicode="L" horiz-adv-x="1361" vert-adv-y="2275" 
d="M1252 270v-270h-1142v1508h321v-1238h821z" />
    <glyph glyph-name="M" unicode="M" horiz-adv-x="1695" vert-adv-y="2275" 
d="M431 953v-953h-321v1508h259l478 -580l479 580h259v-1508h-323v953l-351 -422h-129z" />
    <glyph glyph-name="N" unicode="N" horiz-adv-x="1533" vert-adv-y="2275" 
d="M431 947v-947h-321v1508h283l708 -948v948h321v-1508h-283z" />
    <glyph glyph-name="O" unicode="O" horiz-adv-x="1865" vert-adv-y="2275" 
d="M932 -26q-162 0 -299.5 46.5t-232 124t-161.5 179t-98 210.5t-31 220q0 92 22.5 184t66 179.5t113 163t158 133t207.5 90t255 32.5q163 0 300.5 -46.5t232 -124t161 -179.5t97.5 -211.5t31 -220.5t-31 -220.5t-97.5 -211t-161 -178.5t-232 -123.5t-300.5 -46.5zM932 239
q100 0 183.5 30.5t140 81.5t96 118t57.5 139t18 146q0 98 -28.5 187.5t-99 171t-174.5 121.5q-94 37 -193 37q-93 0 -190 -37q-105 -39 -176 -120.5t-100.5 -172t-29.5 -187.5t29.5 -187.5t101 -171.5t175.5 -121q90 -35 190 -35z" />
    <glyph glyph-name="P" unicode="P" horiz-adv-x="1444" vert-adv-y="2275" 
d="M431 628v-628h-321v1508h653q271 0 421 -117t150 -323q0 -91 -35 -175t-110 -144q-150 -121 -426 -121h-332zM771 1237h-340v-338h340q127 0 183.5 38.5t56.5 131.5t-56.5 130.5t-183.5 37.5z" />
    <glyph glyph-name="Q" unicode="Q" horiz-adv-x="1865" vert-adv-y="2275" 
d="M1501 175l234 -183l-214 -204l-294 231q-132 -45 -295 -45q-162 0 -299.5 46.5t-232.5 123.5t-161.5 178.5t-97.5 211t-31 220.5q0 92 22.5 184t66 179.5t113 163t158 133t207.5 90t255 32.5q163 0 300.5 -46.5t232 -124t161 -179.5t97.5 -211.5t31 -220.5
q0 -162 -62 -313.5t-191 -265.5zM932 239q100 0 183.5 30.5t140 81.5t96 118t57.5 139t18 146q0 98 -28.5 187.5t-99 171t-174.5 121.5q-94 37 -193 37q-93 0 -190 -37q-105 -39 -176 -120.5t-100.5 -172t-29.5 -187.5t29.5 -187.5t101 -171.5t175.5 -121q90 -35 190 -35z
" />
    <glyph glyph-name="R" unicode="R" horiz-adv-x="1504" vert-adv-y="2275" 
d="M431 628v-628h-321v1508h653q271 0 421 -117t150 -323q0 -145 -83 -255t-253 -156l396 -657h-371l-368 628h-224zM771 1237h-340v-338h340q127 0 183.5 38.5t56.5 131.5t-56.5 130.5t-183.5 37.5z" />
    <glyph glyph-name="S" unicode="S" horiz-adv-x="1496" vert-adv-y="2275" 
d="M748 -24q-215 0 -371.5 89t-220.5 244q-30 72 -44 212l-2 25h331l2 -21l6 -45q16 -113 90 -172q77 -62 209 -62q112 0 183 32q112 51 112 151q0 68 -42 104q-29 26 -127 53q-62 17 -225 47q-102 20 -177.5 42t-144.5 57.5t-112.5 81t-69 110.5t-25.5 148q0 132 85 238
t228.5 163t314.5 57q215 0 372 -90t220 -247q20 -45 30 -106q8 -47 13 -105l3 -25h-331l-3 21q-2 24 -8 64q-7 35 -17 61q-32 75 -104 116t-175 41q-110 0 -182 -34q-114 -52 -114 -152q0 -64 43 -103q29 -26 126 -52q73 -20 223 -48q104 -20 179 -42t145 -57t113 -80
t68.5 -111t25.5 -150q0 -132 -85.5 -237t-228 -161.5t-313.5 -56.5z" />
    <glyph glyph-name="T" unicode="T" horiz-adv-x="1481" vert-adv-y="2275" 
d="M900 1237v-1237h-322v1237h-468v271h1261v-271h-471z" />
    <glyph glyph-name="U" unicode="U" horiz-adv-x="1534" vert-adv-y="2275" 
d="M766 -26q-146 0 -262 40.5t-188.5 105.5t-120 154t-66.5 179t-19 188v867h322v-885q0 -56 10 -108.5t34.5 -103.5t61.5 -88.5t95.5 -60.5t132.5 -23t133 23t96 60.5t61.5 88.5t34.5 103t10 109v885h322v-867q0 -98 -19 -188t-67 -179t-120.5 -154t-188.5 -105.5
t-262 -40.5z" />
    <glyph glyph-name="V" unicode="V" horiz-adv-x="1791" vert-adv-y="2275" 
d="M1681 1508l-650 -1508h-269l-652 1508h348l440 -1029l439 1029h344z" />
    <glyph glyph-name="W" unicode="W" horiz-adv-x="2463" vert-adv-y="2275" 
d="M2353 1508l-520 -1510h-282l-319 960l-322 -958h-284l-516 1508h343l316 -957l320 957h288l318 -959l319 959h339z" />
    <glyph glyph-name="X" unicode="X" horiz-adv-x="1891" vert-adv-y="2275" 
d="M947 529l-434 -529h-398l634 763l-639 745h401l436 -514l437 514h398l-639 -745l635 -763h-395z" />
    <glyph glyph-name="Y" unicode="Y" horiz-adv-x="1891" vert-adv-y="2275" 
d="M1106 719v-719h-322v724l-674 784h402l435 -514l438 514h397z" />
    <glyph glyph-name="Z" unicode="Z" horiz-adv-x="1523" vert-adv-y="2275" 
d="M1413 270v-270h-1303v194l849 1043h-840v271h1286v-196l-847 -1042h855z" />
    <glyph glyph-name="bracketleft" unicode="[" horiz-adv-x="806" vert-adv-y="2275" 
d="M760 -45v-265h-600v1893h600v-264h-282v-1364h282z" />
    <glyph glyph-name="backslash" unicode="\" horiz-adv-x="1081" vert-adv-y="2275" 
d="M388 1508l647 -1508h-342l-647 1508h342z" />
    <glyph glyph-name="bracketright" unicode="]" horiz-adv-x="806" vert-adv-y="2275" 
d="M645 1583v-1893h-599v265h281v1364h-281v264h599z" />
    <glyph glyph-name="asciicircum" unicode="^" horiz-adv-x="1482" vert-adv-y="2275" 
d="M741 1024l-250 -584h-341l467 1068h247l469 -1068h-342z" />
    <glyph glyph-name="underscore" unicode="_" horiz-adv-x="1212" vert-adv-y="2275" 
d="M1212 -5v-264h-1212v264h1212z" />
    <glyph glyph-name="grave" unicode="`" horiz-adv-x="1029" vert-adv-y="2275" 
d="M588 1671l209 -500h-323l-239 500h353z" />
    <glyph glyph-name="a" unicode="a" horiz-adv-x="1290" vert-adv-y="2275" 
d="M591 -23q-225 0 -353 101.5t-128 272.5q0 166 112.5 260t304.5 111q33 3 106 7l227 14q-8 73 -54 107.5t-144 34.5q-99 0 -144.5 -33t-53.5 -103h-318q14 178 145 287t371 109q130 0 231.5 -34.5t163 -96t93 -140.5t31.5 -173v-701h-320v25q-121 -48 -270 -48zM591 239
q128 0 199 60t71 161v24q-114 -5 -176 -10q-161 -12 -193 -25q-62 -26 -62 -98q0 -60 38.5 -86t122.5 -26z" />
    <glyph glyph-name="b" unicode="b" horiz-adv-x="1417" vert-adv-y="2275" 
d="M708 -23q-149 0 -280 63v-40h-318v1508h318v-426q128 63 280 63q118 0 218.5 -36t169 -95.5t117.5 -136t71.5 -156.5t22.5 -159t-22.5 -159.5t-71 -157t-117.5 -136t-169.5 -96t-218.5 -36.5zM708 241q67 0 133 36q74 41 110 120t36 165q0 84 -37 165t-109 120
q-64 36 -133 36q-68 0 -134 -37q-72 -40 -109 -120t-37 -164q0 -86 36.5 -164.5t110.5 -120.5q66 -36 133 -36z" />
    <glyph glyph-name="c" unicode="c" horiz-adv-x="1429" vert-adv-y="2275" 
d="M710 -22q-118 0 -219 36t-169.5 95.5t-117.5 136.5t-71.5 157t-22.5 159t22.5 159t71.5 156.5t117.5 136t169.5 95.5t219 36q181 0 316 -82.5t208 -214.5q49 -90 77 -224l6 -27h-329l-3 20q-12 71 -47.5 134.5t-94.5 95.5q-64 36 -133 36q-68 0 -134 -37
q-72 -39 -109 -119.5t-37 -164.5t37 -165t108 -119q67 -36 135 -36q69 0 133 35q59 33 89 86t50 129l9 33h327l-7 -27l-15 -59q-23 -89 -67 -167t-113.5 -146t-174 -108t-231.5 -40z" />
    <glyph glyph-name="d" unicode="d" horiz-adv-x="1417" vert-adv-y="2275" 
d="M710 -23q-118 0 -219 36.5t-169.5 96t-117.5 136t-71.5 157t-22.5 159.5t22.5 159t71.5 156.5t117.5 136t169.5 95.5t219 36q148 0 279 -63v426h318v-1508h-318v40q-131 -63 -279 -63zM710 241q67 0 133 36q74 41 110 120t36 165q0 84 -37 165t-109 120q-64 36 -133 36
q-68 0 -134 -37q-72 -40 -109 -120t-37 -164q0 -86 36.5 -164.5t110.5 -120.5q66 -36 133 -36z" />
    <glyph glyph-name="e" unicode="e" horiz-adv-x="1448" vert-adv-y="2275" 
d="M724 -23q-120 0 -222.5 35.5t-173 94.5t-121 135t-74 157.5t-23.5 162.5t23.5 162t73.5 157t121 134.5t173.5 94t222.5 35.5t222.5 -35.5t173 -94t121 -134.5t74 -157t23.5 -162q0 -40 -11 -97l-4 -20h-875q29 -89 100 -146.5t176 -57.5q154 0 241 133q10 15 21 40
l309 -72q-21 -49 -57 -104q-80 -118 -212.5 -189.5t-301.5 -71.5zM461 711h526q-34 77 -101 124.5t-162 47.5t-161.5 -47.5t-101.5 -124.5z" />
    <glyph glyph-name="f" unicode="f" horiz-adv-x="1005" vert-adv-y="2275" 
d="M638 883v-883h-319v883h-209v262h209l-1 44q0 90 19 160.5t78 128.5q52 51 132.5 77.5t167.5 26.5q48 0 77.5 -7.5t75.5 -28.5l11 -4l16 -7l-3 -316l-152 92l-12 8q-1 0 -4 1t-5 1q-52 0 -66.5 -20t-14.5 -75v-81h250v-262h-250z" />
    <glyph glyph-name="g" unicode="g" horiz-adv-x="1417" vert-adv-y="2275" 
d="M734 -408q-145 0 -260 45q-236 91 -309 332l-6 20h334q11 -31 41 -61q73 -74 204 -74q101 0 162.5 50t80.5 132q-126 -59 -271 -59q-124 0 -224 38l-56 23q-154 77 -237 224t-83 300q0 79 22.5 159t71.5 156.5t117.5 136t169.5 95.5t219 36q153 0 280 -62v41h317v-983
q0 -81 -19 -157.5t-63 -148.5t-108.5 -125.5t-163 -85.5t-219.5 -32zM710 241q67 0 133 36q74 41 110 120t36 165q0 84 -37 165t-109 120q-64 36 -133 36q-68 0 -134 -37q-72 -40 -109 -120t-37 -164q0 -86 36.5 -164.5t110.5 -120.5q66 -36 133 -36z" />
    <glyph glyph-name="h" unicode="h" vert-adv-y="2275" 
d="M428 704v-704h-318v1508h318v-387q92 24 200 24q255 0 392 -133q127 -124 127 -315v-697h-319v672q0 51 -8 87t-29 66t-61.5 45t-101.5 15q-105 0 -150 -45q-22 -22 -36 -62t-14 -74z" />
    <glyph glyph-name="i" unicode="i" horiz-adv-x="600" vert-adv-y="2275" 
d="M299 1182q-85 0 -137 49.5t-52 111.5q0 64 50.5 114.5t138.5 50.5t140 -50.5t52 -114.5q0 -62 -53.5 -111.5t-138.5 -49.5zM459 1145v-1145h-318v1145h318z" />
    <glyph glyph-name="j" unicode="j" horiz-adv-x="730" vert-adv-y="2275" 
d="M431 1182q-86 0 -138 49t-52 112q0 64 50.5 114.5t139.5 50.5q87 0 137.5 -50.5t50.5 -114.5q0 -62 -51.5 -111.5t-136.5 -49.5zM142 -409l-32 -1v271l32 -1q19 0 61 -3.5t65 -3.5q1 6 1 21q0 4 -0.5 13t-0.5 14v1244h321v-1259q0 -44 -8 -83.5t-29 -79t-54 -68
t-86.5 -46.5t-121.5 -18q-14 0 -42.5 1.5t-43.5 1.5q-9 0 -19 -0.5t-23 -1.5t-20 -1z" />
    <glyph glyph-name="k" unicode="k" horiz-adv-x="1482" vert-adv-y="2275" 
d="M431 341v-342h-321v1509h321v-774l487 412h454l-593 -506l541 -641h-396l-373 444z" />
    <glyph glyph-name="l" unicode="l" horiz-adv-x="699" vert-adv-y="2275" 
d="M408 -2q-68 0 -121.5 18t-86 46.5t-53.5 68t-29 79t-8 82.5v1216h318v-1199q0 -20 1 -32q3 -16 3 -17q9 0 42.5 2t51.5 2h63v-259l-28 -1q-17 -1 -48 -2.5t-56.5 -2.5t-48.5 -1z" />
    <glyph glyph-name="m" unicode="m" horiz-adv-x="1847" vert-adv-y="2275" 
d="M429 672v-672h-319v1145h318v-24q80 20 171 20q197 0 325 -100q129 100 328 100q98 0 180 -25t137.5 -68t94 -100.5t56 -120.5t17.5 -130v-697h-320v672q0 211 -169 211q-92 0 -132 -67q-32 -52 -32 -144v-672h-319v672q0 211 -171 211q-47 0 -81 -18t-51.5 -49.5
t-25 -66.5t-7.5 -77z" />
    <glyph glyph-name="n" unicode="n" vert-adv-y="2275" 
d="M428 704v-704h-318v1145h318v-24q92 24 200 24q255 0 392 -133q127 -124 127 -315v-697h-319v672q0 51 -8 87t-29 66t-61.5 45t-101.5 15q-105 0 -150 -45q-22 -22 -36 -62t-14 -74z" />
    <glyph glyph-name="o" unicode="o" horiz-adv-x="1419" vert-adv-y="2275" 
d="M710 -23q-118 0 -219 36t-170 95.5t-117.5 136.5t-71 157.5t-22.5 159.5t22.5 159t71.5 156.5t117.5 136t169.5 95.5t219 36t218.5 -36t169.5 -95.5t117.5 -136t71 -156.5t22.5 -159t-22.5 -159.5t-71 -157t-117 -136t-169.5 -96t-219 -36.5zM710 241q67 0 133 36
q74 41 110 120t36 165q0 84 -37 165t-109 120q-64 36 -133 36q-68 0 -134 -37q-72 -40 -109 -120t-37 -164q0 -86 36.5 -164.5t110.5 -120.5q66 -36 133 -36z" />
    <glyph glyph-name="p" unicode="p" horiz-adv-x="1417" vert-adv-y="2275" 
d="M428 41v-447h-318v1551h318v-62q128 63 280 63q118 0 218.5 -36t169.5 -95.5t117.5 -136.5t71 -157t22.5 -159t-22.5 -159t-71 -157t-117.5 -136.5t-169.5 -95.5t-218.5 -36q-149 0 -280 63zM708 242q69 0 133 35q73 41 109.5 120.5t36.5 164.5q0 86 -36 164.5
t-110 119.5q-68 38 -133 38q-66 0 -134 -38q-73 -41 -109.5 -120t-36.5 -164q0 -86 36.5 -164.5t110.5 -120.5q64 -35 133 -35z" />
    <glyph glyph-name="q" unicode="q" horiz-adv-x="1417" vert-adv-y="2275" 
d="M1307 1145v-1551h-318v447q-131 -63 -279 -63q-118 0 -219 36t-169.5 95.5t-117.5 136.5t-71.5 157t-22.5 159t22.5 159t71.5 157t117.5 136.5t169.5 95.5t219 36q148 0 279 -63v62h318zM710 242q69 0 133 35q73 41 109.5 120.5t36.5 164.5q0 86 -36 164.5t-110 119.5
q-68 38 -133 38q-66 0 -134 -38q-73 -41 -109.5 -120t-36.5 -164q0 -86 36.5 -164.5t110.5 -120.5q64 -35 133 -35z" />
    <glyph glyph-name="r" unicode="r" horiz-adv-x="851" vert-adv-y="2275" 
d="M428 704v-704h-318v1145h318v-24q94 24 283 24h30v-260h-30q-62 0 -93 -1q-99 -3 -140 -44q-22 -22 -36 -62.5t-14 -73.5z" />
    <glyph glyph-name="s" unicode="s" horiz-adv-x="1180" vert-adv-y="2275" 
d="M592 -14q-168 0 -289 76t-166 200q-14 41 -20 89q0 2 -6 86l-1 15h315l2 -12q1 -11 3.5 -31.5t3.5 -30.5q18 -127 158 -127q68 0 110.5 23.5t42.5 67.5q0 24 -8 36t-33 24q-34 16 -87 26q-15 3 -31.5 6t-36.5 6.5t-32 5.5q-78 15 -136.5 33t-110.5 45.5t-84.5 63.5
t-51.5 86.5t-19 114.5q0 146 134 251q135 105 340 105q168 0 289.5 -75t165.5 -199q14 -42 19 -88q4 -29 6 -87v-12h-324v12q2 26 2 39q0 66 -40 106t-118 40q-111 0 -141 -50q-13 -19 -13 -40q0 -25 8 -37t32 -23q28 -14 87 -26q19 -3 100 -16q199 -37 301 -115.5
t102 -229.5q0 -147 -134 -252q-134 -106 -339 -106z" />
    <glyph glyph-name="t" unicode="t" horiz-adv-x="966" vert-adv-y="2275" 
d="M618 -2q-68 0 -121.5 18t-86 46.5t-53.5 68t-29 79t-8 82.5v591h-210v262h210v408h319v-408h217v-262h-217v-574v-36l2 -12l4 -1q30 0 90.5 2t90.5 2h31v-257l-29 -1q-187 -8 -210 -8z" />
    <glyph glyph-name="u" unicode="u" vert-adv-y="2275" 
d="M628 0q-126 0 -222 30.5t-170 103.5q-126 123 -126 315v696h318v-672q0 -104 42 -158.5t158 -54.5q105 0 151 46q20 21 34 62.5t14 73.5v703h320v-1145h-320v25q-89 -25 -199 -25z" />
    <glyph glyph-name="v" unicode="v" horiz-adv-x="1513" vert-adv-y="2275" 
d="M1402 1147l-513 -1147h-265l-514 1147h345l301 -680l300 680h346z" />
    <glyph glyph-name="w" unicode="w" horiz-adv-x="2044" vert-adv-y="2275" 
d="M1023 601l-223 -606h-264l-426 1157h333l224 -617l223 617h263l225 -617l224 617h332l-426 -1157h-262z" />
    <glyph glyph-name="x" unicode="x" horiz-adv-x="1607" vert-adv-y="2275" 
d="M805 334l-275 -334h-400l477 569l-497 578h400l295 -347l295 347h397l-495 -578l472 -569h-393z" />
    <glyph glyph-name="y" unicode="y" horiz-adv-x="1513" vert-adv-y="2275" 
d="M1402 1147l-695 -1555h-338l218 498l-477 1057h346l300 -680l300 680h346z" />
    <glyph glyph-name="z" unicode="z" horiz-adv-x="1250" vert-adv-y="2275" 
d="M1141 262v-262h-1029v189l569 694h-571v262h1028v-185l-570 -698h573z" />
    <glyph glyph-name="braceleft" unicode="{" horiz-adv-x="824" vert-adv-y="2275" 
d="M564 -310q-70 0 -126.5 19t-94 50t-62.5 72.5t-36 84.5t-11 89v500q-20 0 -60 -0.5t-61 -0.5h-30v264h30l76 -1q30 0 42 1h4q-1 4 -1 11v488q0 59 18 112.5t54.5 100.5t103 75t154.5 28q112 0 196 -31l17 -6v-272l-40 11q-14 4 -43 11.5t-43 11.5q-42 11 -81 11h-7l-3 -1
q-2 -2 -3 -4q-2 -8 -2 -15q-1 -7 -1 -21v-485q0 -96 -39 -157q39 -61 39 -157v-484q0 -14 1 -21q0 -8 2 -14l2 -2q4 -3 11 -3q31 0 83 9l87 18l37 7v-263l-20 -5q-111 -31 -193 -31z" />
    <glyph glyph-name="bar" unicode="|" horiz-adv-x="775" vert-adv-y="2275" 
d="M547 1583v-1583h-318v1583h318z" />
    <glyph glyph-name="braceright" unicode="}" horiz-adv-x="824" vert-adv-y="2275" 
d="M260 -310q-82 0 -179 27l-35 9v264l125 -26q50 -9 82 -9l12 2q1 0 3 3q1 4 3 14v505q0 97 39 158q-39 60 -39 156v506q-2 11 -4 14q-1 6 -14 6q-34 0 -81 -11q-32 -7 -86 -22l-40 -9v270l19 6q94 30 195 30q88 0 154 -28t103 -75.5t54.5 -101t17.5 -111.5v-488l1 -11h149
v-264h-92q-9 0 -29 0.5t-29 0.5v-500q0 -46 -10.5 -89t-35.5 -84.5t-62 -72.5t-94 -50t-127 -19z" />
    <glyph glyph-name="asciitilde" unicode="~" horiz-adv-x="1438" vert-adv-y="2275" 
d="M380 351l-18 -29l-246 183l30 49q54 88 148.5 138.5t221.5 50.5q85 0 231 -46q75 -23 89 -27q51 -12 88 -12q52 0 93 52q7 9 14.5 19l16.5 22t14 19l19 26l242 -180l-42 -62q-54 -81 -147 -127t-211 -46q-98 0 -246 48q-10 3 -39 12.5t-45 13.5q-46 12 -79 12
q-46 0 -79 -35q-16 -17 -29 -38q-24 -41 -26 -43z" />
    <glyph glyph-name="exclamdown" unicode="&#xa1;" horiz-adv-x="709" vert-adv-y="2275" 
d="M355 840q-86 0 -134 56t-48 117t48 117t134 56q59 0 102.5 -29.5t62 -67.5t18.5 -76t-18.5 -76t-62 -67.5t-102.5 -29.5zM506 798l15 -1174h-338l19 1174h304z" />
    <glyph glyph-name="cent" unicode="&#xa2;" horiz-adv-x="1405" vert-adv-y="2275" 
d="M860 187v-219h-312v220q-112 27 -199.5 88.5t-139.5 141t-78.5 165t-26.5 171.5q0 67 16 135.5t51.5 136.5t86.5 125t125.5 102t164.5 67v222h312v-221q150 -34 251.5 -129.5t145.5 -218.5q8 -21 14 -44t12.5 -54t10.5 -45l6 -27h-319l-6 18q-42 152 -115 208v-550
q88 65 111 208l3 20h326l-6 -27q-3 -12 -10.5 -45t-13.5 -55.5t-14 -44.5q-45 -124 -145 -218.5t-251 -129.5zM548 480v547q-62 -45 -93 -119.5t-31 -153.5q0 -80 30.5 -154.5t93.5 -119.5z" />
    <glyph glyph-name="sterling" unicode="&#xa3;" horiz-adv-x="1433" vert-adv-y="2275" 
d="M282 -56l-25 -27l-191 218l11 13q31 35 77 71.5t88 53.5q3 2 10.5 4.5l10.5 3.5q5 1 12 5q3 2 9 8l11 11q42 45 59 90.5t17 105.5q0 21 -3 44h-263v270h140q-56 128 -56 244q0 95 34 179.5t99.5 152t172 106.5t240.5 39q114 0 208 -29.5t156.5 -78.5t106 -115.5
t62.5 -139t19 -150.5q0 -15 -5 -88l-2 -18l-3 -21h-319l1 24q0 13 2.5 47t2.5 52q0 52 -11.5 95t-36.5 79.5t-71 57t-110 20.5q-222 0 -222 -223q0 -96 74 -233h451v-270h-348q1 -15 1 -44q0 -111 -38 -198l15 -4q24 -7 67 -21t58 -19q67 -20 120 -20q95 0 146 82
q28 46 45 77l16 30l246 -166l-14 -26q-30 -54 -52 -80q-68 -84 -174.5 -133t-235.5 -49q-114 0 -248 46q-13 4 -44.5 15t-49.5 16q-53 15 -88 15q-46 0 -96 -40q-16 -12 -44 -40q-8 -8 -20.5 -22t-17.5 -20z" />
    <glyph glyph-name="currency" unicode="&#xa4;" horiz-adv-x="1497" vert-adv-y="2275" 
d="M547 167l-167 -158l-212 206l156 147q-54 97 -54 200q0 107 54 200l-156 150l213 203l164 -158q99 43 205 43q102 0 203 -43l164 155l215 -202l-157 -150q54 -96 54 -198q0 -106 -53 -201l153 -146l-211 -202l-166 153q-99 -43 -202 -43q-96 0 -203 44zM750 387
q72 0 119 54.5t47 120.5q0 64 -47.5 119t-118.5 55q-60 0 -111 -48q-57 -54 -57 -126q0 -66 48 -120.5t120 -54.5z" />
    <glyph glyph-name="yen" unicode="&#xa5;" horiz-adv-x="1527" vert-adv-y="2275" 
d="M923 301v-301h-322v301l-1 5h-297v261h260l-4 25h-256v248h211l-425 668h360l313 -496l307 496h370l-431 -668h242v-248h-286l-4 -25h290v-261h-326z" />
    <glyph glyph-name="brokenbar" unicode="&#xa6;" horiz-adv-x="775" vert-adv-y="2275" 
d="M547 1581v-745h-318v745h318zM547 745v-745h-318v745h318z" />
    <glyph glyph-name="section" unicode="&#xa7;" horiz-adv-x="1352" vert-adv-y="2275" 
d="M671 -353q-117 0 -209.5 34.5t-149.5 93t-89 131t-38 154.5l-3 54l-1 24h314l3 -21q10 -101 37 -144q38 -60 136 -60q79 0 112 27t33 71q0 54 -45.5 93t-126.5 71l-81 32q-78 31 -136.5 59.5t-117 68.5t-95.5 83.5t-60 102t-23 126.5q0 85 41.5 164t119.5 137
q-75 93 -75 217q0 159 128.5 265t338.5 106q212 0 341 -113q111 -98 140 -277l16 -102h-327l-1 22q-6 100 -34 144q-37 63 -135 63q-81 0 -114 -28q-33 -27 -33 -72q0 -67 72 -114q34 -22 86 -44q17 -7 50 -20t45 -18q99 -39 169.5 -77t134 -90.5t96 -121t32.5 -152.5
q0 -86 -41.5 -164t-120.5 -136q75 -95 75 -217q0 -159 -127.5 -265.5t-336.5 -106.5zM812 402q95 41 95 132q0 45 -35 83q-34 37 -156 92q-37 16 -101 42.5t-76 31.5q-94 -45 -94 -134q0 -43 38 -84q31 -34 153 -90q86 -39 176 -73z" />
    <glyph glyph-name="dieresis" unicode="&#xa8;" horiz-adv-x="977" vert-adv-y="2275" 
d="M292 1237q-89 0 -141.5 51t-52.5 116q0 66 52 117t142 51q89 0 141 -52t52 -116t-53 -115.5t-140 -51.5zM690 1237q-89 0 -141.5 51t-52.5 116q0 66 52 117t142 51q89 0 141 -52t52 -116t-53 -115.5t-140 -51.5z" />
    <glyph glyph-name="copyright" unicode="&#xa9;" horiz-adv-x="1778" vert-adv-y="2275" 
d="M889 -24q-161 0 -297.5 46t-231 122.5t-161.5 177.5t-98.5 210t-31.5 220t31.5 220.5t98.5 210.5t161.5 177.5t231 122.5t297.5 46q160 0 297 -46t231.5 -123t161.5 -178t98.5 -210t31.5 -220t-31.5 -220t-98.5 -210t-161.5 -177.5t-231.5 -122.5t-297 -46zM889 194
q113 0 207.5 32.5t158.5 86.5t109 126.5t65.5 151t20.5 161.5t-20.5 162t-65.5 151t-109 126.5t-158.5 86.5t-207.5 32t-207.5 -32t-158.5 -86.5t-109 -126.5t-65.5 -151t-20.5 -162t20.5 -161.5t65.5 -151t109 -126.5t158.5 -86.5t207.5 -32.5zM887 307q-150 0 -261.5 78
t-156.5 190q-35 87 -35 177q0 73 20 137q37 126 153 218t280 92q137 0 245.5 -60.5t158.5 -159.5q18 -34 32 -90q7 -31 17 -90l3 -20h-259l-3 15l-9 42q-33 141 -183 141q-51 0 -89.5 -20t-59.5 -53.5t-31 -71.5t-10 -80q0 -23 8 -71q8 -42 32.5 -79t61.5 -56q36 -18 88 -18
q94 0 136 48.5t55 134.5l2 17h261l-3 -21q-12 -69 -16 -87q-10 -49 -30 -88q-53 -103 -158.5 -164t-248.5 -61z" />
    <glyph glyph-name="ordfeminine" unicode="&#xaa;" horiz-adv-x="765" vert-adv-y="2275" 
d="M352 778q-140 0 -220 64.5t-80 170.5q0 101 73 166h-53v35q0 118 81.5 195t237.5 77q158 0 239.5 -78t81.5 -197v-420h-236q-47 -13 -124 -13zM309 1247q20 2 64 4l96 6q-13 33 -78 33q-39 0 -57.5 -9.5t-24.5 -33.5zM352 975q55 0 86.5 23t36.5 65q-20 -1 -72 -5
q-34 -2 -61 -6q-29 -3 -35 -6q-19 -7 -19 -33q0 -22 13 -30t51 -8z" />
    <glyph glyph-name="guillemotleft" unicode="&#xab;" horiz-adv-x="1174" vert-adv-y="1800" 
d="M438 553l257 -474h-291l-259 474l259 472h291zM771 553l257 -474h-291l-256 474l256 472h291z" />
    <glyph glyph-name="logicalnot" unicode="&#xac;" horiz-adv-x="1380" vert-adv-y="2275" 
d="M1310 696v-613h-320v344h-919v269h1239z" />
    <glyph glyph-name="registered" unicode="&#xae;" horiz-adv-x="1359" vert-adv-y="2275" 
d="M678 372q-120 0 -222.5 34.5t-173.5 92t-121.5 133t-74 157.5t-23.5 165t23.5 165t74 158t121.5 133.5t173.5 92t222.5 34.5t222.5 -34.5t173.5 -92.5t121.5 -133.5t74 -157.5t23.5 -165t-23.5 -165t-74 -157.5t-121.5 -133t-173.5 -92t-222.5 -34.5zM678 536
q105 0 188 36.5t132.5 97t75 133.5t25.5 151q0 79 -25.5 151.5t-75 133.5t-132.5 97.5t-188 36.5t-188 -36.5t-132.5 -97.5t-75 -133.5t-25.5 -151.5q0 -78 25.5 -151t75 -133.5t132.5 -97t188 -36.5zM570 912v-242h-129v592h251q104 0 162 -46.5t58 -128.5
q0 -60 -32.5 -102t-91.5 -60l152 -255h-151l-139 242h-80zM695 1145h-125v-117h125q49 0 68.5 13.5t19.5 45.5t-20 45t-68 13z" />
    <glyph glyph-name="macron" unicode="&#xaf;" horiz-adv-x="1006" vert-adv-y="2275" 
d="M915 1469v-265h-824v265h824z" />
    <glyph glyph-name="degree" unicode="&#xb0;" horiz-adv-x="990" vert-adv-y="2275" 
d="M493 750q-101 0 -185.5 36t-137.5 93.5t-81.5 126.5t-28.5 139t28.5 138.5t81.5 125.5t137 92t186 35q101 0 185 -35.5t136 -92.5t80.5 -125.5t28.5 -137.5q0 -70 -28 -139t-80 -126.5t-136 -93.5t-186 -36zM493 1012q50 0 79.5 40t29.5 93q0 52 -29.5 91t-79.5 39
q-54 0 -83.5 -38t-29.5 -92q0 -38 17 -74t46 -48q25 -11 50 -11z" />
    <glyph glyph-name="plusminus" unicode="&#xb1;" horiz-adv-x="1380" vert-adv-y="2275" 
d="M1310 270v-270h-1239v270h461v250h-461v270h461v334h318v-334h460v-270h-460v-250h460z" />
    <glyph glyph-name="uni00B2" unicode="&#xb2;" horiz-adv-x="665" vert-adv-y="1800" 
d="M594 950v-168h-544v126l259 223q69 59 69 111q0 73 -62 73q-26 0 -39 -11t-18 -38q-5 -32 -4 -42v-24h-214l6 27q4 18 10 54q8 38 16 57q27 66 89.5 105t153.5 39q131 0 197 -69.5t66 -167.5q0 -125 -132 -237l-68 -58h215z" />
    <glyph glyph-name="uni00B3" unicode="&#xb3;" horiz-adv-x="669" vert-adv-y="1800" 
d="M334 780q-126 0 -200 65t-74 160v66h151v138h-134v66q0 89 69 151.5t188 62.5t189 -62.5t70 -151.5q0 -71 -45 -125q61 -62 61 -145q0 -95 -74 -160t-201 -65zM278 1232v-7h56q58 0 58 50q0 25 -13.5 36t-44.5 11q-41 0 -51 -20q-5 -13 -5 -30v-12.5v-15v-12.5zM334 947
q73 0 73 58q0 29 -17 41.5t-56 12.5h-73v-54q0 -58 73 -58z" />
    <glyph glyph-name="acute" unicode="&#xb4;" horiz-adv-x="1029" vert-adv-y="2275" 
d="M793 1671l-238 -500h-324l211 500h351z" />
    <glyph glyph-name="paragraph" unicode="&#xb6;" horiz-adv-x="1353" vert-adv-y="2275" 
d="M844 1276v-1655h-260v916q-120 11 -212 55t-147.5 110.5t-83 146t-27.5 168.5q0 94 36.5 180t104 154t174.5 108.5t238 40.5h458v-1879h-263v1655h-18z" />
    <glyph glyph-name="periodcentered" unicode="&#xb7;" horiz-adv-x="638" vert-adv-y="2275" 
d="M318 401q-88 0 -140.5 51t-52.5 116t52 116t141 51t141.5 -51t52.5 -116q0 -64 -53 -115.5t-141 -51.5z" />
    <glyph glyph-name="cedilla" unicode="&#xb8;" horiz-adv-x="810" vert-adv-y="2275" 
d="M400 -440q-85 0 -142.5 28t-122.5 83l-14 11l113 168l-61 24l140 334h274l-63 -143q94 -26 144.5 -95.5t50.5 -148.5q0 -107 -88 -184t-231 -77zM408 -231q7 0 19 14t12 28q0 17 -5 28l-4 6h-9l-28 -33l-14 -18l-101 39q45 -32 74 -48q9 -5 28 -10.5t28 -5.5z" />
    <glyph glyph-name="uni00B9" unicode="&#xb9;" horiz-adv-x="663" vert-adv-y="1800" 
d="M569 945v-168h-486v168h142v349h-142v172h344v-521h142z" />
    <glyph glyph-name="ordmasculine" unicode="&#xba;" horiz-adv-x="844" vert-adv-y="2275" 
d="M422 779q-74 0 -136.5 22.5t-105 59.5t-73 85t-44.5 97t-14 97q0 47 14 96.5t44.5 96.5t73 84t105.5 59.5t136 22.5q91 0 164.5 -34t117.5 -88.5t67 -115.5t23 -121t-23 -121.5t-66.5 -116t-117.5 -89t-165 -34.5zM422 979q30 0 62 18q35 19 52.5 58.5t17.5 84.5
q0 41 -18.5 83t-50.5 59q-33 18 -63 18q-32 0 -63 -18q-35 -19 -53 -59t-18 -83q0 -103 73 -143q30 -18 61 -18z" />
    <glyph glyph-name="guillemotright" unicode="&#xbb;" horiz-adv-x="1174" vert-adv-y="1800" 
d="M693 553l-255 -474h-293l259 474l-259 472h293zM1026 553l-253 -474h-294l258 474l-258 472h292z" />
    <glyph glyph-name="questiondown" unicode="&#xbf;" horiz-adv-x="1253" vert-adv-y="2275" 
d="M641 822q-59 0 -102.5 29.5t-62 67.5t-18.5 76q0 27 11 56.5t32.5 56.5t58 44t81.5 17q86 0 134 -56t48 -118q0 -61 -48 -117t-134 -56zM616 -422q-126 0 -227.5 38t-165.5 102t-98 145t-34 171q0 116 52.5 212.5t157.5 189.5q96 83 103 90q55 52 68 94q4 16 4 39v131
h322v-131q0 -55 -15.5 -104t-49 -93.5t-59.5 -72.5t-72 -70q-23 -21 -69 -64q-30 -28 -58 -65q-56 -74 -56 -151q0 -88 48 -142t149 -54q103 0 154.5 63.5t51.5 156.5q0 26 -5 74t-6 68l-1 24h328l1 -22q1 -18 5 -69t4 -79q0 -89 -34.5 -173t-98.5 -153.5t-168 -112
t-231 -42.5z" />
    <glyph glyph-name="Agrave" unicode="&#xc0;" horiz-adv-x="1835" vert-adv-y="2275" 
d="M986 2033l210 -499h-324l-240 499h354zM621 375l-164 -375h-347l676 1508h266l673 -1508h-350l-164 375h-590zM1090 645l-174 395l-175 -395h349z" />
    <glyph glyph-name="Aacute" unicode="&#xc1;" horiz-adv-x="1835" vert-adv-y="2275" 
d="M1203 2033l-240 -499h-323l211 499h352zM621 375l-164 -375h-347l676 1508h266l673 -1508h-350l-164 375h-590zM1090 645l-174 395l-175 -395h349z" />
    <glyph glyph-name="Acircumflex" unicode="&#xc2;" horiz-adv-x="1835" vert-adv-y="2275" 
d="M1278 1471l-361 174l-361 -174v307l360 175l362 -175v-307zM621 375l-164 -375h-347l676 1508h266l673 -1508h-350l-164 375h-590zM1090 645l-174 395l-175 -395h349z" />
    <glyph glyph-name="Atilde" unicode="&#xc3;" horiz-adv-x="1835" vert-adv-y="2275" 
d="M1042 1622q-74 0 -165 40q-51 22 -57 24l-10 4q-3 -21 -9 -44l-5 -18h-311l5 26q4 22 10 76q14 97 89 165t204 68q73 0 168 -41q9 -4 29.5 -12.5t30.5 -12.5l7 -3q0 1 0.5 3t0.5 4q4 29 7 39l5 18h306l-8 -81q-6 -49 -24.5 -92t-52 -81t-90.5 -60t-130 -22zM621 375
l-164 -375h-347l676 1508h266l673 -1508h-350l-164 375h-590zM1090 645l-174 395l-175 -395h349z" />
    <glyph glyph-name="Adieresis" unicode="&#xc4;" horiz-adv-x="1835" vert-adv-y="2275" 
d="M727 1564q-89 0 -141.5 51t-52.5 116q0 66 52 117t142 51q89 0 141 -51.5t52 -116.5q0 -63 -53 -115t-140 -52zM1125 1564q-90 0 -142 51t-52 116q0 66 52 117t142 51q89 0 141 -51.5t52 -116.5q0 -64 -53 -115.5t-140 -51.5zM621 375l-164 -375h-347l676 1508h266
l673 -1508h-350l-164 375h-590zM1090 645l-174 395l-175 -395h349z" />
    <glyph glyph-name="Aring" unicode="&#xc5;" horiz-adv-x="1835" vert-adv-y="2275" 
d="M923 1552q-56 0 -114 23q-69 29 -105 86t-36 118q0 87 69 157t186 70q56 0 115 -25q69 -29 104 -84.5t35 -117.5q0 -87 -68 -157t-186 -70zM923 1734q8 0 14 11q8 13 8 34t-8 33q-5 11 -14 11q-8 0 -14 -10q-8 -16 -8 -34t8 -34q6 -11 14 -11zM621 375l-164 -375h-347
l676 1508h266l673 -1508h-350l-164 375h-590zM1090 645l-174 395l-175 -395h349z" />
    <glyph glyph-name="AE" unicode="&#xc6;" horiz-adv-x="2957" vert-adv-y="2275" 
d="M652 442l-195 -442h-347l676 1508h1157v-271h-819v-338h690v-271h-690v-358h819v-270h-1142v442h-149zM798 680v187l-72 -187h72z" />
    <glyph glyph-name="Ccedilla" unicode="&#xc7;" horiz-adv-x="1808" vert-adv-y="2275" 
d="M861 -534q-85 0 -142 28t-124 85l-13 11l107 156q6 -4 33.5 -16.5t55.5 -25t31 -13.5q34 -16 60 -16q6 0 18.5 14t12.5 27t-5 28l-4 7q-6 -1 -12 -1l-4 -3q-1 -1 -4 -5t-4 -6l-9 -16l-12 -23l-213 82l89 213q-129 27 -233.5 85t-174 133.5t-116.5 168t-67.5 186
t-20.5 189.5q0 94 21 186.5t64 183t117.5 170.5t173.5 135q194 107 424 107q266 0 456 -123t275 -321q38 -89 50 -178l6 -46h-318l-6 17q-12 35 -26 82q-14 46 -32 78q-58 104 -162 165t-243 61q-96 0 -184 -36q-77 -31 -135.5 -85t-91 -120t-48 -135t-15.5 -141
q0 -71 16 -140t48.5 -135.5t90.5 -120.5t134 -85q87 -34 185 -34q177 0 291.5 91.5t154.5 236.5q2 9 6 27.5t6 27.5l5 18h325l-7 -46q-14 -91 -47 -169q-76 -185 -245.5 -307.5t-412.5 -141.5l-2 -6q94 -26 145 -94.5t51 -147.5q0 -108 -88 -185t-231 -77z" />
    <glyph glyph-name="Egrave" unicode="&#xc8;" horiz-adv-x="1361" vert-adv-y="2275" 
d="M748 2033l211 -499h-325l-237 499h351zM1252 270v-270h-1142v1508h1142v-271h-821v-338h690v-271h-690v-358h821z" />
    <glyph glyph-name="Eacute" unicode="&#xc9;" horiz-adv-x="1361" vert-adv-y="2275" 
d="M966 2033l-240 -499h-323l210 499h353zM1252 270v-270h-1142v1508h1142v-271h-821v-338h690v-271h-690v-358h821z" />
    <glyph glyph-name="Ecircumflex" unicode="&#xca;" horiz-adv-x="1361" vert-adv-y="2275" 
d="M1252 270v-270h-1142v1508h210v270l359 175l363 -175v-270h210v-271h-821v-338h690v-271h-690v-358h821zM966 1508l-286 137l-284 -137h570z" />
    <glyph glyph-name="Edieresis" unicode="&#xcb;" horiz-adv-x="1361" vert-adv-y="2275" 
d="M495 1549q-89 0 -141.5 50.5t-52.5 116.5q0 65 52 116.5t142 51.5q89 0 141 -52t52 -116t-53.5 -115.5t-139.5 -51.5zM893 1549q-89 0 -142 50.5t-53 116.5q0 65 52.5 116.5t142.5 51.5q89 0 141 -52t52 -116t-52.5 -115.5t-140.5 -51.5zM1252 270v-270h-1142v1508h1142
v-271h-821v-338h690v-271h-690v-358h821z" />
    <glyph glyph-name="Igrave" unicode="&#xcc;" horiz-adv-x="858" vert-adv-y="2275" 
d="M496 2033l212 -499h-324l-240 499h352zM748 264v-264h-638v264h156v979h-156v265h638v-265h-157v-979h157z" />
    <glyph glyph-name="Iacute" unicode="&#xcd;" horiz-adv-x="858" vert-adv-y="2275" 
d="M714 2033l-237 -499h-326l212 499h351zM748 264v-264h-638v264h156v979h-156v265h638v-265h-157v-979h157z" />
    <glyph glyph-name="Icircumflex" unicode="&#xce;" horiz-adv-x="853" vert-adv-y="2275" 
d="M745 264v-264h-636v264h156v979h-156v249l-43 -21v307l359 175l363 -175v-307l-43 21v-249h-157v-979h157zM712 1508l-284 137l-286 -137h570z" />
    <glyph glyph-name="Idieresis" unicode="&#xcf;" horiz-adv-x="854" vert-adv-y="2275" 
d="M233 1564q-89 0 -141.5 51t-52.5 116q0 66 52 117t142 51q89 0 141 -51.5t52 -116.5q0 -63 -53 -115t-140 -52zM631 1564q-89 0 -141.5 51t-52.5 116q0 66 52 117t142 51q89 0 141 -51.5t52 -116.5q0 -64 -53 -115.5t-140 -51.5zM746 264v-264h-638v264h157v979h-157v265
h638v-265h-158v-979h158z" />
    <glyph glyph-name="Ntilde" unicode="&#xd1;" horiz-adv-x="1533" vert-adv-y="2275" 
d="M891 1622q-74 0 -165 40q-6 3 -27 12t-31 13l-8 2q0 -3 -1 -5l-7 -36l-4 -20h-311l10 80q6 49 24 92t51.5 81t90 60t130.5 22q70 0 167 -41l66 -28q1 1 1.5 4t0.5 4q2 22 7 38l5 18h309l-4 -26l-11 -77q-13 -96 -89 -164.5t-204 -68.5zM431 947v-947h-321v1508h283
l708 -948v948h321v-1508h-283z" />
    <glyph glyph-name="Ograve" unicode="&#xd2;" horiz-adv-x="1865" vert-adv-y="2275" 
d="M932 -26q-162 0 -299.5 46.5t-232 124t-161.5 179t-98 210.5t-31 220q0 108 29.5 214.5t92 206t152 177.5t219.5 127.5t284 55.5l-239 498h354l208 -499h-208q149 -10 275 -61t212.5 -128.5t147.5 -176t89 -203.5t28 -211q0 -111 -31 -220.5t-97.5 -211t-161 -178.5
t-232 -123.5t-300.5 -46.5zM932 239q100 0 183.5 30.5t140 81.5t96 118t57.5 139t18 146q0 98 -28.5 187.5t-99 171t-174.5 121.5q-94 37 -193 37q-93 0 -190 -37q-105 -39 -176 -120.5t-100.5 -172t-29.5 -187.5t29.5 -187.5t101 -171.5t175.5 -121q90 -35 190 -35z" />
    <glyph glyph-name="Oacute" unicode="&#xd3;" horiz-adv-x="1865" vert-adv-y="2275" 
d="M1218 2033l-225 -471h-328l201 471h352zM932 -26q-162 0 -299.5 46.5t-232 124t-161.5 179t-98 210.5t-31 220q0 106 28.5 211t89.5 203.5t147.5 176t212.5 128.5t274 61l118 1q153 -7 283 -56.5t219 -127t151.5 -177t91.5 -206t29 -214.5q0 -111 -31 -220.5t-97.5 -211
t-161 -178.5t-232 -123.5t-300.5 -46.5zM932 239q100 0 183.5 30.5t140 81.5t96 118t57.5 139t18 146q0 98 -28.5 187.5t-99 171t-174.5 121.5q-94 37 -193 37q-93 0 -190 -37q-105 -39 -176 -120.5t-100.5 -172t-29.5 -187.5t29.5 -187.5t101 -171.5t175.5 -121
q90 -35 190 -35z" />
    <glyph glyph-name="Ocircumflex" unicode="&#xd4;" horiz-adv-x="1865" vert-adv-y="2275" 
d="M1294 1471l-362 174l-360 -174v307l360 175l362 -175v-307zM932 -26q-162 0 -299.5 46.5t-232 124t-161.5 179t-98 210.5t-31 220q0 92 22.5 184t66 179.5t113 163t158 133t207.5 90t255 32.5q163 0 300.5 -46.5t232 -124t161 -179.5t97.5 -211.5t31 -220.5t-31 -220.5
t-97.5 -211t-161 -178.5t-232 -123.5t-300.5 -46.5zM932 239q100 0 183.5 30.5t140 81.5t96 118t57.5 139t18 146q0 98 -28.5 187.5t-99 171t-174.5 121.5q-94 37 -193 37q-93 0 -190 -37q-105 -39 -176 -120.5t-100.5 -172t-29.5 -187.5t29.5 -187.5t101 -171.5t175.5 -121
q90 -35 190 -35z" />
    <glyph glyph-name="Otilde" unicode="&#xd5;" horiz-adv-x="1865" vert-adv-y="2275" 
d="M1056 1622q-73 0 -164 40q-8 3 -19.5 8.5t-21 9.5t-17.5 7l-10 3q0 -1 -0.5 -3t-0.5 -4q-1 -9 -7 -37l-6 -18h-310l4 26q2 12 5.5 38t5.5 38q14 97 89.5 165t204.5 68q70 0 167 -41q18 -7 59 -25l7 -3q-2 3 0 6l4 37l2 21h312l-1 -24q-1 -36 -8 -79q-13 -96 -90 -164.5
t-205 -68.5zM932 -26q-162 0 -299.5 46.5t-232 124t-161.5 179t-98 210.5t-31 220q0 92 22.5 184t66 179.5t113 163t158 133t207.5 90t255 32.5q163 0 300.5 -46.5t232 -124t161 -179.5t97.5 -211.5t31 -220.5t-31 -220.5t-97.5 -211t-161 -178.5t-232 -123.5t-300.5 -46.5z
M932 239q100 0 183.5 30.5t140 81.5t96 118t57.5 139t18 146q0 98 -28.5 187.5t-99 171t-174.5 121.5q-94 37 -193 37q-93 0 -190 -37q-105 -39 -176 -120.5t-100.5 -172t-29.5 -187.5t29.5 -187.5t101 -171.5t175.5 -121q90 -35 190 -35z" />
    <glyph glyph-name="Odieresis" unicode="&#xd6;" horiz-adv-x="1865" vert-adv-y="2275" 
d="M719 1564q-89 0 -141 51t-52 116q0 66 51.5 117t141.5 51q89 0 141 -51.5t52 -116.5q0 -64 -53 -115.5t-140 -51.5zM1117 1564q-90 0 -142.5 51t-52.5 116q0 66 52.5 117t142.5 51q89 0 141 -51.5t52 -116.5q0 -64 -52.5 -115.5t-140.5 -51.5zM932 -26
q-162 0 -299.5 46.5t-232 124t-161.5 179t-98 210.5t-31 220q0 92 22.5 184t66 179.5t113 163t158 133t207.5 90t255 32.5q163 0 300.5 -46.5t232 -124t161 -179.5t97.5 -211.5t31 -220.5t-31 -220.5t-97.5 -211t-161 -178.5t-232 -123.5t-300.5 -46.5zM932 239
q100 0 183.5 30.5t140 81.5t96 118t57.5 139t18 146q0 98 -28.5 187.5t-99 171t-174.5 121.5q-94 37 -193 37q-93 0 -190 -37q-105 -39 -176 -120.5t-100.5 -172t-29.5 -187.5t29.5 -187.5t101 -171.5t175.5 -121q90 -35 190 -35z" />
    <glyph glyph-name="multiply" unicode="&#xd7;" horiz-adv-x="1459" vert-adv-y="2275" 
d="M1096 13l-366 346l-371 -350l-211 204l367 349l-367 350l211 203l371 -352l366 349l214 -202l-368 -348l368 -347z" />
    <glyph glyph-name="Oslash" unicode="&#xd8;" horiz-adv-x="1865" vert-adv-y="2275" 
d="M773 -15l-115 -271l-295 110l114 268q-185 110 -276 289t-91 373q0 92 22.5 184t66 179.5t113 163t158 133t207.5 90t255 32.5q84 0 159 -13l109 258l298 -103l-111 -261q183 -109 275 -290t92 -373q0 -111 -31 -220.5t-97.5 -211t-161 -178.5t-232 -123.5t-300.5 -46.5
q-88 0 -159 11zM594 364l389 904q-25 3 -51 3q-96 0 -190 -36q-104 -39 -175.5 -121t-101 -172.5t-29.5 -187.5q0 -109 39 -212t119 -178zM932 239q100 0 183.5 30.5t140 81.5t96 118t57.5 139t18 146q0 110 -38.5 213t-118.5 178l-387 -904q32 -2 49 -2z" />
    <glyph glyph-name="Ugrave" unicode="&#xd9;" horiz-adv-x="1534" vert-adv-y="2275" 
d="M834 2033l211 -499h-323l-239 499h351zM766 -26q-146 0 -262 40.5t-188.5 105.5t-120 154t-66.5 179t-19 188v867h322v-885q0 -56 10 -108.5t34.5 -103.5t61.5 -88.5t95.5 -60.5t132.5 -23t133 23t96 60.5t61.5 88.5t34.5 103t10 109v885h322v-867q0 -98 -19 -188
t-67 -179t-120.5 -154t-188.5 -105.5t-262 -40.5z" />
    <glyph glyph-name="Uacute" unicode="&#xda;" horiz-adv-x="1534" vert-adv-y="2275" 
d="M1052 2033l-239 -499h-324l210 499h353zM766 -26q-146 0 -262 40.5t-188.5 105.5t-120 154t-66.5 179t-19 188v867h322v-885q0 -56 10 -108.5t34.5 -103.5t61.5 -88.5t95.5 -60.5t132.5 -23t133 23t96 60.5t61.5 88.5t34.5 103t10 109v885h322v-867q0 -98 -19 -188
t-67 -179t-120.5 -154t-188.5 -105.5t-262 -40.5z" />
    <glyph glyph-name="Ucircumflex" unicode="&#xdb;" horiz-adv-x="1534" vert-adv-y="2275" 
d="M1109 1546l-361 173l-361 -173v305l361 176l361 -176v-305zM766 -26q-146 0 -262 40.5t-188.5 105.5t-120 154t-66.5 179t-19 188v867h322v-885q0 -56 10 -108.5t34.5 -103.5t61.5 -88.5t95.5 -60.5t132.5 -23t133 23t96 60.5t61.5 88.5t34.5 103t10 109v885h322v-867
q0 -98 -19 -188t-67 -179t-120.5 -154t-188.5 -105.5t-262 -40.5z" />
    <glyph glyph-name="Udieresis" unicode="&#xdc;" horiz-adv-x="1534" vert-adv-y="2275" 
d="M570 1564q-90 0 -142 51t-52 116q0 66 52 117t142 51q89 0 141 -51.5t52 -116.5q0 -63 -53 -115t-140 -52zM968 1564q-90 0 -142.5 51t-52.5 116q0 66 52.5 117t142.5 51q89 0 141 -51.5t52 -116.5q0 -64 -53 -115.5t-140 -51.5zM766 -26q-146 0 -262 40.5t-188.5 105.5
t-120 154t-66.5 179t-19 188v867h322v-885q0 -56 10 -108.5t34.5 -103.5t61.5 -88.5t95.5 -60.5t132.5 -23t133 23t96 60.5t61.5 88.5t34.5 103t10 109v885h322v-867q0 -98 -19 -188t-67 -179t-120.5 -154t-188.5 -105.5t-262 -40.5z" />
    <glyph glyph-name="Yacute" unicode="&#xdd;" horiz-adv-x="1891" vert-adv-y="2275" 
d="M1231 2033l-239 -499h-325l211 499h353zM1106 719v-719h-322v724l-674 784h402l435 -514l438 514h397z" />
    <glyph glyph-name="germandbls" unicode="&#xdf;" horiz-adv-x="1387" vert-adv-y="2275" 
d="M550 633l-1 -1013h-317l-9 1470q0 13 4 37q18 81 45 135q62 122 192 198t299 76q173 0 300 -62.5t189.5 -165t62.5 -230.5q0 -182 -142 -297q84 -60 124.5 -144.5t40.5 -178.5q0 -99 -36 -185.5t-104 -153.5t-177.5 -106t-247.5 -39h-115v265h115q238 0 238 219
q0 175 -258 175h-203zM552 1094l-2 -2v-187h188q115 0 183.5 44.5t68.5 128.5q0 193 -229 193q-116 0 -170 -78q-22 -32 -39 -99z" />
    <glyph glyph-name="agrave" unicode="&#xe0;" horiz-adv-x="1290" vert-adv-y="2275" 
d="M713 1671l210 -500h-323l-239 500h352z" />
    <glyph glyph-name="aacute" unicode="&#xe1;" horiz-adv-x="1290" vert-adv-y="2275" 
d="M931 1671l-239 -500h-325l210 500h354zM591 -23q-225 0 -353 101.5t-128 272.5q0 166 112.5 260t304.5 111q33 3 106 7l227 14q-8 73 -54 107.5t-144 34.5q-99 0 -144.5 -33t-53.5 -103h-318q14 178 145 287t371 109q130 0 231.5 -34.5t163 -96t93 -140.5t31.5 -173v-701
h-320v25q-121 -48 -270 -48zM591 239q128 0 199 60t71 161v24q-114 -5 -176 -10q-161 -12 -193 -25q-62 -26 -62 -98q0 -60 38.5 -86t122.5 -26z" />
    <glyph glyph-name="acircumflex" unicode="&#xe2;" horiz-adv-x="1290" vert-adv-y="2275" 
d="M1006 1109l-360 175l-362 -176v306l362 178l360 -178v-305zM591 -23q-225 0 -353 101.5t-128 272.5q0 166 112.5 260t304.5 111q33 3 106 7l227 14q-8 73 -54 107.5t-144 34.5q-99 0 -144.5 -33t-53.5 -103h-318q14 178 145 287t371 109q130 0 231.5 -34.5t163 -96
t93 -140.5t31.5 -173v-701h-320v25q-121 -48 -270 -48zM591 239q128 0 199 60t71 161v24q-114 -5 -176 -10q-161 -12 -193 -25q-62 -26 -62 -98q0 -60 38.5 -86t122.5 -26z" />
    <glyph glyph-name="atilde" unicode="&#xe3;" horiz-adv-x="1290" vert-adv-y="2275" 
d="M769 1260q-72 0 -165 40q-8 3 -19.5 8.5t-21 9.5t-17.5 7l-10 4q0 -5 -1 -7q-5 -30 -7 -38l-5 -18h-311l16 102q15 98 88.5 165t204.5 67q73 0 168 -40q12 -5 31.5 -14t27.5 -12l7 -3q1 11 3 15q2 8 13 32l6 16h298l-2 -24q-2 -28 -10 -77q-14 -98 -89.5 -165.5
t-204.5 -67.5zM591 -23q-225 0 -353 101.5t-128 272.5q0 166 112.5 260t304.5 111q33 3 106 7l227 14q-8 73 -54 107.5t-144 34.5q-99 0 -144.5 -33t-53.5 -103h-318q14 178 145 287t371 109q130 0 231.5 -34.5t163 -96t93 -140.5t31.5 -173v-701h-320v25q-121 -48 -270 -48
zM591 239q128 0 199 60t71 161v24q-114 -5 -176 -10q-161 -12 -193 -25q-62 -26 -62 -98q0 -60 38.5 -86t122.5 -26z" />
    <glyph glyph-name="adieresis" unicode="&#xe4;" horiz-adv-x="1290" vert-adv-y="2275" 
d="M449 1207q-89 0 -141.5 51.5t-52.5 116.5t52.5 116.5t141.5 51.5t141.5 -52t52.5 -116t-53 -116t-141 -52zM847 1207q-89 0 -141.5 51.5t-52.5 116.5t52.5 116.5t141.5 51.5t141 -52t52 -116q0 -65 -52 -116.5t-141 -51.5zM591 -23q-225 0 -353 101.5t-128 272.5
q0 166 112.5 260t304.5 111q33 3 106 7l227 14q-8 73 -54 107.5t-144 34.5q-99 0 -144.5 -33t-53.5 -103h-318q14 178 145 287t371 109q130 0 231.5 -34.5t163 -96t93 -140.5t31.5 -173v-701h-320v25q-121 -48 -270 -48zM591 239q128 0 199 60t71 161v24q-114 -5 -176 -10
q-161 -12 -193 -25q-62 -26 -62 -98q0 -60 38.5 -86t122.5 -26z" />
    <glyph glyph-name="aring" unicode="&#xe5;" horiz-adv-x="1290" vert-adv-y="2275" 
d="M655 1198q-61 0 -114 23q-70 28 -106 84.5t-36 118.5q0 86 69.5 156t186.5 70q53 0 114 -24q69 -29 104 -84.5t35 -117.5q0 -87 -67.5 -156.5t-185.5 -69.5zM655 1379q6 0 13 11q9 16 9 34q0 17 -8 33q-6 10 -14 10t-15 -10q-7 -13 -7 -33t7 -34q7 -11 15 -11zM591 -23
q-225 0 -353 101.5t-128 272.5q0 166 112.5 260t304.5 111q33 3 106 7l227 14q-8 73 -54 107.5t-144 34.5q-99 0 -144.5 -33t-53.5 -103h-318q14 178 145 287t371 109q130 0 231.5 -34.5t163 -96t93 -140.5t31.5 -173v-701h-320v25q-121 -48 -270 -48zM591 239q128 0 199 60
t71 161v24q-114 -5 -176 -10q-161 -12 -193 -25q-62 -26 -62 -98q0 -60 38.5 -86t122.5 -26z" />
    <glyph glyph-name="ae" unicode="&#xe6;" horiz-adv-x="2457" vert-adv-y="2275" 
d="M591 -23q-225 0 -353 101.5t-128 272.5q0 166 112.5 260t304.5 111q33 3 106 7l227 14q-8 73 -54 107.5t-144 34.5q-99 0 -144.5 -33t-53.5 -103h-318q14 178 145 287t371 109q233 0 369 -109v1q24 -20 35 -31q170 139 406 139q120 0 222.5 -35.5t173 -94t121 -134.5
t74 -157t23.5 -162l-9 -96l-2 -21h-36l42 -11l-10 -22l-27 -64q-34 -77 -83.5 -141t-118.5 -117t-164 -83t-206 -30q-159 0 -291 66v-43h-320v25q-121 -48 -270 -48zM1210 711h526q-34 76 -102 124t-162 48q-95 0 -161.5 -47.5t-100.5 -124.5zM591 239q128 0 199 60t71 161
v24q-114 -5 -176 -10q-161 -12 -193 -25q-62 -26 -62 -98q0 -60 38.5 -86t122.5 -26zM1472 241q201 0 275 204h-550q28 -89 99 -146.5t176 -57.5z" />
    <glyph glyph-name="ccedilla" unicode="&#xe7;" horiz-adv-x="1430" vert-adv-y="2275" 
d="M651 -534q-85 0 -142 28t-124 85l-13 11l107 156q6 -4 33.5 -16.5t55.5 -25t31 -13.5q34 -16 60 -16q6 0 18.5 14t12.5 27t-5 28l-4 7q-6 -1 -12 -1l-4 -3q-1 -1 -4 -5t-4 -6l-9 -16l-12 -23l-213 82l95 226q-101 31 -182 93.5t-128.5 140t-72.5 160.5t-25 163
q0 79 22.5 159t71.5 156.5t117.5 136t169.5 95.5t219 36q181 0 316 -82.5t207 -214.5q49 -86 78 -224l6 -27h-329l-3 20q-29 166 -142 229q-66 37 -133 37q-68 0 -134 -37q-73 -40 -109.5 -120t-36.5 -164t37 -164.5t109 -119.5q65 -36 134 -36q71 0 134 36q57 31 87.5 84.5
t50.5 129.5l9 33h327l-7 -27l-15 -59q-20 -81 -59 -154t-100 -139t-153 -110t-204 -55h-2l-4 -11q94 -26 145 -94.5t51 -147.5q0 -108 -88 -185t-231 -77z" />
    <glyph glyph-name="egrave" unicode="&#xe8;" horiz-adv-x="1448" vert-adv-y="2275" 
d="M791 1671l212 -500h-325l-239 500h352zM724 -23q-120 0 -222.5 35.5t-173 94.5t-121 135t-74 157.5t-23.5 162.5t23.5 162t73.5 157t121 134.5t173.5 94t222.5 35.5t222.5 -35.5t173 -94t121 -134.5t74 -157t23.5 -162q0 -40 -11 -97l-4 -20h-875q29 -89 100 -146.5
t176 -57.5q154 0 241 133q10 15 21 40l309 -72q-21 -49 -57 -104q-80 -118 -212.5 -189.5t-301.5 -71.5zM461 711h526q-34 77 -101 124.5t-162 47.5t-161.5 -47.5t-101.5 -124.5z" />
    <glyph glyph-name="eacute" unicode="&#xe9;" horiz-adv-x="1448" vert-adv-y="2275" 
d="M1010 1671l-240 -500h-324l212 500h352zM724 -23q-120 0 -222.5 35.5t-173 94.5t-121 135t-74 157.5t-23.5 162.5t23.5 162t73.5 157t121 134.5t173.5 94t222.5 35.5t222.5 -35.5t173 -94t121 -134.5t74 -157t23.5 -162q0 -40 -11 -97l-4 -20h-875q29 -89 100 -146.5
t176 -57.5q154 0 241 133q10 15 21 40l309 -72q-21 -49 -57 -104q-80 -118 -212.5 -189.5t-301.5 -71.5zM461 711h526q-34 77 -101 124.5t-162 47.5t-161.5 -47.5t-101.5 -124.5z" />
    <glyph glyph-name="ecircumflex" unicode="&#xea;" horiz-adv-x="1448" vert-adv-y="2275" 
d="M1086 1109l-362 175l-361 -176v306l361 178l362 -178v-305zM724 -23q-120 0 -222.5 35.5t-173 94.5t-121 135t-74 157.5t-23.5 162.5t23.5 162t73.5 157t121 134.5t173.5 94t222.5 35.5t222.5 -35.5t173 -94t121 -134.5t74 -157t23.5 -162q0 -40 -11 -97l-4 -20h-875
q29 -89 100 -146.5t176 -57.5q154 0 241 133q10 15 21 40l309 -72q-21 -49 -57 -104q-80 -118 -212.5 -189.5t-301.5 -71.5zM461 711h526q-34 77 -101 124.5t-162 47.5t-161.5 -47.5t-101.5 -124.5z" />
    <glyph glyph-name="edieresis" unicode="&#xeb;" horiz-adv-x="1448" vert-adv-y="2275" 
d="M527 1209q-89 0 -141 51t-52 116q0 66 52 117.5t141 51.5t141.5 -52t52.5 -117q0 -63 -53 -115t-141 -52zM925 1209q-89 0 -141.5 51t-52.5 116q0 66 52.5 117.5t141.5 51.5t141 -52t52 -117q0 -64 -52 -115.5t-141 -51.5zM724 -23q-120 0 -222.5 35.5t-173 94.5
t-121 135t-74 157.5t-23.5 162.5t23.5 162t73.5 157t121 134.5t173.5 94t222.5 35.5t222.5 -35.5t173 -94t121 -134.5t74 -157t23.5 -162q0 -40 -11 -97l-4 -20h-875q29 -89 100 -146.5t176 -57.5q154 0 241 133q10 15 21 40l309 -72q-21 -49 -57 -104
q-80 -118 -212.5 -189.5t-301.5 -71.5zM461 711h526q-34 77 -101 124.5t-162 47.5t-161.5 -47.5t-101.5 -124.5z" />
    <glyph glyph-name="igrave" unicode="&#xec;" horiz-adv-x="692" vert-adv-y="2275" 
d="M418 1671l209 -500h-323l-239 500h353zM508 1145v-1145h-319v1145h319z" />
    <glyph glyph-name="iacute" unicode="&#xed;" horiz-adv-x="692" vert-adv-y="2275" 
d="M627 1671l-238 -500h-324l211 500h351zM501 1145v-1145h-319v1145h319z" />
    <glyph glyph-name="icircumflex" unicode="&#xee;" horiz-adv-x="581" vert-adv-y="2275" 
d="M652 1109l-361 175l-362 -175v305l360 178l363 -178v-305zM449 1145v-1145h-319v1145h319z" />
    <glyph glyph-name="idieresis" unicode="&#xef;" horiz-adv-x="585" vert-adv-y="2275" 
d="M158 1193q-86 0 -138 49.5t-52 112.5t51.5 114t138.5 51q82 0 135 -47q53 47 135 47q87 0 138.5 -51t51.5 -114q0 -62 -52.5 -112t-137.5 -50q-83 0 -135 46q-54 -46 -135 -46zM451 1145v-1145h-320v1145h320z" />
    <glyph glyph-name="ntilde" unicode="&#xf1;" vert-adv-y="2275" 
d="M752 1260q-72 0 -165 40q-8 3 -19.5 8.5t-21 9.5t-17.5 7l-9 4l-8 -44l-4 -19h-314l16 102q15 97 89.5 164.5t204.5 67.5q73 0 168 -40q12 -5 31.5 -14t27.5 -12l7 -3q7 38 9 45l5 18h306l-3 -25l-9 -76q-11 -96 -88 -164.5t-206 -68.5zM428 704v-704h-318v1145h318v-24
q92 24 200 24q255 0 392 -133q127 -124 127 -315v-697h-319v672q0 51 -8 87t-29 66t-61.5 45t-101.5 15q-105 0 -150 -45q-22 -22 -36 -62t-14 -74z" />
    <glyph glyph-name="ograve" unicode="&#xf2;" horiz-adv-x="1419" vert-adv-y="2275" 
d="M777 1671l211 -500h-324l-240 500h353zM710 -23q-118 0 -219 36t-170 95.5t-117.5 136.5t-71 157.5t-22.5 159.5t22.5 159t71.5 156.5t117.5 136t169.5 95.5t219 36t218.5 -36t169.5 -95.5t117.5 -136t71 -156.5t22.5 -159t-22.5 -159.5t-71 -157t-117 -136t-169.5 -96
t-219 -36.5zM710 241q67 0 133 36q74 41 110 120t36 165q0 84 -37 165t-109 120q-64 36 -133 36q-68 0 -134 -37q-72 -40 -109 -120t-37 -164q0 -86 36.5 -164.5t110.5 -120.5q66 -36 133 -36z" />
    <glyph glyph-name="oacute" unicode="&#xf3;" horiz-adv-x="1419" vert-adv-y="2275" 
d="M995 1671l-238 -500h-324l210 500h352zM710 -23q-118 0 -219 36t-170 95.5t-117.5 136.5t-71 157.5t-22.5 159.5t22.5 159t71.5 156.5t117.5 136t169.5 95.5t219 36t218.5 -36t169.5 -95.5t117.5 -136t71 -156.5t22.5 -159t-22.5 -159.5t-71 -157t-117 -136t-169.5 -96
t-219 -36.5zM710 241q67 0 133 36q74 41 110 120t36 165q0 84 -37 165t-109 120q-64 36 -133 36q-68 0 -134 -37q-72 -40 -109 -120t-37 -164q0 -86 36.5 -164.5t110.5 -120.5q66 -36 133 -36z" />
    <glyph glyph-name="ocircumflex" unicode="&#xf4;" horiz-adv-x="1419" vert-adv-y="2275" 
d="M1072 1109l-362 175l-361 -176v306l361 178l362 -178v-305zM710 -23q-118 0 -219 36t-170 95.5t-117.5 136.5t-71 157.5t-22.5 159.5t22.5 159t71.5 156.5t117.5 136t169.5 95.5t219 36t218.5 -36t169.5 -95.5t117.5 -136t71 -156.5t22.5 -159t-22.5 -159.5t-71 -157
t-117 -136t-169.5 -96t-219 -36.5zM710 241q67 0 133 36q74 41 110 120t36 165q0 84 -37 165t-109 120q-64 36 -133 36q-68 0 -134 -37q-72 -40 -109 -120t-37 -164q0 -86 36.5 -164.5t110.5 -120.5q66 -36 133 -36z" />
    <glyph glyph-name="otilde" unicode="&#xf5;" horiz-adv-x="1419" vert-adv-y="2275" 
d="M833 1260q-71 0 -164 40q-8 3 -19.5 8.5t-21 9.5t-17.5 7l-9 3v-2q-1 -2 -1 -3q-4 -35 -5 -38l-5 -19h-311l2 24q1 15 5 44.5t4 32.5q12 96 89 164.5t205 68.5q73 0 168 -40q12 -5 31.5 -14t27.5 -12l8 -3q2 22 4 30l9 33h301l-3 -59q-3 -52 -19.5 -97.5t-49.5 -87
t-92 -66t-137 -24.5zM710 -23q-118 0 -219 36t-170 95.5t-117.5 136.5t-71 157.5t-22.5 159.5t22.5 159t71.5 156.5t117.5 136t169.5 95.5t219 36t218.5 -36t169.5 -95.5t117.5 -136t71 -156.5t22.5 -159t-22.5 -159.5t-71 -157t-117 -136t-169.5 -96t-219 -36.5zM710 241
q67 0 133 36q74 41 110 120t36 165q0 84 -37 165t-109 120q-64 36 -133 36q-68 0 -134 -37q-72 -40 -109 -120t-37 -164q0 -86 36.5 -164.5t110.5 -120.5q66 -36 133 -36z" />
    <glyph glyph-name="odieresis" unicode="&#xf6;" horiz-adv-x="1419" vert-adv-y="2275" 
d="M509 1209q-90 0 -142.5 51t-52.5 116q0 66 52.5 117.5t142.5 51.5q88 0 140.5 -52.5t52.5 -116.5q0 -63 -53 -115t-140 -52zM906 1209q-89 0 -141.5 51t-52.5 116q0 66 52.5 117.5t141.5 51.5q88 0 140.5 -52.5t52.5 -116.5t-52.5 -115.5t-140.5 -51.5zM710 -23
q-118 0 -219 36t-170 95.5t-117.5 136.5t-71 157.5t-22.5 159.5t22.5 159t71.5 156.5t117.5 136t169.5 95.5t219 36t218.5 -36t169.5 -95.5t117.5 -136t71 -156.5t22.5 -159t-22.5 -159.5t-71 -157t-117 -136t-169.5 -96t-219 -36.5zM710 241q67 0 133 36q74 41 110 120
t36 165q0 84 -37 165t-109 120q-64 36 -133 36q-68 0 -134 -37q-72 -40 -109 -120t-37 -164q0 -86 36.5 -164.5t110.5 -120.5q66 -36 133 -36z" />
    <glyph glyph-name="divide" unicode="&#xf7;" horiz-adv-x="1380" vert-adv-y="2275" 
d="M732 730h-80q-71 11 -112.5 58.5t-41.5 104.5q0 66 52.5 116.5t142.5 50.5q88 0 140.5 -51.5t52.5 -115.5q0 -55 -41.5 -103t-112.5 -60zM1310 696v-269h-1239v269h1239zM693 54q-90 0 -142.5 50.5t-52.5 116.5q0 57 41.5 104.5t112.5 58.5h80q71 -12 112.5 -60
t41.5 -103q0 -64 -52.5 -115.5t-140.5 -51.5z" />
    <glyph glyph-name="oslash" unicode="&#xf8;" horiz-adv-x="1419" vert-adv-y="2275" 
d="M680 -23l-71 -211h-337l104 306q-132 84 -199 217t-67 273q0 79 22.5 159t71.5 156.5t117.5 136t169.5 95.5t219 36h25l75 223h338l-108 -315q70 -43 117 -95q73 -79 112.5 -186t39.5 -210q0 -79 -22.5 -159.5t-71 -157t-117.5 -136t-169.5 -96t-218.5 -36.5h-30z
M477 377l168 497q-37 -9 -69 -27q-72 -38 -109 -119.5t-37 -165.5q0 -101 47 -185zM939 749l-169 -502q36 10 73 30q74 43 110 121t36 164q0 102 -50 187z" />
    <glyph glyph-name="ugrave" unicode="&#xf9;" vert-adv-y="2275" 
d="M696 1671l212 -500h-326l-239 500h353zM628 0q-126 0 -222 30.5t-170 103.5q-126 123 -126 315v696h318v-672q0 -104 42 -158.5t158 -54.5q105 0 151 46q20 21 34 62.5t14 73.5v703h320v-1145h-320v25q-89 -25 -199 -25z" />
    <glyph glyph-name="uacute" unicode="&#xfa;" vert-adv-y="2275" 
d="M913 1671l-239 -500h-324l212 500h351zM628 0q-126 0 -222 30.5t-170 103.5q-126 123 -126 315v696h318v-672q0 -104 42 -158.5t158 -54.5q105 0 151 46q20 21 34 62.5t14 73.5v703h320v-1145h-320v25q-89 -25 -199 -25z" />
    <glyph glyph-name="ucircumflex" unicode="&#xfb;" vert-adv-y="2275" 
d="M628 0q-126 0 -222 30.5t-170 103.5q-126 123 -126 315v696h156v269l362 178l362 -178v-269h157v-1145h-320v25q-89 -25 -199 -25zM628 260q105 0 151 46q20 21 34 62.5t14 73.5v703h89l-288 139l-286 -139h86v-672q0 -104 42 -158.5t158 -54.5z" />
    <glyph glyph-name="udieresis" unicode="&#xfc;" vert-adv-y="2275" 
d="M426 1219q-90 0 -142.5 51t-52.5 116t52.5 116t142.5 51q88 0 140 -51.5t52 -115.5q0 -63 -52.5 -115t-139.5 -52zM822 1219q-89 0 -141 51t-52 116q0 66 51.5 116.5t141.5 50.5q89 0 141.5 -51t52.5 -116q0 -64 -52.5 -115.5t-141.5 -51.5zM628 0q-126 0 -222 30.5
t-170 103.5q-126 123 -126 315v696h318v-672q0 -104 42 -158.5t158 -54.5q105 0 151 46q20 21 34 62.5t14 73.5v703h320v-1145h-320v25q-89 -25 -199 -25z" />
    <glyph glyph-name="yacute" unicode="&#xfd;" horiz-adv-x="1513" vert-adv-y="2275" 
d="M1042 1671l-239 -500h-324l210 500h353zM1402 1147l-695 -1555h-338l218 498l-477 1057h346l300 -680l300 680h346z" />
    <glyph glyph-name="ydieresis" unicode="&#xff;" horiz-adv-x="1513" vert-adv-y="2275" 
d="M570 1236q-89 0 -141.5 51t-52.5 116q0 66 52 117t142 51q89 0 141 -52t52 -116t-53 -115.5t-140 -51.5zM968 1236q-89 0 -141.5 51t-52.5 116q0 66 52 117t142 51q89 0 141 -52t52 -116t-53 -115.5t-140 -51.5zM1402 1147l-695 -1555h-338l218 498l-477 1057h346
l300 -680l300 680h346z" />
    <glyph glyph-name="Amacron" unicode="&#x100;" horiz-adv-x="1835" vert-adv-y="2275" 
d="M1330 1829v-263h-824v263h824zM621 375l-164 -375h-347l676 1508h266l673 -1508h-350l-164 375h-590zM1090 645l-174 395l-175 -395h349z" />
    <glyph glyph-name="amacron" unicode="&#x101;" horiz-adv-x="1290" vert-adv-y="2275" 
d="M1057 1469v-265h-823v265h823zM591 -23q-225 0 -353 101.5t-128 272.5q0 166 112.5 260t304.5 111q33 3 106 7l227 14q-8 73 -54 107.5t-144 34.5q-99 0 -144.5 -33t-53.5 -103h-318q14 178 145 287t371 109q130 0 231.5 -34.5t163 -96t93 -140.5t31.5 -173v-701h-320v25
q-121 -48 -270 -48zM591 239q128 0 199 60t71 161v24q-114 -5 -176 -10q-161 -12 -193 -25q-62 -26 -62 -98q0 -60 38.5 -86t122.5 -26z" />
    <glyph glyph-name="Abreve" unicode="&#x102;" horiz-adv-x="1835" vert-adv-y="2275" 
d="M917 1556q-173 0 -269 92.5t-96 222.5v92h315v-23l-1 -51q0 -40 9 -55t42 -15q30 0 42.5 12t12.5 40v92h311v-92q0 -62 -23.5 -118t-67.5 -100.5t-115.5 -70.5t-159.5 -26zM621 375l-164 -375h-347l676 1508h266l673 -1508h-350l-164 375h-590zM1090 645l-174 395
l-175 -395h349z" />
    <glyph glyph-name="abreve" unicode="&#x103;" horiz-adv-x="1290" vert-adv-y="2275" 
d="M646 1195q-173 0 -270 92t-97 223v90h314v-73q0 -41 9 -56q9 -17 44 -17q29 0 40 12.5t11 44.5v66v23h313v-90q0 -131 -95 -223t-269 -92zM591 -23q-225 0 -353 101.5t-128 272.5q0 166 112.5 260t304.5 111q33 3 106 7l227 14q-8 73 -54 107.5t-144 34.5
q-99 0 -144.5 -33t-53.5 -103h-318q14 178 145 287t371 109q130 0 231.5 -34.5t163 -96t93 -140.5t31.5 -173v-701h-320v25q-121 -48 -270 -48zM591 239q128 0 199 60t71 161v24q-114 -5 -176 -10q-161 -12 -193 -25q-62 -26 -62 -98q0 -60 38.5 -86t122.5 -26z" />
    <glyph glyph-name="Cacute" unicode="&#x106;" horiz-adv-x="1808" vert-adv-y="2275" 
d="M910 -26q-142 0 -273 39q-111 34 -201.5 95.5t-150 135.5t-100 162t-58 174.5t-17.5 173.5q0 93 21 185.5t63.5 184t117.5 172t174 133.5q170 92 359 105h-227l210 499h352l-239 -498q254 -7 436 -129.5t264 -314.5q34 -76 50 -177l6 -46h-318l-6 17q-8 20 -17 55
q-21 70 -41 105q-57 104 -161.5 165t-243.5 61q-97 0 -184 -36q-77 -31 -135 -85t-91 -120.5t-48.5 -135.5t-15.5 -140t15.5 -140t48.5 -135t90.5 -120.5t134.5 -85.5q86 -34 185 -34q139 0 244 60.5t162 163.5q25 47 39 104q2 7 6 26t7 29l5 18h325l-7 -46
q-17 -99 -50 -177q-85 -198 -275 -320.5t-456 -122.5z" />
    <glyph glyph-name="cacute" unicode="&#x107;" horiz-adv-x="1429" vert-adv-y="2275" 
d="M986 1671l-238 -500h-323l209 500h352zM710 -22q-118 0 -219 36t-169.5 95.5t-117.5 136.5t-71.5 157t-22.5 159t22.5 159t71.5 156.5t117.5 136t169.5 95.5t219 36q181 0 316 -82.5t208 -214.5q49 -90 77 -224l6 -27h-329l-3 20q-12 71 -47.5 134.5t-94.5 95.5
q-64 36 -133 36q-68 0 -134 -37q-72 -39 -109 -119.5t-37 -164.5t37 -165t108 -119q67 -36 135 -36q69 0 133 35q59 33 89 86t50 129l9 33h327l-7 -27l-15 -59q-23 -89 -67 -167t-113.5 -146t-174 -108t-231.5 -40z" />
    <glyph glyph-name="Ccircumflex" unicode="&#x108;" horiz-adv-x="1808" vert-adv-y="2275" 
d="M1257 1471l-362 174l-361 -174v307l360 175l363 -175v-307zM910 -26q-142 0 -273 39q-111 34 -201.5 95.5t-150 135.5t-100 162t-58 174.5t-17.5 173.5q0 93 21 185.5t63.5 184t117.5 172t174 133.5q195 107 424 107q266 0 456 -123.5t275 -321.5q34 -76 50 -177l6 -46
h-318l-6 17q-8 20 -17 55q-21 70 -41 105q-57 104 -161.5 165t-243.5 61q-97 0 -184 -36q-77 -31 -135 -85t-91 -120.5t-48.5 -135.5t-15.5 -140t15.5 -140t48.5 -135t90.5 -120.5t134.5 -85.5q86 -34 185 -34q139 0 244 60.5t162 163.5q25 47 39 104q2 7 6 26t7 29l5 18
h325l-7 -46q-17 -99 -50 -177q-85 -198 -275 -320.5t-456 -122.5z" />
    <glyph glyph-name="ccircumflex" unicode="&#x109;" horiz-adv-x="1429" vert-adv-y="2275" 
d="M1063 1109l-362 175l-360 -176v306l360 178l362 -178v-305zM710 -22q-118 0 -219 36t-169.5 95.5t-117.5 136.5t-71.5 157t-22.5 159t22.5 159t71.5 156.5t117.5 136t169.5 95.5t219 36q181 0 316 -82.5t208 -214.5q49 -90 77 -224l6 -27h-329l-3 20q-12 71 -47.5 134.5
t-94.5 95.5q-64 36 -133 36q-68 0 -134 -37q-72 -39 -109 -119.5t-37 -164.5t37 -165t108 -119q67 -36 135 -36q69 0 133 35q59 33 89 86t50 129l9 33h327l-7 -27l-15 -59q-23 -89 -67 -167t-113.5 -146t-174 -108t-231.5 -40z" />
    <glyph glyph-name="Cdotaccent" unicode="&#x10a;" horiz-adv-x="1808" vert-adv-y="2275" 
d="M896 1617q-87 0 -139 49.5t-52 112.5t52 113.5t139 50.5q85 0 137.5 -51t52.5 -113t-52.5 -112t-137.5 -50zM910 -26q-142 0 -273 39q-111 34 -201.5 95.5t-150 135.5t-100 162t-58 174.5t-17.5 173.5q0 93 21 185.5t63.5 184t117.5 172t174 133.5q195 107 424 107
q266 0 456 -123.5t275 -321.5q34 -76 50 -177l6 -46h-318l-6 17q-8 20 -17 55q-21 70 -41 105q-57 104 -161.5 165t-243.5 61q-97 0 -184 -36q-77 -31 -135 -85t-91 -120.5t-48.5 -135.5t-15.5 -140t15.5 -140t48.5 -135t90.5 -120.5t134.5 -85.5q86 -34 185 -34
q139 0 244 60.5t162 163.5q25 47 39 104q2 7 6 26t7 29l5 18h325l-7 -46q-17 -99 -50 -177q-85 -198 -275 -320.5t-456 -122.5z" />
    <glyph glyph-name="cdotaccent" unicode="&#x10b;" horiz-adv-x="1429" vert-adv-y="2275" 
d="M702 1255q-87 0 -138 49t-51 113t51 114t138 50q85 0 137 -51t52 -113q0 -63 -51 -112.5t-138 -49.5zM710 -22q-118 0 -219 36t-169.5 95.5t-117.5 136.5t-71.5 157t-22.5 159t22.5 159t71.5 156.5t117.5 136t169.5 95.5t219 36q181 0 316 -82.5t208 -214.5
q49 -90 77 -224l6 -27h-329l-3 20q-12 71 -47.5 134.5t-94.5 95.5q-64 36 -133 36q-68 0 -134 -37q-72 -39 -109 -119.5t-37 -164.5t37 -165t108 -119q67 -36 135 -36q69 0 133 35q59 33 89 86t50 129l9 33h327l-7 -27l-15 -59q-23 -89 -67 -167t-113.5 -146t-174 -108
t-231.5 -40z" />
    <glyph glyph-name="Ccaron" unicode="&#x10c;" horiz-adv-x="1808" vert-adv-y="2275" 
d="M1257 2027v-305l-363 -176l-360 177v304l361 -173zM910 -26q-142 0 -273 39q-111 34 -201.5 95.5t-150 135.5t-100 162t-58 174.5t-17.5 173.5q0 93 21 185.5t63.5 184t117.5 172t174 133.5q195 107 424 107q266 0 456 -123.5t275 -321.5q34 -76 50 -177l6 -46h-318
l-6 17q-8 20 -17 55q-21 70 -41 105q-57 104 -161.5 165t-243.5 61q-97 0 -184 -36q-77 -31 -135 -85t-91 -120.5t-48.5 -135.5t-15.5 -140t15.5 -140t48.5 -135t90.5 -120.5t134.5 -85.5q86 -34 185 -34q139 0 244 60.5t162 163.5q25 47 39 104q2 7 6 26t7 29l5 18h325
l-7 -46q-17 -99 -50 -177q-85 -198 -275 -320.5t-456 -122.5z" />
    <glyph glyph-name="ccaron" unicode="&#x10d;" horiz-adv-x="1429" vert-adv-y="2275" 
d="M1063 1666v-305l-362 -179l-360 179v305l360 -175zM710 -22q-118 0 -219 36t-169.5 95.5t-117.5 136.5t-71.5 157t-22.5 159t22.5 159t71.5 156.5t117.5 136t169.5 95.5t219 36q181 0 316 -82.5t208 -214.5q49 -90 77 -224l6 -27h-329l-3 20q-12 71 -47.5 134.5
t-94.5 95.5q-64 36 -133 36q-68 0 -134 -37q-72 -39 -109 -119.5t-37 -164.5t37 -165t108 -119q67 -36 135 -36q69 0 133 35q59 33 89 86t50 129l9 33h327l-7 -27l-15 -59q-23 -89 -67 -167t-113.5 -146t-174 -108t-231.5 -40z" />
    <glyph glyph-name="Emacron" unicode="&#x112;" horiz-adv-x="1361" vert-adv-y="2275" 
d="M1093 1829v-263h-825v263h825zM1252 270v-270h-1142v1508h1142v-271h-821v-338h690v-271h-690v-358h821z" />
    <glyph glyph-name="emacron" unicode="&#x113;" horiz-adv-x="1448" vert-adv-y="2275" 
d="M1136 1469v-265h-824v265h824zM724 -23q-120 0 -222.5 35.5t-173 94.5t-121 135t-74 157.5t-23.5 162.5t23.5 162t73.5 157t121 134.5t173.5 94t222.5 35.5t222.5 -35.5t173 -94t121 -134.5t74 -157t23.5 -162q0 -40 -11 -97l-4 -20h-875q29 -89 100 -146.5t176 -57.5
q154 0 241 133q10 15 21 40l309 -72q-21 -49 -57 -104q-80 -118 -212.5 -189.5t-301.5 -71.5zM461 711h526q-34 77 -101 124.5t-162 47.5t-161.5 -47.5t-101.5 -124.5z" />
    <glyph glyph-name="Ebreve" unicode="&#x114;" horiz-adv-x="1361" vert-adv-y="2275" 
d="M681 1556q-173 0 -269 92.5t-96 222.5v92h313v-23q0 -44 1 -66q2 -34 11.5 -44.5t39.5 -10.5q28 0 40.5 12t12.5 40v92h313v-92q0 -62 -23.5 -118t-67.5 -100.5t-115.5 -70.5t-159.5 -26zM1252 270v-270h-1142v1508h1142v-271h-821v-338h690v-271h-690v-358h821z" />
    <glyph glyph-name="ebreve" unicode="&#x115;" horiz-adv-x="1448" vert-adv-y="2275" 
d="M724 1195q-174 0 -270 92t-96 223v90h315v-73q0 -41 9 -56q9 -17 42 -17q28 0 40.5 13.5t12.5 42.5v90h312v-90q0 -131 -95.5 -223t-269.5 -92zM724 -23q-120 0 -222.5 35.5t-173 94.5t-121 135t-74 157.5t-23.5 162.5t23.5 162t73.5 157t121 134.5t173.5 94t222.5 35.5
t222.5 -35.5t173 -94t121 -134.5t74 -157t23.5 -162q0 -40 -11 -97l-4 -20h-875q29 -89 100 -146.5t176 -57.5q154 0 241 133q10 15 21 40l309 -72q-21 -49 -57 -104q-80 -118 -212.5 -189.5t-301.5 -71.5zM461 711h526q-34 77 -101 124.5t-162 47.5t-161.5 -47.5
t-101.5 -124.5z" />
    <glyph glyph-name="Edotaccent" unicode="&#x116;" horiz-adv-x="1361" vert-adv-y="2275" 
d="M681 1617q-87 0 -138.5 49t-51.5 113t51.5 114t138.5 50q86 0 139 -50.5t53 -113.5t-53 -112.5t-139 -49.5zM1252 270v-270h-1142v1508h1142v-271h-821v-338h690v-271h-690v-358h821z" />
    <glyph glyph-name="edotaccent" unicode="&#x117;" horiz-adv-x="1448" vert-adv-y="2275" 
d="M724 1255q-88 0 -139 49t-51 113q0 63 52 113.5t138 50.5q85 0 137 -50.5t52 -113.5q0 -64 -51 -113t-138 -49zM724 -23q-120 0 -222.5 35.5t-173 94.5t-121 135t-74 157.5t-23.5 162.5t23.5 162t73.5 157t121 134.5t173.5 94t222.5 35.5t222.5 -35.5t173 -94t121 -134.5
t74 -157t23.5 -162q0 -40 -11 -97l-4 -20h-875q29 -89 100 -146.5t176 -57.5q154 0 241 133q10 15 21 40l309 -72q-21 -49 -57 -104q-80 -118 -212.5 -189.5t-301.5 -71.5zM461 711h526q-34 77 -101 124.5t-162 47.5t-161.5 -47.5t-101.5 -124.5z" />
    <glyph glyph-name="Ecaron" unicode="&#x11a;" horiz-adv-x="1361" vert-adv-y="2275" 
d="M1042 2027v-305l-363 -176l-359 177v304l360 -173zM1252 270v-270h-1142v1508h1142v-271h-821v-338h690v-271h-690v-358h821z" />
    <glyph glyph-name="ecaron" unicode="&#x11b;" horiz-adv-x="1448" vert-adv-y="2275" 
d="M1086 1666v-305l-362 -179l-361 179v305l361 -175zM724 -23q-120 0 -222.5 35.5t-173 94.5t-121 135t-74 157.5t-23.5 162.5t23.5 162t73.5 157t121 134.5t173.5 94t222.5 35.5t222.5 -35.5t173 -94t121 -134.5t74 -157t23.5 -162q0 -40 -11 -97l-4 -20h-875
q29 -89 100 -146.5t176 -57.5q154 0 241 133q10 15 21 40l309 -72q-21 -49 -57 -104q-80 -118 -212.5 -189.5t-301.5 -71.5zM461 711h526q-34 77 -101 124.5t-162 47.5t-161.5 -47.5t-101.5 -124.5z" />
    <glyph glyph-name="Gcircumflex" unicode="&#x11c;" horiz-adv-x="1808" vert-adv-y="2275" 
d="M1255 1471l-362 174l-360 -174v307l360 175l362 -175v-307zM910 -26q-142 0 -273 39q-111 34 -201.5 95.5t-150 135.5t-100 162t-58 174.5t-17.5 173.5q0 93 21 185.5t63.5 184t117.5 172t174 133.5q196 107 415 107h11q75 0 167 -18q141 -28 255.5 -98.5t187.5 -161
t113 -198.5q22 -58 36 -143h-328l-6 23q-17 63 -41 105q-55 101 -158.5 163.5t-236.5 62.5q-86 0 -176 -36q-77 -29 -134.5 -83.5t-90 -121.5t-48.5 -136.5t-16 -139.5t16 -139.5t48.5 -136t90.5 -121t134 -84.5q87 -34 185 -34q97 0 177 31t133.5 84t87 118t46.5 139h-555
v270l880 -3l-3 -878h-314v103q-190 -129 -452 -129z" />
    <glyph glyph-name="gcircumflex" unicode="&#x11d;" horiz-adv-x="1417" vert-adv-y="2275" 
d="M1071 1155l-362 174l-361 -176v306l361 178l362 -178v-304zM734 -408q-145 0 -260 45q-236 91 -309 332l-6 20h334q11 -31 41 -61q73 -74 204 -74q101 0 162.5 50t80.5 132q-126 -59 -271 -59q-124 0 -224 38l-56 23q-154 77 -237 224t-83 300q0 79 22.5 159t71.5 156.5
t117.5 136t169.5 95.5t219 36q153 0 280 -62v41h317v-983q0 -81 -19 -157.5t-63 -148.5t-108.5 -125.5t-163 -85.5t-219.5 -32zM710 241q67 0 133 36q74 41 110 120t36 165q0 84 -37 165t-109 120q-64 36 -133 36q-68 0 -134 -37q-72 -40 -109 -120t-37 -164
q0 -86 36.5 -164.5t110.5 -120.5q66 -36 133 -36z" />
    <glyph glyph-name="Gbreve" unicode="&#x11e;" horiz-adv-x="1808" vert-adv-y="2275" 
d="M894 1556q-174 0 -269.5 92t-95.5 223v92h313v-74q0 -41 8 -55q9 -15 44 -15q28 0 40 11.5t12 40.5v92h314v-92q0 -130 -96.5 -222.5t-269.5 -92.5zM910 -26q-142 0 -273 39q-111 34 -201.5 95.5t-150 135.5t-100 162t-58 174.5t-17.5 173.5q0 93 21 185.5t63.5 184
t117.5 172t174 133.5q196 107 415 107h11q75 0 167 -18q141 -28 255.5 -98.5t187.5 -161t113 -198.5q22 -58 36 -143h-328l-6 23q-17 63 -41 105q-55 101 -158.5 163.5t-236.5 62.5q-86 0 -176 -36q-77 -29 -134.5 -83.5t-90 -121.5t-48.5 -136.5t-16 -139.5t16 -139.5
t48.5 -136t90.5 -121t134 -84.5q87 -34 185 -34q97 0 177 31t133.5 84t87 118t46.5 139h-555v270l880 -3l-3 -878h-314v103q-190 -129 -452 -129z" />
    <glyph glyph-name="gbreve" unicode="&#x11f;" horiz-adv-x="1417" vert-adv-y="2275" 
d="M709 1195q-174 0 -269.5 92t-95.5 223v90h313v-73q0 -39 9 -56q11 -17 43 -17q21 0 30.5 4.5t14.5 16.5q8 17 8 47v17.5v20.5v17v23h313v-90q0 -131 -96 -223t-270 -92zM734 -408q-145 0 -260 45q-236 91 -309 332l-6 20h334q11 -31 41 -61q73 -74 204 -74
q101 0 162.5 50t80.5 132q-126 -59 -271 -59q-124 0 -224 38l-56 23q-154 77 -237 224t-83 300q0 79 22.5 159t71.5 156.5t117.5 136t169.5 95.5t219 36q153 0 280 -62v41h317v-983q0 -81 -19 -157.5t-63 -148.5t-108.5 -125.5t-163 -85.5t-219.5 -32zM710 241q67 0 133 36
q74 41 110 120t36 165q0 84 -37 165t-109 120q-64 36 -133 36q-68 0 -134 -37q-72 -40 -109 -120t-37 -164q0 -86 36.5 -164.5t110.5 -120.5q66 -36 133 -36z" />
    <glyph glyph-name="Gdotaccent" unicode="&#x120;" horiz-adv-x="1808" vert-adv-y="2275" 
d="M894 1617q-87 0 -139 49.5t-52 112.5t52 113.5t139 50.5q85 0 137.5 -51t52.5 -113t-52.5 -112t-137.5 -50zM910 -26q-142 0 -273 39q-111 34 -201.5 95.5t-150 135.5t-100 162t-58 174.5t-17.5 173.5q0 93 21 185.5t63.5 184t117.5 172t174 133.5q196 107 415 107h11
q75 0 167 -18q141 -28 255.5 -98.5t187.5 -161t113 -198.5q22 -58 36 -143h-328l-6 23q-17 63 -41 105q-55 101 -158.5 163.5t-236.5 62.5q-86 0 -176 -36q-77 -29 -134.5 -83.5t-90 -121.5t-48.5 -136.5t-16 -139.5t16 -139.5t48.5 -136t90.5 -121t134 -84.5
q87 -34 185 -34q97 0 177 31t133.5 84t87 118t46.5 139h-555v270l880 -3l-3 -878h-314v103q-190 -129 -452 -129z" />
    <glyph glyph-name="gdotaccent" unicode="&#x121;" horiz-adv-x="1417" vert-adv-y="2275" 
d="M709 1255q-88 0 -139 49t-51 113t52 114t138 50q85 0 136.5 -51t51.5 -113q0 -63 -50.5 -112.5t-137.5 -49.5zM734 -408q-145 0 -260 45q-236 91 -309 332l-6 20h334q11 -31 41 -61q73 -74 204 -74q101 0 162.5 50t80.5 132q-126 -59 -271 -59q-124 0 -224 38l-56 23
q-154 77 -237 224t-83 300q0 79 22.5 159t71.5 156.5t117.5 136t169.5 95.5t219 36q153 0 280 -62v41h317v-983q0 -81 -19 -157.5t-63 -148.5t-108.5 -125.5t-163 -85.5t-219.5 -32zM710 241q67 0 133 36q74 41 110 120t36 165q0 84 -37 165t-109 120q-64 36 -133 36
q-68 0 -134 -37q-72 -40 -109 -120t-37 -164q0 -86 36.5 -164.5t110.5 -120.5q66 -36 133 -36z" />
    <glyph glyph-name="Itilde" unicode="&#x128;" horiz-adv-x="876" vert-adv-y="2275" 
d="M561 1622q-72 0 -172 42q-4 2 -24 11.5t-31 13.5l-5 2l-1 -7l-6 -36l-4 -20h-313l16 102q15 98 89.5 165.5t204.5 67.5q70 0 167 -41l66 -28q2 6 2 9l10 36l5 19h306l-16 -103q-15 -98 -89.5 -165.5t-204.5 -67.5zM757 264v-264h-637v264h156v979h-156v265h637v-265h-157
v-979h157z" />
    <glyph glyph-name="itilde" unicode="&#x129;" horiz-adv-x="604" vert-adv-y="2275" 
d="M425 1260q-72 0 -165 40q-8 3 -19.5 8.5t-21 9.5t-17.5 7l-9 3q-4 -28 -7 -43l-4 -19h-313l16 102q16 98 89.5 165t204.5 67q72 0 167 -40q12 -5 31.5 -14t27.5 -12l6 -2q5 16 10 43l4 19h310l-16 -101q-15 -98 -89.5 -165.5t-204.5 -67.5zM461 1145v-1145h-320v1145h320
z" />
    <glyph glyph-name="Imacron" unicode="&#x12a;" horiz-adv-x="848" vert-adv-y="2275" 
d="M836 1829v-263h-824v263h824zM743 264v-264h-638v264h157v979h-157v265h638v-265h-157v-979h157z" />
    <glyph glyph-name="imacron" unicode="&#x12b;" horiz-adv-x="576" vert-adv-y="2275" 
d="M700 1469v-265h-824v265h824zM448 1145v-1145h-321v1145h321z" />
    <glyph glyph-name="dotlessi" unicode="&#x131;" horiz-adv-x="603" vert-adv-y="1800" 
d="M459 1145v-1145h-318v1145h318z" />
    <glyph glyph-name="Nacute" unicode="&#x143;" horiz-adv-x="1533" vert-adv-y="2275" 
d="M1052 2033l-239 -499h-324l210 499h353zM431 947v-947h-321v1508h283l708 -948v948h321v-1508h-283z" />
    <glyph glyph-name="nacute" unicode="&#x144;" vert-adv-y="2275" 
d="M913 1671l-239 -500h-324l212 500h351zM428 704v-704h-318v1145h318v-24q92 24 200 24q255 0 392 -133q127 -124 127 -315v-697h-319v672q0 51 -8 87t-29 66t-61.5 45t-101.5 15q-105 0 -150 -45q-22 -22 -36 -62t-14 -74z" />
    <glyph glyph-name="Ncaron" unicode="&#x147;" horiz-adv-x="1533" vert-adv-y="2275" 
d="M1128 2027v-305l-362 -176l-360 177v304l360 -173zM431 947v-947h-321v1508h283l708 -948v948h321v-1508h-283z" />
    <glyph glyph-name="ncaron" unicode="&#x148;" vert-adv-y="2275" 
d="M990 1666v-305l-362 -179l-362 179v305l362 -175zM428 704v-704h-318v1145h318v-24q92 24 200 24q255 0 392 -133q127 -124 127 -315v-697h-319v672q0 51 -8 87t-29 66t-61.5 45t-101.5 15q-105 0 -150 -45q-22 -22 -36 -62t-14 -74z" />
    <glyph glyph-name="Omacron" unicode="&#x14c;" horiz-adv-x="1865" vert-adv-y="2275" 
d="M1344 1829v-263h-823v263h823zM932 -26q-162 0 -299.5 46.5t-232 124t-161.5 179t-98 210.5t-31 220q0 92 22.5 184t66 179.5t113 163t158 133t207.5 90t255 32.5q163 0 300.5 -46.5t232 -124t161 -179.5t97.5 -211.5t31 -220.5t-31 -220.5t-97.5 -211t-161 -178.5
t-232 -123.5t-300.5 -46.5zM932 239q100 0 183.5 30.5t140 81.5t96 118t57.5 139t18 146q0 98 -28.5 187.5t-99 171t-174.5 121.5q-94 37 -193 37q-93 0 -190 -37q-105 -39 -176 -120.5t-100.5 -172t-29.5 -187.5t29.5 -187.5t101 -171.5t175.5 -121q90 -35 190 -35z" />
    <glyph glyph-name="omacron" unicode="&#x14d;" horiz-adv-x="1419" vert-adv-y="2275" 
d="M1121 1469v-265h-823v265h823zM710 -23q-118 0 -219 36t-170 95.5t-117.5 136.5t-71 157.5t-22.5 159.5t22.5 159t71.5 156.5t117.5 136t169.5 95.5t219 36t218.5 -36t169.5 -95.5t117.5 -136t71 -156.5t22.5 -159t-22.5 -159.5t-71 -157t-117 -136t-169.5 -96
t-219 -36.5zM710 241q67 0 133 36q74 41 110 120t36 165q0 84 -37 165t-109 120q-64 36 -133 36q-68 0 -134 -37q-72 -40 -109 -120t-37 -164q0 -86 36.5 -164.5t110.5 -120.5q66 -36 133 -36z" />
    <glyph glyph-name="Obreve" unicode="&#x14e;" horiz-adv-x="1865" vert-adv-y="2275" 
d="M932 1556q-88 0 -159 26t-115.5 70.5t-67.5 100.5t-23 118v92h314v-74q0 -40 9 -55t42 -15q29 0 41.5 12t12.5 40v92h312v-92q0 -131 -96 -223t-270 -92zM932 -26q-162 0 -299.5 46.5t-232 124t-161.5 179t-98 210.5t-31 220q0 92 22.5 184t66 179.5t113 163t158 133
t207.5 90t255 32.5q163 0 300.5 -46.5t232 -124t161 -179.5t97.5 -211.5t31 -220.5t-31 -220.5t-97.5 -211t-161 -178.5t-232 -123.5t-300.5 -46.5zM932 239q100 0 183.5 30.5t140 81.5t96 118t57.5 139t18 146q0 98 -28.5 187.5t-99 171t-174.5 121.5q-94 37 -193 37
q-93 0 -190 -37q-105 -39 -176 -120.5t-100.5 -172t-29.5 -187.5t29.5 -187.5t101 -171.5t175.5 -121q90 -35 190 -35z" />
    <glyph glyph-name="obreve" unicode="&#x14f;" horiz-adv-x="1419" vert-adv-y="2275" 
d="M710 1195q-174 0 -269.5 92t-95.5 223v90h313v-73q0 -39 9 -56q11 -17 43 -17q21 0 30.5 4.5t14.5 16.5q8 17 8 47v17.5v20.5v17v23h313v-90q0 -131 -96 -223t-270 -92zM710 -23q-118 0 -219 36t-170 95.5t-117.5 136.5t-71 157.5t-22.5 159.5t22.5 159t71.5 156.5
t117.5 136t169.5 95.5t219 36t218.5 -36t169.5 -95.5t117.5 -136t71 -156.5t22.5 -159t-22.5 -159.5t-71 -157t-117 -136t-169.5 -96t-219 -36.5zM710 241q67 0 133 36q74 41 110 120t36 165q0 84 -37 165t-109 120q-64 36 -133 36q-68 0 -134 -37q-72 -40 -109 -120
t-37 -164q0 -86 36.5 -164.5t110.5 -120.5q66 -36 133 -36z" />
    <glyph glyph-name="Ohungarumlaut" unicode="&#x150;" horiz-adv-x="1865" vert-adv-y="2275" 
d="M1144 2118l-261 -501h-315l209 501h367zM1519 2118l-261 -501h-316l209 501h368zM932 -26q-162 0 -299.5 46.5t-232 124t-161.5 179t-98 210.5t-31 220q0 92 22.5 184t66 179.5t113 163t158 133t207.5 90t255 32.5q163 0 300.5 -46.5t232 -124t161 -179.5t97.5 -211.5
t31 -220.5t-31 -220.5t-97.5 -211t-161 -178.5t-232 -123.5t-300.5 -46.5zM932 239q100 0 183.5 30.5t140 81.5t96 118t57.5 139t18 146q0 98 -28.5 187.5t-99 171t-174.5 121.5q-94 37 -193 37q-93 0 -190 -37q-105 -39 -176 -120.5t-100.5 -172t-29.5 -187.5t29.5 -187.5
t101 -171.5t175.5 -121q90 -35 190 -35z" />
    <glyph glyph-name="ohungarumlaut" unicode="&#x151;" horiz-adv-x="1419" vert-adv-y="2275" 
d="M915 1736l-261 -500h-314l208 500h367zM1290 1736l-261 -500h-315l208 500h368zM710 -23q-118 0 -219 36t-170 95.5t-117.5 136.5t-71 157.5t-22.5 159.5t22.5 159t71.5 156.5t117.5 136t169.5 95.5t219 36t218.5 -36t169.5 -95.5t117.5 -136t71 -156.5t22.5 -159
t-22.5 -159.5t-71 -157t-117 -136t-169.5 -96t-219 -36.5zM710 241q67 0 133 36q74 41 110 120t36 165q0 84 -37 165t-109 120q-64 36 -133 36q-68 0 -134 -37q-72 -40 -109 -120t-37 -164q0 -86 36.5 -164.5t110.5 -120.5q66 -36 133 -36z" />
    <glyph glyph-name="OE" unicode="&#x152;" horiz-adv-x="2975" vert-adv-y="2275" 
d="M932 -26q-162 0 -299.5 46.5t-232 124t-161.5 179t-98 210.5t-31 220q0 92 22.5 184t66 179.5t113 163t158 133t207.5 90t255 32.5q285 0 496 -146v118h1143v-271h-819v-338h688v-271h-687l-1 -358h819v-270h-1143v118q-211 -144 -496 -144zM932 239q100 0 183.5 30.5
t140 81.5t96 118t57.5 139t18 146q0 98 -28.5 187.5t-99 171t-174.5 121.5q-94 37 -193 37q-93 0 -190 -37q-105 -39 -176 -120.5t-100.5 -172t-29.5 -187.5t29.5 -187.5t101 -171.5t175.5 -121q90 -35 190 -35z" />
    <glyph glyph-name="oe" unicode="&#x153;" horiz-adv-x="2586" vert-adv-y="2275" 
d="M970 -23q-118 0 -219 36.5t-169.5 96t-117.5 136t-71.5 157t-22.5 159.5t22.5 159t71.5 156.5t117.5 136t169.5 95.5t219 36q262 0 441 -182q173 182 453 182q120 0 222.5 -35.5t173 -94t121 -134.5t74 -157t23.5 -162q0 -40 -11 -97l-4 -20h-875q29 -89 100 -146.5
t176 -57.5q154 0 241 133q10 15 21 40l309 -72q-21 -49 -57 -104q-80 -118 -212.5 -189.5t-301.5 -71.5q-279 0 -453 183q-180 -183 -441 -183zM970 241q67 0 133 36q74 41 110 120t36 165q0 84 -37 165t-109 120q-64 36 -133 36q-68 0 -134 -37q-72 -40 -109 -120t-37 -164
q0 -86 36.5 -164.5t110.5 -120.5q66 -36 133 -36zM1601 711h526q-34 77 -101 124.5t-162 47.5t-161.5 -47.5t-101.5 -124.5z" />
    <glyph glyph-name="Racute" unicode="&#x154;" horiz-adv-x="1504" vert-adv-y="2275" 
d="M1008 2033l-240 -499h-324l212 499h352zM431 628v-628h-321v1508h653q271 0 421 -117t150 -323q0 -145 -83 -255t-253 -156l396 -657h-371l-368 628h-224zM771 1237h-340v-338h340q127 0 183.5 38.5t56.5 131.5t-56.5 130.5t-183.5 37.5z" />
    <glyph glyph-name="racute" unicode="&#x155;" horiz-adv-x="851" vert-adv-y="2275" 
d="M711 1671l-238 -500h-326l212 500h352zM428 704v-704h-318v1145h318v-24q94 24 283 24h30v-260h-30q-62 0 -93 -1q-99 -3 -140 -44q-22 -22 -36 -62.5t-14 -73.5z" />
    <glyph glyph-name="Rcaron" unicode="&#x158;" horiz-adv-x="1504" vert-adv-y="2275" 
d="M1084 2027v-305l-362 -176l-361 176v305l361 -173zM431 628v-628h-321v1508h653q271 0 421 -117t150 -323q0 -145 -83 -255t-253 -156l396 -657h-371l-368 628h-224zM771 1237h-340v-338h340q127 0 183.5 38.5t56.5 131.5t-56.5 130.5t-183.5 37.5z" />
    <glyph glyph-name="rcaron" unicode="&#x159;" horiz-adv-x="846" vert-adv-y="2275" 
d="M784 1666v-305l-363 -179l-359 179v305l362 -175zM427 704v-704h-319v1145h319v-23q56 14 119 19q54 4 162 4h31v-260h-31q-61 0 -92 -1q-52 -2 -84.5 -11t-55.5 -33q-21 -21 -35 -61.5t-14 -74.5z" />
    <glyph glyph-name="Sacute" unicode="&#x15a;" horiz-adv-x="1496" vert-adv-y="2275" 
d="M1020 2033l-225 -471h-328l201 471h352zM748 -24q-215 0 -371.5 89t-220.5 244q-30 72 -44 212l-2 25h331l2 -21l6 -45q16 -113 90 -172q77 -62 209 -62q112 0 183 32q112 51 112 151q0 68 -42 104q-29 26 -127 53q-62 17 -225 47q-102 20 -177.5 42t-144.5 57.5
t-112.5 81t-69 110.5t-25.5 148q0 132 85 238t228.5 163t314.5 57q215 0 372 -90t220 -247q20 -45 30 -106q8 -47 13 -105l3 -25h-331l-3 21q-2 24 -8 64q-7 35 -17 61q-32 75 -104 116t-175 41q-110 0 -182 -34q-114 -52 -114 -152q0 -64 43 -103q29 -26 126 -52
q73 -20 223 -48q104 -20 179 -42t145 -57t113 -80t68.5 -111t25.5 -150q0 -132 -85.5 -237t-228 -161.5t-313.5 -56.5z" />
    <glyph glyph-name="sacute" unicode="&#x15b;" horiz-adv-x="1180" vert-adv-y="2275" 
d="M874 1671l-238 -500h-323l210 500h351zM592 -14q-168 0 -289 76t-166 200q-14 41 -20 89q0 2 -6 86l-1 15h315l2 -12q1 -11 3.5 -31.5t3.5 -30.5q18 -127 158 -127q68 0 110.5 23.5t42.5 67.5q0 24 -8 36t-33 24q-34 16 -87 26q-15 3 -31.5 6t-36.5 6.5t-32 5.5
q-78 15 -136.5 33t-110.5 45.5t-84.5 63.5t-51.5 86.5t-19 114.5q0 146 134 251q135 105 340 105q168 0 289.5 -75t165.5 -199q14 -42 19 -88q4 -29 6 -87v-12h-324v12q2 26 2 39q0 66 -40 106t-118 40q-111 0 -141 -50q-13 -19 -13 -40q0 -25 8 -37t32 -23q28 -14 87 -26
q19 -3 100 -16q199 -37 301 -115.5t102 -229.5q0 -147 -134 -252q-134 -106 -339 -106z" />
    <glyph glyph-name="Scircumflex" unicode="&#x15c;" horiz-adv-x="1496" vert-adv-y="2275" 
d="M1109 1471l-361 174l-361 -174v307l361 175l361 -175v-307zM748 -24q-215 0 -371.5 89t-220.5 244q-30 72 -44 212l-2 25h331l2 -21l6 -45q16 -113 90 -172q77 -62 209 -62q112 0 183 32q112 51 112 151q0 68 -42 104q-29 26 -127 53q-62 17 -225 47q-102 20 -177.5 42
t-144.5 57.5t-112.5 81t-69 110.5t-25.5 148q0 132 85 238t228.5 163t314.5 57q215 0 372 -90t220 -247q20 -45 30 -106q8 -47 13 -105l3 -25h-331l-3 21q-2 24 -8 64q-7 35 -17 61q-32 75 -104 116t-175 41q-110 0 -182 -34q-114 -52 -114 -152q0 -64 43 -103
q29 -26 126 -52q73 -20 223 -48q104 -20 179 -42t145 -57t113 -80t68.5 -111t25.5 -150q0 -132 -85.5 -237t-228 -161.5t-313.5 -56.5z" />
    <glyph glyph-name="scircumflex" unicode="&#x15d;" horiz-adv-x="1180" vert-adv-y="2275" 
d="M951 1109l-361 175l-361 -176v306l361 178l361 -178v-305zM592 -14q-168 0 -289 76t-166 200q-14 41 -20 89q0 2 -6 86l-1 15h315l2 -12q1 -11 3.5 -31.5t3.5 -30.5q18 -127 158 -127q68 0 110.5 23.5t42.5 67.5q0 24 -8 36t-33 24q-34 16 -87 26q-15 3 -31.5 6
t-36.5 6.5t-32 5.5q-78 15 -136.5 33t-110.5 45.5t-84.5 63.5t-51.5 86.5t-19 114.5q0 146 134 251q135 105 340 105q168 0 289.5 -75t165.5 -199q14 -42 19 -88q4 -29 6 -87v-12h-324v12q2 26 2 39q0 66 -40 106t-118 40q-111 0 -141 -50q-13 -19 -13 -40q0 -25 8 -37
t32 -23q28 -14 87 -26q19 -3 100 -16q199 -37 301 -115.5t102 -229.5q0 -147 -134 -252q-134 -106 -339 -106z" />
    <glyph glyph-name="Scedilla" unicode="&#x15e;" horiz-adv-x="1496" vert-adv-y="2275" 
d="M717 -534q-85 0 -142 28t-124 85l-13 11l107 156q6 -4 33.5 -16.5t55.5 -25t31 -13.5q34 -16 60 -16q6 0 18.5 14t12.5 27t-5 28l-4 7q-6 -1 -12 -1l-4 -3q-1 -1 -4 -5t-4 -6l-9 -16l-12 -23l-213 82l89 213h-2q-155 31 -263 114.5t-157 202.5q-33 82 -44 212l-2 25h331
l2 -21q1 -9 3.5 -26t2.5 -20q8 -56 28 -96.5t62 -74.5q75 -62 209 -62q112 0 183 32q112 51 112 151q0 68 -42 104q-29 26 -127 53q-62 17 -225 47q-102 20 -177.5 42t-144.5 57t-112.5 80.5t-69 111t-25.5 148.5q0 132 85 238t228.5 163t314.5 57q215 0 371.5 -90
t220.5 -247q20 -45 30 -106q3 -17 13 -105l3 -25h-331l-3 21q-1 7 -3.5 29.5t-4.5 34.5q-5 33 -16 61q-32 75 -104.5 116t-175.5 41q-110 0 -182 -34q-114 -52 -114 -152q0 -66 43 -103q30 -26 126 -52q73 -20 223 -48q104 -20 179 -42t145 -57t113.5 -80t69 -111t25.5 -150
q0 -178 -150.5 -302.5t-382.5 -148.5l-1 -4l-2 -6q94 -26 145 -94.5t51 -147.5q0 -108 -88 -185t-231 -77z" />
    <glyph glyph-name="scedilla" unicode="&#x15f;" horiz-adv-x="1180" vert-adv-y="2275" 
d="M556 -534q-85 0 -142 28t-124 85l-13 11l107 156q6 -4 33.5 -16.5t55.5 -25t31 -13.5q34 -16 60 -16q6 0 18.5 14t12.5 27t-5 28l-4 7q-6 -1 -12 -1l-4 -3q0 -1 -3.5 -5t-4.5 -6l-9 -16l-12 -23l-213 82l89 213l5 17q-105 31 -178.5 97.5t-106.5 155.5q-14 41 -20 89
q0 2 -6 86l-1 15h315l2 -12q1 -11 3.5 -31.5t3.5 -30.5q18 -127 158 -127q68 0 110.5 23.5t42.5 67.5q0 24 -8 36t-33 24q-34 16 -87 26q-15 3 -31.5 6t-36.5 6.5t-32 5.5q-78 15 -136.5 33t-110.5 45.5t-84.5 63.5t-51.5 86.5t-19 114.5q0 146 134 251q135 105 340 105
q168 0 289.5 -75t165.5 -199q14 -42 19 -88q4 -29 6 -87v-12h-324v12q2 26 2 39q0 66 -40 106t-118 40q-111 0 -141 -50q-13 -19 -13 -40q0 -25 8 -37t32 -23q28 -14 87 -26q19 -3 100 -16q199 -37 301 -115.5t102 -229.5q0 -147 -134 -252q-103 -81 -250 -100l-2 -22
q94 -26 145 -94.5t51 -147.5q0 -108 -88 -185t-231 -77z" />
    <glyph glyph-name="Scaron" unicode="&#x160;" horiz-adv-x="1496" vert-adv-y="2275" 
d="M1109 2027v-305l-361 -176l-361 176v305l361 -173zM748 -24q-215 0 -371.5 89t-220.5 244q-30 72 -44 212l-2 25h331l2 -21l6 -45q16 -113 90 -172q77 -62 209 -62q112 0 183 32q112 51 112 151q0 68 -42 104q-29 26 -127 53q-62 17 -225 47q-102 20 -177.5 42
t-144.5 57.5t-112.5 81t-69 110.5t-25.5 148q0 132 85 238t228.5 163t314.5 57q215 0 372 -90t220 -247q20 -45 30 -106q8 -47 13 -105l3 -25h-331l-3 21q-2 24 -8 64q-7 35 -17 61q-32 75 -104 116t-175 41q-110 0 -182 -34q-114 -52 -114 -152q0 -64 43 -103
q29 -26 126 -52q73 -20 223 -48q104 -20 179 -42t145 -57t113 -80t68.5 -111t25.5 -150q0 -132 -85.5 -237t-228 -161.5t-313.5 -56.5z" />
    <glyph glyph-name="scaron" unicode="&#x161;" horiz-adv-x="1180" vert-adv-y="2275" 
d="M951 1666v-305l-361 -179l-361 179v305l361 -175zM592 -14q-168 0 -289 76t-166 200q-14 41 -20 89q0 2 -6 86l-1 15h315l2 -12q1 -11 3.5 -31.5t3.5 -30.5q18 -127 158 -127q68 0 110.5 23.5t42.5 67.5q0 24 -8 36t-33 24q-34 16 -87 26q-15 3 -31.5 6t-36.5 6.5
t-32 5.5q-78 15 -136.5 33t-110.5 45.5t-84.5 63.5t-51.5 86.5t-19 114.5q0 146 134 251q135 105 340 105q168 0 289.5 -75t165.5 -199q14 -42 19 -88q4 -29 6 -87v-12h-324v12q2 26 2 39q0 66 -40 106t-118 40q-111 0 -141 -50q-13 -19 -13 -40q0 -25 8 -37t32 -23
q28 -14 87 -26q19 -3 100 -16q199 -37 301 -115.5t102 -229.5q0 -147 -134 -252q-134 -106 -339 -106z" />
    <glyph glyph-name="Tcaron" unicode="&#x164;" horiz-adv-x="1481" vert-adv-y="2275" 
d="M1101 2027v-305l-361 -176l-361 176v305l361 -173zM900 1237v-1237h-322v1237h-468v271h1261v-271h-471z" />
    <glyph glyph-name="tcaron" unicode="&#x165;" horiz-adv-x="1400" vert-adv-y="2275" 
d="M618 -2q-68 0 -121.5 18t-86 46.5t-53.5 68t-29 79t-8 82.5v591h-210v262h210v408h319v-408h217v-262h-217v-574v-36l2 -12l4 -1q30 0 90.5 2t90.5 2h31v-257l-29 -1q-23 -1 -96.5 -4.5t-113.5 -3.5zM1372 1508l-184 -500h-309l133 500h360z" />
    <glyph glyph-name="Utilde" unicode="&#x168;" horiz-adv-x="1534" vert-adv-y="2275" 
d="M892 1622q-74 0 -165 40q-6 3 -27 12t-31 13l-8 2q0 -3 -1 -5l-7 -36l-4 -20h-311l10 80q6 50 24 92.5t51 80.5t89.5 60t131.5 22q70 0 167 -41l66 -28q1 1 1.5 4t0.5 4q2 22 7 38l5 18h309l-4 -26l-11 -77q-13 -96 -89 -164.5t-204 -68.5zM766 -26q-146 0 -262 40.5
t-188.5 105.5t-120 154t-66.5 179t-19 188v867h322v-885q0 -56 10 -108.5t34.5 -103.5t61.5 -88.5t95.5 -60.5t132.5 -23t133 23t96 60.5t61.5 88.5t34.5 103t10 109v885h322v-867q0 -98 -19 -188t-67 -179t-120.5 -154t-188.5 -105.5t-262 -40.5z" />
    <glyph glyph-name="utilde" unicode="&#x169;" vert-adv-y="2275" 
d="M752 1260q-72 0 -165 40q-8 3 -19.5 8.5t-21 9.5t-17.5 7l-9 4l-8 -44l-4 -19h-314l16 102q15 97 89.5 164.5t204.5 67.5q73 0 168 -40q12 -5 31.5 -14t27.5 -12l7 -3q7 38 9 45l5 18h306l-3 -25l-9 -76q-11 -96 -88 -164.5t-206 -68.5zM628 0q-126 0 -222 30.5
t-170 103.5q-126 123 -126 315v696h318v-672q0 -104 42 -158.5t158 -54.5q105 0 151 46q20 21 34 62.5t14 73.5v703h320v-1145h-320v25q-89 -25 -199 -25z" />
    <glyph glyph-name="Umacron" unicode="&#x16a;" horiz-adv-x="1534" vert-adv-y="2275" 
d="M1180 1829v-263h-825v263h825zM766 -26q-146 0 -262 40.5t-188.5 105.5t-120 154t-66.5 179t-19 188v867h322v-885q0 -56 10 -108.5t34.5 -103.5t61.5 -88.5t95.5 -60.5t132.5 -23t133 23t96 60.5t61.5 88.5t34.5 103t10 109v885h322v-867q0 -98 -19 -188t-67 -179
t-120.5 -154t-188.5 -105.5t-262 -40.5z" />
    <glyph glyph-name="umacron" unicode="&#x16b;" vert-adv-y="2275" 
d="M1040 1469v-265h-823v265h823zM628 0q-126 0 -222 30.5t-170 103.5q-126 123 -126 315v696h318v-672q0 -104 42 -158.5t158 -54.5q105 0 151 46q20 21 34 62.5t14 73.5v703h320v-1145h-320v25q-89 -25 -199 -25z" />
    <glyph glyph-name="Ubreve" unicode="&#x16c;" horiz-adv-x="1534" vert-adv-y="2275" 
d="M767 1556q-173 0 -269 92.5t-96 222.5v92h313v-23q0 -54 1 -65q2 -35 11.5 -45.5t39.5 -10.5q29 0 41.5 12t12.5 40v92h312v-92q0 -62 -23.5 -118t-67.5 -100.5t-115.5 -70.5t-159.5 -26zM766 -26q-146 0 -262 40.5t-188.5 105.5t-120 154t-66.5 179t-19 188v867h322
v-885q0 -56 10 -108.5t34.5 -103.5t61.5 -88.5t95.5 -60.5t132.5 -23t133 23t96 60.5t61.5 88.5t34.5 103t10 109v885h322v-867q0 -98 -19 -188t-67 -179t-120.5 -154t-188.5 -105.5t-262 -40.5z" />
    <glyph glyph-name="ubreve" unicode="&#x16d;" vert-adv-y="2275" 
d="M628 1195q-174 0 -270 92t-96 223v90h315v-73q0 -41 9 -56q9 -17 42 -17q28 0 41 13.5t13 42.5v90h311v-90q0 -131 -95.5 -223t-269.5 -92zM628 0q-126 0 -222 30.5t-170 103.5q-126 123 -126 315v696h318v-672q0 -104 42 -158.5t158 -54.5q105 0 151 46q20 21 34 62.5
t14 73.5v703h320v-1145h-320v25q-89 -25 -199 -25z" />
    <glyph glyph-name="Uring" unicode="&#x16e;" horiz-adv-x="1534" vert-adv-y="2275" 
d="M743 1552q-57 0 -115 23q-69 29 -105 86t-36 118q0 87 69.5 157t186.5 70q55 0 114 -25q69 -29 104 -84.5t35 -117.5q0 -87 -67.5 -157t-185.5 -70zM743 1734q7 0 13 11q9 15 9 34t-9 33q-6 11 -13 11q-8 0 -15 -10q-7 -14 -7 -34q0 -21 8 -34q5 -11 14 -11zM766 -26
q-146 0 -262 40.5t-188.5 105.5t-120 154t-66.5 179t-19 188v867h322v-885q0 -56 10 -108.5t34.5 -103.5t61.5 -88.5t95.5 -60.5t132.5 -23t133 23t96 60.5t61.5 88.5t34.5 103t10 109v885h322v-867q0 -98 -19 -188t-67 -179t-120.5 -154t-188.5 -105.5t-262 -40.5z" />
    <glyph glyph-name="uring" unicode="&#x16f;" vert-adv-y="2275" 
d="M643 1197q-60 0 -114 23q-70 28 -106 85t-36 118q0 86 69.5 156t186.5 70q55 0 114 -24q69 -29 104.5 -85t35.5 -117q0 -87 -68 -156.5t-186 -69.5zM643 1378q7 0 14 11q8 16 8 34q0 17 -8 33q-6 10 -14 10t-14 -10q-8 -12 -8 -33t8 -34q5 -11 14 -11zM628 0
q-126 0 -222 30.5t-170 103.5q-126 123 -126 315v696h318v-672q0 -104 42 -158.5t158 -54.5q105 0 151 46q20 21 34 62.5t14 73.5v703h320v-1145h-320v25q-89 -25 -199 -25z" />
    <glyph glyph-name="Uhungarumlaut" unicode="&#x170;" horiz-adv-x="1534" vert-adv-y="2275" 
d="M932 2111l-262 -500h-314l208 500h368zM1307 2111l-261 -500h-315l208 500h368zM766 -26q-146 0 -262 40.5t-188.5 105.5t-120 154t-66.5 179t-19 188v867h322v-885q0 -56 10 -108.5t34.5 -103.5t61.5 -88.5t95.5 -60.5t132.5 -23t133 23t96 60.5t61.5 88.5t34.5 103
t10 109v885h322v-867q0 -98 -19 -188t-67 -179t-120.5 -154t-188.5 -105.5t-262 -40.5z" />
    <glyph glyph-name="uhungarumlaut" unicode="&#x171;" horiz-adv-x="1281" vert-adv-y="2275" 
d="M833 1747l-261 -500h-315l209 500h367zM1208 1747l-261 -500h-315l208 500h368zM628 0q-126 0 -222 30.5t-170 103.5q-126 123 -126 315v696h318v-672q0 -104 42 -158.5t158 -54.5q105 0 151 46q20 21 34 62.5t14 73.5v703h320v-1145h-320v25q-89 -25 -199 -25z" />
    <glyph glyph-name="Wcircumflex" unicode="&#x174;" horiz-adv-x="2463" vert-adv-y="2275" 
d="M1592 1471l-360 174l-362 -174v307l362 175l360 -175v-307zM2353 1508l-520 -1510h-282l-319 960l-322 -958h-284l-516 1508h343l316 -957l320 957h288l318 -959l319 959h339z" />
    <glyph glyph-name="wcircumflex" unicode="&#x175;" horiz-adv-x="2044" vert-adv-y="2275" 
d="M1384 1109l-361 175l-361 -176v306l360 178l362 -178v-305zM1023 601l-223 -606h-264l-426 1157h333l224 -617l223 617h263l225 -617l224 617h332l-426 -1157h-262z" />
    <glyph glyph-name="Ycircumflex" unicode="&#x176;" horiz-adv-x="1891" vert-adv-y="2275" 
d="M1308 1471l-363 174l-360 -174v307l360 175l363 -175v-307zM1106 719v-719h-322v724l-674 784h402l435 -514l438 514h397z" />
    <glyph glyph-name="ycircumflex" unicode="&#x177;" horiz-adv-x="1513" vert-adv-y="2275" 
d="M1118 1175l-361 175l-361 -176v306l360 178l362 -178v-305zM1402 1147l-695 -1555h-338l218 498l-477 1057h346l300 -680l300 680h346z" />
    <glyph glyph-name="Ydieresis" unicode="&#x178;" horiz-adv-x="1891" vert-adv-y="2275" 
d="M765 1564q-89 0 -141.5 51t-52.5 116q0 66 52 117t142 51q89 0 141 -51.5t52 -116.5q0 -63 -53 -115t-140 -52zM1163 1564q-89 0 -141.5 51t-52.5 116q0 66 52 117t142 51q89 0 141 -51.5t52 -116.5q0 -64 -53 -115.5t-140 -51.5zM1106 719v-719h-322v724l-674 784h402
l435 -514l438 514h397z" />
    <glyph glyph-name="Zacute" unicode="&#x179;" horiz-adv-x="1523" vert-adv-y="2275" 
d="M1046 2033l-239 -499h-324l211 499h352zM1413 270v-270h-1303v194l849 1043h-840v271h1286v-196l-847 -1042h855z" />
    <glyph glyph-name="zacute" unicode="&#x17a;" horiz-adv-x="1250" vert-adv-y="2275" 
d="M911 1671l-240 -500h-324l213 500h351zM1141 262v-262h-1029v189l569 694h-571v262h1028v-185l-570 -698h573z" />
    <glyph glyph-name="Zdotaccent" unicode="&#x17b;" horiz-adv-x="1523" vert-adv-y="2275" 
d="M762 1617q-87 0 -138.5 49t-51.5 113t51.5 114t138.5 50q86 0 138.5 -51t52.5 -113t-52.5 -112t-138.5 -50zM1413 270v-270h-1303v194l849 1043h-840v271h1286v-196l-847 -1042h855z" />
    <glyph glyph-name="zdotaccent" unicode="&#x17c;" horiz-adv-x="1250" vert-adv-y="2275" 
d="M625 1255q-88 0 -138.5 49t-50.5 113q0 63 51.5 113.5t137.5 50.5q85 0 137 -50.5t52 -113.5q0 -64 -51 -113t-138 -49zM1141 262v-262h-1029v189l569 694h-571v262h1028v-185l-570 -698h573z" />
    <glyph glyph-name="Zcaron" unicode="&#x17d;" horiz-adv-x="1523" vert-adv-y="2275" 
d="M1122 2027v-305l-362 -176l-360 177v304l361 -173zM1413 270v-270h-1303v194l849 1043h-840v271h1286v-196l-847 -1042h855z" />
    <glyph glyph-name="zcaron" unicode="&#x17e;" horiz-adv-x="1250" vert-adv-y="2275" 
d="M987 1666v-305l-362 -179l-361 179v305l361 -175zM1141 262v-262h-1029v189l569 694h-571v262h1028v-185l-570 -698h573z" />
    <glyph glyph-name="circumflex" unicode="&#x2c6;" horiz-adv-x="1017" vert-adv-y="2275" 
d="M870 1109l-360 175l-362 -176v306l359 178l363 -178v-305z" />
    <glyph glyph-name="caron" unicode="&#x2c7;" horiz-adv-x="1017" vert-adv-y="2275" 
d="M870 1666v-305l-363 -179l-359 179v305l362 -175z" />
    <glyph glyph-name="breve" unicode="&#x2d8;" horiz-adv-x="959" vert-adv-y="2275" 
d="M478 1195q-88 0 -159 26t-115 70.5t-67 100.5t-23 118v90h313v-23v-16v-20.5v-17.5q0 -26 8 -47q5 -13 13.5 -17.5t29.5 -4.5q31 0 41.5 11.5t12.5 46.5q1 22 1 65v23h312v-90q0 -132 -96 -223.5t-271 -91.5z" />
    <glyph glyph-name="dotaccent" unicode="&#x2d9;" horiz-adv-x="712" vert-adv-y="2275" 
d="M355 1255q-87 0 -138 49t-51 113q0 63 51.5 113.5t137.5 50.5t139 -50.5t53 -113.5t-52.5 -112.5t-139.5 -49.5z" />
    <glyph glyph-name="ring" unicode="&#x2da;" horiz-adv-x="828" vert-adv-y="2275" 
d="M416 1173q-75 0 -146 30q-89 39 -134 109t-45 150q0 111 88.5 199.5t236.5 88.5q147 0 234.5 -89t87.5 -199q0 -71 -35 -135.5t-110.5 -109t-176.5 -44.5zM413 1428l5 2q4 2 5 4q6 12 6 28t-7 27q-3 6 -5 6l-3 1q-3 -3 -5 -6q-6 -12 -6 -28t6 -28q1 -2 3 -4z" />
    <glyph glyph-name="ogonek" unicode="&#x2db;" horiz-adv-x="803" vert-adv-y="2275" 
d="M398 -376q-75 0 -134 25.5t-92.5 66.5t-50.5 88.5t-17 96.5q0 111 70.5 199t199.5 140l75 30l28 10l138 -231l-26 -10q-13 -5 -73 -27l183 -212l-12 -20q-40 -72 -113.5 -114t-175.5 -42z" />
    <glyph glyph-name="tilde" unicode="&#x2dc;" horiz-adv-x="1090" vert-adv-y="2275" 
d="M668 1260q-72 0 -165 40q-8 3 -19.5 8.5t-21 9.5t-17.5 7l-9 3q-4 -28 -7 -43l-4 -19h-313l16 102q16 98 89.5 165t204.5 67q72 0 167 -40q12 -5 31.5 -14t27.5 -12l6 -2q5 16 10 43l4 19h310l-16 -101q-15 -98 -89.5 -165.5t-204.5 -67.5z" />
    <glyph glyph-name="hungarumlaut" unicode="&#x2dd;" horiz-adv-x="1123" vert-adv-y="2275" 
d="M985 1705l-260 -499h-588l208 499h640z" />
    <glyph glyph-name="Wgrave" unicode="&#x1e80;" horiz-adv-x="2463" vert-adv-y="2275" 
d="M1300 2033l210 -499h-324l-239 499h353zM2353 1508l-520 -1510h-282l-319 960l-322 -958h-284l-516 1508h343l316 -957l320 957h288l318 -959l319 959h339z" />
    <glyph glyph-name="wgrave" unicode="&#x1e81;" horiz-adv-x="2044" vert-adv-y="2275" 
d="M1091 1671l210 -500h-324l-240 500h354zM1023 601l-223 -606h-264l-426 1157h333l224 -617l223 617h263l225 -617l224 617h332l-426 -1157h-262z" />
    <glyph glyph-name="Wacute" unicode="&#x1e82;" horiz-adv-x="2463" vert-adv-y="2275" 
d="M1517 2033l-239 -499h-324l210 499h353zM2353 1508l-520 -1510h-282l-319 960l-322 -958h-284l-516 1508h343l316 -957l320 957h288l318 -959l319 959h339z" />
    <glyph glyph-name="wacute" unicode="&#x1e83;" horiz-adv-x="2044" vert-adv-y="2275" 
d="M1308 1671l-240 -500h-323l210 500h353zM1023 601l-223 -606h-264l-426 1157h333l224 -617l223 617h263l225 -617l224 617h332l-426 -1157h-262z" />
    <glyph glyph-name="Wdieresis" unicode="&#x1e84;" horiz-adv-x="2463" vert-adv-y="2275" 
d="M1045 1564q-90 0 -142.5 51t-52.5 116q0 66 52.5 117t142.5 51q89 0 141 -51.5t52 -116.5q0 -64 -53 -115.5t-140 -51.5zM1442 1564q-89 0 -141.5 51t-52.5 116q0 66 52 117t142 51q89 0 141.5 -51.5t52.5 -116.5q0 -64 -53 -115.5t-141 -51.5zM2353 1508l-520 -1510
h-282l-319 960l-322 -958h-284l-516 1508h343l316 -957l320 957h288l318 -959l319 959h339z" />
    <glyph glyph-name="wdieresis" unicode="&#x1e85;" horiz-adv-x="2044" vert-adv-y="2275" 
d="M821 1240q-89 0 -141.5 51.5t-52.5 116.5t52.5 116.5t141.5 51.5t141 -51.5t52 -116.5q0 -64 -53 -116t-140 -52zM1219 1240q-89 0 -141.5 51.5t-52.5 116.5t52.5 116.5t141.5 51.5t141 -52t52 -116t-53 -116t-140 -52zM1023 601l-223 -606h-264l-426 1157h333l224 -617
l223 617h263l225 -617l224 617h332l-426 -1157h-262z" />
    <glyph glyph-name="endash" unicode="&#x2013;" horiz-adv-x="1212" vert-adv-y="2275" 
d="M1212 694v-264h-1212v264h1212z" />
    <glyph glyph-name="emdash" unicode="&#x2014;" horiz-adv-x="2197" vert-adv-y="2275" 
d="M2198 694v-264h-2198v264h2198z" />
    <glyph glyph-name="quoteleft" unicode="&#x2018;" horiz-adv-x="626" vert-adv-y="2275" 
d="M522 1500l-120 -466h-298l168 466h250z" />
    <glyph glyph-name="quoteright" unicode="&#x2019;" horiz-adv-x="627" vert-adv-y="2275" 
d="M522 1500l-168 -466h-250l120 466h298z" />
    <glyph glyph-name="quotesinglbase" unicode="&#x201a;" horiz-adv-x="627" vert-adv-y="2275" 
d="M522 278l-168 -466h-250l120 466h298z" />
    <glyph glyph-name="quotedblleft" unicode="&#x201c;" horiz-adv-x="896" vert-adv-y="2275" 
d="M522 1500l-120 -466h-298l168 466h250zM851 1500l-168 -466h-250l120 466h298z" />
    <glyph glyph-name="quotedblright" unicode="&#x201d;" horiz-adv-x="896" vert-adv-y="2275" 
d="M522 1500l-120 -466h-298l168 466h250zM851 1500l-168 -466h-250l120 466h298z" />
    <glyph glyph-name="quotedblbase" unicode="&#x201e;" horiz-adv-x="896" vert-adv-y="2275" 
d="M485 280l-120 -466h-298l168 466h250zM814 280l-168 -466h-250l120 466h298z" />
    <glyph glyph-name="dagger" unicode="&#x2020;" horiz-adv-x="1264" vert-adv-y="2275" 
d="M791 858v-1007h-319v1007h-358v266h358v384h319v-384h360v-266h-360z" />
    <glyph glyph-name="daggerdbl" unicode="&#x2021;" horiz-adv-x="1264" vert-adv-y="2275" 
d="M791 235v-384h-319v384h-358v265h358v358h-358v266h358v384h319v-384h360v-266h-360v-358h360v-265h-360z" />
    <glyph glyph-name="bullet" unicode="&#x2022;" horiz-adv-x="1269" vert-adv-y="2275" 
d="M633 393q-171 0 -291 110q-111 104 -111 255q0 64 26.5 128.5t75.5 118.5t127.5 87.5t172.5 33.5t173 -33.5t128.5 -87.5t76.5 -118.5t27 -128.5q0 -65 -27 -128.5t-76.5 -117t-128.5 -86.5t-173 -33z" />
    <glyph glyph-name="ellipsis" unicode="&#x2026;" horiz-adv-x="1433" vert-adv-y="2275" 
d="M318 -17q-88 0 -140.5 51.5t-52.5 116.5t52 116.5t141 51.5t141.5 -51.5t52.5 -116.5q0 -64 -53.5 -116t-140.5 -52zM717 -17q-89 0 -141.5 51.5t-52.5 116.5q0 66 52 117t142 51q89 0 141 -52t52 -116t-53 -116t-140 -52zM1114 -17q-89 0 -141 51.5t-52 116.5
t51.5 116.5t141.5 51.5q89 0 141.5 -51.5t52.5 -116.5q0 -64 -53 -116t-141 -52z" />
    <glyph glyph-name="guilsinglleft" unicode="&#x2039;" horiz-adv-x="913" vert-adv-y="2275" 
d="M500 572l266 -484h-353l-268 484l268 483h353z" />
    <glyph glyph-name="guilsinglright" unicode="&#x203a;" horiz-adv-x="915" vert-adv-y="2275" 
d="M768 572l-268 -484h-355l269 484l-269 483h355z" />
    <glyph glyph-name="fraction" unicode="&#x2044;" horiz-adv-x="999" vert-adv-y="2275" 
d="M1068 1508l-794 -1508h-343l793 1508h344z" />
    <glyph glyph-name="Euro" unicode="&#x20ac;" horiz-adv-x="1450" vert-adv-y="2275" 
d="M1034 1022v-248h-947v248h170q21 84 56 157t92 139.5t130.5 114t176 75.5t223.5 28q188 0 331 -72q13 -6 33 -20q13 -7 19 -13v-317l-48 28q-12 7 -57 35t-71 41q-101 53 -207 53q-145 0 -226.5 -65.5t-119.5 -183.5h445zM935 -26q-150 0 -271 41.5t-201.5 115.5
t-131 162.5t-76.5 194.5h-168v261h947v-261h-447q37 -118 119 -183.5t229 -65.5q111 0 206 50q18 10 61.5 35.5t68.5 38.5l47 24v-311l-9 -7q-123 -95 -374 -95z" />
    <glyph glyph-name="trademark" unicode="&#x2122;" horiz-adv-x="1929" vert-adv-y="2275" 
d="M610 1280v-705h-256v705h-263v220h934l255 -315l258 315h208v-925h-257v486l-160 -195h-97l-158 194v-485h-258v705h-206z" />
    <glyph glyph-name="arrowleft" unicode="&#x2190;" horiz-adv-x="1398" vert-adv-y="2275" 
d="M527 430l330 -430h-375l-440 562l440 562h375l-330 -430h829v-264h-829z" />
    <glyph glyph-name="arrowright" unicode="&#x2192;" horiz-adv-x="1398" vert-adv-y="2275" 
d="M1356 562l-439 -562h-375l329 430h-829v264h829l-329 430h375z" />
    <glyph glyph-name="minus" unicode="&#x2212;" horiz-adv-x="1380" vert-adv-y="2275" 
d="M1310 696v-269h-1239v269h1239z" />
    <glyph glyph-name="approxequal" unicode="&#x2248;" horiz-adv-x="1438" vert-adv-y="2275" 
d="M406 611l-26 -43l-19 -29l-246 183l30 49q55 88 149.5 138.5t220.5 50.5q87 0 231 -46l90 -27q50 -12 87 -12q30 0 50.5 12.5t43.5 39.5q30 40 44 60l20 26l241 -180l-41 -62q-55 -81 -148 -127t-211 -46q-96 0 -246 48q-12 4 -40 13t-43 13q-48 12 -80 12q-46 0 -78 -35
q-13 -13 -29 -38zM406 173l-26 -43l-19 -29l-246 183l30 49q54 89 148.5 139t221.5 50q87 0 231 -46l90 -27q50 -12 87 -12q30 0 50.5 12.5t43.5 39.5q6 7 21 28t23 32l20 26l241 -180l-41 -62q-53 -81 -146.5 -127t-212.5 -46q-96 0 -246 48q-12 4 -40 13t-43 13
q-48 12 -80 12q-46 0 -78 -35q-13 -13 -29 -38z" />
    <glyph glyph-name="notequal" unicode="&#x2260;" horiz-adv-x="1380" vert-adv-y="2275" 
d="M690 239l-127 -239h-349l127 239h-270v271h414l56 103h-470v270h615l130 241h351l-130 -241h273v-270h-419l-55 -103h474v-271h-620z" />
    <glyph glyph-name="lessequal" unicode="&#x2264;" horiz-adv-x="1384" vert-adv-y="2275" 
d="M1269 193v-166h-1154v270h858l-861 340v195l1161 459v-299l-666 -256l666 -255v-289z" />
    <glyph glyph-name="greaterequal" unicode="&#x2265;" horiz-adv-x="1384" vert-adv-y="2275" 
d="M1270 297v-270h-1154v166l-4 -1v289l666 255l-666 256v299l1161 -459v-195l-862 -340h859z" />
    <glyph glyph-name="uniF8FF" unicode="&#xf8ff;" horiz-adv-x="1008" vert-adv-y="2275" 
d="M978 1142v-1016h-948v1016h948zM172 366h109v189h373v98h-373v266h373v97h-483v-646zM725 467h-371v-101h483v650h-112v-182h-371v-104h371v-263zM563 241q8 0 14 4q2 0 5 1h2q7 0 7 5v25q-5 0 -7 4l-3 3l-7 1h-8l-5 4l-4 1q-1 2 -2 3.5t-1 2.5q0 7 7 7h5q5 -3 6 -4
q4 -3 7 -3q1 0 3 -1l2 -1l7 15q0 1 -2 1.5t-5.5 1.5t-6.5 2q-12 4 -14 4q-4 0 -14 -4q-5 -3 -8 -3l-4 -6q-3 -3 -3 -11q0 -2 0.5 -4t0.5 -3q0 -2 2 -3l2.5 -2.5t1.5 -2.5l5 -2q1 0 2.5 -0.5t2.5 -0.5q4 0 8 -4h4l3 -2l5 -3l1 -3q0 -5 -2 -5q-4 -2 -7 -2q-2 0 -14 5
q-3 0 -14 7l-4 -15q6 -8 15 -8q1 0 3.5 -1t4.5 -1q3 -2 9 -2zM270 241q18 0 28 10q9 9 12 27q0 14 -9 20q0 4 -3 6q-1 1 -3 3.5t-4 2.5q-5 5 -21 5q-12 0 -19 -5q-7 -2 -15 -12q-5 -12 -5 -20q0 -11 5 -18q8 -14 13 -15q7 -4 21 -4zM731 241q13 0 17 4q7 2 14 9l-12 12
q-3 -5 -10 -5q-2 -3 -9 -3q-6 0 -9 3l-2 2q-1 0 -5 6q-2 0 -2 11q0 6 2 9q0 1 3 3.5t4 3.5q3 4 9 4q7 0 9 -4q7 -1 10 -7l10 13q0 1 -1 2t-2 2.5t-2 3.5l-7 1l-8 4h-9q-18 0 -24 -11q-12 -5 -12 -26q0 -12 3 -18q9 -13 15 -15q5 -4 18 -4zM228 313h-56v-70h21v26h31v14h-31
v17h35v13zM335 313h-16v-70h18v41l31 -41h19v70h-19v-42zM394 300h23v-57h17v57h21v13h-61v-13zM499 313h-20l-32 -70h20l6 11h29l5 -11h22zM596 300h20v-57h20v57h22v13h-62v-13zM683 313h-18v-70h18v70zM812 313h-20l-32 -70h20l6 11h33l2 -11h22zM270 256q-5 0 -14 7
q-5 8 -5 15q0 6 2 11l3 4l5 3q2 4 9 4q5 0 11 -4q4 -1 7 -7l2 -5v-11q0 -1 -1 -3l-1 -2q-6 -7 -7 -7q-7 -5 -11 -5zM489 295l8 -26h-20zM801 295l9 -26h-20zM59 50l-4 -20h-5l-4 1l-11 44q2 2 4 2h7l4 -30q2 0 2 3q0 5 3 10q1 3 2 5.5t1.5 4t0.5 2.5v5h9l6 -15l3 -15
q2 2 2 4l2 11l3 13q0 2 4 2l6 -2q-6 -9 -6 -18q0 -1 -4 -13l-2 -11v-3h-10v3l-2 5l-3 12l-3 14zM129 47l-4 -17h-8q0 1 -3 1v7l-7 31l-3 6q3 2 5 2h5v-7q3 -3 3 -8l4 -15l8 30h8l2 -2l5 -15l1 -13l9 28q0 2 4 2l5 -2v-5l-2 -8q-1 -2 -2 -5t-1 -4l-6 -23h-5l-3 1l-7 16v8
q0 1 -3 3q-4 -2 -4 -3q0 -5 -1 -8zM202 64l-8 -33l-5 -1l-3 1l-2 7q0 7 -5 17l-1 15l-2 7h8l3 -15l4 -15l3 4l4 26h11l4 -15q1 -15 7 -15v15l2 15h6l5 -2l-2 -5q0 -6 -2 -8q0 -2 -0.5 -5t-0.5 -4l-7 -22l-1 -1h-7l-6 17l-3 13zM284 50v-19h-7v44l1 2h28v-8h-22v-12h17v-7
h-17zM343 30q-14 0 -17 12q-3 9 -3 11q0 9 3 12q0 5 6 5l5 7h8q13 0 20 -15q3 -10 0 -15q-3 -8 -7 -12q-5 -5 -15 -5zM394 60v-30h-9v47h9l18 -30v30h6v-46l-1 -1h-5zM460 69v-39h-9v39h-13v8h36v-8h-14zM493 31l-6 -1h-3q0 1 -2 1l2 6l5 12l6 15q1 1 2.5 4.5t3.5 6.5
q0 2 1 2h5l19 -46q-2 0 -2 -1h-2l-7 1l-2 11h-18zM559 30q-3 0 -6 0.5t-4 0.5q-2 1 -4 4t-3 3l-1 4v5h8q7 -9 10 -9q2 0 5 2q2 2 2 4v3q-1 2 -9 4q-11 0 -11 4q-6 7 -4 12q5 8 11 10h8q9 0 10 -7q3 0 3 -6v-2h-8v2q0 6 -7 6h-2q-6 -4 -6 -6l10 -4q2 -1 6.5 -3.5t6.5 -3.5
q0 -1 1 -3t1 -3q0 -8 -4 -10q-1 -6 -6 -6q-2 -1 -7 -1zM614 69v-39h-8v39h-14v8h36v-8h-14zM654 77v-47h-7v47h7zM696 30q-12 0 -21 17q-2 0 -2 6l2 9q1 8 14 15h6q9 0 12 -7q3 0 3 -3l1 -3l-4 -2h-2l-3 2q-4 6 -7 6l-10 -5q-3 -4 -3 -8l1 -7q0 -3 2 -5q0 -7 8 -7q5 0 9 9h5
q4 0 4 -2l-1 -3q-5 -12 -14 -12zM737 31l-6 -1h-1l-2 1l2 6l3 12q4 8 5 15l7 11q0 2 3 2h7l17 -46q-2 0 -2 -1h-4l-4 1l-5 11h-17zM836 30q-4 0 -12 3q-1 2 -5 9q-7 11 0 25q3 3 5 3q1 1 2 2.5t2 2.5t1 2h8q6 0 8 -2q4 0 4 -5q5 0 5 -3v-3q-2 0 -5 -2h-4v2q-2 5 -8 5
q-8 0 -8 -5q-3 -3 -3 -11q0 -6 3 -11q0 -4 8 -4q6 0 8 9h9v-7l-4 -3q-4 -7 -14 -7zM894 30q-12 0 -16 7q-7 9 -7 16q0 1 5 14q9 9 11 10q4 0 11 -2.5t8 -2.5q8 -2 8 -17q0 -12 -5 -18q-3 -7 -15 -7zM942 31l-4 -1h-4v47h14l3 -15l2 -11v-4l7 13q2 9 2 15v2h16v-47h-10v35
l-6 -15v-12l-2 -7v-1h-7l-2 1l-3 16l-6 17v-33zM345 38q12 0 12 9v13q0 2 -2.5 4t-2.5 3q-6 3 -7 3l-10 -5q0 -3 -2 -3v-9q0 -1 4 -11q4 -4 8 -4zM894 38q4 0 5 2q5 2 5 13q0 12 -5 14l-1 1q-1 1 -2 1q0 1 -2 1q-9 0 -9 -6q0 -1 -1 -5t-1 -6q0 -6 2 -11q0 -4 9 -4zM504 64
l-3 -2l-2 -12h10q-2 1 -2 7l-1 5zM750 64l-3 -2l-3 -12h11l-3 7l-2 5v2zM255 40v-9h-9v9h9zM797 40v-9h-9v9h9z" />
    <glyph glyph-name="_FSHallmark" horiz-adv-x="1414" vert-adv-y="2275" 
d="M1354 1133v-152h-1291v152h1291zM1075 258q-62 0 -105 14q-79 21 -130 80t-51 139l150 -3q0 -6 9 -26q3 -19 22 -38.5t38 -25.5q26 -16 74 -16q54 0 84 18q27 16 27 42q0 46 -122 71q-100 28 -188 70q-78 38 -78 127q0 70 44.5 112t120.5 68q93 12 105 12q62 0 145 -30
q55 -20 88 -69.5t33 -108.5h-154q0 34 -41 63q-4 1 -16.5 7.5t-20.5 7.5q-5 0 -18 3.5t-19 3.5q-36 0 -72 -22q-30 -17 -30 -47q0 -50 29 -63q3 -1 16.5 -7t25 -9.5t23.5 -5.5l58 -16l47 -11q6 -1 22 -5.5t24 -4.5q29 -6 36 -11l32 -15q31 -20 50 -42q18 -39 19 -70
q2 -29 -16 -76q-62 -116 -261 -116zM232 466v-208h-169v643h543v-145h-374v-147h312v-143h-312zM669 261q-28 0 -51 25q-27 23 -27 51q0 29 24 53q21 21 54 21q38 0 62 -23q26 -23 26 -51q0 -30 -26 -56q-29 -20 -62 -20zM1352 179v-152h-1292v152h1292z" />
    <glyph glyph-name="_Fontastica" horiz-adv-x="1085" vert-adv-y="2275" 
d="M220 456v-269h-155l-5 6v934h700v-138h-540v-388h540v-145h-540zM1025 1127v-940h-700v146h540v382h-540v149h540v263h160zM212 33q-13 0 -29 7q-11 3 -19.5 17.5t-8.5 28.5q0 22 17.5 37t39.5 15q26 0 46 -28q8 -8 8 -24q0 -23 -15.5 -38t-38.5 -15zM623 33
q-27 0 -48 16l11 20q17 -15 37 -15q12 0 12 10l-1 2q-2 1 -2 3l-5 4q-2 0 -11 3q-3 1 -9.5 2t-9.5 3q-15 8 -15 27q0 30 41 30q22 0 41 -11l-11 -22q-13 12 -40 12l-1 -1l-2 -7q0 -1 1 -2t1 -2l4 -6q3 0 6.5 -1t4.5 -1q12 0 24.5 -10t12.5 -22q0 -15 -12.5 -23.5t-28.5 -8.5
zM859 33q-16 0 -27 7q-12 5 -20 18.5t-8 27.5q0 10 9 25.5t19 19.5q14 7 27 7q7 0 23 -4q9 -5 18 -14l-16 -18q-3 3 -11.5 8.5t-12.5 5.5q-14 0 -23 -14q-4 -5 -4 -16q0 -20 12 -25q8 -6 15 -6q4 0 13.5 5t10.5 8l16 -15q-12 -20 -41 -20zM101 72v-37h-26v101h75v-20h-49
v-24h47v-20h-47zM304 95v-60h-26v101h25l45 -61v61h26v-101h-24zM442 114v-79h-27v79h-30v22h85v-22h-28zM494 54l-6 -19h-27l42 101h28l42 -101h-28l-6 19h-45zM724 114v-79h-26v79h-30v22h87v-22h-31zM792 136v-101h-26v101h26zM935 54l-9 -19h-26l44 101h28l42 -101h-29
l-8 19h-42zM212 54q11 0 19.5 9.5t8.5 22.5q0 10 -9 20t-19 10q-6 0 -16 -6q-13 -7 -13 -24q0 -14 8 -23t21 -9zM531 73l-15 36l-14 -36h29zM969 73l-14 36l-12 -36h26z" />
    <glyph glyph-name="_www.fontastica.com" horiz-adv-x="1953" vert-adv-y="2275" 
d="M66 353v-60h-34l-2 1v209h158v-31h-122v-87h122v-32h-122zM247 503v-210h-158v32h122v86h-122v33h122v59h36zM1250 310q-46 0 -81 28l18 36q11 -10 30.5 -18.5t32.5 -8.5q4 0 16 4q7 3 7 11t-5 10q-9 6 -29 12q-28 8 -31 10q-11 5 -20 15q-7 10 -7 28q0 27 20.5 40.5
t48.5 13.5q39 0 70 -20l-17 -36q-34 18 -57 18q-18 0 -18 -12t33 -22q24 -5 31 -10q16 -9 20 -16q8 -11 8 -29q0 -27 -20.5 -40.5t-49.5 -13.5zM543 309q-39 0 -66.5 26t-27.5 65t27 64.5t67 25.5t67 -25.5t27 -64.5q0 -40 -26.5 -65.5t-67.5 -25.5zM1656 309
q-38 0 -64.5 26.5t-26.5 64.5q0 39 27 64.5t66 25.5q44 0 70 -30l-26 -32q-16 23 -43 23q-21 0 -34.5 -14.5t-13.5 -35.5q0 -16 6 -26q16 -25 42 -25q23 0 43 20l27 -28q-33 -33 -73 -33zM354 375v-62h-45v174h130v-36h-85v-39h78v-37h-78zM703 417v-104h-43v174h40l80 -105
l-1 105h43v-174h-40zM938 450v-137h-45v137h-52v37h150v-37h-53zM1031 343l-12 -30h-47l75 174h47l73 -174h-48l-12 30h-76zM1426 450v-137h-46v137h-52v37h150v-37h-52zM1542 487v-174h-45v174h45zM1787 343l-12 -30h-47l75 174h47l73 -174h-49l-11 30h-76zM544 348
q20 0 33.5 16t13.5 36q0 7 -7 26q-9 25 -40 25q-21 0 -34.5 -14.5t-13.5 -36.5q0 -21 13.5 -36.5t34.5 -15.5zM1093 378l-23 63l-25 -63h48zM1849 378l-24 63l-24 -63h48z" />
    </font>
</defs>
</svg>
