<?xml version="1.0" standalone="no"?>
<!DOCTYPE svg PUBLIC "-//W3C//DTD SVG 1.1//EN" "http://www.w3.org/Graphics/SVG/1.1/DTD/svg11.dtd" >
<svg xmlns="http://www.w3.org/2000/svg" xmlns:xlink="http://www.w3.org/1999/xlink" version="1.1">
<metadata>
Created by FontForge 20170731 at Tue May  4 18:41:40 2021
 By Aleksey,,,
Copyright (c) 2021 by Fontastica. All rights reserved.
</metadata>
<defs>
<font id="UnivaNova-Bold" horiz-adv-x="1208" vert-adv-y="2048" >
  <font-face 
    font-family="Univa Nova"
    font-weight="600"
    font-stretch="normal"
    units-per-em="2048"
    panose-1="0 0 7 0 0 0 0 0 0 0"
    ascent="1638"
    descent="-410"
    x-height="1128"
    cap-height="1500"
    bbox="-131 -557 2541 2126"
    underline-thickness="50"
    underline-position="-150"
    unicode-range="U+0020-F8FF"
  />
<missing-glyph horiz-adv-x="932" vert-adv-y="2275" 
d="M832 1167v-1158h-732v1158h732zM731 1097h-530l265 -438zM759 999l-248 -411l248 -413v824zM422 588l-248 408v-819zM731 80l-264 436l-264 -436h528z" />
    <glyph glyph-name="f_f.liga" unicode="ff" horiz-adv-x="1631" vert-adv-y="2275" 
d="M583 906v-906h-261v906h-212v222h212q-2 119 5 170q16 112 86 181q47 47 122.5 72t156.5 25q74 0 140 -33l12 -5l-3 -262l-104 64l-14 10l-7 4h-2q-2 1 -6.5 1.5t-11.5 0.5q-68 0 -90.5 -28.5t-22.5 -92.5v-107h416q-2 120 4 170q16 111 87 181q47 47 122.5 72t156.5 25
q40 0 74 -8q20 -5 63 -19l16 -5l-4 -268l-104 64l-15 10q-6 3 -7 4l-4 1q-2 0 -6.5 0.5t-8.5 0.5q-68 0 -90 -28.5t-22 -92.5v-107h254v-222h-254v-906h-262v906h-416z" />
    <glyph glyph-name="f_f_t.liga" unicode="fft" horiz-adv-x="2242" vert-adv-y="2275" 
d="M1921 -2q-79 0 -135 25t-84.5 68t-40.5 88t-12 97v630h-388v-906h-262v906h-416v-906h-261v906h-212v222h212q-2 119 5 170q16 112 86 181q47 47 122.5 72t156.5 25q74 0 140 -33l12 -5l-3 -262l-104 64l-14 10l-7 4h-2q-2 1 -6.5 1.5t-11.5 0.5q-68 0 -90.5 -28.5
t-22.5 -92.5v-107h416q-2 120 4 170q16 111 87 181q47 47 122.5 72t156.5 25q40 0 73 -9q13 -2 64 -18l16 -5l-4 -268l-104 64l-15 10q-6 3 -7 4l-4 1q-2 0 -6.5 0.5t-8.5 0.5q-68 0 -90 -28.5t-22 -92.5v-107h388v418h262v-418h219v-222h-219v-613q0 -22 1 -34q2 -19 6 -29
q5 -10 29 -10q28 0 158 5l26 1v-220l-23 -1q-145 -7 -187 -7z" />
    <glyph glyph-name="f_t.liga" unicode="ft" horiz-adv-x="1590" vert-adv-y="2275" 
d="M1269 -2q-63 0 -112 17.5t-78.5 44.5t-48 65t-25.5 74.5t-7 76.5v630h-415v-906h-261v906h-212v222h212q-2 119 5 170q16 112 86 181q47 47 122.5 72t156.5 25q75 0 140 -33l12 -5l-3 -266l-111 74q-18 10 -34 10q-68 0 -90.5 -28.5t-22.5 -92.5v-107h415v418h262v-418
h218v-222h-218v-640q0 -29 6.5 -37.5t29.5 -8.5q30 0 88 2q8 0 24.5 1t24.5 1h46v-218l-23 -1q-145 -7 -187 -7z" />
    <glyph glyph-name=".notdef" horiz-adv-x="932" vert-adv-y="2275" 
d="M832 1167v-1158h-732v1158h732zM731 1097h-530l265 -438zM759 999l-248 -411l248 -413v824zM422 588l-248 408v-819zM731 80l-264 436l-264 -436h528z" />
    <glyph glyph-name=".null" horiz-adv-x="0" vert-adv-y="2275" 
 />
    <glyph glyph-name="nonmarkingreturn" horiz-adv-x="682" 
 />
    <glyph glyph-name="space" unicode=" " horiz-adv-x="541" vert-adv-y="2275" 
 />
    <glyph glyph-name="exclam" unicode="!" horiz-adv-x="652" vert-adv-y="2275" 
d="M464 1500l-15 -1158h-247l-18 1158h280zM327 -56q-64 0 -109 45t-45 109t45 109t109 45t109 -45t45 -109t-45 -109t-109 -45z" />
    <glyph glyph-name="quotedbl" unicode="&#x22;" horiz-adv-x="959" vert-adv-y="2275" 
d="M450 1500v-688h-263v688h263zM772 1500v-688h-264v688h264z" />
    <glyph glyph-name="numbersign" unicode="#" horiz-adv-x="1436" vert-adv-y="2275" 
d="M582 421l-92 -421h-262l91 421h-221l45 223h227l44 205h-225l48 224h228l93 427h262l-94 -427h124l93 427h263l-94 -427h227l-48 -224h-229l-44 -205h230l-49 -223h-232l-93 -421h-261l92 421h-123zM799 849h-122l-44 -205h123z" />
    <glyph glyph-name="dollar" unicode="$" horiz-adv-x="1353" vert-adv-y="2275" 
d="M829 -15v-221h-252v215q-119 13 -210 56.5t-146.5 110t-87 142t-42.5 165.5l-4 37l-2 20h266l5 -31q6 -52 14 -80q44 -158 207 -191v470q-203 60 -310.5 163t-107.5 266q0 82 33 157q46 104 145.5 169.5t239.5 85.5v218h252v-218q153 -25 252 -108t143 -205
q8 -23 14.5 -51t9.5 -45.5t8.5 -53t7.5 -47.5l3 -21h-269l-2 17q-12 84 -19 108q-38 122 -148 167v-429q211 -61 320.5 -164t109.5 -271q0 -164 -112.5 -281.5t-317.5 -149.5zM577 925v365q-153 -36 -153 -179q0 -71 35.5 -112.5t117.5 -73.5zM829 603v-387q81 22 123 71.5
t42 119.5q0 78 -37.5 120t-127.5 76z" />
    <glyph glyph-name="percent" unicode="%" horiz-adv-x="2043" vert-adv-y="2275" 
d="M1499 -12q-96 0 -169 36.5t-113 89.5t-65 125.5t-32 131t-7 119.5q0 124 32 228l-413 -718h-285l347 602q-95 -93 -250 -93q-69 0 -127 19t-97 50t-69 74.5t-47 88t-28 96t-14.5 92.5t-3.5 82t3.5 82t14 92t28 95.5t47.5 88.5t69 75t96.5 50t127.5 19q80 0 144.5 -25
t104.5 -68t68.5 -93.5t42 -110.5t19 -108t5.5 -97q0 -130 -32 -231l416 720h282l-346 -602q95 93 251 93q69 0 126.5 -19t96.5 -50t69 -74.5t47 -88t28 -95.5t14.5 -92t3.5 -82t-3.5 -82t-14 -92.5t-28 -96t-47.5 -88t-69 -74.5t-96.5 -50t-126.5 -19zM544 730q71 0 103 107
q22 73 22 174q0 104 -20 174q-32 106 -105 106q-71 0 -105 -107q-22 -73 -22 -173q0 -101 22 -174q34 -107 105 -107zM1499 208q73 0 105 107q21 70 21 175q0 104 -21 174q-32 106 -105 106q-70 0 -104 -107q-21 -70 -21 -173q0 -104 21 -174q32 -108 104 -108z" />
    <glyph glyph-name="ampersand" unicode="&#x26;" horiz-adv-x="1616" vert-adv-y="2275" 
d="M644 -33q-246 0 -386.5 123t-140.5 311q0 122 69.5 223.5t198.5 175.5q-148 158 -148 322q0 74 29 144.5t82.5 129t140 94t192.5 35.5q68 0 134 -15q148 -34 231 -138t83 -225q0 -260 -316 -407l276 -246q34 89 34 194l-3 81l-2 18l272 17v-21q0 -13 0.5 -41t0.5 -42
q0 -207 -104 -384l325 -290l-357 -13l-127 115q-199 -161 -484 -161zM624 909q142 57 190 107q44 45 44 126q0 70 -45.5 114t-129.5 44q-41 0 -88 -19q-35 -14 -63 -54q-25 -35 -25 -95q0 -65 28.5 -115.5t88.5 -107.5zM641 192q170 0 302 102l-378 340q-179 -92 -179 -232
q0 -100 64 -155t191 -55z" />
    <glyph glyph-name="quotesingle" unicode="'" horiz-adv-x="638" vert-adv-y="2275" 
d="M450 1500v-688h-263v688h263z" />
    <glyph glyph-name="parenleft" unicode="(" horiz-adv-x="829" vert-adv-y="2275" 
d="M727 -292l17 -26h-283l-7 10q-136 196 -201.5 443t-65.5 495q0 412 162 752q29 63 87 157q14 23 19 29l7 9h284l-17 -27l-33 -50q-244 -382 -244 -870q0 -375 144 -687q47 -105 131 -235z" />
    <glyph glyph-name="parenright" unicode=")" horiz-adv-x="829" vert-adv-y="2275" 
d="M375 -308l-7 -10h-282l16 26q9 16 33 56.5t36.5 62t30 55t30.5 61.5q145 313 145 687q0 481 -245 870l-49 77h283l7 -10q11 -12 20 -29q62 -102 87 -156q81 -169 121.5 -364t40.5 -388q0 -248 -65.5 -495t-201.5 -443z" />
    <glyph glyph-name="asterisk" unicode="*" horiz-adv-x="986" vert-adv-y="2275" 
d="M627 765l-135 180l-134 -182l-202 147l140 182l-227 69l75 217l221 -71l-2 222h260l-2 -224l223 71l75 -217l-230 -69l142 -185z" />
    <glyph glyph-name="plus" unicode="+" horiz-adv-x="1335" vert-adv-y="2275" 
d="M799 438v-438h-261v438h-467v229h467v439h261v-439h466v-229h-466z" />
    <glyph glyph-name="comma" unicode="," horiz-adv-x="637" vert-adv-y="2275" 
d="M514 278l-194 -466h-251l145 466h300z" />
    <glyph glyph-name="hyphen" unicode="-" horiz-adv-x="955" vert-adv-y="2275" 
d="M864 665v-224h-773v224h773z" />
    <glyph glyph-name="period" unicode="." horiz-adv-x="581" vert-adv-y="2275" 
d="M290 -17q-77 0 -121 46t-44 102q0 57 43.5 103t121.5 46t122 -46t44 -103q0 -55 -45 -101.5t-121 -46.5z" />
    <glyph glyph-name="slash" unicode="/" horiz-adv-x="1009" vert-adv-y="2275" 
d="M963 1500l-635 -1500h-282l635 1500h282z" />
    <glyph glyph-name="zero" unicode="0" horiz-adv-x="1337" vert-adv-y="2275" 
d="M673 -22q-152 0 -273 99.5t-188.5 276.5t-67.5 398t67.5 397.5t188.5 276t273 99.5t273 -99.5t188.5 -276t67.5 -397.5t-67.5 -398t-188.5 -276.5t-273 -99.5zM673 217q127 7 209.5 157.5t82.5 377.5q0 226 -82 376.5t-210 157.5q-128 -7 -210 -157.5t-82 -376.5
t82.5 -377t209.5 -158z" />
    <glyph glyph-name="one" unicode="1" horiz-adv-x="1345" vert-adv-y="2275" 
d="M1188 228v-228h-955v228h344v1037h-344v235h612v-1272h343z" />
    <glyph glyph-name="two" unicode="2" horiz-adv-x="1339" vert-adv-y="2275" 
d="M1212 230v-230h-1096v180l595 516q195 169 195 337q0 55 -13 101.5t-41.5 86t-80.5 61.5t-122 22q-179 0 -232 -145q-9 -24 -14 -59q-2 -11 -4.5 -31t-3.5 -30l-2 -16h-273l3 20q3 15 8 47t8 48q10 56 27 96q54 136 177.5 215.5t305.5 79.5q136 0 240.5 -41.5t165.5 -112
t91 -155.5t30 -181q0 -268 -287 -513l-348 -296h671z" />
    <glyph glyph-name="three" unicode="3" horiz-adv-x="1338" vert-adv-y="2275" 
d="M669 -27q-130 0 -236 36t-175 99t-106.5 146.5t-37.5 178.5v69h269v-69q0 -109 73.5 -172t212.5 -63t212 62.5t73 172.5q0 108 -72.5 167t-212.5 59h-190v222h190q122 0 186 59t64 157q0 97 -63.5 152t-186.5 55t-185.5 -55t-62.5 -152v-71h-265v71q0 182 137.5 307
t375.5 125q120 0 218.5 -35t162.5 -94.5t99 -137.5t35 -165q0 -88 -36.5 -171t-109.5 -144q91 -65 139 -158t48 -191q0 -96 -37.5 -179.5t-106.5 -146t-175.5 -98.5t-236.5 -36z" />
    <glyph glyph-name="four" unicode="4" horiz-adv-x="1335" vert-adv-y="2275" 
d="M1054 353v-353h-265v353h-727v179l761 968h231v-918h202v-229h-202zM789 582v474l-374 -474h374z" />
    <glyph glyph-name="five" unicode="5" horiz-adv-x="1344" vert-adv-y="2275" 
d="M677 -27q-130 0 -234.5 40t-170 108t-103 151t-45.5 175q0 6 -1 18t-1 18l-1 19h261l2 -16q8 -49 19.5 -87.5t34 -77.5t53 -64.5t78 -42t108.5 -16.5q117 0 194 80q84 88 84 233q0 119 -70 200.5t-210 81.5q-64 0 -122 -26.5t-96 -69.5q-47 -53 -53 -93l-2 -16h-242
l76 912h928v-231h-675l-24 -291q103 41 222 41q130 0 236 -46t170 -120.5t98 -162.5t34 -179q0 -72 -20.5 -146t-65 -145t-107.5 -125.5t-155 -88t-200 -33.5z" />
    <glyph glyph-name="six" unicode="6" horiz-adv-x="1338" vert-adv-y="2275" 
d="M684 -30q-268 0 -426 186q-124 146 -124 371q0 416 378 802q88 90 167 153l9 7q8 5 12 7l6 3l394 20l-166 -132q-238 -190 -377 -387q76 17 152 17q106 0 197 -32t153.5 -85t107 -121.5t65.5 -141t21 -144.5q0 -95 -37.5 -186.5t-106.5 -167.5t-180 -122.5t-245 -46.5z
M686 195q142 0 218 85.5t76 204.5v25q0 58 -25.5 116t-71.5 98q-77 68 -189 68q-95 0 -163 -44t-98.5 -109t-30.5 -140v-24q0 -5 5 -37q23 -117 91 -176q78 -67 188 -67z" />
    <glyph glyph-name="seven" unicode="7" horiz-adv-x="1337" vert-adv-y="2275" 
d="M675 17l-2 -17h-277l3 21q27 189 61 332q117 512 408 916l-772 -1v232h1137v-173l-3 -5q-106 -129 -177 -233q-160 -235 -246.5 -483.5t-125.5 -543.5z" />
    <glyph glyph-name="eight" unicode="8" horiz-adv-x="1338" vert-adv-y="2275" 
d="M669 -27q-130 0 -236 36t-175 99t-106.5 146.5t-37.5 178.5q0 99 47 192t138 157q-143 122 -143 315q0 87 34.5 165t98 137.5t162 94.5t218.5 35t218.5 -35t162.5 -94.5t99 -137t35 -165.5t-36.5 -171t-109.5 -144q92 -65 139.5 -157.5t47.5 -191.5q0 -96 -37.5 -179.5
t-106.5 -146t-175.5 -98.5t-236.5 -36zM669 881q122 0 186 59t64 157q0 97 -63.5 152t-186.5 55t-185.5 -55t-62.5 -152q0 -99 62.5 -157.5t185.5 -58.5zM669 198q139 0 212 62.5t73 172.5q0 108 -72.5 167t-212.5 59q-139 0 -212.5 -59t-73.5 -167q0 -110 73 -172.5
t213 -62.5z" />
    <glyph glyph-name="nine" unicode="9" horiz-adv-x="1338" vert-adv-y="2275" 
d="M642 -13l-6 -3l-397 -19l42 34q23 19 126 97q229 177 374 386q-72 -18 -150 -18q-106 0 -197 32.5t-154 85.5t-107 122t-65 141.5t-21 144.5q0 94 37.5 186t106.5 168.5t180 123.5t245 47q73 0 142 -18q90 -22 161 -65t116.5 -96t75.5 -118.5t42.5 -129.5t12.5 -132
q0 -262 -146 -504t-399 -451l-9 -7zM645 690q140 0 216 87t76 205v27q0 12 -4 36q-16 103 -88 173t-192 70q-142 0 -218 -85.5t-76 -204.5v-26q0 -6 5 -36q22 -117 91 -177q82 -69 190 -69z" />
    <glyph glyph-name="colon" unicode=":" horiz-adv-x="581" vert-adv-y="2275" 
d="M290 826q-78 0 -121.5 45t-43.5 101q0 57 43 103t122 46q78 0 122 -46t44 -103q0 -56 -45 -101t-121 -45zM290 -17q-77 0 -121 46t-44 102q0 57 43.5 103t121.5 46t122 -46t44 -103q0 -55 -45 -101.5t-121 -46.5z" />
    <glyph glyph-name="semicolon" unicode=";" horiz-adv-x="637" vert-adv-y="2275" 
d="M313 826q-78 0 -121.5 45t-43.5 101q0 57 43 103t122 46q77 0 121 -46t44 -103q0 -55 -44.5 -100.5t-120.5 -45.5zM514 278l-194 -466h-251l145 466h300z" />
    <glyph glyph-name="less" unicode="&#x3c;" horiz-adv-x="1338" vert-adv-y="2275" 
d="M514 553l713 -277v-254l-1115 445v172l1115 444v-253z" />
    <glyph glyph-name="equal" unicode="=" horiz-adv-x="1335" vert-adv-y="2275" 
d="M1265 859v-230h-1194v230h1194zM1265 476v-231h-1194v231h1194z" />
    <glyph glyph-name="greater" unicode="&#x3e;" horiz-adv-x="1338" vert-adv-y="2275" 
d="M1227 639v-172l-1115 -445v254l712 277l-712 277v253z" />
    <glyph glyph-name="question" unicode="?" horiz-adv-x="1213" vert-adv-y="2275" 
d="M710 443v-150h-264v150q0 45 12.5 87.5t28.5 73t46.5 67.5t51.5 57t58 55q56 51 70 66q36 36 60 68q56 77 56 163q0 99 -56.5 161.5t-173.5 62.5q-62 0 -109 -21t-75 -57t-41.5 -79.5t-13.5 -91.5q0 -24 4.5 -67.5t5.5 -60.5l1 -19h-271l-1 18q-1 14 -4.5 60.5t-3.5 72.5
q0 68 20 134.5t61.5 127.5t100.5 107t143 73.5t183 27.5q121 0 218.5 -37.5t158 -100t92.5 -141.5t32 -165q0 -115 -51 -209.5t-154 -187.5q-96 -85 -108 -96q-59 -57 -72 -104q-5 -19 -5 -45zM575 -56q-64 0 -109 45t-45 109t45 109t109 45t109 -45t45 -109t-45 -109
t-109 -45z" />
    <glyph glyph-name="at" unicode="@" horiz-adv-x="1829" vert-adv-y="2275" 
d="M925 -233q-168 0 -306 45t-230 120t-155.5 176t-91.5 210t-28 225q0 114 31.5 226.5t99.5 216.5t164.5 183t236.5 126.5t305 47.5q183 0 331 -56t241 -150.5t142.5 -214t49.5 -251.5q0 -64 -13 -130t-41 -133.5t-78.5 -126.5t-118.5 -97h208l-24 -29q-11 -13 -31 -39.5
t-29 -38.5q-36 -48 -78 -89q-110 -104 -261.5 -162.5t-323.5 -58.5zM925 -15q141 0 253 51q82 36 145 96q-31 -6 -65 -6q-113 0 -183 70q-101 -70 -229 -70q-168 0 -269 109q-95 102 -95 268q0 88 25 170q17 57 49.5 109.5t81.5 98.5t120 73t154 27q128 0 219 -66h223
l-96 -465q-4 -23 -4 -50q0 -23 6 -37q4 -13 12 -13q33 0 78 25q53 32 79.5 119.5t26.5 167.5q0 96 -30.5 177.5t-90.5 144.5t-158.5 99t-225.5 36q-116 0 -213 -33.5t-163 -89.5t-112 -131t-67 -156t-21 -166q0 -87 18 -165.5t59.5 -151t103.5 -125.5t156.5 -84.5
t212.5 -31.5zM865 345q25 0 56 21q47 30 73 101.5t26 135.5q0 67 -19 106q-24 52 -83 52q-91 0 -136 -90q-36 -71 -36 -166q0 -75 20 -111q27 -49 99 -49z" />
    <glyph glyph-name="A" unicode="A" horiz-adv-x="1770" vert-adv-y="2275" 
d="M563 385l-167 -385h-286l664 1500h225l661 -1500h-289l-167 385h-641zM1103 615l-220 503l-219 -503h439z" />
    <glyph glyph-name="B" unicode="B" horiz-adv-x="1434" vert-adv-y="2275" 
d="M749 0h-639v1500h631q270 0 409 -116q138 -116 138 -312q0 -87 -36.5 -166.5t-111.5 -137.5q91 -57 137.5 -145.5t46.5 -183.5q0 -208 -151.5 -323.5t-423.5 -115.5zM749 1269h-375v-394h375q145 0 209.5 44.5t64.5 152.5q0 105 -66.5 151t-207.5 46zM762 645h-388v-415
h386q148 0 223.5 50t75.5 159q0 206 -297 206z" />
    <glyph glyph-name="C" unicode="C" horiz-adv-x="1763" vert-adv-y="2275" 
d="M890 -27q-139 0 -265 39q-92 28 -169 75.5t-132.5 106.5t-97.5 127t-67 141.5t-37 145t-12 142.5q0 92 20.5 184.5t62.5 184t115 172t170 133.5q191 105 412 105q133 0 250 -34.5t203.5 -93.5t152 -138t103.5 -168t51 -183l3 -21h-265l-5 14q-1 3 -12 41q-16 64 -43 112
q-60 112 -174 179t-264 67q-104 0 -201 -39q-83 -35 -145 -93t-97 -128.5t-51.5 -144t-16.5 -149.5q0 -75 17 -148.5t51.5 -144.5t96.5 -129.5t144 -91.5q92 -38 202 -38q151 0 264.5 66t174.5 179q26 49 42 110q2 8 4.5 22.5t3.5 18.5l4 15h270l-3 -20q-13 -95 -51 -183.5
t-103.5 -167.5t-152 -137.5t-203.5 -93t-250 -34.5z" />
    <glyph glyph-name="D" unicode="D" horiz-adv-x="1592" vert-adv-y="2275" 
d="M617 0h-507v1500h507q172 0 314.5 -39t243.5 -108t171 -163.5t103 -205t33 -234.5q0 -123 -33.5 -234t-103 -205.5t-170.5 -163.5t-244 -108t-314 -39zM609 1269h-235v-1039h235q308 0 456.5 138t148.5 382q0 243 -148.5 381t-456.5 138z" />
    <glyph glyph-name="E" unicode="E" horiz-adv-x="1315" vert-adv-y="2275" 
d="M1205 230v-230h-1095v1500h1095v-231h-831v-394h699v-230h-699v-415h831z" />
    <glyph glyph-name="F" unicode="F" horiz-adv-x="1315" vert-adv-y="2275" 
d="M374 645v-645h-264v1500h1095v-231h-831v-394h699v-230h-699z" />
    <glyph glyph-name="G" unicode="G" horiz-adv-x="1764" vert-adv-y="2275" 
d="M1374 627h-566v230h827v-857h-257v139q-194 -166 -488 -166q-139 0 -265 39q-92 28 -169 75.5t-132.5 106.5t-97.5 126.5t-67 141t-37 145.5t-12 143q0 92 20.5 184.5t62 184.5t115 172t170.5 133q184 101 393 105h10h9q130 -3 243.5 -38.5t198 -94.5t148.5 -137.5
t101.5 -166t49.5 -180.5l3 -21h-265l-5 14q-1 3 -12 41q-16 64 -43 112q-59 111 -170 177.5t-258 68.5q-97 -1 -193 -39q-82 -33 -144 -91.5t-97 -130t-51.5 -145t-16.5 -148.5t17 -148.5t51.5 -144.5t96.5 -129.5t144 -91.5q94 -38 202 -38q100 0 188 33q89 33 154.5 98.5
t98.5 140t43 157.5z" />
    <glyph glyph-name="H" unicode="H" horiz-adv-x="1489" vert-adv-y="2275" 
d="M374 645v-645h-264v1500h264v-625h740v625h264v-1500h-264v645h-740z" />
    <glyph glyph-name="I" unicode="I" horiz-adv-x="805" vert-adv-y="2275" 
d="M695 224v-224h-585v224h158v1052h-158v224h585v-224h-159v-1052h159z" />
    <glyph glyph-name="J" unicode="J" horiz-adv-x="1490" vert-adv-y="2275" 
d="M746 -27q-139 0 -250.5 39t-182 102t-117.5 149t-66.5 173.5t-19.5 181.5q0 17 2 53l1 18l263 -5v-68q0 -61 11 -118t38 -112.5t68 -96.5t106 -66t147 -25q101 0 176 37.5t115 100.5t58.5 132.5t18.5 147.5v884h266v-866q0 -96 -18 -184.5t-63.5 -177t-115 -153.5
t-182 -105.5t-255.5 -40.5z" />
    <glyph glyph-name="K" unicode="K" horiz-adv-x="1588" vert-adv-y="2275" 
d="M374 540v-540h-264v1500h264v-626l728 626h377l-760 -661l701 -839h-330l-560 675z" />
    <glyph glyph-name="L" unicode="L" horiz-adv-x="1315" vert-adv-y="2275" 
d="M1205 230v-230h-1095v1500h264v-1270h831z" />
    <glyph glyph-name="M" unicode="M" horiz-adv-x="1653" vert-adv-y="2275" 
d="M374 1036v-1036h-264v1500h215l501 -616l502 616h215v-1500h-266v1036l-403 -491h-97z" />
    <glyph glyph-name="N" unicode="N" horiz-adv-x="1489" vert-adv-y="2275" 
d="M374 1038v-1038h-264v1500h238l766 -1038v1038h264v-1500h-238z" />
    <glyph glyph-name="O" unicode="O" horiz-adv-x="1825" vert-adv-y="2275" 
d="M912 -27q-159 0 -294 47t-227 124.5t-156.5 179t-94.5 209.5t-30 217t30 217.5t94.5 210.5t156.5 179.5t227 124.5t294 47q160 0 295 -47t227 -124.5t156.5 -179t94 -210t29.5 -218.5q0 -91 -21.5 -181.5t-63.5 -178t-109.5 -162.5t-154 -132.5t-203 -90t-250.5 -32.5z
M912 198q108 0 198 33t150.5 87.5t103 127t61.5 149t19 155.5q0 76 -18 150.5t-55 145t-101.5 128.5t-148.5 90q-100 40 -209 40q-104 0 -206 -40q-85 -33 -150 -90.5t-102.5 -128t-56 -144.5t-18.5 -151q0 -76 18.5 -150.5t56 -144.5t102.5 -127.5t150 -91.5
q95 -38 206 -38z" />
    <glyph glyph-name="P" unicode="P" horiz-adv-x="1398" vert-adv-y="2275" 
d="M374 645v-645h-264v1500h631q262 0 404.5 -113.5t142.5 -314.5q0 -197 -138 -311q-142 -116 -409 -116h-367zM749 1269h-375v-394h375q141 0 207.5 46.5t66.5 151.5t-66.5 150.5t-207.5 45.5z" />
    <glyph glyph-name="Q" unicode="Q" horiz-adv-x="1825" vert-adv-y="2275" 
d="M1446 155l238 -188l-178 -172l-288 229q-137 -51 -306 -51q-115 0 -217.5 24.5t-182.5 67.5t-146.5 102t-113.5 128t-79 145.5t-47.5 154.5t-15.5 155q0 109 30 217.5t94.5 210.5t156.5 179.5t227 124.5t294 47q160 0 295 -47t227 -124.5t156.5 -179t94 -210t29.5 -218.5
q0 -167 -66 -324t-202 -271zM912 198q108 0 198 33t150.5 87.5t103 127t61.5 149t19 155.5q0 76 -18 150.5t-55 145t-101.5 128.5t-148.5 90q-100 40 -209 40q-104 0 -206 -40q-85 -33 -150 -90.5t-102.5 -128t-56 -144.5t-18.5 -151q0 -76 18.5 -150.5t56 -144.5
t102.5 -127.5t150 -91.5q95 -38 206 -38z" />
    <glyph glyph-name="R" unicode="R" horiz-adv-x="1442" vert-adv-y="2275" 
d="M374 645v-645h-264v1500h631q263 0 405 -113.5t142 -314.5q0 -149 -86.5 -258.5t-265.5 -148.5l396 -665h-308l-373 645h-277zM749 1269h-375v-394h375q141 0 207.5 46.5t66.5 151.5t-66.5 150.5t-207.5 45.5z" />
    <glyph glyph-name="S" unicode="S" horiz-adv-x="1446" vert-adv-y="2275" 
d="M723 -25q-208 0 -358.5 87t-211.5 239q-27 65 -41 192l-2 20h274l6 -47q16 -122 99 -190q86 -71 234 -71q124 0 201 36q129 60 129 176q0 78 -50 122q-33 29 -142 61q-54 15 -230 49q-100 19 -174 41t-140.5 56.5t-108.5 78.5t-66 107.5t-24 144.5q0 128 81.5 231
t219.5 159t304 56q209 0 359 -88t212 -241q29 -73 40 -192l2 -20h-274l-2 17q-7 72 -25 116q-34 84 -115.5 131t-196.5 47q-120 0 -200 -38q-130 -62 -130 -176q0 -77 51 -122q33 -30 140 -60q63 -18 229 -50q101 -19 174 -40.5t141 -55.5t109.5 -78t66 -108t24.5 -146
q0 -128 -81.5 -230.5t-219.5 -158t-304 -55.5z" />
    <glyph glyph-name="T" unicode="T" horiz-adv-x="1436" vert-adv-y="2275" 
d="M849 1269v-1269h-265v1269h-474v231h1216v-231h-477z" />
    <glyph glyph-name="U" unicode="U" horiz-adv-x="1490" vert-adv-y="2275" 
d="M744 -27q-143 0 -255.5 40.5t-182 105t-115 153t-63.5 177.5t-18 185v866h265v-884q0 -61 11 -117.5t38 -112t68 -96.5t106 -66.5t146 -25.5q82 0 147 25t106 66t68 96.5t38 112.5t11 118v884h265v-866q0 -96 -18 -185t-63.5 -177.5t-115.5 -153t-182.5 -105
t-255.5 -40.5z" />
    <glyph glyph-name="V" unicode="V" horiz-adv-x="1727" vert-adv-y="2275" 
d="M1617 1500l-639 -1500h-228l-640 1500h288l468 -1109l467 1109h284z" />
    <glyph glyph-name="W" unicode="W" horiz-adv-x="2413" vert-adv-y="2275" 
d="M2303 1500l-511 -1502h-238l-347 1058l-350 -1056h-240l-507 1500h284l344 -1055l348 1055h244l346 -1057l347 1057h280z" />
    <glyph glyph-name="X" unicode="X" horiz-adv-x="1800" vert-adv-y="2275" 
d="M901 564l-457 -564h-330l623 760l-627 740h333l458 -547l460 547h329l-627 -740l624 -760h-327z" />
    <glyph glyph-name="Y" unicode="Y" horiz-adv-x="1800" vert-adv-y="2275" 
d="M1031 721v-721h-264v726l-657 774h334l457 -547l460 547h329z" />
    <glyph glyph-name="Z" unicode="Z" horiz-adv-x="1478" vert-adv-y="2275" 
d="M1368 230v-230h-1258v169l884 1100h-875v231h1241v-170l-882 -1100h890z" />
    <glyph glyph-name="bracketleft" unicode="[" horiz-adv-x="752" vert-adv-y="2275" 
d="M706 -93v-225h-546v1895h546v-223h-285v-1447h285z" />
    <glyph glyph-name="backslash" unicode="\" horiz-adv-x="1009" vert-adv-y="2275" 
d="M328 1500l635 -1500h-282l-635 1500h282z" />
    <glyph glyph-name="bracketright" unicode="]" horiz-adv-x="752" vert-adv-y="2275" 
d="M591 1577v-1895h-545v225h285v1447h-285v223h545z" />
    <glyph glyph-name="asciicircum" unicode="^" horiz-adv-x="1412" vert-adv-y="2275" 
d="M706 1104l-275 -652h-281l453 1048h206l454 -1048h-281z" />
    <glyph glyph-name="underscore" unicode="_" horiz-adv-x="1166" vert-adv-y="2275" 
d="M1166 -52v-224h-1166v224h1166z" />
    <glyph glyph-name="grave" unicode="`" horiz-adv-x="950" vert-adv-y="2275" 
d="M526 1668l192 -466h-263l-220 466h291z" />
    <glyph glyph-name="a" unicode="a" horiz-adv-x="1243" vert-adv-y="2275" 
d="M567 -24q-216 0 -336.5 97.5t-120.5 263.5q0 57 16.5 109.5t50.5 98.5t91 81t132 52q49 11 107 16q35 3 105 7l259 16q-5 95 -58.5 143t-174.5 48q-125 0 -178 -49.5t-55 -151.5h-261q2 187 126.5 304t367.5 117q126 0 223 -34t155.5 -94t87.5 -136.5t29 -167.5v-696
h-262v44q-130 -68 -304 -68zM567 198q143 0 223.5 68.5t80.5 181.5v51l-144 -9q-103 -6 -151 -11q-97 -10 -124 -21q-79 -33 -79 -121q0 -72 48 -105.5t146 -33.5z" />
    <glyph glyph-name="b" unicode="b" horiz-adv-x="1371" vert-adv-y="2275" 
d="M685 -24q-172 0 -314 88v-64h-261v1500h261v-459q141 87 314 87q114 0 211.5 -36t163 -95t112 -134.5t68 -154t21.5 -155.5t-21 -155.5t-67.5 -154.5t-112.5 -135t-163 -95.5t-212 -36.5zM685 200q80 0 153 42q81 45 120.5 131.5t39.5 179.5q0 92 -40 179.5t-120 132.5
q-75 41 -153 41q-80 0 -154 -42q-80 -44 -120 -132t-40 -179q0 -93 39.5 -179t121.5 -132q73 -42 153 -42z" />
    <glyph glyph-name="c" unicode="c" horiz-adv-x="1377" vert-adv-y="2275" 
d="M687 -23q-115 0 -212 36t-163 95t-112.5 135t-68 154.5t-21.5 155.5t21.5 155.5t68 154t112.5 134.5t163 95t212 36q175 0 303 -80.5t199 -209.5q36 -67 72 -203l5 -22h-270l-3 16q-34 168 -153 236q-74 41 -153 41q-80 0 -154 -42q-80 -44 -120 -132t-40 -179t40 -179
t120 -132q75 -41 154 -41q80 0 153 41q114 63 153 235l4 15h269l-15 -61q-18 -68 -47 -130.5t-77 -122.5t-108.5 -103.5t-146 -70.5t-185.5 -27z" />
    <glyph glyph-name="d" unicode="d" horiz-adv-x="1371" vert-adv-y="2275" 
d="M687 -24q-115 0 -212 36.5t-163 95.5t-112.5 135t-68 154.5t-21.5 155.5t21.5 155.5t68 154t112.5 134.5t163 95t212 36q172 0 313 -87v459h261v-1500h-261v64q-141 -88 -313 -88zM687 200q80 0 153 42q81 45 120.5 131.5t39.5 179.5q0 92 -40 179.5t-120 132.5
q-75 41 -153 41q-80 0 -154 -42q-80 -44 -120 -132t-40 -179q0 -93 39.5 -179t121.5 -132q73 -42 153 -42z" />
    <glyph glyph-name="e" unicode="e" horiz-adv-x="1402" vert-adv-y="2275" 
d="M701 -24q-116 0 -215 35.5t-167 94t-116 134t-70.5 155t-22.5 158.5t22.5 158.5t70.5 155t116 133.5t167 93t215 35t215 -35.5t167 -93.5t116 -133t70.5 -154.5t22.5 -158.5q0 -18 -7 -79l-3 -17h-898q26 -109 107.5 -183t209.5 -74q178 0 272 149q9 13 21 41
q4 8 10 22.5t9 21.5l3 6l245 -75q-16 -58 -66 -134q-76 -115 -204 -185t-290 -70zM394 682h614q-31 97 -110 160.5t-197 63.5t-196 -63t-111 -161z" />
    <glyph glyph-name="f" unicode="f" horiz-adv-x="954" vert-adv-y="2275" 
d="M583 906v-906h-261v906h-212v222h212q-2 119 5 170q16 112 86 181q47 47 122.5 72t156.5 25q74 0 140 -33l12 -5l-3 -262l-104 64l-14 10l-7 4h-2q-2 1 -6.5 1.5t-11.5 0.5q-68 0 -90.5 -28.5t-22.5 -92.5v-107h254v-222h-254z" />
    <glyph glyph-name="g" unicode="g" horiz-adv-x="1371" vert-adv-y="2275" 
d="M711 -419q-137 0 -249 44q-124 49 -193.5 130.5t-103.5 194.5l-12 42h276q6 -53 55 -104q81 -85 231 -85q134 0 205.5 74.5t79.5 186.5q-138 -88 -313 -88q-115 0 -212 36.5t-163 95.5t-112.5 135t-68 154.5t-21.5 155.5t21.5 155.5t68 154t112.5 134.5t163 95t212 36
q176 0 314 -87v65h260v-985q0 -79 -18 -154t-59.5 -146t-103.5 -123.5t-157 -84.5t-212 -32zM687 200q80 0 153 42q81 45 120.5 131.5t39.5 179.5q0 92 -40 179.5t-120 132.5q-75 41 -153 41q-80 0 -154 -42q-80 -44 -120 -132t-40 -179q0 -93 39.5 -179t121.5 -132
q73 -42 153 -42z" />
    <glyph glyph-name="h" unicode="h" vert-adv-y="2275" 
d="M371 699v-699h-261v1500h261v-408q105 36 233 36q121 0 212 -29t161 -99q122 -121 122 -308v-692h-262v666q0 56 -10 97t-34.5 75.5t-71.5 52t-117 17.5q-124 0 -176 -55q-26 -27 -41.5 -71t-15.5 -83z" />
    <glyph glyph-name="i" unicode="i" horiz-adv-x="544" vert-adv-y="2275" 
d="M271 1213q-74 0 -117.5 44.5t-43.5 97.5q0 56 42.5 100.5t118.5 44.5t119.5 -44.5t43.5 -100.5q0 -54 -44.5 -98t-118.5 -44zM402 1128v-1128h-261v1128h261z" />
    <glyph glyph-name="j" unicode="j" horiz-adv-x="675" vert-adv-y="2275" 
d="M404 1213q-75 0 -118 44t-43 98q0 56 42 100.5t119 44.5q75 0 117.5 -45t42.5 -100q0 -53 -43.5 -97.5t-116.5 -44.5zM136 -419l-26 -1v229l26 -1q105 -6 106 -6q20 0 26 18q3 12 3 26l-1 29v1253h264v-1269q0 -41 -7 -77.5t-25.5 -74.5t-48 -65t-79 -44.5t-112.5 -17.5
q-14 0 -43 1.5t-44 1.5q-7 0 -20 -1t-19 -1z" />
    <glyph glyph-name="k" unicode="k" horiz-adv-x="1399" vert-adv-y="2275" 
d="M374 335v-336h-264v1501h264v-832l537 461h378l-570 -494l530 -636h-328l-391 471z" />
    <glyph glyph-name="l" unicode="l" horiz-adv-x="643" vert-adv-y="2275" 
d="M381 -2q-63 0 -112 17.5t-78.5 44.5t-48 65t-25.5 74.5t-7 76.5v1224h261v-1207q0 -24 1 -35l3 -19q1 -6 5 -12q5 -7 22 -7q16 0 52.5 2.5t55.5 1.5h24v-220l-23 -1q-107 -5 -130 -5z" />
    <glyph glyph-name="m" unicode="m" horiz-adv-x="1807" vert-adv-y="2275" 
d="M372 666v-666h-262v1128h261v-37q88 33 204 33q204 0 329 -114q126 114 332 114q117 0 208.5 -37.5t145 -100.5t80.5 -137.5t27 -156.5v-692h-263v666q0 240 -202 240q-57 0 -97.5 -20.5t-61.5 -57t-29.5 -76t-8.5 -86.5v-666h-261v666q0 240 -204 240q-57 0 -97.5 -20.5
t-61.5 -57t-30 -76t-9 -86.5z" />
    <glyph glyph-name="n" unicode="n" vert-adv-y="2275" 
d="M371 699v-699h-261v1128h261v-36q105 36 233 36q121 0 212 -29t161 -99q122 -121 122 -308v-692h-262v666q0 56 -10 97t-34.5 75.5t-71.5 52t-117 17.5q-124 0 -176 -55q-26 -27 -41.5 -71t-15.5 -83z" />
    <glyph glyph-name="o" unicode="o" horiz-adv-x="1373" vert-adv-y="2275" 
d="M687 -24q-115 0 -212.5 36.5t-163 95.5t-112.5 135t-68 154.5t-21 155.5t21.5 155.5t68 154t112.5 134.5t163 95t212 36q114 0 211.5 -36t163 -95t112 -134.5t68 -154t21.5 -155.5t-21 -155.5t-67.5 -154.5t-112.5 -135t-163 -95.5t-212 -36.5zM687 200q80 0 153 42
q81 45 120.5 131.5t39.5 179.5q0 92 -40 179.5t-120 132.5q-75 41 -153 41q-80 0 -154 -42q-80 -44 -120 -132t-40 -179q0 -93 39.5 -179t121.5 -132q73 -42 153 -42z" />
    <glyph glyph-name="p" unicode="p" horiz-adv-x="1371" vert-adv-y="2275" 
d="M371 65v-482h-261v1545h261v-86q141 87 314 87q115 0 212 -36t163 -95t112.5 -135t67.5 -154.5t21 -155.5t-21.5 -155.5t-68 -154.5t-112 -135t-163 -95t-211.5 -36q-172 0 -314 88zM685 201q82 0 153 41q80 45 120 132t40 179q0 93 -39.5 179.5t-120.5 131.5
q-76 43 -153 43q-78 0 -154 -43q-81 -45 -120.5 -131.5t-39.5 -179.5t39.5 -179t121.5 -132q71 -41 153 -41z" />
    <glyph glyph-name="q" unicode="q" horiz-adv-x="1371" vert-adv-y="2275" 
d="M1261 1128v-1545h-261v482q-141 -88 -313 -88q-115 0 -212 36t-163 95t-112.5 135t-68 154.5t-21.5 155.5t21.5 155.5t68 154.5t112.5 135t163 95t212 36q172 0 313 -87v86h261zM687 201q80 0 153 41q80 45 120 132t40 179q0 93 -39.5 179.5t-120.5 131.5q-76 43 -153 43
q-78 0 -154 -43q-81 -45 -120.5 -131.5t-39.5 -179.5t39.5 -179t121.5 -132q71 -41 153 -41z" />
    <glyph glyph-name="r" unicode="r" horiz-adv-x="798" vert-adv-y="2275" 
d="M371 699v-699h-261v1128h261v-36q103 36 293 36h24v-220h-24q-48 0 -71 -1q-29 0 -64 -5q-63 -11 -101 -49q-26 -26 -41.5 -71t-15.5 -83z" />
    <glyph glyph-name="s" unicode="s" horiz-adv-x="1128" vert-adv-y="2275" 
d="M566 -14q-160 0 -274.5 73.5t-156.5 192.5q-13 38 -18 78q-4 37 -6 77l-1 19h258l2 -17l6 -47q22 -152 190 -152q81 0 133.5 30.5t52.5 86.5q0 31 -12 49t-44 33q-36 17 -93 29q-18 4 -53 10t-52 9q-96 19 -161 42t-118.5 60.5t-79 93.5t-25.5 133q0 141 127 241
q127 101 322 101q161 0 275 -72.5t156 -191.5q11 -31 18 -78q0 -2 6 -77l1 -19h-267l1 19q1 7 1 22q0 77 -49 125t-142 48q-58 0 -105 -16t-66 -49q-16 -27 -16 -51q0 -31 12 -49t44 -33q34 -16 93 -28q17 -3 52.5 -8.5t52.5 -9.5q93 -16 161 -41t120 -63.5t78 -95
t26 -131.5q0 -141 -127 -242q-126 -101 -322 -101z" />
    <glyph glyph-name="t" unicode="t" horiz-adv-x="914" vert-adv-y="2275" 
d="M594 -2q-64 0 -113 17.5t-78 44.5t-48 65t-25.5 74.5t-6.5 76.5v630h-213v222h213v418h261v-418h220v-222h-220v-613q0 -26 1 -38q2 -23 8 -29t28 -6q32 0 94 2q8 0 22 1t21 1h47v-218l-23 -1q-147 -7 -188 -7z" />
    <glyph glyph-name="u" unicode="u" vert-adv-y="2275" 
d="M604 0q-245 0 -373 128q-121 120 -121 309v691h261v-666q0 -56 10 -97t35 -75t72 -52t116 -18q122 0 177 56q24 26 39.5 71.5t15.5 82.5v698h263v-1128h-263v37q-102 -37 -232 -37z" />
    <glyph glyph-name="v" unicode="v" horiz-adv-x="1443" vert-adv-y="2275" 
d="M1333 1130l-499 -1130h-224l-500 1130h284l327 -749l326 749h286z" />
    <glyph glyph-name="w" unicode="w" horiz-adv-x="1987" vert-adv-y="2275" 
d="M994 681l-249 -686h-221l-414 1140h273l251 -699l249 699h220l251 -699l250 699h273l-415 -1140h-218z" />
    <glyph glyph-name="x" unicode="x" horiz-adv-x="1511" vert-adv-y="2275" 
d="M757 364l-295 -364h-332l463 560l-483 570h332l315 -376l316 376h329l-482 -570l459 -560h-325z" />
    <glyph glyph-name="y" unicode="y" horiz-adv-x="1444" vert-adv-y="2275" 
d="M1333 1130l-683 -1549h-278l211 488l-473 1061h285l326 -749l326 749h286z" />
    <glyph glyph-name="z" unicode="z" horiz-adv-x="1202" vert-adv-y="2275" 
d="M1093 222v-222h-981v164l601 742h-603v222h980v-160l-602 -746h605z" />
    <glyph glyph-name="braceleft" unicode="{" horiz-adv-x="771" vert-adv-y="2275" 
d="M540 -318q-66 0 -118.5 18.5t-86.5 48t-57 69t-32.5 80.5t-9.5 83v524q-1 7 -3 9l-3 2q-8 2 -21 2q-17 0 -51 -0.5t-51 -0.5h-24v224h126q14 0 22 2l2 2q2 2 3 9v22v501q0 55 16 105.5t49.5 95.5t95 72t143.5 27q99 0 171 -24l14 -5v-231l-33 9q-89 28 -146 28
q-30 0 -39 -16q-8 -14 -8 -50v-498q0 -100 -44 -161q44 -61 44 -161v-497q0 -36 8 -49q9 -15 39 -15q29 0 73 7q5 1 76 15l30 6v-223l-14 -4q-82 -26 -171 -26z" />
    <glyph glyph-name="bar" unicode="|" horiz-adv-x="718" vert-adv-y="2275" 
d="M490 1577v-1577h-261v1577h261z" />
    <glyph glyph-name="braceright" unicode="}" horiz-adv-x="771" vert-adv-y="2275" 
d="M232 -318q-90 0 -171 26l-15 4v223l30 -6q7 -1 34 -7t42 -8q44 -7 73 -7q30 0 40 14q9 14 9 50v497q0 102 43 162q-43 59 -43 160v498q0 35 -9 50q-9 16 -40 16q-29 0 -72 -9q-12 -2 -24.5 -5t-27.5 -7t-23 -6l-32 -8v229l16 5q80 24 170 24q66 0 119 -18t87 -48
t56.5 -69.5t31.5 -80.5t9 -84v-501q0 -16 1 -22q0 -6 3 -9l3 -2q6 -2 21 -2h124v-224h-63q-11 0 -31 0.5t-30 0.5q-14 0 -20 -2q-4 -1 -4 -2q-1 -2 -3 -9q-1 -6 -1 -20v-504q0 -43 -9.5 -83.5t-32 -80t-56.5 -69t-86.5 -48t-118.5 -18.5z" />
    <glyph glyph-name="asciitilde" unicode="~" horiz-adv-x="1379" vert-adv-y="2275" 
d="M334 371l-15 -24l-203 153l21 35q112 180 347 180q78 0 222 -45q66 -22 98 -30q55 -12 93 -12q51 0 89 31q16 14 32 34q19 24 31 41l15 21l200 -151l-32 -48q-51 -77 -138.5 -121t-197.5 -44q-92 0 -237 47q-79 26 -89 28q-50 13 -88 13q-71 0 -115 -56q-19 -27 -33 -52z
" />
    <glyph glyph-name="exclamdown" unicode="&#xa1;" horiz-adv-x="652" vert-adv-y="2275" 
d="M327 1170q64 0 109 -45t45 -109t-45 -109t-109 -45t-109 45t-45 109t45 109t109 45zM202 772h247l15 -1158h-280z" />
    <glyph glyph-name="cent" unicode="&#xa2;" horiz-adv-x="1353" vert-adv-y="2275" 
d="M808 186v-219h-254v220q-113 24 -202.5 84.5t-142 140.5t-79 166.5t-26.5 171.5q0 67 16 136t52 137.5t87 126t127.5 101t167.5 62.5v222h254v-221q154 -29 256 -123.5t148 -221.5q15 -44 27 -105l9 -40h-262l-8 27q-27 85 -64 142t-106 87v-659q133 56 171 241l3 16h266
l-9 -40q-12 -64 -28 -106q-46 -127 -147.5 -221.5t-255.5 -124.5zM554 422v655q-94 -42 -140.5 -133.5t-46.5 -193.5q0 -103 46 -194t141 -134z" />
    <glyph glyph-name="sterling" unicode="&#xa3;" horiz-adv-x="1376" vert-adv-y="2275" 
d="M244 -44l-21 -23l-157 182l10 11q84 82 146 110l23 9l16 7q2 2 12 10l13 14q83 83 83 214q0 38 -8 69h-262v230h155q-70 147 -70 274q0 93 32 175t94 148t164.5 104.5t232.5 38.5q111 0 201 -29t150 -77.5t100.5 -114t58.5 -136t18 -146.5q0 -16 -2.5 -46.5t-2.5 -42.5
l-2 -17h-264l1 19q5 70 5 83q0 57 -13 105t-42 89t-82 64.5t-126 23.5q-135 0 -195.5 -68.5t-60.5 -183.5q0 -65 21.5 -125t64.5 -138h446v-230h-356q5 -29 5 -69q0 -122 -48 -217l44 -12q22 -7 65 -21.5t65 -20.5q75 -21 129 -21q57 0 103.5 27t72.5 71q11 18 33 56l13 24
l200 -137l-6 -11q-53 -112 -169.5 -183.5t-269.5 -71.5q-106 0 -239 45q-75 27 -99 33q-58 17 -98 17q-52 0 -95 -30t-89 -82z" />
    <glyph glyph-name="currency" unicode="&#xa4;" horiz-adv-x="1433" vert-adv-y="2275" 
d="M512 175l-7 3l-161 -154l-176 173l154 147q-59 101 -59 209q0 112 59 209l-154 150l176 171l160 -156q101 52 214 52q109 0 213 -52l159 153l178 -170l-155 -150q60 -101 60 -207q0 -110 -59 -210l152 -146l-175 -170l-161 151q-104 -52 -212 -52q-96 0 -206 49zM718 350
q88 0 143.5 63.5t55.5 139.5q0 75 -56 138.5t-143 63.5q-76 0 -136 -58q-65 -62 -65 -144q0 -76 56.5 -139.5t144.5 -63.5z" />
    <glyph glyph-name="yen" unicode="&#xa5;" horiz-adv-x="1447" vert-adv-y="2275" 
d="M854 309v-309h-265v309h-294v225h294v37h-294v224h237l-443 705h296l337 -540l330 540h306l-448 -705h241v-224h-297v-37h297v-225h-297z" />
    <glyph glyph-name="brokenbar" unicode="&#xa6;" horiz-adv-x="718" vert-adv-y="2275" 
d="M490 1575v-717h-261v717h261zM490 717v-717h-261v717h261z" />
    <glyph glyph-name="section" unicode="&#xa7;" horiz-adv-x="1305" vert-adv-y="2275" 
d="M647 -362q-113 0 -201 33.5t-141.5 91t-83 127t-35.5 149.5l-2 35l-1 20h258l2 -17q6 -50 16 -83.5t31 -66t60 -48.5t97 -16q92 0 136 36q42 36 42 89q0 113 -191 189l-82 33q-76 30 -134 58.5t-114 67.5t-92.5 82t-58.5 100t-22 122q0 88 44 168t128 137q-85 96 -85 227
q0 153 121 255t321 102q202 0 323 -108q107 -95 134 -271l12 -79h-267l-1 18q-4 119 -64 174q-47 43 -137 43q-95 0 -138 -36q-41 -35 -41 -90q0 -81 84 -135q40 -26 89 -47q14 -6 100 -40q98 -39 166 -76t130 -88.5t93.5 -118.5t31.5 -149q0 -88 -44.5 -167.5
t-128.5 -136.5q85 -97 85 -226q0 -152 -120 -255t-320 -103zM790 362q61 23 94 65.5t33 96.5q0 53 -41 99q-36 40 -169 102q-40 18 -110 47t-84 35q-60 -25 -92.5 -68t-32.5 -97q0 -51 43 -99q31 -37 167 -100q82 -37 192 -81z" />
    <glyph glyph-name="dieresis" unicode="&#xa8;" horiz-adv-x="926" vert-adv-y="2275" 
d="M264 1269q-78 0 -122 45.5t-44 102.5t44 103t122 46q77 0 121 -46.5t44 -102.5q0 -55 -45 -101.5t-120 -46.5zM667 1269q-78 0 -122 45.5t-44 102.5t44 103t122 46q77 0 121 -46.5t44 -102.5q0 -55 -44.5 -101.5t-120.5 -46.5z" />
    <glyph glyph-name="copyright" unicode="&#xa9;" horiz-adv-x="1778" vert-adv-y="2275" 
d="M889 -24q-161 0 -297.5 46t-231 122.5t-161.5 177.5t-98.5 210t-31.5 220t31.5 220.5t98.5 210.5t161.5 177.5t231 122.5t297.5 46q160 0 297 -46t231.5 -123t161.5 -178t98.5 -210t31.5 -220t-31.5 -220t-98.5 -210t-161.5 -177.5t-231.5 -122.5t-297 -46zM889 194
q113 0 207.5 32.5t158.5 86.5t109 126.5t65.5 151t20.5 161.5t-20.5 162t-65.5 151t-109 126.5t-158.5 86.5t-207.5 32t-207.5 -32t-158.5 -86.5t-109 -126.5t-65.5 -151t-20.5 -162t20.5 -161.5t65.5 -151t109 -126.5t158.5 -86.5t207.5 -32.5zM887 307q-150 0 -261.5 78
t-156.5 190q-35 87 -35 177q0 73 20 137q37 126 153 218t280 92q137 0 245.5 -60.5t158.5 -159.5q18 -34 32 -90q7 -31 17 -90l3 -20h-259l-3 15l-9 42q-33 141 -183 141q-51 0 -89.5 -20t-59.5 -53.5t-31 -71.5t-10 -80q0 -23 8 -71q8 -42 32.5 -79t61.5 -56q36 -18 88 -18
q94 0 136 48.5t55 134.5l2 17h261l-3 -21q-12 -69 -16 -87q-10 -49 -30 -88q-53 -103 -158.5 -164t-248.5 -61z" />
    <glyph glyph-name="ordfeminine" unicode="&#xaa;" horiz-adv-x="712" vert-adv-y="2275" 
d="M365 1478q137 0 215.5 -69t78.5 -190v-407h-178v15q-70 -29 -156 -29q-126 0 -199.5 58.5t-73.5 159.5q0 68 34 118t97 76h-111q-4 124 74.5 196t218.5 72zM365 1324q-62 0 -89 -22t-28 -74q28 4 42 5q9 0 29 2q5 0 15 0.5t15 1.5l131 8q-5 42 -32 60.5t-83 18.5z
M481 1080v12l-65 -3l-42 -3q-28 -2 -42 -4q-5 0 -15 -2q-38 -4 -51 -9q-36 -14 -36 -55q0 -33 22.5 -48t72.5 -15q73 0 114.5 34t41.5 93z" />
    <glyph glyph-name="guillemotleft" unicode="&#xab;" horiz-adv-x="1174" vert-adv-y="1800" 
d="M438 553l257 -474h-291l-259 474l259 472h291zM771 553l257 -474h-291l-256 474l256 472h291z" />
    <glyph glyph-name="logicalnot" unicode="&#xac;" horiz-adv-x="1335" vert-adv-y="2275" 
d="M1265 667v-582h-263v353h-931v229h1194z" />
    <glyph glyph-name="registered" unicode="&#xae;" horiz-adv-x="1359" vert-adv-y="2275" 
d="M678 372q-120 0 -222.5 34.5t-173.5 92t-121.5 133t-74 157.5t-23.5 165t23.5 165t74 158t121.5 133.5t173.5 92t222.5 34.5t222.5 -34.5t173.5 -92.5t121.5 -133.5t74 -157.5t23.5 -165t-23.5 -165t-74 -157.5t-121.5 -133t-173.5 -92t-222.5 -34.5zM678 536
q105 0 188 36.5t132.5 97t75 133.5t25.5 151q0 79 -25.5 151.5t-75 133.5t-132.5 97.5t-188 36.5t-188 -36.5t-132.5 -97.5t-75 -133.5t-25.5 -151.5q0 -78 25.5 -151t75 -133.5t132.5 -97t188 -36.5zM570 912v-242h-129v592h251q104 0 162 -46.5t58 -128.5
q0 -60 -32.5 -102t-91.5 -60l152 -255h-151l-139 242h-80zM695 1145h-125v-117h125q49 0 68.5 13.5t19.5 45.5t-20 45t-68 13z" />
    <glyph glyph-name="macron" unicode="&#xaf;" horiz-adv-x="955" vert-adv-y="2275" 
d="M864 1460v-224h-773v224h773z" />
    <glyph glyph-name="degree" unicode="&#xb0;" horiz-adv-x="939" vert-adv-y="2275" 
d="M468 770q-96 0 -176 35t-129 91t-76 122t-27 133t26.5 133t76 121t129 89.5t176.5 34.5q78 0 145 -23t114 -60.5t80.5 -87t49.5 -102t16 -105.5t-16 -106t-49.5 -102.5t-80.5 -88t-114 -61.5t-145 -23zM468 991q67 0 104 48.5t37 111.5q0 62 -37 109.5t-104 47.5
q-70 0 -107.5 -46t-37.5 -111q0 -45 20.5 -87t59.5 -59q33 -14 65 -14z" />
    <glyph glyph-name="plusminus" unicode="&#xb1;" horiz-adv-x="1335" vert-adv-y="2275" 
d="M1265 230v-230h-1194v230h467v304h-467v229h467v343h261v-343h466v-229h-466v-304h466z" />
    <glyph glyph-name="uni00B2" unicode="&#xb2;" horiz-adv-x="605" vert-adv-y="1800" 
d="M534 928v-125h-490v96l255 222q77 66 77 130q0 99 -93 99q-64 0 -83 -52q-5 -11 -5 -19l-3 -14q0 -3 -2 -13v-20h-149l6 27q2 9 4 25q1 2 1.5 7t0.5 7q6 27 13 44q26 63 82 97.5t135 34.5q109 0 172.5 -59.5t63.5 -160.5q0 -120 -126 -227l-115 -99h256z" />
    <glyph glyph-name="uni00B3" unicode="&#xb3;" horiz-adv-x="615" vert-adv-y="1800" 
d="M307 801q-110 0 -178.5 57.5t-68.5 149.5v44h142v-44q0 -40 27 -61.5t78 -21.5q105 0 105 83q0 79 -105 79h-94v123h94q43 0 66 19.5t23 55.5q0 72 -89 72q-88 0 -88 -72v-44h-142v44q0 86 64.5 141t165.5 55t166 -55t65 -141q0 -77 -53 -130q70 -60 70 -147
q0 -92 -69 -149.5t-179 -57.5z" />
    <glyph glyph-name="acute" unicode="&#xb4;" horiz-adv-x="950" vert-adv-y="2275" 
d="M714 1668l-218 -466h-265l194 466h289z" />
    <glyph glyph-name="paragraph" unicode="&#xb6;" horiz-adv-x="1353" vert-adv-y="2275" 
d="M844 1276v-1655h-260v916q-120 11 -212 55t-147.5 110.5t-83 146t-27.5 168.5q0 94 36.5 180t104 154t174.5 108.5t238 40.5h458v-1879h-263v1655h-18z" />
    <glyph glyph-name="periodcentered" unicode="&#xb7;" horiz-adv-x="581" vert-adv-y="2275" 
d="M290 412q-77 0 -121 45.5t-44 101.5t44 102t121 46t121.5 -45.5t44.5 -102.5q0 -56 -45 -101.5t-121 -45.5z" />
    <glyph glyph-name="cedilla" unicode="&#xb8;" horiz-adv-x="751" vert-adv-y="2275" 
d="M367 -452q-72 0 -121 22t-104 67l-9 7l-12 10l93 140l24 -18q22 -17 62 -40q11 -7 36 -13.5t39 -6.5q22 0 42 21.5t20 44.5t-10 42q-9 17 -27 17q-24 0 -32 -4q-3 -1 -8 -8q-11 -13 -14 -18l-12 -15l-160 63l127 307h212l-60 -139q99 -18 152.5 -85.5t53.5 -148.5
q0 -100 -80 -172.5t-212 -72.5z" />
    <glyph glyph-name="uni00B9" unicode="&#xb9;" horiz-adv-x="608" vert-adv-y="1800" 
d="M514 923v-126h-431v126h144v405h-144v129h287v-534h144z" />
    <glyph glyph-name="ordmasculine" unicode="&#xba;" horiz-adv-x="792" vert-adv-y="2275" 
d="M396 799q-69 0 -127.5 22t-98 58t-67.5 81.5t-41 93t-13 92.5q0 57 21.5 116t62 111t109.5 85t154 33t153.5 -33t109 -85t62 -111t21.5 -116q0 -45 -13 -92.5t-41 -93t-67.5 -81.5t-98 -58t-126.5 -22zM396 957q40 0 81 23q39 22 61.5 66.5t22.5 99.5q0 54 -23 98.5
t-61 67.5q-44 22 -81 22q-42 0 -82 -23q-38 -21 -61 -66t-23 -99q0 -56 23 -100t63 -66q38 -23 80 -23z" />
    <glyph glyph-name="guillemotright" unicode="&#xbb;" horiz-adv-x="1174" vert-adv-y="1800" 
d="M693 553l-255 -474h-293l259 474l-259 472h293zM1026 553l-253 -474h-294l258 474l-258 472h292z" />
    <glyph glyph-name="questiondown" unicode="&#xbf;" horiz-adv-x="1205" vert-adv-y="2275" 
d="M616 1157q64 0 109 -45t45 -109t-45 -109t-109 -45t-109 45t-45 109t45 109t109 45zM481 658v150h264v-150q0 -45 -12.5 -87.5t-28.5 -73t-46.5 -67.5t-51.5 -57t-58 -55q-56 -51 -70 -66q-36 -36 -60 -68q-56 -77 -56 -163q0 -99 56.5 -161.5t173.5 -62.5q62 0 109 21
t75 57t41.5 79.5t13.5 91.5q0 24 -4.5 67.5t-5.5 60.5l-1 19h271l1 -18q1 -14 4.5 -60.5t3.5 -72.5q0 -68 -20 -134.5t-61.5 -127.5t-100.5 -107t-143 -73.5t-183 -27.5q-121 0 -218.5 37.5t-158 100t-92.5 141.5t-32 165q0 115 51 209.5t154 187.5q96 85 108 96
q59 57 72 104q5 19 5 45z" />
    <glyph glyph-name="Agrave" unicode="&#xc0;" horiz-adv-x="1770" vert-adv-y="2275" 
d="M932 2039l193 -465h-265l-220 465h292zM563 385l-167 -385h-286l664 1500h225l661 -1500h-289l-167 385h-641zM1103 615l-220 503l-219 -503h439z" />
    <glyph glyph-name="Aacute" unicode="&#xc1;" horiz-adv-x="1770" vert-adv-y="2275" 
d="M1130 2039l-220 -465h-264l194 465h290zM563 385l-167 -385h-286l664 1500h225l661 -1500h-289l-167 385h-641zM1103 615l-220 503l-219 -503h439z" />
    <glyph glyph-name="Acircumflex" unicode="&#xc2;" horiz-adv-x="1770" vert-adv-y="2275" 
d="M1220 1529l-336 164l-334 -164v259l334 165l336 -165v-259zM563 385l-167 -385h-286l664 1500h225l661 -1500h-289l-167 385h-641zM1103 615l-220 503l-219 -503h439z" />
    <glyph glyph-name="Atilde" unicode="&#xc3;" horiz-adv-x="1770" vert-adv-y="2275" 
d="M1011 1665q-68 0 -159 40q-9 4 -28.5 13t-29.5 13q-27 9 -38 9h-6q-2 -4 -4 -23q-1 -5 -2.5 -15.5t-2.5 -15.5l-4 -15h-255l3 20l8 58q13 90 80.5 154t185.5 64q68 0 163 -41q33 -16 58 -26q26 -10 35 -10h6q3 7 5 25q1 5 2.5 15.5t2.5 15.5l4 16h252l-6 -57
q-5 -46 -21.5 -86t-46.5 -76t-82 -57t-120 -21zM563 385l-167 -385h-286l664 1500h225l661 -1500h-289l-167 385h-641zM1103 615l-220 503l-219 -503h439z" />
    <glyph glyph-name="Adieresis" unicode="&#xc4;" horiz-adv-x="1770" vert-adv-y="2275" 
d="M692 1605q-78 0 -122 45.5t-44 102.5t44 103t122 46q77 0 121 -46t44 -103q0 -55 -45 -101.5t-120 -46.5zM1095 1605q-78 0 -122 45.5t-44 102.5t44 103t122 46q77 0 121 -46.5t44 -102.5q0 -55 -44.5 -101.5t-120.5 -46.5zM563 385l-167 -385h-286l664 1500h225
l661 -1500h-289l-167 385h-641zM1103 615l-220 503l-219 -503h439z" />
    <glyph glyph-name="Aring" unicode="&#xc5;" horiz-adv-x="1770" vert-adv-y="2275" 
d="M891 1593q-49 0 -101 21q-63 27 -95 79t-32 109q0 79 61.5 144t166.5 65q50 0 101 -22q62 -26 93.5 -78.5t31.5 -108.5q0 -79 -60 -144t-166 -65zM891 1732q23 0 39 21q14 20 14 49q0 30 -14 49.5t-39 19.5t-39 -19.5t-14 -49.5q0 -31 14 -49q13 -21 39 -21zM563 385
l-167 -385h-286l664 1500h225l661 -1500h-289l-167 385h-641zM1103 615l-220 503l-219 -503h439z" />
    <glyph glyph-name="AE" unicode="&#xc6;" horiz-adv-x="2908" vert-adv-y="2275" 
d="M594 454l-198 -454h-286l664 1500h1119v-231h-829v-394h698v-230h-698v-415h829v-230h-1095v454h-204zM694 685h104v240q-34 -80 -104 -240z" />
    <glyph glyph-name="Ccedilla" unicode="&#xc7;" horiz-adv-x="1763" vert-adv-y="2275" 
d="M840 -548q-76 0 -129 24.5t-106 72.5l-11 10l93 137l23 -17q37 -27 61 -40q42 -20 77 -20q22 0 42 21.5t20 44.5t-10 42q-9 17 -27 17q-23 0 -33 -5t-21 -23l-10 -18l-163 64l92 223q-132 23 -240 80t-179 133t-119 170t-69 189t-21 193q0 93 20.5 185t62 183.5
t115 171.5t170.5 134q190 105 412 105q133 0 250 -34.5t203.5 -93.5t152 -138t103.5 -167.5t51 -183.5l3 -21h-265l-5 14q-1 3 -12 41q-17 66 -43 112q-61 112 -174.5 179t-263.5 67q-105 0 -201 -39q-83 -35 -145 -93t-97 -128.5t-51.5 -143.5t-16.5 -150q0 -75 17 -148.5
t51.5 -144.5t96.5 -129.5t144 -91.5q92 -38 202 -38q191 0 315.5 100t165.5 255q2 8 4.5 22.5t3.5 18.5l4 15h270l-3 -20q-16 -113 -68.5 -217.5t-138.5 -191t-215 -142t-284 -64.5l-19 -44q99 -17 153 -85t54 -148q0 -100 -79.5 -172.5t-212.5 -72.5z" />
    <glyph glyph-name="Egrave" unicode="&#xc8;" horiz-adv-x="1315" vert-adv-y="2275" 
d="M703 2039l194 -465h-265l-218 465h289zM1205 230v-230h-1095v1500h1095v-231h-831v-394h699v-230h-699v-415h831z" />
    <glyph glyph-name="Eacute" unicode="&#xc9;" horiz-adv-x="1315" vert-adv-y="2275" 
d="M902 2039l-220 -465h-264l193 465h291zM1205 230v-230h-1095v1500h1095v-231h-831v-394h699v-230h-699v-415h831z" />
    <glyph glyph-name="Ecircumflex" unicode="&#xca;" horiz-adv-x="1315" vert-adv-y="2275" 
d="M993 1529l-336 164l-334 -164v259l333 165l337 -165v-259zM1205 230v-230h-1095v1500h1095v-231h-831v-394h699v-230h-699v-415h831z" />
    <glyph glyph-name="Edieresis" unicode="&#xcb;" horiz-adv-x="1315" vert-adv-y="2275" 
d="M469 1590q-78 0 -122 45t-44 102t44 103t122 46q77 0 121 -46.5t44 -102.5q0 -55 -45 -101t-120 -46zM872 1590q-78 0 -122 45t-44 102t44 103t122 46q77 0 121 -46.5t44 -102.5q0 -55 -44.5 -101t-120.5 -46zM1205 230v-230h-1095v1500h1095v-231h-831v-394h699v-230
h-699v-415h831z" />
    <glyph glyph-name="Igrave" unicode="&#xcc;" horiz-adv-x="805" vert-adv-y="2275" 
d="M448 2039l195 -465h-265l-220 465h290zM695 224v-224h-585v224h158v1052h-158v224h585v-224h-159v-1052h159z" />
    <glyph glyph-name="Iacute" unicode="&#xcd;" horiz-adv-x="805" vert-adv-y="2275" 
d="M647 2039l-218 -465h-266l195 465h289zM695 224v-224h-585v224h158v1052h-158v224h585v-224h-159v-1052h159z" />
    <glyph glyph-name="Icircumflex" unicode="&#xce;" horiz-adv-x="801" vert-adv-y="2275" 
d="M399 1953l337 -165v-259l-334 164l-336 -164v259zM692 224v-224h-582v224h158v1052h-158v224h582v-224h-159v-1052h159z" />
    <glyph glyph-name="Idieresis" unicode="&#xcf;" horiz-adv-x="803" vert-adv-y="2275" 
d="M205 1605q-78 0 -122 45.5t-44 102.5t44 103t122 46q77 0 121 -46.5t44 -102.5q0 -55 -45 -101.5t-120 -46.5zM608 1605q-78 0 -122 45.5t-44 102.5t44 103t122 46q77 0 121 -46.5t44 -102.5q0 -55 -44.5 -101.5t-120.5 -46.5zM694 224v-224h-585v224h159v1052h-159v224
h585v-224h-160v-1052h160z" />
    <glyph glyph-name="Ntilde" unicode="&#xd1;" horiz-adv-x="1489" vert-adv-y="2275" 
d="M870 1665q-68 0 -159 40q-8 3 -28.5 12.5t-30.5 13.5q-22 9 -37 9h-4v-3l-4 -18q-2 -8 -4 -20l-2 -12l-3 -16h-255l7 56q5 46 21 86t46.5 76t82 57t119.5 21t161 -41q40 -18 59 -26q26 -10 35 -10h4q4 8 7 25l5 31l4 16h254l-3 -21l-8 -58q-13 -90 -81 -154t-186 -64z
M374 1038v-1038h-264v1500h238l766 -1038v1038h264v-1500h-238z" />
    <glyph glyph-name="Ograve" unicode="&#xd2;" horiz-adv-x="1825" vert-adv-y="2275" 
d="M960 2039l192 -465h-264l-220 465h292zM912 -27q-159 0 -294 47t-227 124.5t-156.5 179t-94.5 209.5t-30 217t30 217.5t94.5 210.5t156.5 179.5t227 124.5t294 47q160 0 295 -47t227 -124.5t156.5 -179t94 -210t29.5 -218.5q0 -91 -21.5 -181.5t-63.5 -178t-109.5 -162.5
t-154 -132.5t-203 -90t-250.5 -32.5zM912 198q108 0 198 33t150.5 87.5t103 127t61.5 149t19 155.5q0 76 -18 150.5t-55 145t-101.5 128.5t-148.5 90q-100 40 -209 40q-104 0 -206 -40q-85 -33 -150 -90.5t-102.5 -128t-56 -144.5t-18.5 -151q0 -76 18.5 -150.5t56 -144.5
t102.5 -127.5t150 -91.5q95 -38 206 -38z" />
    <glyph glyph-name="Oacute" unicode="&#xd3;" horiz-adv-x="1825" vert-adv-y="2275" 
d="M1158 2039l-220 -465h-266l195 465h291zM912 -27q-159 0 -294 47t-227 124.5t-156.5 179t-94.5 209.5t-30 217t30 217.5t94.5 210.5t156.5 179.5t227 124.5t294 47q160 0 295 -47t227 -124.5t156.5 -179t94 -210t29.5 -218.5q0 -91 -21.5 -181.5t-63.5 -178
t-109.5 -162.5t-154 -132.5t-203 -90t-250.5 -32.5zM912 198q108 0 198 33t150.5 87.5t103 127t61.5 149t19 155.5q0 76 -18 150.5t-55 145t-101.5 128.5t-148.5 90q-100 40 -209 40q-104 0 -206 -40q-85 -33 -150 -90.5t-102.5 -128t-56 -144.5t-18.5 -151
q0 -76 18.5 -150.5t56 -144.5t102.5 -127.5t150 -91.5q95 -38 206 -38z" />
    <glyph glyph-name="Ocircumflex" unicode="&#xd4;" horiz-adv-x="1825" vert-adv-y="2275" 
d="M1248 1529l-336 164l-334 -164v259l334 165l336 -165v-259zM912 -27q-159 0 -294 47t-227 124.5t-156.5 179t-94.5 209.5t-30 217t30 217.5t94.5 210.5t156.5 179.5t227 124.5t294 47q160 0 295 -47t227 -124.5t156.5 -179t94 -210t29.5 -218.5q0 -91 -21.5 -181.5
t-63.5 -178t-109.5 -162.5t-154 -132.5t-203 -90t-250.5 -32.5zM912 198q108 0 198 33t150.5 87.5t103 127t61.5 149t19 155.5q0 76 -18 150.5t-55 145t-101.5 128.5t-148.5 90q-100 40 -209 40q-104 0 -206 -40q-85 -33 -150 -90.5t-102.5 -128t-56 -144.5t-18.5 -151
q0 -76 18.5 -150.5t56 -144.5t102.5 -127.5t150 -91.5q95 -38 206 -38z" />
    <glyph glyph-name="Otilde" unicode="&#xd5;" horiz-adv-x="1825" vert-adv-y="2275" 
d="M1038 1665q-68 0 -159 40q-9 4 -28.5 13t-29.5 13q-26 9 -38 9h-4l-1 -1v-2l-4 -18q-1 -8 -3.5 -20t-2.5 -13l-4 -15h-255l3 20l8 58q13 90 80.5 154t186.5 64q67 0 162 -41q33 -16 58 -26q26 -10 35 -10l6 1v2q0 2 1 3l3 16q1 7 2.5 19t1.5 14l2 17h256l-1 -20
q-1 -10 -3.5 -29.5t-3.5 -29.5q-13 -89 -82 -153.5t-186 -64.5zM912 -27q-159 0 -294 47t-227 124.5t-156.5 179t-94.5 209.5t-30 217t30 217.5t94.5 210.5t156.5 179.5t227 124.5t294 47q160 0 295 -47t227 -124.5t156.5 -179t94 -210t29.5 -218.5q0 -91 -21.5 -181.5
t-63.5 -178t-109.5 -162.5t-154 -132.5t-203 -90t-250.5 -32.5zM912 198q108 0 198 33t150.5 87.5t103 127t61.5 149t19 155.5q0 76 -18 150.5t-55 145t-101.5 128.5t-148.5 90q-100 40 -209 40q-104 0 -206 -40q-85 -33 -150 -90.5t-102.5 -128t-56 -144.5t-18.5 -151
q0 -76 18.5 -150.5t56 -144.5t102.5 -127.5t150 -91.5q95 -38 206 -38z" />
    <glyph glyph-name="Odieresis" unicode="&#xd6;" horiz-adv-x="1825" vert-adv-y="2275" 
d="M696 1605q-78 0 -121.5 45.5t-43.5 102.5t43.5 103t121.5 46q77 0 121 -46t44 -103q0 -55 -44.5 -101.5t-120.5 -46.5zM1099 1605q-78 0 -122 45.5t-44 102.5t44 103t122 46q77 0 121 -46t44 -103q0 -56 -44 -102t-121 -46zM912 -27q-159 0 -294 47t-227 124.5
t-156.5 179t-94.5 209.5t-30 217t30 217.5t94.5 210.5t156.5 179.5t227 124.5t294 47q160 0 295 -47t227 -124.5t156.5 -179t94 -210t29.5 -218.5q0 -91 -21.5 -181.5t-63.5 -178t-109.5 -162.5t-154 -132.5t-203 -90t-250.5 -32.5zM912 198q108 0 198 33t150.5 87.5
t103 127t61.5 149t19 155.5q0 76 -18 150.5t-55 145t-101.5 128.5t-148.5 90q-100 40 -209 40q-104 0 -206 -40q-85 -33 -150 -90.5t-102.5 -128t-56 -144.5t-18.5 -151q0 -76 18.5 -150.5t56 -144.5t102.5 -127.5t150 -91.5q95 -38 206 -38z" />
    <glyph glyph-name="multiply" unicode="&#xd7;" horiz-adv-x="1395" vert-adv-y="2275" 
d="M1069 27l-371 355l-375 -358l-175 171l372 358l-372 359l175 171l375 -361l371 358l177 -170l-372 -357l372 -356z" />
    <glyph glyph-name="Oslash" unicode="&#xd8;" horiz-adv-x="1825" vert-adv-y="2275" 
d="M730 -11l-114 -273l-243 92l114 272q-98 55 -172.5 134t-118 168.5t-65 181.5t-21.5 186q0 109 30 217.5t94.5 210.5t156.5 179.5t227 124.5t294 47q91 0 182 -17l108 260l246 -86l-111 -264q188 -107 282.5 -291.5t94.5 -380.5q0 -91 -21.5 -181.5t-63.5 -178
t-109.5 -162.5t-154 -132.5t-203 -90t-250.5 -32.5q-95 0 -182 16zM582 304l422 992q-48 8 -92 8q-103 0 -206 -39q-85 -34 -150 -91.5t-102.5 -127.5t-56 -144.5t-18.5 -151.5q0 -127 50 -247t153 -199zM912 198q108 0 198 33t150.5 87.5t103 127t61.5 149t19 155.5
q0 129 -49.5 248.5t-153.5 198.5l-419 -993q45 -6 90 -6z" />
    <glyph glyph-name="Ugrave" unicode="&#xd9;" horiz-adv-x="1490" vert-adv-y="2275" 
d="M790 2039l194 -465h-263l-220 465h289zM744 -27q-143 0 -255.5 40.5t-182 105t-115 153t-63.5 177.5t-18 185v866h265v-884q0 -61 11 -117.5t38 -112t68 -96.5t106 -66.5t146 -25.5q82 0 147 25t106 66t68 96.5t38 112.5t11 118v884h265v-866q0 -96 -18 -185
t-63.5 -177.5t-115.5 -153t-182.5 -105t-255.5 -40.5z" />
    <glyph glyph-name="Uacute" unicode="&#xda;" horiz-adv-x="1490" vert-adv-y="2275" 
d="M990 2039l-220 -465h-265l193 465h292zM744 -27q-143 0 -255.5 40.5t-182 105t-115 153t-63.5 177.5t-18 185v866h265v-884q0 -61 11 -117.5t38 -112t68 -96.5t106 -66.5t146 -25.5q82 0 147 25t106 66t68 96.5t38 112.5t11 118v884h265v-866q0 -96 -18 -185
t-63.5 -177.5t-115.5 -153t-182.5 -105t-255.5 -40.5z" />
    <glyph glyph-name="Ucircumflex" unicode="&#xdb;" horiz-adv-x="1490" vert-adv-y="2275" 
d="M1080 1529l-336 164l-334 -164v259l334 165l336 -165v-259zM744 -27q-143 0 -255.5 40.5t-182 105t-115 153t-63.5 177.5t-18 185v866h265v-884q0 -61 11 -117.5t38 -112t68 -96.5t106 -66.5t146 -25.5q82 0 147 25t106 66t68 96.5t38 112.5t11 118v884h265v-866
q0 -96 -18 -185t-63.5 -177.5t-115.5 -153t-182.5 -105t-255.5 -40.5z" />
    <glyph glyph-name="Udieresis" unicode="&#xdc;" horiz-adv-x="1490" vert-adv-y="2275" 
d="M545 1605q-78 0 -122 45.5t-44 102.5t44 103t122 46q77 0 121 -46.5t44 -102.5q0 -55 -45 -101.5t-120 -46.5zM948 1605q-78 0 -122 45.5t-44 102.5t44 103t122 46q77 0 121 -46.5t44 -102.5q0 -55 -44.5 -101.5t-120.5 -46.5zM744 -27q-143 0 -255.5 40.5t-182 105
t-115 153t-63.5 177.5t-18 185v866h265v-884q0 -61 11 -117.5t38 -112t68 -96.5t106 -66.5t146 -25.5q82 0 147 25t106 66t68 96.5t38 112.5t11 118v884h265v-866q0 -96 -18 -185t-63.5 -177.5t-115.5 -153t-182.5 -105t-255.5 -40.5z" />
    <glyph glyph-name="Yacute" unicode="&#xdd;" horiz-adv-x="1800" vert-adv-y="2275" 
d="M1145 2039l-220 -465h-265l194 465h291zM1031 721v-721h-264v726l-657 774h334l457 -547l460 547h329z" />
    <glyph glyph-name="germandbls" unicode="&#xdf;" horiz-adv-x="1340" vert-adv-y="2275" 
d="M493 1097l-1 -1487h-260l-9 1485q0 12 4 34q18 83 44 134q59 119 182.5 192.5t285.5 73.5q127 0 228.5 -35t166.5 -96.5t99.5 -142t34.5 -172.5q0 -192 -159 -306q93 -58 137.5 -145.5t44.5 -185.5q0 -77 -20.5 -146t-64.5 -129t-107 -104t-152.5 -69t-197.5 -25h-85v225
h85q141 0 206.5 66t65.5 182q0 204 -292 204h-216v231h201q130 0 208 53t78 149q0 221 -263 221q-136 0 -199 -92q-25 -37 -43 -108l-1 -5q-1 0 -1 -2z" />
    <glyph glyph-name="agrave" unicode="&#xe0;" horiz-adv-x="1243" vert-adv-y="2275" 
d="M668 1668l193 -466h-264l-220 466h291zM567 -24q-216 0 -336.5 97.5t-120.5 263.5q0 57 16.5 109.5t50.5 98.5t91 81t132 52q49 11 107 16q35 3 105 7l259 16q-5 95 -58.5 143t-174.5 48q-125 0 -178 -49.5t-55 -151.5h-261q2 187 126.5 304t367.5 117q126 0 223 -34
t155.5 -94t87.5 -136.5t29 -167.5v-696h-262v44q-130 -68 -304 -68zM567 198q143 0 223.5 68.5t80.5 181.5v51l-144 -9q-103 -6 -151 -11q-97 -10 -124 -21q-79 -33 -79 -121q0 -72 48 -105.5t146 -33.5z" />
    <glyph glyph-name="aacute" unicode="&#xe1;" horiz-adv-x="1243" vert-adv-y="2275" 
d="M867 1668l-220 -466h-265l193 466h292zM567 -24q-216 0 -336.5 97.5t-120.5 263.5q0 57 16.5 109.5t50.5 98.5t91 81t132 52q49 11 107 16q35 3 105 7l259 16q-5 95 -58.5 143t-174.5 48q-125 0 -178 -49.5t-55 -151.5h-261q2 187 126.5 304t367.5 117q126 0 223 -34
t155.5 -94t87.5 -136.5t29 -167.5v-696h-262v44q-130 -68 -304 -68zM567 198q143 0 223.5 68.5t80.5 181.5v51l-144 -9q-103 -6 -151 -11q-97 -10 -124 -21q-79 -33 -79 -121q0 -72 48 -105.5t146 -33.5z" />
    <glyph glyph-name="acircumflex" unicode="&#xe2;" horiz-adv-x="1243" vert-adv-y="2275" 
d="M956 1158l-334 164l-336 -165v258l336 167l334 -167v-257zM567 -24q-216 0 -336.5 97.5t-120.5 263.5q0 57 16.5 109.5t50.5 98.5t91 81t132 52q49 11 107 16q35 3 105 7l259 16q-5 95 -58.5 143t-174.5 48q-125 0 -178 -49.5t-55 -151.5h-261q2 187 126.5 304t367.5 117
q126 0 223 -34t155.5 -94t87.5 -136.5t29 -167.5v-696h-262v44q-130 -68 -304 -68zM567 198q143 0 223.5 68.5t80.5 181.5v51l-144 -9q-103 -6 -151 -11q-97 -10 -124 -21q-79 -33 -79 -121q0 -72 48 -105.5t146 -33.5z" />
    <glyph glyph-name="atilde" unicode="&#xe3;" horiz-adv-x="1243" vert-adv-y="2275" 
d="M747 1293q-71 0 -159 41q-8 3 -19.5 8.5t-21 9.5t-17.5 7q-26 10 -38 10h-5q-1 -3 -5 -23q-1 -4 -2.5 -15.5t-2.5 -16.5l-4 -15h-256l12 78q14 92 80 155t187 63q71 0 161 -41q11 -4 30.5 -13t28.5 -13q26 -10 35 -10h3q1 1 3 5q0 2 1.5 8t2.5 9l5 18q4 14 7 19l5 12h246
l-2 -20l-8 -58q-13 -91 -80.5 -154.5t-186.5 -63.5zM567 -24q-216 0 -336.5 97.5t-120.5 263.5q0 57 16.5 109.5t50.5 98.5t91 81t132 52q49 11 107 16q35 3 105 7l259 16q-5 95 -58.5 143t-174.5 48q-125 0 -178 -49.5t-55 -151.5h-261q2 187 126.5 304t367.5 117
q126 0 223 -34t155.5 -94t87.5 -136.5t29 -167.5v-696h-262v44q-130 -68 -304 -68zM567 198q143 0 223.5 68.5t80.5 181.5v51l-144 -9q-103 -6 -151 -11q-97 -10 -124 -21q-79 -33 -79 -121q0 -72 48 -105.5t146 -33.5z" />
    <glyph glyph-name="adieresis" unicode="&#xe4;" horiz-adv-x="1243" vert-adv-y="2275" 
d="M423 1239q-78 0 -122 45.5t-44 102.5t44 103t122 46q77 0 121 -46.5t44 -102.5q0 -55 -44.5 -101.5t-120.5 -46.5zM826 1239q-78 0 -122 45.5t-44 102.5t44 103t122 46q77 0 121 -46.5t44 -102.5t-44 -102t-121 -46zM567 -24q-216 0 -336.5 97.5t-120.5 263.5
q0 57 16.5 109.5t50.5 98.5t91 81t132 52q49 11 107 16q35 3 105 7l259 16q-5 95 -58.5 143t-174.5 48q-125 0 -178 -49.5t-55 -151.5h-261q2 187 126.5 304t367.5 117q126 0 223 -34t155.5 -94t87.5 -136.5t29 -167.5v-696h-262v44q-130 -68 -304 -68zM567 198
q143 0 223.5 68.5t80.5 181.5v51l-144 -9q-103 -6 -151 -11q-97 -10 -124 -21q-79 -33 -79 -121q0 -72 48 -105.5t146 -33.5z" />
    <glyph glyph-name="aring" unicode="&#xe5;" horiz-adv-x="1243" vert-adv-y="2275" 
d="M631 1229q-49 0 -101 21q-63 26 -95 78.5t-32 109.5q0 49 24.5 95.5t78.5 79.5t125 33q50 0 101 -22q62 -26 93.5 -78t31.5 -108q0 -79 -60 -144t-166 -65zM631 1368q24 0 39 21q14 20 14 49t-14 48.5t-39 19.5t-39 -19t-14 -49t14 -50q12 -20 39 -20zM567 -24
q-216 0 -336.5 97.5t-120.5 263.5q0 57 16.5 109.5t50.5 98.5t91 81t132 52q49 11 107 16q35 3 105 7l259 16q-5 95 -58.5 143t-174.5 48q-125 0 -178 -49.5t-55 -151.5h-261q2 187 126.5 304t367.5 117q126 0 223 -34t155.5 -94t87.5 -136.5t29 -167.5v-696h-262v44
q-130 -68 -304 -68zM567 198q143 0 223.5 68.5t80.5 181.5v51l-144 -9q-103 -6 -151 -11q-97 -10 -124 -21q-79 -33 -79 -121q0 -72 48 -105.5t146 -33.5z" />
    <glyph glyph-name="ae" unicode="&#xe6;" horiz-adv-x="2421" vert-adv-y="2275" 
d="M567 -24q-216 0 -336.5 97.5t-120.5 263.5q0 120 72 214t218 127q35 8 107 16q35 3 105 7l259 16q-5 95 -58.5 143t-174.5 48q-125 0 -178 -49.5t-55 -151.5h-261q2 187 126.5 304t367.5 117q129 0 235.5 -39t171.5 -118q78 73 184.5 115t229.5 42q116 0 215 -35t167 -93
t116 -133.5t70.5 -155t22.5 -158.5q0 -33 -7 -79l-2 -17h-181l177 -50l-28 -66q-32 -75 -79.5 -138t-114 -115.5t-158 -82t-198.5 -29.5q-181 0 -326 91v-67h-262v44q-130 -68 -304 -68zM1152 682h615q-32 97 -111.5 160.5t-196.5 63.5q-118 0 -196 -63t-111 -161zM567 198
q142 0 223 69t81 181q0 34 -1 51l-143 -9q-17 -1 -69.5 -4.5t-81.5 -6.5q-97 -10 -124 -21q-79 -33 -79 -121q0 -72 48 -105.5t146 -33.5zM1459 200q125 0 202 67t111 174l5 16h-635q26 -108 107.5 -182.5t209.5 -74.5z" />
    <glyph glyph-name="ccedilla" unicode="&#xe7;" horiz-adv-x="1377" vert-adv-y="2275" 
d="M630 -545q-73 0 -122 22t-103 67l-9 7l-12 10l93 139l23 -17q39 -28 62 -40q13 -7 38 -13.5t38 -6.5q22 0 42 21t20 44q0 24 -10 43q-9 17 -27 17q-23 0 -31 -4.5t-23 -24.5l-11 -16l-162 63l96 230q-106 27 -189.5 88.5t-132.5 140.5t-74.5 163t-25.5 165
q0 77 21.5 155.5t68 154t112.5 134.5t163 95t212 36q175 0 303.5 -80.5t198.5 -209.5q37 -67 72 -203l5 -22h-270l-3 16q-35 170 -153 235q-73 42 -153 42q-81 0 -154 -42q-80 -44 -120 -132t-40 -179t40 -178.5t120 -132.5q74 -41 154 -41t154 41q113 63 152 235l4 15h269
l-15 -61q-16 -64 -43 -123t-71 -117.5t-99 -102t-133.5 -73.5t-169.5 -36l-19 -45q99 -18 152.5 -85.5t53.5 -148.5q0 -100 -80 -172.5t-212 -72.5z" />
    <glyph glyph-name="egrave" unicode="&#xe8;" horiz-adv-x="1402" vert-adv-y="2275" 
d="M747 1668l195 -466h-266l-220 466h291zM701 -24q-116 0 -215 35.5t-167 94t-116 134t-70.5 155t-22.5 158.5t22.5 158.5t70.5 155t116 133.5t167 93t215 35t215 -35.5t167 -93.5t116 -133t70.5 -154.5t22.5 -158.5q0 -18 -7 -79l-3 -17h-898q26 -109 107.5 -183
t209.5 -74q178 0 272 149q9 13 21 41q4 8 10 22.5t9 21.5l3 6l245 -75q-16 -58 -66 -134q-76 -115 -204 -185t-290 -70zM394 682h614q-31 97 -110 160.5t-197 63.5t-196 -63t-111 -161z" />
    <glyph glyph-name="eacute" unicode="&#xe9;" horiz-adv-x="1402" vert-adv-y="2275" 
d="M947 1668l-221 -466h-264l195 466h290zM701 -24q-116 0 -215 35.5t-167 94t-116 134t-70.5 155t-22.5 158.5t22.5 158.5t70.5 155t116 133.5t167 93t215 35t215 -35.5t167 -93.5t116 -133t70.5 -154.5t22.5 -158.5q0 -18 -7 -79l-3 -17h-898q26 -109 107.5 -183
t209.5 -74q178 0 272 149q9 13 21 41q4 8 10 22.5t9 21.5l3 6l245 -75q-16 -58 -66 -134q-76 -115 -204 -185t-290 -70zM394 682h614q-31 97 -110 160.5t-197 63.5t-196 -63t-111 -161z" />
    <glyph glyph-name="ecircumflex" unicode="&#xea;" horiz-adv-x="1402" vert-adv-y="2275" 
d="M1037 1158l-336 164l-335 -165v258l335 167l336 -167v-257zM701 -24q-116 0 -215 35.5t-167 94t-116 134t-70.5 155t-22.5 158.5t22.5 158.5t70.5 155t116 133.5t167 93t215 35t215 -35.5t167 -93.5t116 -133t70.5 -154.5t22.5 -158.5q0 -18 -7 -79l-3 -17h-898
q26 -109 107.5 -183t209.5 -74q178 0 272 149q9 13 21 41q4 8 10 22.5t9 21.5l3 6l245 -75q-16 -58 -66 -134q-76 -115 -204 -185t-290 -70zM394 682h614q-31 97 -110 160.5t-197 63.5t-196 -63t-111 -161z" />
    <glyph glyph-name="edieresis" unicode="&#xeb;" horiz-adv-x="1402" vert-adv-y="2275" 
d="M502 1241q-78 0 -121.5 45.5t-43.5 102.5t44 103t121 46t121 -46.5t44 -102.5q0 -55 -44.5 -101.5t-120.5 -46.5zM905 1241q-78 0 -122 45.5t-44 102.5t44 103t122 46q77 0 121 -46.5t44 -102.5t-44 -102t-121 -46zM701 -24q-116 0 -215 35.5t-167 94t-116 134t-70.5 155
t-22.5 158.5t22.5 158.5t70.5 155t116 133.5t167 93t215 35t215 -35.5t167 -93.5t116 -133t70.5 -154.5t22.5 -158.5q0 -18 -7 -79l-3 -17h-898q26 -109 107.5 -183t209.5 -74q178 0 272 149q9 13 21 41q4 8 10 22.5t9 21.5l3 6l245 -75q-16 -58 -66 -134
q-76 -115 -204 -185t-290 -70zM394 682h614q-31 97 -110 160.5t-197 63.5t-196 -63t-111 -161z" />
    <glyph glyph-name="igrave" unicode="&#xec;" horiz-adv-x="613" vert-adv-y="2275" 
d="M356 1668l192 -466h-263l-220 466h291zM439 1128v-1128h-262v1128h262z" />
    <glyph glyph-name="iacute" unicode="&#xed;" horiz-adv-x="613" vert-adv-y="2275" 
d="M548 1668l-218 -466h-265l194 466h289zM434 1128v-1128h-262v1128h262z" />
    <glyph glyph-name="icircumflex" unicode="&#xee;" horiz-adv-x="529" vert-adv-y="2275" 
d="M263 1582l337 -167v-257l-335 164l-336 -164v257zM394 1128v-1128h-261v1128h261z" />
    <glyph glyph-name="idieresis" unicode="&#xef;" horiz-adv-x="532" vert-adv-y="2275" 
d="M130 1224q-75 0 -118.5 44t-43.5 99t43.5 100.5t118.5 45.5q90 0 136 -66q46 66 137 66q75 0 118.5 -45.5t43.5 -100.5q0 -54 -44 -98.5t-118 -44.5q-89 0 -137 64q-46 -64 -136 -64zM396 1128v-1128h-263v1128h263z" />
    <glyph glyph-name="ntilde" unicode="&#xf1;" vert-adv-y="2275" 
d="M730 1293q-71 0 -159 41q-8 3 -19.5 8.5t-21 9.5t-17.5 7q-24 10 -39 10h-3v-1q-4 -6 -7 -24q-1 -5 -2.5 -15t-2.5 -15l-3 -15h-257l12 78q14 91 81 154.5t186 63.5q72 0 162 -41q8 -3 28.5 -12.5t30.5 -13.5q26 -10 35 -10h5q4 9 7 25q2 21 5 31l4 15h251l-9 -78
q-12 -90 -80.5 -154t-186.5 -64zM371 699v-699h-261v1128h261v-36q105 36 233 36q121 0 212 -29t161 -99q122 -121 122 -308v-692h-262v666q0 56 -10 97t-34.5 75.5t-71.5 52t-117 17.5q-124 0 -176 -55q-26 -27 -41.5 -71t-15.5 -83z" />
    <glyph glyph-name="ograve" unicode="&#xf2;" horiz-adv-x="1373" vert-adv-y="2275" 
d="M733 1668l194 -466h-265l-221 466h292zM687 -24q-115 0 -212.5 36.5t-163 95.5t-112.5 135t-68 154.5t-21 155.5t21.5 155.5t68 154t112.5 134.5t163 95t212 36q114 0 211.5 -36t163 -95t112 -134.5t68 -154t21.5 -155.5t-21 -155.5t-67.5 -154.5t-112.5 -135t-163 -95.5
t-212 -36.5zM687 200q80 0 153 42q81 45 120.5 131.5t39.5 179.5q0 92 -40 179.5t-120 132.5q-75 41 -153 41q-80 0 -154 -42q-80 -44 -120 -132t-40 -179q0 -93 39.5 -179t121.5 -132q73 -42 153 -42z" />
    <glyph glyph-name="oacute" unicode="&#xf3;" horiz-adv-x="1373" vert-adv-y="2275" 
d="M932 1668l-219 -466h-264l193 466h290zM687 -24q-115 0 -212.5 36.5t-163 95.5t-112.5 135t-68 154.5t-21 155.5t21.5 155.5t68 154t112.5 134.5t163 95t212 36q114 0 211.5 -36t163 -95t112 -134.5t68 -154t21.5 -155.5t-21 -155.5t-67.5 -154.5t-112.5 -135t-163 -95.5
t-212 -36.5zM687 200q80 0 153 42q81 45 120.5 131.5t39.5 179.5q0 92 -40 179.5t-120 132.5q-75 41 -153 41q-80 0 -154 -42q-80 -44 -120 -132t-40 -179q0 -93 39.5 -179t121.5 -132q73 -42 153 -42z" />
    <glyph glyph-name="ocircumflex" unicode="&#xf4;" horiz-adv-x="1373" vert-adv-y="2275" 
d="M1023 1158l-336 164l-335 -165v258l335 167l336 -167v-257zM687 -24q-115 0 -212.5 36.5t-163 95.5t-112.5 135t-68 154.5t-21 155.5t21.5 155.5t68 154t112.5 134.5t163 95t212 36q114 0 211.5 -36t163 -95t112 -134.5t68 -154t21.5 -155.5t-21 -155.5t-67.5 -154.5
t-112.5 -135t-163 -95.5t-212 -36.5zM687 200q80 0 153 42q81 45 120.5 131.5t39.5 179.5q0 92 -40 179.5t-120 132.5q-75 41 -153 41q-80 0 -154 -42q-80 -44 -120 -132t-40 -179q0 -93 39.5 -179t121.5 -132q73 -42 153 -42z" />
    <glyph glyph-name="otilde" unicode="&#xf5;" horiz-adv-x="1373" vert-adv-y="2275" 
d="M812 1293q-70 0 -158 41q-8 3 -19.5 8.5t-21 9.5t-17.5 7q-26 10 -40 10h-4v-2t-1 -2l-3 -17q-4 -26 -4 -33l-3 -16h-257l2 20l7 58q12 89 80.5 153.5t186.5 64.5q72 0 162 -41q11 -4 30.5 -13t28.5 -13q26 -10 35 -10h5q3 5 7 25q2 21 5 31l4 15h248l-2 -36
q-3 -48 -17.5 -90.5t-43.5 -82.5t-83 -63.5t-127 -23.5zM687 -24q-115 0 -212.5 36.5t-163 95.5t-112.5 135t-68 154.5t-21 155.5t21.5 155.5t68 154t112.5 134.5t163 95t212 36q114 0 211.5 -36t163 -95t112 -134.5t68 -154t21.5 -155.5t-21 -155.5t-67.5 -154.5
t-112.5 -135t-163 -95.5t-212 -36.5zM687 200q80 0 153 42q81 45 120.5 131.5t39.5 179.5q0 92 -40 179.5t-120 132.5q-75 41 -153 41q-80 0 -154 -42q-80 -44 -120 -132t-40 -179q0 -93 39.5 -179t121.5 -132q73 -42 153 -42z" />
    <glyph glyph-name="odieresis" unicode="&#xf6;" horiz-adv-x="1373" vert-adv-y="2275" 
d="M483 1241q-78 0 -122 45.5t-44 102.5t44 103t122 46q77 0 121 -46.5t44 -102.5q0 -55 -45 -101.5t-120 -46.5zM886 1241q-78 0 -122 45.5t-44 102.5t44 103t122 46q77 0 120.5 -46.5t43.5 -102.5t-44 -102t-120 -46zM687 -24q-115 0 -212.5 36.5t-163 95.5t-112.5 135
t-68 154.5t-21 155.5t21.5 155.5t68 154t112.5 134.5t163 95t212 36q114 0 211.5 -36t163 -95t112 -134.5t68 -154t21.5 -155.5t-21 -155.5t-67.5 -154.5t-112.5 -135t-163 -95.5t-212 -36.5zM687 200q80 0 153 42q81 45 120.5 131.5t39.5 179.5q0 92 -40 179.5t-120 132.5
q-75 41 -153 41q-80 0 -154 -42q-80 -44 -120 -132t-40 -179q0 -93 39.5 -179t121.5 -132q73 -42 153 -42z" />
    <glyph glyph-name="divide" unicode="&#xf7;" horiz-adv-x="1335" vert-adv-y="2275" 
d="M668 711q-77 0 -121.5 45t-44.5 102q0 58 44 103t122 45q77 0 121 -46t44 -102q0 -55 -44.5 -101t-120.5 -46zM1265 667v-229h-1194v229h1194zM668 100q-77 0 -121.5 45t-44.5 102q0 58 44 103t122 45q77 0 121 -46t44 -102q0 -55 -44.5 -101t-120.5 -46z" />
    <glyph glyph-name="oslash" unicode="&#xf8;" horiz-adv-x="1373" vert-adv-y="2275" 
d="M634 -21l-73 -219h-278l100 299q-135 82 -204 217t-69 277q0 77 21.5 155.5t68 154t112.5 134.5t163 95t212 36q33 0 49 -1l76 230h279l-104 -309q78 -46 128 -102q71 -78 109.5 -184.5t38.5 -208.5q0 -77 -21 -155.5t-67.5 -154.5t-112.5 -135t-163 -95.5t-212 -36.5
q-27 0 -53 3zM461 299l202 606q-66 -6 -130 -40q-80 -45 -120 -133t-40 -179q0 -67 22 -135.5t66 -118.5zM921 795l-12 15l-203 -610q70 4 134 42q82 46 121 131.5t39 179.5q0 144 -79 242z" />
    <glyph glyph-name="ugrave" unicode="&#xf9;" vert-adv-y="2275" 
d="M650 1668l195 -466h-266l-220 466h291zM604 0q-245 0 -373 128q-121 120 -121 309v691h261v-666q0 -56 10 -97t35 -75t72 -52t116 -18q122 0 177 56q24 26 39.5 71.5t15.5 82.5v698h263v-1128h-263v37q-102 -37 -232 -37z" />
    <glyph glyph-name="uacute" unicode="&#xfa;" vert-adv-y="2275" 
d="M849 1668l-220 -466h-264l195 466h289zM604 0q-245 0 -373 128q-121 120 -121 309v691h261v-666q0 -56 10 -97t35 -75t72 -52t116 -18q122 0 177 56q24 26 39.5 71.5t15.5 82.5v698h263v-1128h-263v37q-102 -37 -232 -37z" />
    <glyph glyph-name="ucircumflex" unicode="&#xfb;" vert-adv-y="2275" 
d="M940 1158l-336 164l-336 -165v258l336 167l336 -167v-257zM604 0q-245 0 -373 128q-121 120 -121 309v691h261v-666q0 -56 10 -97t35 -75t72 -52t116 -18q122 0 177 56q24 26 39.5 71.5t15.5 82.5v698h263v-1128h-263v37q-102 -37 -232 -37z" />
    <glyph glyph-name="udieresis" unicode="&#xfc;" vert-adv-y="2275" 
d="M399 1251q-78 0 -122 45.5t-44 102.5t44 102.5t122 45.5q77 0 120.5 -46t43.5 -102q0 -55 -44.5 -101.5t-119.5 -46.5zM801 1251q-78 0 -121.5 45.5t-43.5 102.5t43.5 102.5t121.5 45.5q77 0 121 -46t44 -102t-44 -102t-121 -46zM604 0q-245 0 -373 128
q-121 120 -121 309v691h261v-666q0 -56 10 -97t35 -75t72 -52t116 -18q122 0 177 56q24 26 39.5 71.5t15.5 82.5v698h263v-1128h-263v37q-102 -37 -232 -37z" />
    <glyph glyph-name="yacute" unicode="&#xfd;" horiz-adv-x="1444" vert-adv-y="2275" 
d="M967 1668l-220 -466h-264l193 466h291zM1333 1130l-683 -1549h-278l211 488l-473 1061h285l326 -749l326 749h286z" />
    <glyph glyph-name="ydieresis" unicode="&#xff;" horiz-adv-x="1444" vert-adv-y="2275" 
d="M533 1268q-78 0 -122 45.5t-44 102.5t44 103t122 46q77 0 121 -46.5t44 -102.5q0 -55 -45 -101.5t-120 -46.5zM936 1268q-78 0 -122 45.5t-44 102.5t44 103t122 46q77 0 121 -46.5t44 -102.5q0 -55 -44.5 -101.5t-120.5 -46.5zM1333 1130l-683 -1549h-278l211 488
l-473 1061h285l326 -749l326 749h286z" />
    <glyph glyph-name="Amacron" unicode="&#x100;" horiz-adv-x="1770" vert-adv-y="2275" 
d="M1272 1830v-223h-773v223h773zM563 385l-167 -385h-286l664 1500h225l661 -1500h-289l-167 385h-641zM1103 615l-220 503l-219 -503h439z" />
    <glyph glyph-name="amacron" unicode="&#x101;" horiz-adv-x="1243" vert-adv-y="2275" 
d="M1008 1460v-224h-772v224h772zM567 -24q-216 0 -336.5 97.5t-120.5 263.5q0 57 16.5 109.5t50.5 98.5t91 81t132 52q49 11 107 16q35 3 105 7l259 16q-5 95 -58.5 143t-174.5 48q-125 0 -178 -49.5t-55 -151.5h-261q2 187 126.5 304t367.5 117q126 0 223 -34t155.5 -94
t87.5 -136.5t29 -167.5v-696h-262v44q-130 -68 -304 -68zM567 198q143 0 223.5 68.5t80.5 181.5v51l-144 -9q-103 -6 -151 -11q-97 -10 -124 -21q-79 -33 -79 -121q0 -72 48 -105.5t146 -33.5z" />
    <glyph glyph-name="Abreve" unicode="&#x102;" horiz-adv-x="1770" vert-adv-y="2275" 
d="M885 1597q-163 0 -251 88t-88 212v70h257v-19v-15v-18.5v-16.5q0 -23 8 -42q15 -37 74 -37q86 0 86 78v70h254v-70q0 -124 -88.5 -212t-251.5 -88zM563 385l-167 -385h-286l664 1500h225l661 -1500h-289l-167 385h-641zM1103 615l-220 503l-219 -503h439z" />
    <glyph glyph-name="abreve" unicode="&#x103;" horiz-adv-x="1243" vert-adv-y="2275" 
d="M622 1226q-163 0 -252 88t-89 212v69h257v-18v-50q2 -27 8 -44q17 -38 76 -38q58 0 75 39q6 15 8 43v68h255v-69q0 -125 -87.5 -212.5t-250.5 -87.5zM567 -24q-216 0 -336.5 97.5t-120.5 263.5q0 57 16.5 109.5t50.5 98.5t91 81t132 52q49 11 107 16q35 3 105 7l259 16
q-5 95 -58.5 143t-174.5 48q-125 0 -178 -49.5t-55 -151.5h-261q2 187 126.5 304t367.5 117q126 0 223 -34t155.5 -94t87.5 -136.5t29 -167.5v-696h-262v44q-130 -68 -304 -68zM567 198q143 0 223.5 68.5t80.5 181.5v51l-144 -9q-103 -6 -151 -11q-97 -10 -124 -21
q-79 -33 -79 -121q0 -72 48 -105.5t146 -33.5z" />
    <glyph glyph-name="Cacute" unicode="&#x106;" horiz-adv-x="1763" vert-adv-y="2275" 
d="M1119 2039l-220 -465h-263l193 465h290zM890 -27q-139 0 -265 39q-92 28 -169 75.5t-132.5 106.5t-97.5 127t-67 141.5t-37 145t-12 142.5q0 92 20.5 184.5t62.5 184t115 172t170 133.5q191 105 412 105q133 0 250 -34.5t203.5 -93.5t152 -138t103.5 -168t51 -183l3 -21
h-265l-5 14q-1 3 -12 41q-16 64 -43 112q-60 112 -174 179t-264 67q-104 0 -201 -39q-83 -35 -145 -93t-97 -128.5t-51.5 -144t-16.5 -149.5q0 -75 17 -148.5t51.5 -144.5t96.5 -129.5t144 -91.5q92 -38 202 -38q151 0 264.5 66t174.5 179q26 49 42 110q2 8 4.5 22.5
t3.5 18.5l4 15h270l-3 -20q-13 -95 -51 -183.5t-103.5 -167.5t-152 -137.5t-203.5 -93t-250 -34.5z" />
    <glyph glyph-name="cacute" unicode="&#x107;" horiz-adv-x="1377" vert-adv-y="2275" 
d="M923 1668l-219 -466h-264l193 466h290zM687 -23q-115 0 -212 36t-163 95t-112.5 135t-68 154.5t-21.5 155.5t21.5 155.5t68 154t112.5 134.5t163 95t212 36q175 0 303 -80.5t199 -209.5q36 -67 72 -203l5 -22h-270l-3 16q-34 168 -153 236q-74 41 -153 41q-80 0 -154 -42
q-80 -44 -120 -132t-40 -179t40 -179t120 -132q75 -41 154 -41q80 0 153 41q114 63 153 235l4 15h269l-15 -61q-18 -68 -47 -130.5t-77 -122.5t-108.5 -103.5t-146 -70.5t-185.5 -27z" />
    <glyph glyph-name="Ccircumflex" unicode="&#x108;" horiz-adv-x="1763" vert-adv-y="2275" 
d="M1210 1529l-336 164l-334 -164v259l334 165l336 -165v-259zM890 -27q-139 0 -265 39q-92 28 -169 75.5t-132.5 106.5t-97.5 127t-67 141.5t-37 145t-12 142.5q0 92 20.5 184.5t62.5 184t115 172t170 133.5q191 105 412 105q133 0 250 -34.5t203.5 -93.5t152 -138
t103.5 -168t51 -183l3 -21h-265l-5 14q-1 3 -12 41q-16 64 -43 112q-60 112 -174 179t-264 67q-104 0 -201 -39q-83 -35 -145 -93t-97 -128.5t-51.5 -144t-16.5 -149.5q0 -75 17 -148.5t51.5 -144.5t96.5 -129.5t144 -91.5q92 -38 202 -38q151 0 264.5 66t174.5 179
q26 49 42 110q2 8 4.5 22.5t3.5 18.5l4 15h270l-3 -20q-13 -95 -51 -183.5t-103.5 -167.5t-152 -137.5t-203.5 -93t-250 -34.5z" />
    <glyph glyph-name="ccircumflex" unicode="&#x109;" horiz-adv-x="1377" vert-adv-y="2275" 
d="M1014 1158l-336 164l-334 -165v258l334 167l336 -167v-257zM687 -23q-115 0 -212 36t-163 95t-112.5 135t-68 154.5t-21.5 155.5t21.5 155.5t68 154t112.5 134.5t163 95t212 36q175 0 303 -80.5t199 -209.5q36 -67 72 -203l5 -22h-270l-3 16q-34 168 -153 236
q-74 41 -153 41q-80 0 -154 -42q-80 -44 -120 -132t-40 -179t40 -179t120 -132q75 -41 154 -41q80 0 153 41q114 63 153 235l4 15h269l-15 -61q-18 -68 -47 -130.5t-77 -122.5t-108.5 -103.5t-146 -70.5t-185.5 -27z" />
    <glyph glyph-name="Cdotaccent" unicode="&#x10a;" horiz-adv-x="1763" vert-adv-y="2275" 
d="M875 1659q-75 0 -118.5 44t-43.5 99t43.5 100t118.5 45q74 0 118 -45.5t44 -99.5t-44 -98.5t-118 -44.5zM890 -27q-139 0 -265 39q-92 28 -169 75.5t-132.5 106.5t-97.5 127t-67 141.5t-37 145t-12 142.5q0 92 20.5 184.5t62.5 184t115 172t170 133.5q191 105 412 105
q133 0 250 -34.5t203.5 -93.5t152 -138t103.5 -168t51 -183l3 -21h-265l-5 14q-1 3 -12 41q-16 64 -43 112q-60 112 -174 179t-264 67q-104 0 -201 -39q-83 -35 -145 -93t-97 -128.5t-51.5 -144t-16.5 -149.5q0 -75 17 -148.5t51.5 -144.5t96.5 -129.5t144 -91.5
q92 -38 202 -38q151 0 264.5 66t174.5 179q26 49 42 110q2 8 4.5 22.5t3.5 18.5l4 15h270l-3 -20q-13 -95 -51 -183.5t-103.5 -167.5t-152 -137.5t-203.5 -93t-250 -34.5z" />
    <glyph glyph-name="cdotaccent" unicode="&#x10b;" horiz-adv-x="1377" vert-adv-y="2275" 
d="M679 1288q-76 0 -118.5 44t-42.5 99t43 99.5t118 44.5q73 0 117 -45t44 -99q0 -55 -43 -99t-118 -44zM687 -23q-115 0 -212 36t-163 95t-112.5 135t-68 154.5t-21.5 155.5t21.5 155.5t68 154t112.5 134.5t163 95t212 36q175 0 303 -80.5t199 -209.5q36 -67 72 -203l5 -22
h-270l-3 16q-34 168 -153 236q-74 41 -153 41q-80 0 -154 -42q-80 -44 -120 -132t-40 -179t40 -179t120 -132q75 -41 154 -41q80 0 153 41q114 63 153 235l4 15h269l-15 -61q-18 -68 -47 -130.5t-77 -122.5t-108.5 -103.5t-146 -70.5t-185.5 -27z" />
    <glyph glyph-name="Ccaron" unicode="&#x10c;" horiz-adv-x="1763" vert-adv-y="2275" 
d="M1210 2014v-257l-336 -166l-334 166v257l334 -163zM890 -27q-139 0 -265 39q-92 28 -169 75.5t-132.5 106.5t-97.5 127t-67 141.5t-37 145t-12 142.5q0 92 20.5 184.5t62.5 184t115 172t170 133.5q191 105 412 105q133 0 250 -34.5t203.5 -93.5t152 -138t103.5 -168
t51 -183l3 -21h-265l-5 14q-1 3 -12 41q-16 64 -43 112q-60 112 -174 179t-264 67q-104 0 -201 -39q-83 -35 -145 -93t-97 -128.5t-51.5 -144t-16.5 -149.5q0 -75 17 -148.5t51.5 -144.5t96.5 -129.5t144 -91.5q92 -38 202 -38q151 0 264.5 66t174.5 179q26 49 42 110
q2 8 4.5 22.5t3.5 18.5l4 15h270l-3 -20q-13 -95 -51 -183.5t-103.5 -167.5t-152 -137.5t-203.5 -93t-250 -34.5z" />
    <glyph glyph-name="ccaron" unicode="&#x10d;" horiz-adv-x="1377" vert-adv-y="2275" 
d="M1014 1643v-257l-336 -168l-334 168v257l334 -164zM687 -23q-115 0 -212 36t-163 95t-112.5 135t-68 154.5t-21.5 155.5t21.5 155.5t68 154t112.5 134.5t163 95t212 36q175 0 303 -80.5t199 -209.5q36 -67 72 -203l5 -22h-270l-3 16q-34 168 -153 236q-74 41 -153 41
q-80 0 -154 -42q-80 -44 -120 -132t-40 -179t40 -179t120 -132q75 -41 154 -41q80 0 153 41q114 63 153 235l4 15h269l-15 -61q-18 -68 -47 -130.5t-77 -122.5t-108.5 -103.5t-146 -70.5t-185.5 -27z" />
    <glyph glyph-name="Emacron" unicode="&#x112;" horiz-adv-x="1315" vert-adv-y="2275" 
d="M1044 1830v-223h-774v223h774zM1205 230v-230h-1095v1500h1095v-231h-831v-394h699v-230h-699v-415h831z" />
    <glyph glyph-name="emacron" unicode="&#x113;" horiz-adv-x="1402" vert-adv-y="2275" 
d="M1088 1460v-224h-773v224h773zM701 -24q-116 0 -215 35.5t-167 94t-116 134t-70.5 155t-22.5 158.5t22.5 158.5t70.5 155t116 133.5t167 93t215 35t215 -35.5t167 -93.5t116 -133t70.5 -154.5t22.5 -158.5q0 -18 -7 -79l-3 -17h-898q26 -109 107.5 -183t209.5 -74
q178 0 272 149q9 13 21 41q4 8 10 22.5t9 21.5l3 6l245 -75q-16 -58 -66 -134q-76 -115 -204 -185t-290 -70zM394 682h614q-31 97 -110 160.5t-197 63.5t-196 -63t-111 -161z" />
    <glyph glyph-name="Ebreve" unicode="&#x114;" horiz-adv-x="1315" vert-adv-y="2275" 
d="M658 1597q-83 0 -149.5 25.5t-107 68t-61.5 95.5t-21 111v70h255v-19q0 -33 1 -49q0 -24 8 -43q15 -37 75 -37q84 0 84 78v70h256v-70q0 -124 -88.5 -212t-251.5 -88zM1205 230v-230h-1095v1500h1095v-231h-831v-394h699v-230h-699v-415h831z" />
    <glyph glyph-name="ebreve" unicode="&#x115;" horiz-adv-x="1402" vert-adv-y="2275" 
d="M701 1226q-163 0 -251.5 88t-88.5 212v69h258v-18v-50q2 -28 8 -43q15 -39 74 -39q85 0 85 81v69h254v-69q0 -124 -88 -212t-251 -88zM701 -24q-116 0 -215 35.5t-167 94t-116 134t-70.5 155t-22.5 158.5t22.5 158.5t70.5 155t116 133.5t167 93t215 35t215 -35.5
t167 -93.5t116 -133t70.5 -154.5t22.5 -158.5q0 -18 -7 -79l-3 -17h-898q26 -109 107.5 -183t209.5 -74q178 0 272 149q9 13 21 41q4 8 10 22.5t9 21.5l3 6l245 -75q-16 -58 -66 -134q-76 -115 -204 -185t-290 -70zM394 682h614q-31 97 -110 160.5t-197 63.5t-196 -63
t-111 -161z" />
    <glyph glyph-name="Edotaccent" unicode="&#x116;" horiz-adv-x="1315" vert-adv-y="2275" 
d="M658 1659q-76 0 -119 43.5t-43 99.5q0 55 43.5 100t118.5 45q74 0 118.5 -45.5t44.5 -99.5t-44.5 -98.5t-118.5 -44.5zM1205 230v-230h-1095v1500h1095v-231h-831v-394h699v-230h-699v-415h831z" />
    <glyph glyph-name="edotaccent" unicode="&#x117;" horiz-adv-x="1402" vert-adv-y="2275" 
d="M701 1288q-76 0 -118.5 43.5t-42.5 99.5q0 54 43.5 99t117.5 45t117.5 -45t43.5 -99q0 -55 -42.5 -99t-118.5 -44zM701 -24q-116 0 -215 35.5t-167 94t-116 134t-70.5 155t-22.5 158.5t22.5 158.5t70.5 155t116 133.5t167 93t215 35t215 -35.5t167 -93.5t116 -133
t70.5 -154.5t22.5 -158.5q0 -18 -7 -79l-3 -17h-898q26 -109 107.5 -183t209.5 -74q178 0 272 149q9 13 21 41q4 8 10 22.5t9 21.5l3 6l245 -75q-16 -58 -66 -134q-76 -115 -204 -185t-290 -70zM394 682h614q-31 97 -110 160.5t-197 63.5t-196 -63t-111 -161z" />
    <glyph glyph-name="Ecaron" unicode="&#x11a;" horiz-adv-x="1315" vert-adv-y="2275" 
d="M993 2014v-257l-337 -166l-333 166v257l334 -163zM1205 230v-230h-1095v1500h1095v-231h-831v-394h699v-230h-699v-415h831z" />
    <glyph glyph-name="ecaron" unicode="&#x11b;" horiz-adv-x="1402" vert-adv-y="2275" 
d="M1037 1643v-257l-336 -168l-335 168v257l335 -164zM701 -24q-116 0 -215 35.5t-167 94t-116 134t-70.5 155t-22.5 158.5t22.5 158.5t70.5 155t116 133.5t167 93t215 35t215 -35.5t167 -93.5t116 -133t70.5 -154.5t22.5 -158.5q0 -18 -7 -79l-3 -17h-898
q26 -109 107.5 -183t209.5 -74q178 0 272 149q9 13 21 41q4 8 10 22.5t9 21.5l3 6l245 -75q-16 -58 -66 -134q-76 -115 -204 -185t-290 -70zM394 682h614q-31 97 -110 160.5t-197 63.5t-196 -63t-111 -161z" />
    <glyph glyph-name="Gcircumflex" unicode="&#x11c;" horiz-adv-x="1764" vert-adv-y="2275" 
d="M1208 1529l-336 164l-334 -164v259l334 165l336 -165v-259zM1374 627h-566v230h827v-857h-257v139q-194 -166 -488 -166q-139 0 -265 39q-92 28 -169 75.5t-132.5 106.5t-97.5 126.5t-67 141t-37 145.5t-12 143q0 92 20.5 184.5t62 184.5t115 172t170.5 133
q184 101 393 105h10h9q130 -3 243.5 -38.5t198 -94.5t148.5 -137.5t101.5 -166t49.5 -180.5l3 -21h-265l-5 14q-1 3 -12 41q-16 64 -43 112q-59 111 -170 177.5t-258 68.5q-97 -1 -193 -39q-82 -33 -144 -91.5t-97 -130t-51.5 -145t-16.5 -148.5t17 -148.5t51.5 -144.5
t96.5 -129.5t144 -91.5q94 -38 202 -38q100 0 188 33q89 33 154.5 98.5t98.5 140t43 157.5z" />
    <glyph glyph-name="gcircumflex" unicode="&#x11d;" horiz-adv-x="1371" vert-adv-y="2275" 
d="M1022 1158l-336 164l-335 -165v258l335 167l336 -167v-257zM711 -419q-137 0 -249 44q-124 49 -193.5 130.5t-103.5 194.5l-12 42h276q6 -53 55 -104q81 -85 231 -85q134 0 205.5 74.5t79.5 186.5q-138 -88 -313 -88q-115 0 -212 36.5t-163 95.5t-112.5 135t-68 154.5
t-21.5 155.5t21.5 155.5t68 154t112.5 134.5t163 95t212 36q176 0 314 -87v65h260v-985q0 -79 -18 -154t-59.5 -146t-103.5 -123.5t-157 -84.5t-212 -32zM687 200q80 0 153 42q81 45 120.5 131.5t39.5 179.5q0 92 -40 179.5t-120 132.5q-75 41 -153 41q-80 0 -154 -42
q-80 -44 -120 -132t-40 -179q0 -93 39.5 -179t121.5 -132q73 -42 153 -42z" />
    <glyph glyph-name="Gbreve" unicode="&#x11e;" horiz-adv-x="1764" vert-adv-y="2275" 
d="M873 1597q-163 0 -251 87.5t-88 212.5v70h256v-19v-49q2 -28 8 -43q15 -37 75 -37q84 0 84 78v70h256v-70q0 -124 -88.5 -212t-251.5 -88zM1374 627h-566v230h827v-857h-257v139q-194 -166 -488 -166q-139 0 -265 39q-92 28 -169 75.5t-132.5 106.5t-97.5 126.5t-67 141
t-37 145.5t-12 143q0 92 20.5 184.5t62 184.5t115 172t170.5 133q184 101 393 105h10h9q130 -3 243.5 -38.5t198 -94.5t148.5 -137.5t101.5 -166t49.5 -180.5l3 -21h-265l-5 14q-1 3 -12 41q-16 64 -43 112q-59 111 -170 177.5t-258 68.5q-97 -1 -193 -39
q-82 -33 -144 -91.5t-97 -130t-51.5 -145t-16.5 -148.5t17 -148.5t51.5 -144.5t96.5 -129.5t144 -91.5q94 -38 202 -38q100 0 188 33q89 33 154.5 98.5t98.5 140t43 157.5z" />
    <glyph glyph-name="gbreve" unicode="&#x11f;" horiz-adv-x="1371" vert-adv-y="2275" 
d="M686 1226q-163 0 -251 88t-88 212v69h256v-18v-50q2 -29 9 -43q15 -39 74 -39t75 38q7 16 9 44v50v18h256v-69q0 -125 -88.5 -212.5t-251.5 -87.5zM711 -419q-137 0 -249 44q-124 49 -193.5 130.5t-103.5 194.5l-12 42h276q6 -53 55 -104q81 -85 231 -85
q134 0 205.5 74.5t79.5 186.5q-138 -88 -313 -88q-115 0 -212 36.5t-163 95.5t-112.5 135t-68 154.5t-21.5 155.5t21.5 155.5t68 154t112.5 134.5t163 95t212 36q176 0 314 -87v65h260v-985q0 -79 -18 -154t-59.5 -146t-103.5 -123.5t-157 -84.5t-212 -32zM687 200
q80 0 153 42q81 45 120.5 131.5t39.5 179.5q0 92 -40 179.5t-120 132.5q-75 41 -153 41q-80 0 -154 -42q-80 -44 -120 -132t-40 -179q0 -93 39.5 -179t121.5 -132q73 -42 153 -42z" />
    <glyph glyph-name="Gdotaccent" unicode="&#x120;" horiz-adv-x="1764" vert-adv-y="2275" 
d="M873 1659q-75 0 -118.5 44t-43.5 99t43.5 100t118.5 45q74 0 118 -45.5t44 -99.5t-44 -98.5t-118 -44.5zM1374 627h-566v230h827v-857h-257v139q-194 -166 -488 -166q-139 0 -265 39q-92 28 -169 75.5t-132.5 106.5t-97.5 126.5t-67 141t-37 145.5t-12 143
q0 92 20.5 184.5t62 184.5t115 172t170.5 133q184 101 393 105h10h9q130 -3 243.5 -38.5t198 -94.5t148.5 -137.5t101.5 -166t49.5 -180.5l3 -21h-265l-5 14q-1 3 -12 41q-16 64 -43 112q-59 111 -170 177.5t-258 68.5q-97 -1 -193 -39q-82 -33 -144 -91.5t-97 -130
t-51.5 -145t-16.5 -148.5t17 -148.5t51.5 -144.5t96.5 -129.5t144 -91.5q94 -38 202 -38q100 0 188 33q89 33 154.5 98.5t98.5 140t43 157.5z" />
    <glyph glyph-name="gdotaccent" unicode="&#x121;" horiz-adv-x="1371" vert-adv-y="2275" 
d="M686 1288q-76 0 -119 43.5t-43 99.5q0 54 43.5 99t118.5 45q73 0 116.5 -45t43.5 -99q0 -55 -42.5 -99t-117.5 -44zM711 -419q-137 0 -249 44q-124 49 -193.5 130.5t-103.5 194.5l-12 42h276q6 -53 55 -104q81 -85 231 -85q134 0 205.5 74.5t79.5 186.5
q-138 -88 -313 -88q-115 0 -212 36.5t-163 95.5t-112.5 135t-68 154.5t-21.5 155.5t21.5 155.5t68 154t112.5 134.5t163 95t212 36q176 0 314 -87v65h260v-985q0 -79 -18 -154t-59.5 -146t-103.5 -123.5t-157 -84.5t-212 -32zM687 200q80 0 153 42q81 45 120.5 131.5
t39.5 179.5q0 92 -40 179.5t-120 132.5q-75 41 -153 41q-80 0 -154 -42q-80 -44 -120 -132t-40 -179q0 -93 39.5 -179t121.5 -132q73 -42 153 -42z" />
    <glyph glyph-name="Itilde" unicode="&#x128;" horiz-adv-x="818" vert-adv-y="2275" 
d="M534 1665q-68 0 -159 40q-9 4 -28.5 13t-29.5 13q-22 9 -37 9h-6q-1 -2 -5 -23q-1 -14 -5 -31l-3 -15h-256l12 78q7 43 25.5 80t49.5 69t80.5 50.5t111.5 18.5q67 0 162 -41q33 -16 58 -26q26 -10 34 -10h4l1 2l1 2l5 18l10 35l4 15h250l-12 -79q-14 -91 -80.5 -154.5
t-186.5 -63.5zM701 224v-224h-583v224h158v1052h-158v224h583v-224h-159v-1052h159z" />
    <glyph glyph-name="itilde" unicode="&#x129;" horiz-adv-x="546" vert-adv-y="2275" 
d="M398 1293q-71 0 -159 41q-8 3 -19.5 8.5t-21 9.5t-17.5 7q-26 10 -37 10h-6q0 -1 -5 -24q-1 -14 -5 -31l-3 -15h-256l12 78q14 92 80.5 155t186.5 63q71 0 161 -41q8 -3 28.5 -12.5t30.5 -13.5q24 -10 34 -10h5v5q6 17 14 51l3 15h253l-12 -78q-14 -91 -81 -154.5
t-186 -63.5zM403 1128v-1128h-262v1128h262z" />
    <glyph glyph-name="Imacron" unicode="&#x12a;" horiz-adv-x="797" vert-adv-y="2275" 
d="M785 1830v-223h-773v223h773zM691 224v-224h-585v224h159v1052h-159v224h585v-224h-159v-1052h159z" />
    <glyph glyph-name="imacron" unicode="&#x12b;" horiz-adv-x="525" vert-adv-y="2275" 
d="M649 1460v-224h-773v224h773zM394 1128v-1128h-264v1128h264z" />
    <glyph glyph-name="dotlessi" unicode="&#x131;" horiz-adv-x="546" vert-adv-y="1800" 
d="M402 1128v-1128h-261v1128h261z" />
    <glyph glyph-name="Nacute" unicode="&#x143;" horiz-adv-x="1489" vert-adv-y="2275" 
d="M990 2039l-220 -465h-265l193 465h292zM374 1038v-1038h-264v1500h238l766 -1038v1038h264v-1500h-238z" />
    <glyph glyph-name="nacute" unicode="&#x144;" vert-adv-y="2275" 
d="M849 1668l-220 -466h-264l195 466h289zM371 699v-699h-261v1128h261v-36q105 36 233 36q121 0 212 -29t161 -99q122 -121 122 -308v-692h-262v666q0 56 -10 97t-34.5 75.5t-71.5 52t-117 17.5q-124 0 -176 -55q-26 -27 -41.5 -71t-15.5 -83z" />
    <glyph glyph-name="Ncaron" unicode="&#x147;" horiz-adv-x="1489" vert-adv-y="2275" 
d="M1080 2014v-257l-336 -166l-334 166v257l334 -163zM374 1038v-1038h-264v1500h238l766 -1038v1038h264v-1500h-238z" />
    <glyph glyph-name="ncaron" unicode="&#x148;" vert-adv-y="2275" 
d="M940 1643v-257l-336 -168l-336 168v257l336 -164zM371 699v-699h-261v1128h261v-36q105 36 233 36q121 0 212 -29t161 -99q122 -121 122 -308v-692h-262v666q0 56 -10 97t-34.5 75.5t-71.5 52t-117 17.5q-124 0 -176 -55q-26 -27 -41.5 -71t-15.5 -83z" />
    <glyph glyph-name="Omacron" unicode="&#x14c;" horiz-adv-x="1825" vert-adv-y="2275" 
d="M1299 1830v-223h-773v223h773zM912 -27q-159 0 -294 47t-227 124.5t-156.5 179t-94.5 209.5t-30 217t30 217.5t94.5 210.5t156.5 179.5t227 124.5t294 47q160 0 295 -47t227 -124.5t156.5 -179t94 -210t29.5 -218.5q0 -91 -21.5 -181.5t-63.5 -178t-109.5 -162.5
t-154 -132.5t-203 -90t-250.5 -32.5zM912 198q108 0 198 33t150.5 87.5t103 127t61.5 149t19 155.5q0 76 -18 150.5t-55 145t-101.5 128.5t-148.5 90q-100 40 -209 40q-104 0 -206 -40q-85 -33 -150 -90.5t-102.5 -128t-56 -144.5t-18.5 -151q0 -76 18.5 -150.5t56 -144.5
t102.5 -127.5t150 -91.5q95 -38 206 -38z" />
    <glyph glyph-name="omacron" unicode="&#x14d;" horiz-adv-x="1373" vert-adv-y="2275" 
d="M1073 1460v-224h-773v224h773zM687 -24q-115 0 -212.5 36.5t-163 95.5t-112.5 135t-68 154.5t-21 155.5t21.5 155.5t68 154t112.5 134.5t163 95t212 36q114 0 211.5 -36t163 -95t112 -134.5t68 -154t21.5 -155.5t-21 -155.5t-67.5 -154.5t-112.5 -135t-163 -95.5
t-212 -36.5zM687 200q80 0 153 42q81 45 120.5 131.5t39.5 179.5q0 92 -40 179.5t-120 132.5q-75 41 -153 41q-80 0 -154 -42q-80 -44 -120 -132t-40 -179q0 -93 39.5 -179t121.5 -132q73 -42 153 -42z" />
    <glyph glyph-name="Obreve" unicode="&#x14e;" horiz-adv-x="1825" vert-adv-y="2275" 
d="M912 1597q-163 0 -251 88t-88 212v70h257v-19v-49q2 -28 8 -43q15 -37 74 -37q85 0 85 78v70h255v-70q0 -59 -21 -112t-61.5 -95.5t-107 -67.5t-150.5 -25zM912 -27q-159 0 -294 47t-227 124.5t-156.5 179t-94.5 209.5t-30 217t30 217.5t94.5 210.5t156.5 179.5
t227 124.5t294 47q160 0 295 -47t227 -124.5t156.5 -179t94 -210t29.5 -218.5q0 -91 -21.5 -181.5t-63.5 -178t-109.5 -162.5t-154 -132.5t-203 -90t-250.5 -32.5zM912 198q108 0 198 33t150.5 87.5t103 127t61.5 149t19 155.5q0 76 -18 150.5t-55 145t-101.5 128.5
t-148.5 90q-100 40 -209 40q-104 0 -206 -40q-85 -33 -150 -90.5t-102.5 -128t-56 -144.5t-18.5 -151q0 -76 18.5 -150.5t56 -144.5t102.5 -127.5t150 -91.5q95 -38 206 -38z" />
    <glyph glyph-name="obreve" unicode="&#x14f;" horiz-adv-x="1373" vert-adv-y="2275" 
d="M687 1226q-163 0 -251 88t-88 212v69h256v-18v-50q2 -29 9 -43q15 -39 74 -39t75 38q7 16 9 44v50v18h256v-69q0 -125 -88.5 -212.5t-251.5 -87.5zM687 -24q-115 0 -212.5 36.5t-163 95.5t-112.5 135t-68 154.5t-21 155.5t21.5 155.5t68 154t112.5 134.5t163 95t212 36
q114 0 211.5 -36t163 -95t112 -134.5t68 -154t21.5 -155.5t-21 -155.5t-67.5 -154.5t-112.5 -135t-163 -95.5t-212 -36.5zM687 200q80 0 153 42q81 45 120.5 131.5t39.5 179.5q0 92 -40 179.5t-120 132.5q-75 41 -153 41q-80 0 -154 -42q-80 -44 -120 -132t-40 -179
q0 -93 39.5 -179t121.5 -132q73 -42 153 -42z" />
    <glyph glyph-name="Ohungarumlaut" unicode="&#x150;" horiz-adv-x="1825" vert-adv-y="2275" 
d="M1081 2126l-240 -466h-256l192 466h304zM1461 2126l-240 -466h-257l192 466h305zM912 -27q-159 0 -294 47t-227 124.5t-156.5 179t-94.5 209.5t-30 217t30 217.5t94.5 210.5t156.5 179.5t227 124.5t294 47q160 0 295 -47t227 -124.5t156.5 -179t94 -210t29.5 -218.5
q0 -91 -21.5 -181.5t-63.5 -178t-109.5 -162.5t-154 -132.5t-203 -90t-250.5 -32.5zM912 198q108 0 198 33t150.5 87.5t103 127t61.5 149t19 155.5q0 76 -18 150.5t-55 145t-101.5 128.5t-148.5 90q-100 40 -209 40q-104 0 -206 -40q-85 -33 -150 -90.5t-102.5 -128
t-56 -144.5t-18.5 -151q0 -76 18.5 -150.5t56 -144.5t102.5 -127.5t150 -91.5q95 -38 206 -38z" />
    <glyph glyph-name="ohungarumlaut" unicode="&#x151;" horiz-adv-x="1373" vert-adv-y="2275" 
d="M849 1734l-240 -466h-255l191 466h304zM1229 1734l-240 -466h-256l191 466h305zM687 -24q-115 0 -212.5 36.5t-163 95.5t-112.5 135t-68 154.5t-21 155.5t21.5 155.5t68 154t112.5 134.5t163 95t212 36q114 0 211.5 -36t163 -95t112 -134.5t68 -154t21.5 -155.5
t-21 -155.5t-67.5 -154.5t-112.5 -135t-163 -95.5t-212 -36.5zM687 200q80 0 153 42q81 45 120.5 131.5t39.5 179.5q0 92 -40 179.5t-120 132.5q-75 41 -153 41q-80 0 -154 -42q-80 -44 -120 -132t-40 -179q0 -93 39.5 -179t121.5 -132q73 -42 153 -42z" />
    <glyph glyph-name="OE" unicode="&#x152;" horiz-adv-x="2946" vert-adv-y="2275" 
d="M912 -27q-159 0 -294 47t-227 124.5t-156.5 179t-94.5 209.5t-30 217t30 217.5t94.5 210.5t156.5 179.5t227 124.5t294 47q317 0 533 -183v154h1096v-231h-829v-394h697v-230h-696l-1 -415h829v-230h-1096v155q-215 -182 -533 -182zM912 198q108 0 198 33t150.5 87.5
t103 127t61.5 149t19 155.5q0 76 -18 150.5t-55 145t-101.5 128.5t-148.5 90q-100 40 -209 40q-104 0 -206 -40q-85 -33 -150 -90.5t-102.5 -128t-56 -144.5t-18.5 -151q0 -76 18.5 -150.5t56 -144.5t102.5 -127.5t150 -91.5q95 -38 206 -38z" />
    <glyph glyph-name="oe" unicode="&#x153;" horiz-adv-x="2552" vert-adv-y="2275" 
d="M1852 1128q116 0 215 -35.5t167 -93.5t116 -133t70.5 -154.5t22.5 -158.5q0 -18 -7 -79l-3 -17h-898q26 -109 107.5 -183t209.5 -74q178 0 272 149q9 13 21 41q4 8 10 22.5t9 21.5l3 6l245 -75q-16 -58 -66 -134q-76 -115 -204 -185t-290 -70q-150 0 -265.5 55.5
t-192.5 151.5q-18 -21 -35 -38q-76 -79 -182 -124t-230 -45q-115 0 -212 36.5t-163 95.5t-112.5 135t-68 154.5t-21.5 155.5t21.5 155.5t68 154t112.5 134.5t163 95t212 36q249 0 412 -168q23 -23 35 -37q77 95 192.5 150t265.5 55zM1100 242q81 45 120.5 131.5t39.5 179.5
q0 92 -40 179.5t-120 132.5q-75 41 -153 41q-80 0 -154 -42q-80 -44 -120 -132t-40 -179q0 -93 39.5 -179t121.5 -132q73 -42 153 -42t153 42zM1545 682h614q-31 97 -110 160.5t-197 63.5t-196 -63t-111 -161z" />
    <glyph glyph-name="Racute" unicode="&#x154;" horiz-adv-x="1442" vert-adv-y="2275" 
d="M945 2039l-221 -465h-264l195 465h290zM374 645v-645h-264v1500h631q263 0 405 -113.5t142 -314.5q0 -149 -86.5 -258.5t-265.5 -148.5l396 -665h-308l-373 645h-277zM749 1269h-375v-394h375q141 0 207.5 46.5t66.5 151.5t-66.5 150.5t-207.5 45.5z" />
    <glyph glyph-name="racute" unicode="&#x155;" horiz-adv-x="798" vert-adv-y="2275" 
d="M644 1668l-219 -466h-266l195 466h290zM371 699v-699h-261v1128h261v-36q103 36 293 36h24v-220h-24q-48 0 -71 -1q-29 0 -64 -5q-63 -11 -101 -49q-26 -26 -41.5 -71t-15.5 -83z" />
    <glyph glyph-name="Rcaron" unicode="&#x158;" horiz-adv-x="1442" vert-adv-y="2275" 
d="M1035 2014v-257l-336 -166l-335 166v257l335 -163zM374 645v-645h-264v1500h631q263 0 405 -113.5t142 -314.5q0 -149 -86.5 -258.5t-265.5 -148.5l396 -665h-308l-373 645h-277zM749 1269h-375v-394h375q141 0 207.5 46.5t66.5 151.5t-66.5 150.5t-207.5 45.5z" />
    <glyph glyph-name="rcaron" unicode="&#x159;" horiz-adv-x="794" vert-adv-y="2275" 
d="M732 1643v-257l-337 -168l-333 168v257l336 -164zM370 699v-699h-261v1128h261v-35q99 35 291 35h25v-220h-25q-47 0 -70 -1q-31 0 -64 -5q-65 -11 -101 -49q-25 -26 -40.5 -71t-15.5 -83z" />
    <glyph glyph-name="Sacute" unicode="&#x15a;" horiz-adv-x="1446" vert-adv-y="2275" 
d="M969 2039l-221 -465h-264l193 465h292zM723 -25q-208 0 -358.5 87t-211.5 239q-27 65 -41 192l-2 20h274l6 -47q16 -122 99 -190q86 -71 234 -71q124 0 201 36q129 60 129 176q0 78 -50 122q-33 29 -142 61q-54 15 -230 49q-100 19 -174 41t-140.5 56.5t-108.5 78.5
t-66 107.5t-24 144.5q0 128 81.5 231t219.5 159t304 56q209 0 359 -88t212 -241q29 -73 40 -192l2 -20h-274l-2 17q-7 72 -25 116q-34 84 -115.5 131t-196.5 47q-120 0 -200 -38q-130 -62 -130 -176q0 -77 51 -122q33 -30 140 -60q63 -18 229 -50q101 -19 174 -40.5
t141 -55.5t109.5 -78t66 -108t24.5 -146q0 -128 -81.5 -230.5t-219.5 -158t-304 -55.5z" />
    <glyph glyph-name="sacute" unicode="&#x15b;" horiz-adv-x="1128" vert-adv-y="2275" 
d="M808 1668l-219 -466h-263l193 466h289zM566 -14q-160 0 -274.5 73.5t-156.5 192.5q-13 38 -18 78q-4 37 -6 77l-1 19h258l2 -17l6 -47q22 -152 190 -152q81 0 133.5 30.5t52.5 86.5q0 31 -12 49t-44 33q-36 17 -93 29q-18 4 -53 10t-52 9q-96 19 -161 42t-118.5 60.5
t-79 93.5t-25.5 133q0 141 127 241q127 101 322 101q161 0 275 -72.5t156 -191.5q11 -31 18 -78q0 -2 6 -77l1 -19h-267l1 19q1 7 1 22q0 77 -49 125t-142 48q-58 0 -105 -16t-66 -49q-16 -27 -16 -51q0 -31 12 -49t44 -33q34 -16 93 -28q17 -3 52.5 -8.5t52.5 -9.5
q93 -16 161 -41t120 -63.5t78 -95t26 -131.5q0 -141 -127 -242q-126 -101 -322 -101z" />
    <glyph glyph-name="Scircumflex" unicode="&#x15c;" horiz-adv-x="1446" vert-adv-y="2275" 
d="M1058 1529l-335 164l-335 -164v259l335 165l335 -165v-259zM723 -25q-208 0 -358.5 87t-211.5 239q-27 65 -41 192l-2 20h274l6 -47q16 -122 99 -190q86 -71 234 -71q124 0 201 36q129 60 129 176q0 78 -50 122q-33 29 -142 61q-54 15 -230 49q-100 19 -174 41
t-140.5 56.5t-108.5 78.5t-66 107.5t-24 144.5q0 128 81.5 231t219.5 159t304 56q209 0 359 -88t212 -241q29 -73 40 -192l2 -20h-274l-2 17q-7 72 -25 116q-34 84 -115.5 131t-196.5 47q-120 0 -200 -38q-130 -62 -130 -176q0 -77 51 -122q33 -30 140 -60q63 -18 229 -50
q101 -19 174 -40.5t141 -55.5t109.5 -78t66 -108t24.5 -146q0 -128 -81.5 -230.5t-219.5 -158t-304 -55.5z" />
    <glyph glyph-name="scircumflex" unicode="&#x15d;" horiz-adv-x="1128" vert-adv-y="2275" 
d="M899 1158l-335 164l-335 -165v258l335 167l335 -167v-257zM566 -14q-160 0 -274.5 73.5t-156.5 192.5q-13 38 -18 78q-4 37 -6 77l-1 19h258l2 -17l6 -47q22 -152 190 -152q81 0 133.5 30.5t52.5 86.5q0 31 -12 49t-44 33q-36 17 -93 29q-18 4 -53 10t-52 9
q-96 19 -161 42t-118.5 60.5t-79 93.5t-25.5 133q0 141 127 241q127 101 322 101q161 0 275 -72.5t156 -191.5q11 -31 18 -78q0 -2 6 -77l1 -19h-267l1 19q1 7 1 22q0 77 -49 125t-142 48q-58 0 -105 -16t-66 -49q-16 -27 -16 -51q0 -31 12 -49t44 -33q34 -16 93 -28
q17 -3 52.5 -8.5t52.5 -9.5q93 -16 161 -41t120 -63.5t78 -95t26 -131.5q0 -141 -127 -242q-126 -101 -322 -101z" />
    <glyph glyph-name="Scedilla" unicode="&#x15e;" horiz-adv-x="1446" vert-adv-y="2275" 
d="M686 -557q-76 0 -129.5 24.5t-106.5 72.5l-10 10l92 139l24 -18q82 -60 138 -60q22 0 41.5 21.5t19.5 44.5q0 27 -10 42q-10 18 -27 18q-23 0 -31 -4.5t-23 -25.5l-11 -16l-161 64l96 230q-160 26 -272.5 109.5t-162.5 206.5q-27 65 -41 192l-2 20h274l6 -47
q16 -122 99 -190q86 -71 234 -71q124 0 201 36q129 60 129 176q0 78 -50 122q-33 29 -142 61q-54 15 -230 49q-126 24 -213 54t-158.5 78.5t-106.5 121.5t-35 174q0 128 81.5 231t219.5 159t304 56q209 0 359 -88t212 -241q29 -73 40 -192l2 -20h-274l-2 17q-10 81 -24 116
q-35 85 -116 131.5t-197 46.5q-120 0 -200 -38q-130 -62 -130 -176q0 -77 51 -122q35 -32 140 -60q63 -18 229 -50q101 -19 174.5 -40.5t141 -55.5t109.5 -78t66.5 -108t24.5 -146q0 -178 -151 -300t-382 -141l-24 -56q99 -18 152 -86t53 -148q0 -100 -79.5 -172.5
t-211.5 -72.5z" />
    <glyph glyph-name="scedilla" unicode="&#x15f;" horiz-adv-x="1129" vert-adv-y="2275" 
d="M526 -544q-128 0 -225 89l-19 19l92 139l24 -18q30 -23 62 -40q11 -7 36 -13.5t39 -6.5q22 0 42 21t20 44q0 24 -10 43q-9 17 -27 17q-24 0 -32 -4q-3 -2 -8 -8q-11 -13 -14 -18l-12 -15l-160 63l96 234q-111 26 -188 93.5t-107 156.5q-18 52 -24 155l-1 19h258l2 -17
q1 -7 2 -14.5t2 -17t2 -14.5q25 -153 190 -153q82 0 134 30.5t52 86.5q0 31 -12 49t-44 33q-32 16 -93 29q-18 4 -53 10t-52 9q-96 19 -161 42t-118.5 60.5t-79 93.5t-25.5 133q0 141 127 241q127 101 322 101q161 0 275 -72.5t156 -191.5q11 -31 18 -78q0 -2 6 -77l1 -19
h-267l1 19q1 7 1 22q0 77 -49 125t-142 48q-58 0 -105 -16t-66 -49q-16 -27 -16 -51q0 -31 12 -49t44 -33q34 -16 93 -28q17 -3 52.5 -8.5t52.5 -9.5q191 -35 288 -110t97 -221q0 -129 -106.5 -225t-272.5 -114l-23 -54q98 -18 151.5 -86t53.5 -148q0 -101 -79.5 -173.5
t-212.5 -72.5z" />
    <glyph glyph-name="Scaron" unicode="&#x160;" horiz-adv-x="1446" vert-adv-y="2275" 
d="M1058 2014v-257l-335 -166l-335 166v257l335 -163zM723 -25q-208 0 -358.5 87t-211.5 239q-27 65 -41 192l-2 20h274l6 -47q16 -122 99 -190q86 -71 234 -71q124 0 201 36q129 60 129 176q0 78 -50 122q-33 29 -142 61q-54 15 -230 49q-100 19 -174 41t-140.5 56.5
t-108.5 78.5t-66 107.5t-24 144.5q0 128 81.5 231t219.5 159t304 56q209 0 359 -88t212 -241q29 -73 40 -192l2 -20h-274l-2 17q-7 72 -25 116q-34 84 -115.5 131t-196.5 47q-120 0 -200 -38q-130 -62 -130 -176q0 -77 51 -122q33 -30 140 -60q63 -18 229 -50
q101 -19 174 -40.5t141 -55.5t109.5 -78t66 -108t24.5 -146q0 -128 -81.5 -230.5t-219.5 -158t-304 -55.5z" />
    <glyph glyph-name="scaron" unicode="&#x161;" horiz-adv-x="1128" vert-adv-y="2275" 
d="M899 1643v-257l-335 -168l-335 168v257l335 -164zM566 -14q-160 0 -274.5 73.5t-156.5 192.5q-13 38 -18 78q-4 37 -6 77l-1 19h258l2 -17l6 -47q22 -152 190 -152q81 0 133.5 30.5t52.5 86.5q0 31 -12 49t-44 33q-36 17 -93 29q-18 4 -53 10t-52 9q-96 19 -161 42
t-118.5 60.5t-79 93.5t-25.5 133q0 141 127 241q127 101 322 101q161 0 275 -72.5t156 -191.5q11 -31 18 -78q0 -2 6 -77l1 -19h-267l1 19q1 7 1 22q0 77 -49 125t-142 48q-58 0 -105 -16t-66 -49q-16 -27 -16 -51q0 -31 12 -49t44 -33q34 -16 93 -28q17 -3 52.5 -8.5
t52.5 -9.5q93 -16 161 -41t120 -63.5t78 -95t26 -131.5q0 -141 -127 -242q-126 -101 -322 -101z" />
    <glyph glyph-name="Tcaron" unicode="&#x164;" horiz-adv-x="1436" vert-adv-y="2275" 
d="M1052 2014v-257l-335 -166l-335 166v257l336 -163zM849 1269v-1269h-265v1269h-474v231h1216v-231h-477z" />
    <glyph glyph-name="tcaron" unicode="&#x165;" horiz-adv-x="1345" vert-adv-y="2275" 
d="M594 -2q-64 0 -113 17.5t-78 44.5t-48 65t-25.5 74.5t-6.5 76.5v630h-213v222h213v418h261v-418h220v-222h-220v-613q0 -26 1 -38q2 -23 8 -29t28 -6q32 0 94 2q8 0 22 1t21 1h47v-218l-23 -1q-147 -7 -188 -7zM1241 1500l-169 -466h-250l120 466h299z" />
    <glyph glyph-name="Utilde" unicode="&#x168;" horiz-adv-x="1490" vert-adv-y="2275" 
d="M871 1665q-68 0 -159 40q-8 3 -28.5 12.5t-30.5 13.5q-22 9 -37 9h-4v-3l-4 -18q-2 -8 -4 -20l-2 -12l-3 -16h-255l7 56q5 46 21 86t46 76t82 57t120 21t161 -41q40 -18 59 -26q26 -10 35 -10h4q4 8 7 25l5 31l4 16h254l-3 -21l-8 -58q-13 -90 -81 -154t-186 -64z
M744 -27q-143 0 -255.5 40.5t-182 105t-115 153t-63.5 177.5t-18 185v866h265v-884q0 -61 11 -117.5t38 -112t68 -96.5t106 -66.5t146 -25.5q82 0 147 25t106 66t68 96.5t38 112.5t11 118v884h265v-866q0 -96 -18 -185t-63.5 -177.5t-115.5 -153t-182.5 -105t-255.5 -40.5z
" />
    <glyph glyph-name="utilde" unicode="&#x169;" vert-adv-y="2275" 
d="M730 1293q-71 0 -159 41q-8 3 -19.5 8.5t-21 9.5t-17.5 7q-24 10 -39 10h-3v-1q-4 -6 -7 -24q-1 -5 -2.5 -15t-2.5 -15l-3 -15h-257l12 78q14 91 81 154.5t186 63.5q72 0 162 -41q8 -3 28.5 -12.5t30.5 -13.5q26 -10 35 -10h5q4 9 7 25q2 21 5 31l4 15h251l-9 -78
q-12 -90 -80.5 -154t-186.5 -64zM604 0q-245 0 -373 128q-121 120 -121 309v691h261v-666q0 -56 10 -97t35 -75t72 -52t116 -18q122 0 177 56q24 26 39.5 71.5t15.5 82.5v698h263v-1128h-263v37q-102 -37 -232 -37z" />
    <glyph glyph-name="Umacron" unicode="&#x16a;" horiz-adv-x="1490" vert-adv-y="2275" 
d="M1132 1830v-223h-774v223h774zM744 -27q-143 0 -255.5 40.5t-182 105t-115 153t-63.5 177.5t-18 185v866h265v-884q0 -61 11 -117.5t38 -112t68 -96.5t106 -66.5t146 -25.5q82 0 147 25t106 66t68 96.5t38 112.5t11 118v884h265v-866q0 -96 -18 -185t-63.5 -177.5
t-115.5 -153t-182.5 -105t-255.5 -40.5z" />
    <glyph glyph-name="umacron" unicode="&#x16b;" vert-adv-y="2275" 
d="M991 1460v-224h-773v224h773zM604 0q-245 0 -373 128q-121 120 -121 309v691h261v-666q0 -56 10 -97t35 -75t72 -52t116 -18q122 0 177 56q24 26 39.5 71.5t15.5 82.5v698h263v-1128h-263v37q-102 -37 -232 -37z" />
    <glyph glyph-name="Ubreve" unicode="&#x16c;" horiz-adv-x="1490" vert-adv-y="2275" 
d="M745 1597q-83 0 -149.5 25.5t-107 68t-61.5 95.5t-21 111v70h255v-19q0 -33 1 -49q2 -28 8 -43q15 -37 75 -37q85 0 85 78v70h255v-70q0 -124 -88.5 -212t-251.5 -88zM744 -27q-143 0 -255.5 40.5t-182 105t-115 153t-63.5 177.5t-18 185v866h265v-884q0 -61 11 -117.5
t38 -112t68 -96.5t106 -66.5t146 -25.5q82 0 147 25t106 66t68 96.5t38 112.5t11 118v884h265v-866q0 -96 -18 -185t-63.5 -177.5t-115.5 -153t-182.5 -105t-255.5 -40.5z" />
    <glyph glyph-name="ubreve" unicode="&#x16d;" vert-adv-y="2275" 
d="M604 1226q-163 0 -251.5 88t-88.5 212v69h258v-18v-50q2 -28 8 -43q15 -39 74 -39q85 0 85 81v69h254v-69q0 -59 -21 -112t-61.5 -95.5t-106.5 -67.5t-150 -25zM604 0q-245 0 -373 128q-121 120 -121 309v691h261v-666q0 -56 10 -97t35 -75t72 -52t116 -18q122 0 177 56
q24 26 39.5 71.5t15.5 82.5v698h263v-1128h-263v37q-102 -37 -232 -37z" />
    <glyph glyph-name="Uring" unicode="&#x16e;" horiz-adv-x="1490" vert-adv-y="2275" 
d="M720 1593q-48 0 -101 21q-63 27 -95 79t-32 109q0 79 61.5 144t166.5 65q50 0 101 -22q62 -26 93.5 -78.5t31.5 -108.5q0 -79 -60 -144t-166 -65zM720 1732q24 0 39 21q14 20 14 49q0 30 -14 49.5t-39 19.5t-39 -19.5t-14 -49.5q0 -31 14 -49q13 -21 39 -21zM744 -27
q-143 0 -255.5 40.5t-182 105t-115 153t-63.5 177.5t-18 185v866h265v-884q0 -61 11 -117.5t38 -112t68 -96.5t106 -66.5t146 -25.5q82 0 147 25t106 66t68 96.5t38 112.5t11 118v884h265v-866q0 -96 -18 -185t-63.5 -177.5t-115.5 -153t-182.5 -105t-255.5 -40.5z" />
    <glyph glyph-name="uring" unicode="&#x16f;" vert-adv-y="2275" 
d="M619 1228q-49 0 -101 21q-63 26 -95 78.5t-32 109.5q0 49 24.5 95.5t78.5 79.5t125 33q50 0 101 -22q62 -26 94 -78t32 -108q0 -79 -60 -144t-167 -65zM619 1367q25 0 39 21q14 20 14 49t-14 48.5t-39 19.5t-39 -19t-14 -49t14 -50t39 -20zM604 0q-245 0 -373 128
q-121 120 -121 309v691h261v-666q0 -56 10 -97t35 -75t72 -52t116 -18q122 0 177 56q24 26 39.5 71.5t15.5 82.5v698h263v-1128h-263v37q-102 -37 -232 -37z" />
    <glyph glyph-name="Uhungarumlaut" unicode="&#x170;" horiz-adv-x="1490" vert-adv-y="2275" 
d="M867 2119l-241 -466h-256l192 466h305zM1247 2119l-240 -466h-257l192 466h305zM744 -27q-143 0 -255.5 40.5t-182 105t-115 153t-63.5 177.5t-18 185v866h265v-884q0 -61 11 -117.5t38 -112t68 -96.5t106 -66.5t146 -25.5q82 0 147 25t106 66t68 96.5t38 112.5t11 118
v884h265v-866q0 -96 -18 -185t-63.5 -177.5t-115.5 -153t-182.5 -105t-255.5 -40.5z" />
    <glyph glyph-name="uhungarumlaut" unicode="&#x171;" horiz-adv-x="1219" vert-adv-y="2275" 
d="M766 1746l-240 -466h-256l192 466h304zM1146 1746l-240 -466h-256l191 466h305zM604 0q-245 0 -373 128q-121 120 -121 309v691h261v-666q0 -56 10 -97t35 -75t72 -52t116 -18q122 0 177 56q24 26 39.5 71.5t15.5 82.5v698h263v-1128h-263v37q-102 -37 -232 -37z" />
    <glyph glyph-name="Wcircumflex" unicode="&#x174;" horiz-adv-x="2413" vert-adv-y="2275" 
d="M1207 1953l334 -165v-259l-334 164l-336 -164v259zM2303 1500l-511 -1502h-238l-347 1058l-350 -1056h-240l-507 1500h284l344 -1055l348 1055h244l346 -1057l347 1057h280z" />
    <glyph glyph-name="wcircumflex" unicode="&#x175;" horiz-adv-x="1987" vert-adv-y="2275" 
d="M1329 1158l-335 164l-335 -165v258l334 167l336 -167v-257zM994 681l-249 -686h-221l-414 1140h273l251 -699l249 699h220l251 -699l250 699h273l-415 -1140h-218z" />
    <glyph glyph-name="Ycircumflex" unicode="&#x176;" horiz-adv-x="1800" vert-adv-y="2275" 
d="M1236 1529l-337 164l-334 -164v259l334 165l337 -165v-259zM1031 721v-721h-264v726l-657 774h334l457 -547l460 547h329z" />
    <glyph glyph-name="ycircumflex" unicode="&#x177;" horiz-adv-x="1444" vert-adv-y="2275" 
d="M1057 1158l-335 164l-335 -165v258l335 167l335 -167v-257zM1333 1130l-683 -1549h-278l211 488l-473 1061h285l326 -749l326 749h286z" />
    <glyph glyph-name="Ydieresis" unicode="&#x178;" horiz-adv-x="1800" vert-adv-y="2275" 
d="M717 1605q-78 0 -122 45.5t-44 102.5t44 103t122 46q77 0 121 -46.5t44 -102.5q0 -55 -45 -101.5t-120 -46.5zM1120 1605q-78 0 -122 45.5t-44 102.5t44 103t122 46q77 0 121 -46.5t44 -102.5q0 -55 -44.5 -101.5t-120.5 -46.5zM1031 721v-721h-264v726l-657 774h334
l457 -547l460 547h329z" />
    <glyph glyph-name="Zacute" unicode="&#x179;" horiz-adv-x="1478" vert-adv-y="2275" 
d="M984 2039l-220 -465h-265l194 465h291zM1368 230v-230h-1258v169l884 1100h-875v231h1241v-170l-882 -1100h890z" />
    <glyph glyph-name="zacute" unicode="&#x17a;" horiz-adv-x="1202" vert-adv-y="2275" 
d="M847 1668l-221 -466h-264l195 466h290zM1093 222v-222h-981v164l601 742h-603v222h980v-160l-602 -746h605z" />
    <glyph glyph-name="Zdotaccent" unicode="&#x17b;" horiz-adv-x="1478" vert-adv-y="2275" 
d="M740 1659q-76 0 -119 43.5t-43 99.5q0 55 43.5 100t118.5 45q74 0 118 -45.5t44 -99.5t-44 -98.5t-118 -44.5zM1368 230v-230h-1258v169l884 1100h-875v231h1241v-170l-882 -1100h890z" />
    <glyph glyph-name="zdotaccent" unicode="&#x17c;" horiz-adv-x="1202" vert-adv-y="2275" 
d="M601 1288q-76 0 -118.5 43.5t-42.5 99.5q0 54 43.5 99t117.5 45t117.5 -45t43.5 -99q0 -55 -42.5 -99t-118.5 -44zM1093 222v-222h-981v164l601 742h-603v222h980v-160l-602 -746h605z" />
    <glyph glyph-name="Zcaron" unicode="&#x17d;" horiz-adv-x="1478" vert-adv-y="2275" 
d="M1074 2014v-257l-336 -166l-334 166v257l335 -163zM1368 230v-230h-1258v169l884 1100h-875v231h1241v-170l-882 -1100h890z" />
    <glyph glyph-name="zcaron" unicode="&#x17e;" horiz-adv-x="1202" vert-adv-y="2275" 
d="M937 1643v-257l-336 -168l-335 168v257l335 -164zM1093 222v-222h-981v164l601 742h-603v222h980v-160l-602 -746h605z" />
    <glyph glyph-name="circumflex" unicode="&#x2c6;" horiz-adv-x="965" vert-adv-y="2275" 
d="M818 1158l-334 164l-336 -165v258l333 167l337 -167v-257z" />
    <glyph glyph-name="caron" unicode="&#x2c7;" horiz-adv-x="965" vert-adv-y="2275" 
d="M818 1643v-257l-337 -168l-333 168v257l336 -164z" />
    <glyph glyph-name="breve" unicode="&#x2d8;" horiz-adv-x="907" vert-adv-y="2275" 
d="M452 1226q-83 0 -149 25.5t-106.5 68t-61.5 95.5t-21 111v69h256v-18q0 -33 1 -50q0 -24 8 -43q15 -39 73 -39q60 0 77 38q6 15 8 44q1 16 1 50v18h255v-69q0 -59 -21 -112.5t-62 -95.5t-107.5 -67t-150.5 -25z" />
    <glyph glyph-name="dotaccent" unicode="&#x2d9;" horiz-adv-x="656" vert-adv-y="2275" 
d="M327 1288q-76 0 -118.5 44t-42.5 99q0 54 43 99t118 45q74 0 118.5 -45t44.5 -99q0 -55 -44 -99t-119 -44z" />
    <glyph glyph-name="ring" unicode="&#x2da;" horiz-adv-x="775" vert-adv-y="2275" 
d="M389 1204q-70 0 -132 28q-82 35 -124 102.5t-42 142.5q0 38 12 76.5t37 73.5t59.5 62t84 43.5t105.5 16.5q71 0 131 -27q80 -34 122.5 -103t42.5 -142q0 -48 -19 -95.5t-54 -87.5t-93.5 -65t-129.5 -25zM389 1418q21 0 33 17q11 17 11 42t-12 41.5t-32 16.5
q-43 0 -43 -58q0 -27 11 -43t32 -16z" />
    <glyph glyph-name="ogonek" unicode="&#x2db;" horiz-adv-x="745" vert-adv-y="2275" 
d="M371 -386q-56 0 -102 16t-76 42.5t-50.5 61t-29.5 70t-9 71.5q0 107 66.5 192t190.5 135l52 21l23 9l115 -195l-21 -8l-58 -21q-52 -20 -80.5 -54t-28.5 -77q0 -19 7 -33q6 -11 16 -11q17 0 43 29q9 11 23.5 30.5t19.5 25.5l20 26l149 -175l-5 -9q-35 -67 -103.5 -106.5
t-161.5 -39.5z" />
    <glyph glyph-name="tilde" unicode="&#x2dc;" horiz-adv-x="1032" vert-adv-y="2275" 
d="M641 1293q-71 0 -159 41q-8 3 -19.5 8.5t-21 9.5t-17.5 7q-26 10 -37 10h-6q0 -1 -5 -24q-1 -14 -5 -31l-3 -15h-256l12 78q14 92 80.5 155t186.5 63q71 0 161 -41q8 -3 28.5 -12.5t30.5 -13.5q24 -10 34 -10h5v5q6 17 14 51l3 15h253l-12 -78q-14 -91 -81 -154.5
t-186 -63.5z" />
    <glyph glyph-name="hungarumlaut" unicode="&#x2dd;" horiz-adv-x="1046" vert-adv-y="2275" 
d="M487 1420l-93 -182h-257l191 465h581l-239 -465h-258z" />
    <glyph glyph-name="Wgrave" unicode="&#x1e80;" horiz-adv-x="2413" vert-adv-y="2275" 
d="M1253 2039l193 -465h-264l-220 465h291zM2303 1500l-511 -1502h-238l-347 1058l-350 -1056h-240l-507 1500h284l344 -1055l348 1055h244l346 -1057l347 1057h280z" />
    <glyph glyph-name="wgrave" unicode="&#x1e81;" horiz-adv-x="1987" vert-adv-y="2275" 
d="M1041 1668l193 -466h-265l-220 466h292zM994 681l-249 -686h-221l-414 1140h273l251 -699l249 699h220l251 -699l250 699h273l-415 -1140h-218z" />
    <glyph glyph-name="Wacute" unicode="&#x1e82;" horiz-adv-x="2413" vert-adv-y="2275" 
d="M1452 2039l-220 -465h-265l193 465h292zM2303 1500l-511 -1502h-238l-347 1058l-350 -1056h-240l-507 1500h284l344 -1055l348 1055h244l346 -1057l347 1057h280z" />
    <glyph glyph-name="wacute" unicode="&#x1e83;" horiz-adv-x="1987" vert-adv-y="2275" 
d="M1239 1668l-221 -466h-263l193 466h291zM994 681l-249 -686h-221l-414 1140h273l251 -699l249 699h220l251 -699l250 699h273l-415 -1140h-218z" />
    <glyph glyph-name="Wdieresis" unicode="&#x1e84;" horiz-adv-x="2413" vert-adv-y="2275" 
d="M1017 1605q-78 0 -122 45.5t-44 102.5t44 103t122 46q77 0 121 -46t44 -103q0 -55 -44.5 -101.5t-120.5 -46.5zM1420 1605q-78 0 -122 45.5t-44 102.5t44 103t122 46q77 0 121 -46t44 -103q0 -56 -44 -102t-121 -46zM2303 1500l-511 -1502h-238l-347 1058l-350 -1056
h-240l-507 1500h284l344 -1055l348 1055h244l346 -1057l347 1057h280z" />
    <glyph glyph-name="wdieresis" unicode="&#x1e85;" horiz-adv-x="1987" vert-adv-y="2275" 
d="M790 1273q-78 0 -122 45.5t-44 102.5t44 103t122 46q77 0 121 -46t44 -103q0 -55 -45 -101.5t-120 -46.5zM1193 1273q-78 0 -122 45.5t-44 102.5t44 103t122 46q77 0 121 -46.5t44 -102.5q0 -55 -44.5 -101.5t-120.5 -46.5zM994 681l-249 -686h-221l-414 1140h273
l251 -699l249 699h220l251 -699l250 699h273l-415 -1140h-218z" />
    <glyph glyph-name="endash" unicode="&#x2013;" horiz-adv-x="1166" vert-adv-y="2275" 
d="M1166 665v-224h-1166v224h1166z" />
    <glyph glyph-name="emdash" unicode="&#x2014;" horiz-adv-x="2164" vert-adv-y="2275" 
d="M2165 665v-224h-2165v224h2165z" />
    <glyph glyph-name="quoteleft" unicode="&#x2018;" horiz-adv-x="626" vert-adv-y="2275" 
d="M522 1500l-120 -466h-298l168 466h250z" />
    <glyph glyph-name="quoteright" unicode="&#x2019;" horiz-adv-x="627" vert-adv-y="2275" 
d="M522 1500l-168 -466h-250l120 466h298z" />
    <glyph glyph-name="quotesinglbase" unicode="&#x201a;" horiz-adv-x="627" vert-adv-y="2275" 
d="M522 278l-168 -466h-250l120 466h298z" />
    <glyph glyph-name="quotedblleft" unicode="&#x201c;" horiz-adv-x="896" vert-adv-y="2275" 
d="M104 1034l168 466h250l-120 -466h-298zM851 1500l-168 -466h-250l120 466h298z" />
    <glyph glyph-name="quotedblright" unicode="&#x201d;" horiz-adv-x="896" vert-adv-y="2275" 
d="M104 1034l168 466h250l-120 -466h-298zM851 1500l-168 -466h-250l120 466h298z" />
    <glyph glyph-name="quotedblbase" unicode="&#x201e;" horiz-adv-x="896" vert-adv-y="2275" 
d="M67 -186l168 466h250l-120 -466h-298zM814 280l-168 -466h-250l120 466h298z" />
    <glyph glyph-name="dagger" unicode="&#x2020;" horiz-adv-x="1216" vert-adv-y="2275" 
d="M738 881v-1034h-261v1034h-363v225h363v394h261v-394h365v-225h-365z" />
    <glyph glyph-name="daggerdbl" unicode="&#x2021;" horiz-adv-x="1216" vert-adv-y="2275" 
d="M738 241v-394h-261v394h-363v225h363v415h-363v225h363v394h261v-394h365v-225h-365v-415h365v-225h-365z" />
    <glyph glyph-name="bullet" unicode="&#x2022;" horiz-adv-x="1218" vert-adv-y="2275" 
d="M608 403q-159 0 -271 105q-106 100 -106 246q0 61 24.5 122.5t70 113.5t119.5 85t163 33t163 -32.5t120 -85t71 -114t25 -122.5t-25.5 -122t-71.5 -112.5t-120 -84t-162 -32.5z" />
    <glyph glyph-name="ellipsis" unicode="&#x2026;" horiz-adv-x="1387" vert-adv-y="2275" 
d="M290 -17q-77 0 -121 46t-44 102q0 57 43.5 103t121.5 46t122 -46t44 -103q0 -55 -45 -101.5t-121 -46.5zM694 -17q-77 0 -121.5 46t-44.5 102q0 57 44 103t122 46q77 0 121 -46.5t44 -102.5q0 -55 -45 -101.5t-120 -46.5zM1096 -17q-77 0 -121 46t-44 102q0 57 43.5 103
t121.5 46q77 0 121.5 -46.5t44.5 -102.5q0 -55 -45 -101.5t-121 -46.5z" />
    <glyph glyph-name="guilsinglleft" unicode="&#x2039;" horiz-adv-x="841" vert-adv-y="2275" 
d="M438 563l257 -473h-291l-259 473l259 472h291z" />
    <glyph glyph-name="guilsinglright" unicode="&#x203a;" horiz-adv-x="843" vert-adv-y="2275" 
d="M696 563l-258 -473h-293l259 473l-259 472h293z" />
    <glyph glyph-name="fraction" unicode="&#x2044;" horiz-adv-x="923" vert-adv-y="2275" 
d="M992 1500l-780 -1500h-281l779 1500h282z" />
    <glyph glyph-name="Euro" unicode="&#x20ac;" horiz-adv-x="1354" vert-adv-y="2275" 
d="M915 -27q-121 0 -223 29.5t-174 78.5t-127 118t-87.5 143t-51.5 159h-165v227h142q0 34 1 51h-143v223h167q19 84 51.5 158t87.5 143t126.5 118t173 78.5t222.5 29.5q186 0 319 -70l9 -5l1 -1q9 -5 21 -14l27 -18h-19v-254l-40 24q-65 41 -91 55q-106 58 -227 58
q-87 0 -155 -23t-113.5 -65.5t-74 -94.5t-46.5 -119h459v-223h-485v-51h485v-227h-460q17 -68 45.5 -120t74 -94.5t113.5 -65.5t157 -23q128 0 227 56q15 9 45.5 27.5t46.5 26.5l39 21v-264l-9 -6q-130 -86 -349 -86z" />
    <glyph glyph-name="trademark" unicode="&#x2122;" horiz-adv-x="1929" vert-adv-y="2275" 
d="M610 1280v-705h-256v705h-263v220h934l255 -315l258 315h208v-925h-257v486l-160 -195h-97l-158 194v-485h-258v705h-206z" />
    <glyph glyph-name="arrowleft" unicode="&#x2190;" horiz-adv-x="1348" vert-adv-y="2275" 
d="M444 441l334 -441h-309l-427 553l427 553h309l-334 -441h863v-224h-863z" />
    <glyph glyph-name="arrowright" unicode="&#x2192;" horiz-adv-x="1348" vert-adv-y="2275" 
d="M1307 553l-427 -553h-309l333 441h-862v224h862l-333 441h309z" />
    <glyph glyph-name="minus" unicode="&#x2212;" horiz-adv-x="1335" vert-adv-y="2275" 
d="M1265 667v-229h-1194v229h1194z" />
    <glyph glyph-name="approxequal" unicode="&#x2248;" horiz-adv-x="1379" vert-adv-y="2275" 
d="M366 269l-38 -49l-16 -21l-196 148l20 35q52 90 156 139l-176 131l12 22q50 89 141 141.5t214 52.5q77 0 175 -29q20 -6 74.5 -22.5t84.5 -24.5q52 -13 80 -13q51 0 88 34q17 14 33 35q6 7 15.5 21t14.5 20l16 21l199 -153l-31 -48q-28 -43 -81 -84q-38 -27 -65 -40
l177 -135l-8 -12l-23 -36q-30 -45 -81 -84q-105 -80 -256 -80q-99 0 -244 49q-122 39 -170 39q-69 0 -115 -57zM897 474q51 0 88 32q17 14 33 35l19 24q-63 -20 -142 -20q-80 0 -178 29q-17 5 -72 22.5t-87 25.5q-54 12 -77 12q-33 0 -65 -16.5t-49 -40.5l-24 -36
q66 20 140 20q88 0 223 -45q58 -19 98 -29q52 -13 93 -13z" />
    <glyph glyph-name="notequal" unicode="&#x2260;" horiz-adv-x="1335" vert-adv-y="2275" 
d="M647 245l-129 -245h-287l128 245h-288v231h409l82 153h-491v230h613l132 247h289l-132 -247h292v-230h-415l-81 -153h496v-231h-618z" />
    <glyph glyph-name="lessequal" unicode="&#x2264;" horiz-adv-x="1338" vert-adv-y="2275" 
d="M1223 207v-179h-1108v230h965l-968 386v172l1115 446v-253l-713 -277l713 -277v-249z" />
    <glyph glyph-name="greaterequal" unicode="&#x2265;" horiz-adv-x="1338" vert-adv-y="2275" 
d="M1224 258v-230h-1108v179l-4 -1v249l712 277l-712 277v253l1115 -446v-172l-969 -386h966z" />
    <glyph glyph-name="uniF8FF" unicode="&#xf8ff;" horiz-adv-x="1008" vert-adv-y="2275" 
d="M978 1142v-1016h-948v1016h948zM172 366h109v189h373v98h-373v266h373v97h-483v-646zM725 467h-371v-101h483v650h-112v-182h-371v-104h371v-263zM563 241q8 0 14 4q2 0 5 1h2q7 0 7 5v25q-5 0 -7 4l-3 3l-7 1h-8l-5 4l-4 1q-1 2 -2 3.5t-1 2.5q0 7 7 7h5q5 -3 6 -4
q4 -3 7 -3q1 0 3 -1l2 -1l7 15q0 1 -2 1.5t-5.5 1.5t-6.5 2q-12 4 -14 4q-4 0 -14 -4q-5 -3 -8 -3l-4 -6q-3 -3 -3 -11q0 -2 0.5 -4t0.5 -3q0 -2 2 -3l2.5 -2.5t1.5 -2.5l5 -2q1 0 2.5 -0.5t2.5 -0.5q4 0 8 -4h4l3 -2l5 -3l1 -3q0 -5 -2 -5q-4 -2 -7 -2q-2 0 -14 5
q-3 0 -14 7l-4 -15q6 -8 15 -8q1 0 3.5 -1t4.5 -1q3 -2 9 -2zM270 241q18 0 28 10q9 9 12 27q0 14 -9 20q0 4 -3 6q-1 1 -3 3.5t-4 2.5q-5 5 -21 5q-12 0 -19 -5q-7 -2 -15 -12q-5 -12 -5 -20q0 -11 5 -18q8 -14 13 -15q7 -4 21 -4zM731 241q13 0 17 4q7 2 14 9l-12 12
q-3 -5 -10 -5q-2 -3 -9 -3q-6 0 -9 3l-2 2q-1 0 -5 6q-2 0 -2 11q0 6 2 9q0 1 3 3.5t4 3.5q3 4 9 4q7 0 9 -4q7 -1 10 -7l10 13q0 1 -1 2t-2 2.5t-2 3.5l-7 1l-8 4h-9q-18 0 -24 -11q-12 -5 -12 -26q0 -12 3 -18q9 -13 15 -15q5 -4 18 -4zM228 313h-56v-70h21v26h31v14h-31
v17h35v13zM335 313h-16v-70h18v41l31 -41h19v70h-19v-42zM394 300h23v-57h17v57h21v13h-61v-13zM499 313h-20l-32 -70h20l6 11h29l5 -11h22zM596 300h20v-57h20v57h22v13h-62v-13zM683 313h-18v-70h18v70zM812 313h-20l-32 -70h20l6 11h33l2 -11h22zM270 256q-5 0 -14 7
q-5 8 -5 15q0 6 2 11l3 4l5 3q2 4 9 4q5 0 11 -4q4 -1 7 -7l2 -5v-11q0 -1 -1 -3l-1 -2q-6 -7 -7 -7q-7 -5 -11 -5zM489 295l8 -26h-20zM801 295l9 -26h-20zM59 50l-4 -20h-5l-4 1l-11 44q2 2 4 2h7l4 -30q2 0 2 3q0 5 3 10q1 3 2 5.5t1.5 4t0.5 2.5v5h9l6 -15l3 -15
q2 2 2 4l2 11l3 13q0 2 4 2l6 -2q-6 -9 -6 -18q0 -1 -4 -13l-2 -11v-3h-10v3l-2 5l-3 12l-3 14zM129 47l-4 -17h-8q0 1 -3 1v7l-7 31l-3 6q3 2 5 2h5v-7q3 -3 3 -8l4 -15l8 30h8l2 -2l5 -15l1 -13l9 28q0 2 4 2l5 -2v-5l-2 -8q-1 -2 -2 -5t-1 -4l-6 -23h-5l-3 1l-7 16v8
q0 1 -3 3q-4 -2 -4 -3q0 -5 -1 -8zM202 64l-8 -33l-5 -1l-3 1l-2 7q0 7 -5 17l-1 15l-2 7h8l3 -15l4 -15l3 4l4 26h11l4 -15q1 -15 7 -15v15l2 15h6l5 -2l-2 -5q0 -6 -2 -8q0 -2 -0.5 -5t-0.5 -4l-7 -22l-1 -1h-7l-6 17l-3 13zM284 50v-19h-7v44l1 2h28v-8h-22v-12h17v-7
h-17zM343 30q-14 0 -17 12q-3 9 -3 11q0 9 3 12q0 5 6 5l5 7h8q13 0 20 -15q3 -10 0 -15q-3 -8 -7 -12q-5 -5 -15 -5zM394 60v-30h-9v47h9l18 -30v30h6v-46l-1 -1h-5zM460 69v-39h-9v39h-13v8h36v-8h-14zM493 31l-6 -1h-3q0 1 -2 1l2 6l5 12l6 15q1 1 2.5 4.5t3.5 6.5
q0 2 1 2h5l19 -46q-2 0 -2 -1h-2l-7 1l-2 11h-18zM559 30q-3 0 -6 0.5t-4 0.5q-2 1 -4 4t-3 3l-1 4v5h8q7 -9 10 -9q2 0 5 2q2 2 2 4v3q-1 2 -9 4q-11 0 -11 4q-6 7 -4 12q5 8 11 10h8q9 0 10 -7q3 0 3 -6v-2h-8v2q0 6 -7 6h-2q-6 -4 -6 -6l10 -4q2 -1 6.5 -3.5t6.5 -3.5
q0 -1 1 -3t1 -3q0 -8 -4 -10q-1 -6 -6 -6q-2 -1 -7 -1zM614 69v-39h-8v39h-14v8h36v-8h-14zM654 77v-47h-7v47h7zM696 30q-12 0 -21 17q-2 0 -2 6l2 9q1 8 14 15h6q9 0 12 -7q3 0 3 -3l1 -3l-4 -2h-2l-3 2q-4 6 -7 6l-10 -5q-3 -4 -3 -8l1 -7q0 -3 2 -5q0 -7 8 -7q5 0 9 9h5
q4 0 4 -2l-1 -3q-5 -12 -14 -12zM737 31l-6 -1h-1l-2 1l2 6l3 12q4 8 5 15l7 11q0 2 3 2h7l17 -46q-2 0 -2 -1h-4l-4 1l-5 11h-17zM836 30q-4 0 -12 3q-1 2 -5 9q-7 11 0 25q3 3 5 3q1 1 2 2.5t2 2.5t1 2h8q6 0 8 -2q4 0 4 -5q5 0 5 -3v-3q-2 0 -5 -2h-4v2q-2 5 -8 5
q-8 0 -8 -5q-3 -3 -3 -11q0 -6 3 -11q0 -4 8 -4q6 0 8 9h9v-7l-4 -3q-4 -7 -14 -7zM894 30q-12 0 -16 7q-7 9 -7 16q0 1 5 14q9 9 11 10q4 0 11 -2.5t8 -2.5q8 -2 8 -17q0 -12 -5 -18q-3 -7 -15 -7zM942 31l-4 -1h-4v47h14l3 -15l2 -11v-4l7 13q2 9 2 15v2h16v-47h-10v35
l-6 -15v-12l-2 -7v-1h-7l-2 1l-3 16l-6 17v-33zM345 38q12 0 12 9v13q0 2 -2.5 4t-2.5 3q-6 3 -7 3l-10 -5q0 -3 -2 -3v-9q0 -1 4 -11q4 -4 8 -4zM894 38q4 0 5 2q5 2 5 13q0 12 -5 14l-1 1q-1 1 -2 1q0 1 -2 1q-9 0 -9 -6q0 -1 -1 -5t-1 -6q0 -6 2 -11q0 -4 9 -4zM504 64
l-3 -2l-2 -12h10q-2 1 -2 7l-1 5zM750 64l-3 -2l-3 -12h11l-3 7l-2 5v2zM255 40v-9h-9v9h9zM797 40v-9h-9v9h9z" />
    <glyph glyph-name="_FSHallmark" horiz-adv-x="1414" vert-adv-y="2275" 
d="M1354 1133v-152h-1291v152h1291zM1075 258q-62 0 -105 14q-79 21 -130 80t-51 139l150 -3q0 -6 9 -26q3 -19 22 -38.5t38 -25.5q26 -16 74 -16q54 0 84 18q27 16 27 42q0 46 -122 71q-100 28 -188 70q-78 38 -78 127q0 70 44.5 112t120.5 68q93 12 105 12q62 0 145 -30
q55 -20 88 -69.5t33 -108.5h-154q0 34 -41 63q-4 1 -16.5 7.5t-20.5 7.5q-5 0 -18 3.5t-19 3.5q-36 0 -72 -22q-30 -17 -30 -47q0 -50 29 -63q3 -1 16.5 -7t25 -9.5t23.5 -5.5l58 -16l47 -11q6 -1 22 -5.5t24 -4.5q29 -6 36 -11l32 -15q31 -20 50 -42q18 -39 19 -70
q2 -29 -16 -76q-62 -116 -261 -116zM232 466v-208h-169v643h543v-145h-374v-147h312v-143h-312zM669 261q-28 0 -51 25q-27 23 -27 51q0 29 24 53q21 21 54 21q38 0 62 -23q26 -23 26 -51q0 -30 -26 -56q-29 -20 -62 -20zM1352 179v-152h-1292v152h1292z" />
    <glyph glyph-name="_Fontastica" horiz-adv-x="1085" vert-adv-y="2275" 
d="M220 456v-269h-155l-5 6v934h700v-138h-540v-388h540v-145h-540zM1025 1127v-940h-700v146h540v382h-540v149h540v263h160zM212 33q-13 0 -29 7q-11 3 -19.5 17.5t-8.5 28.5q0 22 17.5 37t39.5 15q26 0 46 -28q8 -8 8 -24q0 -23 -15.5 -38t-38.5 -15zM623 33
q-27 0 -48 16l11 20q17 -15 37 -15q12 0 12 10l-1 2q-2 1 -2 3l-5 4q-2 0 -11 3q-3 1 -9.5 2t-9.5 3q-15 8 -15 27q0 30 41 30q22 0 41 -11l-11 -22q-13 12 -40 12l-1 -1l-2 -7q0 -1 1 -2t1 -2l4 -6q3 0 6.5 -1t4.5 -1q12 0 24.5 -10t12.5 -22q0 -15 -12.5 -23.5t-28.5 -8.5
zM859 33q-16 0 -27 7q-12 5 -20 18.5t-8 27.5q0 10 9 25.5t19 19.5q14 7 27 7q7 0 23 -4q9 -5 18 -14l-16 -18q-3 3 -11.5 8.5t-12.5 5.5q-14 0 -23 -14q-4 -5 -4 -16q0 -20 12 -25q8 -6 15 -6q4 0 13.5 5t10.5 8l16 -15q-12 -20 -41 -20zM101 72v-37h-26v101h75v-20h-49
v-24h47v-20h-47zM304 95v-60h-26v101h25l45 -61v61h26v-101h-24zM442 114v-79h-27v79h-30v22h85v-22h-28zM494 54l-6 -19h-27l42 101h28l42 -101h-28l-6 19h-45zM724 114v-79h-26v79h-30v22h87v-22h-31zM792 136v-101h-26v101h26zM935 54l-9 -19h-26l44 101h28l42 -101h-29
l-8 19h-42zM212 54q11 0 19.5 9.5t8.5 22.5q0 10 -9 20t-19 10q-6 0 -16 -6q-13 -7 -13 -24q0 -14 8 -23t21 -9zM531 73l-15 36l-14 -36h29zM969 73l-14 36l-12 -36h26z" />
    <glyph glyph-name="_www.fontastica.com" horiz-adv-x="1953" vert-adv-y="2275" 
d="M66 353v-60h-34l-2 1v209h158v-31h-122v-87h122v-32h-122zM247 503v-210h-158v32h122v86h-122v33h122v59h36zM1250 310q-46 0 -81 28l18 36q11 -10 30.5 -18.5t32.5 -8.5q4 0 16 4q7 3 7 11t-5 10q-9 6 -29 12q-28 8 -31 10q-11 5 -20 15q-7 10 -7 28q0 27 20.5 40.5
t48.5 13.5q39 0 70 -20l-17 -36q-34 18 -57 18q-18 0 -18 -12t33 -22q24 -5 31 -10q16 -9 20 -16q8 -11 8 -29q0 -27 -20.5 -40.5t-49.5 -13.5zM543 309q-39 0 -66.5 26t-27.5 65t27 64.5t67 25.5t67 -25.5t27 -64.5q0 -40 -26.5 -65.5t-67.5 -25.5zM1656 309
q-38 0 -64.5 26.5t-26.5 64.5q0 39 27 64.5t66 25.5q44 0 70 -30l-26 -32q-16 23 -43 23q-21 0 -34.5 -14.5t-13.5 -35.5q0 -16 6 -26q16 -25 42 -25q23 0 43 20l27 -28q-33 -33 -73 -33zM354 375v-62h-45v174h130v-36h-85v-39h78v-37h-78zM703 417v-104h-43v174h40l80 -105
l-1 105h43v-174h-40zM938 450v-137h-45v137h-52v37h150v-37h-53zM1031 343l-12 -30h-47l75 174h47l73 -174h-48l-12 30h-76zM1426 450v-137h-46v137h-52v37h150v-37h-52zM1542 487v-174h-45v174h45zM1787 343l-12 -30h-47l75 174h47l73 -174h-49l-11 30h-76zM544 348
q20 0 33.5 16t13.5 36q0 7 -7 26q-9 25 -40 25q-21 0 -34.5 -14.5t-13.5 -36.5q0 -21 13.5 -36.5t34.5 -15.5zM1093 378l-23 63l-25 -63h48zM1849 378l-24 63l-24 -63h48z" />
    </font>
</defs>
</svg>
