<?xml version="1.0" standalone="no"?>
<!DOCTYPE svg PUBLIC "-//W3C//DTD SVG 1.1//EN" "http://www.w3.org/Graphics/SVG/1.1/DTD/svg11.dtd" >
<svg xmlns="http://www.w3.org/2000/svg" xmlns:xlink="http://www.w3.org/1999/xlink" version="1.1">
<metadata>
Created by FontForge 20170731 at Tue May  4 19:24:40 2021
 By Aleksey,,,
Copyright (c) 2021 by Fontastica. All rights reserved.
</metadata>
<defs>
<font id="UnivaNova-HairlineItalic" horiz-adv-x="1023" vert-adv-y="2048" >
  <font-face 
    font-family="Univa Nova Hairline"
    font-weight="100"
    font-style="italic"
    font-stretch="normal"
    units-per-em="2048"
    panose-1="0 0 2 0 0 0 0 0 0 0"
    ascent="1638"
    descent="-410"
    x-height="1045"
    cap-height="1463"
    bbox="-69 -516.5 2676 2161"
    underline-thickness="50"
    underline-position="-150"
    slope="-9"
    unicode-range="U+0020-F8FF"
  />
<missing-glyph horiz-adv-x="899" vert-adv-y="2275" 
d="M982 1153l-182 -1144h-699l182 1144h699zM931 1121h-607l222 -506zM936 1075l-373 -494l216 -496zM520 581l-216 491l-156 -984zM760 43l-223 504l-382 -504h605z" />
    <glyph glyph-name="f_f.liga" unicode="ff" horiz-adv-x="1471" vert-adv-y="2275" 
d="M530 1020l-162 -1020h-34l162 1020h-224l4 25h224l36 230q32 204 198 256q48 15 91 16h25q26 0 38 -2l-4 -22q-15 3 -33 3q-10 0 -32 -2q-112 -12 -171.5 -73t-77.5 -174l-36 -232h685l36 230q32 205 198 256q47 14 90 16h25q26 0 38 -2l-4 -22q-15 3 -32 3q-11 0 -33 -2
q-112 -12 -172 -73t-78 -174l-36 -232h270l-4 -25h-270l-162 -1020h-32l162 1020h-685z" />
    <glyph glyph-name="f_f_t.liga" unicode="fft" horiz-adv-x="2120" vert-adv-y="2275" 
d="M1908 -2q-90 0 -119.5 51t-14.5 149l131 822h-658l-162 -1020h-32l162 1020h-685l-162 -1020h-34l162 1020h-224l4 25h224l36 230q32 204 198 256q48 15 91 16h25q26 0 38 -2l-4 -22q-15 3 -33 3q-10 0 -32 -2q-112 -12 -171.5 -73t-77.5 -174l-36 -232h685l36 230
q32 205 198 256q47 14 90 16h25q26 0 38 -2l-4 -22q-15 3 -32 3q-11 0 -33 -2q-112 -12 -172 -73t-78 -174l-36 -232h658l74 470h34l-74 -470h232l-4 -25h-232l-128 -803q-7 -56 -4 -99t36.5 -69t97.5 -26q49 0 73 1l-4 -23q-51 -3 -102 -3z" />
    <glyph glyph-name="f_t.liga" unicode="ft" horiz-adv-x="1428" vert-adv-y="2275" 
d="M1217 -2q-90 0 -119.5 51t-14.5 149l131 822h-684l-162 -1020h-34l162 1020h-224l4 25h224l36 230q32 204 198 256q48 15 91 16h25q26 0 38 -2l-4 -22q-15 3 -33 3q-10 0 -32 -2q-113 -13 -172 -73.5t-77 -173.5l-36 -232h684l74 470h32l-74 -470h233l-4 -25h-233
l-128 -803q-14 -94 12 -144t120 -50q48 0 72 1l-4 -23q-51 -3 -101 -3z" />
    <glyph glyph-name=".notdef" horiz-adv-x="899" vert-adv-y="2275" 
d="M982 1153l-182 -1144h-699l182 1144h699zM931 1121h-607l222 -506zM936 1075l-373 -494l216 -496zM520 581l-216 491l-156 -984zM760 43l-223 504l-382 -504h605z" />
    <glyph glyph-name=".null" horiz-adv-x="0" vert-adv-y="2275" 
 />
    <glyph glyph-name="nonmarkingreturn" horiz-adv-x="682" 
 />
    <glyph glyph-name="space" unicode=" " horiz-adv-x="541" vert-adv-y="2275" 
 />
    <glyph glyph-name="exclam" unicode="!" horiz-adv-x="428" vert-adv-y="2275" 
d="M469 1463l-205 -1190h-17l172 1190h50zM210 -17q-23 0 -35.5 14.5t-8.5 37.5q4 25 20.5 40t40.5 15t37 -15t9 -40q-4 -22 -22 -37t-41 -15z" />
    <glyph glyph-name="quotedbl" unicode="&#x22;" horiz-adv-x="750" vert-adv-y="2275" 
d="M455 1463l-87 -549h-36l87 549h36zM795 1463l-87 -549h-36l87 549h36z" />
    <glyph glyph-name="numbersign" unicode="#" horiz-adv-x="1218" vert-adv-y="2275" 
d="M439 474l-172 -474h-30l172 474h-236l9 27h240l163 453h-239l10 28h243l173 481h31l-176 -481h379l175 481h30l-176 -481h242l-11 -28h-242l-164 -453h243l-10 -27h-245l-173 -474h-29l172 474h-379zM994 954h-379l-164 -453h378z" />
    <glyph glyph-name="dollar" unicode="$" horiz-adv-x="1156" vert-adv-y="2275" 
d="M609 -30l-37 -236h-23l37 235h-32q-401 13 -414 380h36q4 -133 68 -218.5t189 -115.5q52 -13 124 -16l34 -2l116 734l-52 16q-64 19 -113 40t-96.5 54t-76 72t-41 95.5t-2.5 123.5q12 69 50 139q59 105 174 160.5t245 61.5h32l38 238h23l-38 -238h31q176 -9 266.5 -107.5
t90.5 -273.5h-37q-2 82 -30 154q-71 172 -289 198l-35 4l-112 -706l42 -12q215 -60 297 -158q76 -93 53 -236q-12 -74 -44 -132q-35 -63 -80 -108q-45 -46 -138 -90q-100 -47 -240 -56h-16zM693 774l20 -6l110 697h-17q-81 -4 -149.5 -22t-131.5 -54.5t-105 -100.5t-56 -152
q-23 -147 62 -230q77 -76 267 -132zM749 718l-20 7l-115 -728l36 4q76 9 124 22q127 35 210.5 116.5t103.5 206.5q24 150 -62 238q-32 32 -85 60t-92.5 42t-99.5 32z" />
    <glyph glyph-name="percent" unicode="%" horiz-adv-x="1903" vert-adv-y="2275" 
d="M535 573q-67 0 -114 28t-71 72t-34.5 105.5t-8 120.5t12.5 125q10 65 27 125t47 121t68 105.5t94 72.5t122 28q67 0 114 -28t71 -72.5t34 -106t7.5 -120.5t-12.5 -125t-27 -125t-46.5 -120.5t-67 -105.5t-93.5 -72t-123 -28zM1593 1463l-1024 -1463h-28l1025 1463h27z
M538 596q64 0 117.5 30.5t87 75t59.5 106.5t39 112t21 104q9 54 12.5 104.5t-3 112t-26 106t-63 75t-108.5 30.5q-64 0 -117 -30.5t-86.5 -75t-59.5 -106.5t-39 -112t-21 -104t-11.5 -104t3 -112t25.5 -106.5t62.5 -75t107.5 -30.5zM1457 -12q-56 0 -99 19t-68 53
t-40.5 76.5t-19 95t-1 103t11.5 104.5q10 66 27 125.5t46.5 120.5t67.5 104.5t94.5 71.5t123.5 28q66 0 113 -28t71 -72t34.5 -105t8.5 -120.5t-12 -124.5q-13 -83 -38 -157t-66 -143t-106.5 -110t-147.5 -41zM1461 10q64 0 117 30.5t86.5 75t59 107t38 112t21.5 104.5
q7 44 10 85.5t2.5 93t-12.5 93t-33 78t-60.5 57t-93.5 20.5q-65 0 -118 -30.5t-86.5 -74.5t-59.5 -106t-38.5 -112t-20.5 -104q-9 -54 -12.5 -104.5t3 -112.5t26 -106.5t63 -75t108.5 -30.5z" />
    <glyph glyph-name="ampersand" unicode="&#x26;" horiz-adv-x="1305" vert-adv-y="2275" 
d="M548 -38q-72 0 -140 15q-131 30 -195 126t-42 235q39 250 375 399l48 22l-15 17q-84 93 -126.5 182t-26.5 192q24 149 139 245t264 96q215 0 286 -163q30 -65 16 -151q-13 -80 -52.5 -144.5t-103.5 -112.5t-128 -80.5t-150 -64.5l-53 -20l454 -504l13 15q143 161 179 403
l39 2q-37 -236 -191 -422l-9 -10l-10 -12l185 -207l-50 -1l-157 177l-28 -24q-54 -49 -85 -70q-196 -140 -436 -140zM614 788l14 -14l9 3q84 31 178 77q122 58 188.5 129t85.5 189q21 134 -54 212t-208 78q-68 0 -149 -31q-87 -34 -140.5 -106.5t-67.5 -163.5q-4 -44 -5 -78
t10 -70t22.5 -63t32 -57.5t39.5 -53.5t45 -51zM550 -9q217 0 409 133q42 30 88 73l26 24l-461 518l-22 -8q-72 -31 -129 -64.5t-111.5 -80.5t-89.5 -109.5t-47 -136.5q-27 -172 69 -260.5t268 -88.5z" />
    <glyph glyph-name="quotesingle" unicode="'" horiz-adv-x="409" vert-adv-y="2275" 
d="M455 1463l-87 -549h-36l87 549h36z" />
    <glyph glyph-name="parenleft" unicode="(" horiz-adv-x="535" vert-adv-y="2275" 
d="M395 -358h-26q-86 204 -107.5 461t19.5 493q41 253 140 502.5t250 450.5h26q-295 -426 -378 -953q-84 -528 76 -954z" />
    <glyph glyph-name="parenright" unicode=")" horiz-adv-x="535" vert-adv-y="2275" 
d="M52 -358h-26q295 424 379 954t-77 953h26q87 -202 108.5 -459.5t-20.5 -493.5q-40 -253 -139 -501.5t-251 -452.5z" />
    <glyph glyph-name="asterisk" unicode="*" horiz-adv-x="736" vert-adv-y="2275" 
d="M574 1172l135 -242l-25 -16l-134 244l-208 -243l-20 18l212 241l-265 90l13 26l262 -95l46 300h30l-50 -302l293 95l5 -26z" />
    <glyph glyph-name="plus" unicode="+" horiz-adv-x="1162" vert-adv-y="2275" 
d="M676 492l-78 -492h-31l78 492h-496l5 33h496l78 494h31l-78 -494h495l-5 -33h-495z" />
    <glyph glyph-name="comma" unicode="," horiz-adv-x="331" vert-adv-y="2275" 
d="M222 88l-166 -300h-21l136 300h51z" />
    <glyph glyph-name="hyphen" unicode="-" horiz-adv-x="757" vert-adv-y="2275" 
d="M750 523l-4 -27h-576l4 27h576z" />
    <glyph glyph-name="period" unicode="." horiz-adv-x="357" vert-adv-y="2275" 
d="M175 -17q-23 0 -35.5 14.5t-8.5 37.5q4 25 20.5 40t40.5 15q23 0 36.5 -15.5t9.5 -39.5q-4 -22 -22 -37t-41 -15z" />
    <glyph glyph-name="slash" unicode="/" horiz-adv-x="715" vert-adv-y="2275" 
d="M900 1463l-816 -1463h-38l816 1463h38z" />
    <glyph glyph-name="zero" unicode="0" horiz-adv-x="1162" vert-adv-y="2275" 
d="M583 -22q-137 0 -231.5 97t-129 270t-0.5 390q35 216 124 389t214 270t262 97t231.5 -97t129 -269.5t-0.5 -389.5q-34 -217 -123 -390t-214 -270t-262 -97zM587 8q132 6 250 101t201 258.5t115 367.5q30 209 0.5 368.5t-118.5 255.5t-218 102q-199 -9 -357.5 -213
t-208.5 -513q-32 -203 -0.5 -367t119.5 -259t217 -101z" />
    <glyph glyph-name="one" unicode="1" horiz-adv-x="1158" vert-adv-y="2275" 
d="M1007 32l-5 -32h-769l5 32h365l220 1391h-365l7 40h403l-227 -1431h366z" />
    <glyph glyph-name="two" unicode="2" horiz-adv-x="1161" vert-adv-y="2275" 
d="M1039 34l-5 -34h-918l7 44l681 546q287 229 323 461q30 187 -59.5 301t-275.5 114q-157 0 -267.5 -81t-164.5 -234h-40q56 165 181 254.5t296 89.5q142 0 241 -62t123 -187q18 -89 2 -189q-40 -255 -346 -497l-666 -526h888z" />
    <glyph glyph-name="three" unicode="3" horiz-adv-x="1160" vert-adv-y="2275" 
d="M575 -33q-191 0 -306.5 96.5t-100.5 276.5h41q-13 -146 76 -240q96 -103 295 -103q195 0 325 103q132 106 158 274q15 94 -8 166t-75.5 115t-124 64.5t-158.5 21.5h-80l4 26h80q177 0 298 98q119 99 145 257q26 167 -69.5 255.5t-262.5 88.5q-157 0 -278 -78t-157 -232
h-37q13 52 43 108q63 116 180 173.5t254 57.5q76 0 150 -20q117 -33 175 -129t38 -224q-18 -111 -83 -197t-170 -134l-39 -18l-36 -16l67 -28q105 -45 155 -139.5t31 -215.5q-21 -130 -100 -224t-189.5 -138.5t-240.5 -44.5z" />
    <glyph glyph-name="four" unicode="4" horiz-adv-x="1168" vert-adv-y="2275" 
d="M938 396l-63 -396h-30l63 396h-783l5 35l926 1032h51l-164 -1035h214l-5 -32h-214zM913 428l160 1012l-910 -1012h750z" />
    <glyph glyph-name="five" unicode="5" horiz-adv-x="1155" vert-adv-y="2275" 
d="M573 -33q-182 0 -289 98.5t-109 274.5h21q10 -162 111.5 -255.5t269.5 -93.5q97 0 185.5 39t153.5 104t109 150t59 178q30 190 -72.5 310t-294.5 120q-119 0 -234 -63t-185 -169h-16l191 803h730l-6 -34h-707l-169 -716q39 67 116.5 115t151 67t134.5 19
q142 0 245.5 -67.5t133.5 -192.5q22 -100 7 -192q-32 -204 -185 -349.5t-351 -145.5z" />
    <glyph glyph-name="six" unicode="6" horiz-adv-x="1161" vert-adv-y="2275" 
d="M604 -20q-61 0 -115 15q-161 42 -224 170.5t-33 317.5q79 495 681 972l36 2q-161 -126 -313 -284q-130 -136 -212 -263t-129 -275q70 130 204 208t280 78q69 0 121 -16q87 -25 152.5 -90t89.5 -150q32 -111 14 -215q-22 -138 -108.5 -250t-217.5 -172q-108 -48 -226 -48z
M602 0q126 0 242.5 60t193.5 163.5t92 225.5q25 199 -69.5 323.5t-278.5 124.5q-189 0 -342.5 -125t-183.5 -312q-31 -197 66.5 -328.5t279.5 -131.5z" />
    <glyph glyph-name="seven" unicode="7" horiz-adv-x="1161" vert-adv-y="2275" 
d="M476 0h-44q194 639 553 1118q90 121 213 257l48 54h-924l6 34h961l-8 -47q-307 -327 -495 -661t-310 -755z" />
    <glyph glyph-name="eight" unicode="8" horiz-adv-x="1161" vert-adv-y="2275" 
d="M576 -33q-97 0 -176.5 26t-136 75.5t-81.5 128t-9 177.5q19 120 99 214.5t199 140.5l39 14l37 14l-32 16l-32 18q-88 49 -127 135t-22 196q10 71 50 142q63 115 181 173t253 58q76 0 150 -20q117 -33 175.5 -129.5t38.5 -223.5q-18 -111 -83.5 -197t-170.5 -134l-39 -18
l-36 -16l67 -28q105 -46 155 -140.5t31 -214.5q-21 -130 -100 -224t-189.5 -138.5t-240.5 -44.5zM702 767q180 0 299 98q119 99 145 257q26 168 -70 256t-263 88q-109 0 -199.5 -35.5t-157 -115t-84.5 -193.5q-27 -170 67 -262.5t263 -92.5zM581 -3q194 0 326 103
q130 103 157 274q15 94 -8 166t-75.5 115t-124 64.5t-158.5 21.5t-165.5 -21.5t-145 -64.5t-112 -115t-60.5 -166q-27 -170 71 -274q96 -103 295 -103z" />
    <glyph glyph-name="nine" unicode="9" horiz-adv-x="1161" vert-adv-y="2275" 
d="M499 2l-35 -2q161 126 313 284q130 136 212 263t129 275q-71 -130 -205 -208t-279 -78q-68 0 -122 16q-86 25 -151.5 90t-90.5 150q-30 111 -14 215q22 138 109 250t217 172q108 48 227 48q61 0 115 -15q161 -42 223.5 -171t32.5 -317q-78 -494 -681 -972zM631 560
q189 0 342.5 125t183.5 312q31 197 -66.5 328.5t-279.5 131.5q-126 0 -242.5 -60t-193.5 -163.5t-92 -225.5q-25 -199 69.5 -323.5t278.5 -124.5z" />
    <glyph glyph-name="colon" unicode=":" horiz-adv-x="357" vert-adv-y="2275" 
d="M325 929q-23 0 -36 14.5t-9 37.5q4 25 21 40t41 15q23 0 36 -15.5t9 -39.5q-3 -22 -21 -37t-41 -15zM175 -17q-23 0 -35.5 14.5t-8.5 37.5q4 25 20.5 40t40.5 15q23 0 36.5 -15.5t9.5 -39.5q-4 -22 -22 -37t-41 -15z" />
    <glyph glyph-name="semicolon" unicode=";" horiz-adv-x="344" vert-adv-y="2275" 
d="M315 929q-23 0 -36 14.5t-9 37.5q10 55 62 55q23 0 35.5 -15.5t8.5 -39.5q-3 -22 -20.5 -37t-40.5 -15zM222 88l-166 -300h-21l136 300h51z" />
    <glyph glyph-name="less" unicode="&#x3c;" horiz-adv-x="1161" vert-adv-y="2275" 
d="M199 510l870 -385l-6 -36l-874 395l8 50l999 397l-5 -36z" />
    <glyph glyph-name="equal" unicode="=" horiz-adv-x="1162" vert-adv-y="2275" 
d="M1210 741l-5 -34h-1022l5 34h1022zM1142 310l-5 -34h-1022l5 34h1022z" />
    <glyph glyph-name="greater" unicode="&#x3e;" horiz-adv-x="1161" vert-adv-y="2275" 
d="M1134 534l-8 -50l-1000 -395l6 36l991 385l-869 385l5 36z" />
    <glyph glyph-name="question" unicode="?" horiz-adv-x="1030" vert-adv-y="2275" 
d="M562 385l-20 -126h-34l20 126q15 94 89 180q28 31 75 75q42 36 87 72q56 48 89 79t76 81.5t68.5 107.5t36.5 123q26 167 -59 265t-251 98q-171 0 -290 -109.5t-146 -282.5q-1 -8 -2 -16.5t-2 -19t-2 -16.5h-41q2 28 6 56q28 182 164.5 299.5t317.5 117.5q74 0 143 -20
q117 -34 171.5 -134t33.5 -232q-18 -111 -77 -195.5t-165 -172.5q-14 -12 -67 -56t-81 -69q-83 -75 -117 -152q-17 -36 -23 -79zM485 -17q-24 0 -36 14t-8 38q4 26 20 40.5t41 14.5q24 0 37 -15.5t9 -39.5q-4 -22 -22 -37t-41 -15z" />
    <glyph glyph-name="at" unicode="@" horiz-adv-x="1681" vert-adv-y="2275" 
d="M809 -263q-339 0 -504.5 208.5t-111.5 553.5q36 224 161 403.5t316.5 281t413.5 101.5q145 0 263.5 -44t198.5 -124.5t113.5 -203t10.5 -271.5q-14 -89 -50.5 -177t-101.5 -166.5t-144 -116.5q-81 -39 -146 -39q-112 0 -124 117l-2 41l-3 40l-27 -35l-26 -36
q-49 -61 -115.5 -94t-138.5 -33q-129 0 -183 86.5t-32 224.5q10 64 32.5 124.5t58.5 115.5t81 96t104 65t124 24q76 0 127 -34t69 -101q2 -8 4 -17t4.5 -20t3.5 -17l13 -53l58 167h33l-139 -392q-14 -44 -19 -75q-11 -70 17 -118.5t99 -48.5q77 0 160 48q65 38 116.5 114.5
t77 151t37.5 148.5q24 148 -6.5 267t-105.5 198t-189 121.5t-257 42.5q-162 0 -308.5 -58t-257.5 -159.5t-186 -242t-101 -302.5q-35 -220 20.5 -386.5t200.5 -260t365 -93.5q181 0 336 69q145 64 236 155h24q-121 -119 -279 -182.5t-321 -63.5zM814 163q66 0 140 45
q82 50 138.5 154t72.5 204q11 54 5 106t-23.5 93t-60.5 66t-106 25q-64 0 -120.5 -24.5t-97 -64t-72.5 -92.5t-50.5 -107.5t-27.5 -111.5q-24 -158 34 -225q57 -68 168 -68z" />
    <glyph glyph-name="A" unicode="A" horiz-adv-x="1467" vert-adv-y="2275" 
d="M403 433l-249 -433h-44l843 1463h26l378 -1463h-40l-111 433h-803zM1197 467l-239 932l-536 -932h775z" />
    <glyph glyph-name="B" unicode="B" horiz-adv-x="1263" vert-adv-y="2275" 
d="M666 0h-556l232 1463h548q235 0 331 -100q95 -98 67 -269q-25 -165 -160 -263q-96 -70 -225 -89q150 -11 232 -81q107 -94 78 -280q-16 -105 -66.5 -181t-127 -118.5t-164 -62t-189.5 -19.5zM892 1429h-519l-106 -669h519q186 0 319 96q129 93 146 238q11 94 -12 161
t-76 104t-119.5 53.5t-151.5 16.5zM794 726h-532l-110 -692h530q69 0 131.5 10t124.5 35t109.5 63t82 99.5t46.5 139.5q26 166 -73 255q-101 90 -309 90z" />
    <glyph glyph-name="C" unicode="C" horiz-adv-x="1587" vert-adv-y="2275" 
d="M810 -33q-131 0 -245 43t-194 128q-89 94 -122 208q-32 107 -33 213q-2 98 10 173q21 132 76 256.5t149.5 234t213.5 172.5q191 100 387 100q242 0 399.5 -131t185.5 -362h-40q-24 215 -175 339.5t-375 124.5q-153 0 -289 -59t-235 -159.5t-165 -233.5t-90 -282
q-16 -120 -7.5 -229t52 -201.5t110.5 -160t168 -106t224 -38.5q224 0 413.5 124t282.5 340h40q-101 -231 -300 -362.5t-441 -131.5z" />
    <glyph glyph-name="D" unicode="D" horiz-adv-x="1431" vert-adv-y="2275" 
d="M525 0h-415l232 1463h415q124 0 231 -24t198 -74.5t155 -136t90 -199.5q31 -135 6 -297q-26 -163 -100 -299q-82 -151 -215.5 -250.5t-281.5 -141t-315 -41.5zM742 1429h-369l-221 -1395h369q371 0 597 185q227 187 278 513q52 328 -116 512q-167 185 -538 185z" />
    <glyph glyph-name="E" unicode="E" horiz-adv-x="1137" vert-adv-y="2275" 
d="M1032 34l-5 -34h-917l232 1463h917l-6 -34h-880l-106 -669h740l-5 -34h-740l-110 -692h880z" />
    <glyph glyph-name="F" unicode="F" horiz-adv-x="1137" vert-adv-y="2275" 
d="M262 726l-115 -726h-37l232 1463h917l-6 -34h-880l-106 -669h740l-5 -34h-740z" />
    <glyph glyph-name="G" unicode="G" horiz-adv-x="1593" vert-adv-y="2275" 
d="M810 -33q-269 0 -429.5 161.5t-164.5 430.5q-2 98 10 173q21 132 76 256.5t149.5 234t213.5 172.5q191 100 387 100q238 0 394 -120.5t187 -342.5h-39q-30 208 -178.5 321t-368.5 113q-153 0 -290 -59t-237 -159.5t-167 -233.5t-91 -282t1.5 -282.5t93.5 -234
t186.5 -159.5t271.5 -59q128 0 254 48q193 74 324 238q133 169 167 388l6 34h-603l5 34h632l-117 -739h-29l73 460q-57 -139 -157 -247q-108 -117 -253 -181.5t-307 -64.5z" />
    <glyph glyph-name="H" unicode="H" horiz-adv-x="1321" vert-adv-y="2275" 
d="M262 726l-115 -726h-37l232 1463h37l-112 -703h1028l112 703h36l-232 -1463h-36l115 726h-1028z" />
    <glyph glyph-name="I" unicode="I" horiz-adv-x="596" vert-adv-y="2275" 
d="M490 27l-4 -27h-376l4 27h170l223 1409h-170l5 27h376l-5 -27h-170l-223 -1409h170z" />
    <glyph glyph-name="J" unicode="J" horiz-adv-x="1321" vert-adv-y="2275" 
d="M654 -33q-132 0 -228 42t-150.5 119.5t-74 182.5t-4.5 236h37q-14 -116 4.5 -215t69 -174.5t140.5 -118t211 -42.5q126 0 232.5 46t181.5 126.5t124 184.5t68 226l140 883h38l-137 -862q-22 -140 -73 -254t-130 -200t-193.5 -133t-255.5 -47z" />
    <glyph glyph-name="K" unicode="K" horiz-adv-x="1254" vert-adv-y="2275" 
d="M233 543l-86 -543h-37l232 1463h37l-137 -862l1081 862h53l-768 -618l530 -845h-47l-512 821z" />
    <glyph glyph-name="L" unicode="L" horiz-adv-x="1137" vert-adv-y="2275" 
d="M1032 34l-5 -34h-917l232 1463h37l-227 -1429h880z" />
    <glyph glyph-name="M" unicode="M" horiz-adv-x="1495" vert-adv-y="2275" 
d="M370 1407l-223 -1407h-37l232 1463h41l473 -776l719 776h42l-232 -1463h-38l223 1407l-726 -783q-6 11 -18.5 30.5t-16.5 27.5q-20 34 -56.5 95t-46.5 77q-72 119 -313 515z" />
    <glyph glyph-name="N" unicode="N" horiz-adv-x="1321" vert-adv-y="2275" 
d="M375 1439l-228 -1439h-37l232 1463h64l772 -1441l229 1441h36l-232 -1463h-63z" />
    <glyph glyph-name="O" unicode="O" horiz-adv-x="1677" vert-adv-y="2275" 
d="M833 -33q-160 0 -287 59t-205 161.5t-109 243.5t-6 301t101 300.5t186.5 242.5t256.5 161t305 59q213 0 364.5 -100.5t215 -274t29.5 -388.5t-152.5 -389t-302 -275t-396.5 -101zM838 -3q154 0 294 58t245.5 157t177 234t95.5 286q32 202 -27.5 369t-204 266t-348.5 99
q-153 0 -292.5 -58t-244.5 -157.5t-176.5 -233.5t-95.5 -285q-32 -202 27 -369t203 -266.5t347 -99.5z" />
    <glyph glyph-name="P" unicode="P" horiz-adv-x="1225" vert-adv-y="2275" 
d="M262 726l-115 -726h-37l232 1463h548q78 0 142.5 -11.5t118.5 -39t88.5 -69t48 -105t0.5 -144.5q-28 -171 -152 -268q-129 -100 -363 -100h-511zM892 1429h-519l-106 -669h519q86 0 158.5 16.5t138 53t109.5 104t59 161.5q12 76 -1 134.5t-45 95.5t-82 61t-106.5 33.5
t-124.5 9.5z" />
    <glyph glyph-name="Q" unicode="Q" horiz-adv-x="1677" vert-adv-y="2275" 
d="M1228 67l232 -225l-29 -25l-239 232q-169 -82 -359 -82q-160 0 -287 59t-205 161.5t-109 243.5t-6 301t101 300.5t186.5 242.5t256.5 161t305 59q213 0 364.5 -100.5t215 -274t29.5 -388.5q-34 -216 -155 -391.5t-301 -273.5zM838 -3q154 0 294 58t245.5 157t177 234
t95.5 286q32 202 -27.5 369t-204 266t-348.5 99q-153 0 -292.5 -58t-244.5 -157.5t-176.5 -233.5t-95.5 -285q-32 -202 27 -369t203 -266.5t347 -99.5z" />
    <glyph glyph-name="R" unicode="R" horiz-adv-x="1225" vert-adv-y="2275" 
d="M262 726l-115 -726h-37l232 1463h548q98 0 174.5 -19.5t134 -61t81.5 -114.5t8 -174q-52 -331 -444 -365l-52 -4l291 -725h-50l-280 726h-491zM892 1429h-519l-106 -669h519q86 0 158.5 16.5t138 53t109.5 104t59 161.5q12 76 -1 134.5t-45 95.5t-82 61t-106.5 33.5
t-124.5 9.5z" />
    <glyph glyph-name="S" unicode="S" horiz-adv-x="1260" vert-adv-y="2275" 
d="M609 -23q-214 0 -329 97q-113 97 -116 285h37q3 -159 85 -245q99 -103 329 -103q158 0 279 56q103 48 174 121.5t86 171.5q6 37 6.5 67.5t-6 57t-15.5 48t-28.5 40t-38 32.5t-50 28t-59.5 24t-72.5 22t-81.5 20.5t-94 20.5q-156 34 -198 47q-112 34 -168 87
q-39 36 -60 94q-20 54 -5 152q15 94 75 170.5t144 122.5t177.5 70.5t184.5 24.5q214 0 329 -97q113 -97 116 -285h-37q-3 159 -85 245q-99 103 -329 103q-158 0 -279 -56q-103 -48 -174 -121.5t-86 -171.5q-6 -36 -5.5 -67t4.5 -55.5t15 -46t23 -37.5t32 -30.5t37.5 -24.5
t44.5 -20.5t48 -17.5t52 -17q70 -21 204 -50q16 -3 57 -12t55.5 -12t47 -11t47 -13.5t39.5 -14.5t39.5 -17.5t32 -21t32.5 -26.5q39 -36 60 -94q20 -54 5 -152q-15 -94 -75 -170.5t-144 -122.5t-177.5 -70.5t-184.5 -24.5z" />
    <glyph glyph-name="T" unicode="T" horiz-adv-x="1265" vert-adv-y="2275" 
d="M876 1429l-226 -1429h-36l226 1429h-504l6 34h1045l-6 -34h-505z" />
    <glyph glyph-name="U" unicode="U" horiz-adv-x="1322" vert-adv-y="2275" 
d="M656 -33q-113 0 -200 31t-141.5 87t-86.5 135t-35 175t12 206l137 862h38l-140 -883q-13 -97 -9 -183.5t35.5 -160t82 -126.5t131 -83t181.5 -30q126 0 232.5 46t181.5 126.5t124 184.5t68 226l140 883h37l-137 -862q-22 -140 -72.5 -254t-130 -200t-193.5 -133t-255 -47
z" />
    <glyph glyph-name="V" unicode="V" horiz-adv-x="1467" vert-adv-y="2275" 
d="M1589 1463l-842 -1463h-26l-379 1463h44l360 -1399l803 1399h40z" />
    <glyph glyph-name="W" unicode="W" horiz-adv-x="2219" vert-adv-y="2275" 
d="M2299 1463l-742 -1463l-28 -2l-216 1414l-663 -1412h-33l-275 1463h46l253 -1412l663 1410l1 2h34l215 -1414l704 1414h41z" />
    <glyph glyph-name="X" unicode="X" horiz-adv-x="1415" vert-adv-y="2275" 
d="M823 717l-662 -717h-51l695 742l-461 721h49l438 -695l659 695h45l-688 -721l458 -742h-47z" />
    <glyph glyph-name="Y" unicode="Y" horiz-adv-x="1412" vert-adv-y="2275" 
d="M839 736l-117 -736h-37l118 742l-461 721h50l437 -695l659 695h46z" />
    <glyph glyph-name="Z" unicode="Z" horiz-adv-x="1310" vert-adv-y="2275" 
d="M1204 34l-5 -34h-1089l7 43l1267 1386h-1039l6 34h1071l-7 -43l-1267 -1386h1056z" />
    <glyph glyph-name="bracketleft" unicode="[" horiz-adv-x="541" vert-adv-y="2275" 
d="M444 -330l-5 -28h-336l302 1907h336l-4 -27h-302l-293 -1852h302z" />
    <glyph glyph-name="backslash" unicode="\" horiz-adv-x="715" vert-adv-y="2275" 
d="M316 1463l352 -1463h-38l-352 1463h38z" />
    <glyph glyph-name="bracketright" unicode="]" horiz-adv-x="541" vert-adv-y="2275" 
d="M626 1549l-302 -1907h-335l5 28h303l293 1852h-303l4 27h335z" />
    <glyph glyph-name="asciicircum" unicode="^" horiz-adv-x="1127" vert-adv-y="2275" 
d="M794 1457l-528 -949h-36l541 955h49l238 -955h-36z" />
    <glyph glyph-name="underscore" unicode="_" horiz-adv-x="992" vert-adv-y="2275" 
d="M947 -283l-4 -28h-992l4 28h992z" />
    <glyph glyph-name="grave" unicode="`" horiz-adv-x="623" vert-adv-y="2275" 
d="M536 1650l70 -298h-24l-86 298h40z" />
    <glyph glyph-name="a" unicode="a" horiz-adv-x="1060" vert-adv-y="2275" 
d="M469 -25q-260 0 -310 159q-18 59 -7 132q35 220 261 276q39 10 70.5 14.5t150 14t377.5 26.5l12 76q29 175 -54.5 262t-258.5 87q-165 0 -274.5 -77.5t-144.5 -238.5l-33 -1q36 171 156 255.5t300 84.5q189 0 280.5 -93.5t61.5 -280.5l-106 -671h-34l42 266
q-33 -76 -97 -140q-72 -70 -173 -110.5t-219 -40.5zM473 -3q133 0 238 49q83 38 143 99q101 103 124 246l29 182q-115 -6 -201 -12t-122 -9.5t-79.5 -8t-56.5 -5.5q-126 -14 -171 -33q-162 -68 -189 -239q-12 -73 7 -127t61.5 -84t96.5 -44t120 -14z" />
    <glyph glyph-name="b" unicode="b" horiz-adv-x="1197" vert-adv-y="2275" 
d="M601 -25q-166 0 -273 98t-132 254l-52 -327h-34l232 1463h34l-122 -771q74 157 213 255t304 98q160 0 265.5 -91t135.5 -246q19 -100 3 -198q-16 -99 -66 -199q-78 -155 -213 -245.5t-295 -90.5zM605 -1q120 0 240 66q122 67 202 188.5t101 256.5q21 134 -20.5 256
t-141.5 189q-96 65 -219 65q-121 0 -240 -65q-113 -62 -191.5 -174.5t-105.5 -237.5l-11 -67q-12 -127 30 -238t137 -173q101 -66 219 -66z" />
    <glyph glyph-name="c" unicode="c" horiz-adv-x="1171" vert-adv-y="2275" 
d="M595 -24q-142 0 -243 74t-142.5 195.5t-18.5 264.5q17 106 68.5 203.5t126 171t174 117t205.5 43.5q166 0 272.5 -96.5t131.5 -258.5h-35q-23 179 -154 265q-100 65 -219 65q-120 0 -240 -65q-81 -45 -145.5 -118.5t-103 -156.5t-52.5 -170q-21 -134 19.5 -256.5
t140.5 -188.5q98 -65 219 -65q122 0 240 65q158 85 238 265h35q-77 -162 -214 -258t-303 -96z" />
    <glyph glyph-name="d" unicode="d" horiz-adv-x="1197" vert-adv-y="2275" 
d="M588 -25q-160 0 -266 90.5t-136 245.5q-18 98 -2 199t65 198q78 155 213.5 246t295.5 91q165 0 272.5 -98t132.5 -255l122 771h34l-232 -1463h-34l52 327q-74 -156 -212.5 -254t-304.5 -98zM592 -1q120 0 239 66q115 62 192 173t105 238l11 67q12 126 -30.5 238
t-136.5 174q-97 65 -218 65q-123 0 -241 -65q-120 -67 -200.5 -189.5t-101.5 -255.5q-21 -135 19.5 -256.5t141.5 -188.5q98 -66 220 -66z" />
    <glyph glyph-name="e" unicode="e" horiz-adv-x="1229" vert-adv-y="2275" 
d="M610 -25q-145 0 -250 72.5t-148.5 194.5t-20.5 268q35 224 202.5 379.5t386.5 155.5q145 0 249.5 -71.5t148.5 -192.5t22 -267l-979 1l-4 -35q-6 -66 7 -151q24 -152 128.5 -241t261.5 -89q145 0 269.5 75.5t201.5 209.5l28 -10q-81 -139 -216 -219t-287 -80zM229 558
l-4 -18h951l1 18q11 129 -34 234t-141 166.5t-226 61.5q-152 0 -279.5 -82t-202.5 -226q-46 -88 -59 -133z" />
    <glyph glyph-name="f" unicode="f" horiz-adv-x="753" vert-adv-y="2275" 
d="M530 1020l-162 -1020h-34l162 1020h-224l4 25h224l36 230q32 204 198 256q48 15 91 16h25q26 0 38 -2l-4 -22q-15 3 -33 3q-10 0 -32 -2q-112 -12 -171.5 -73t-77.5 -174l-36 -232h268l-4 -25h-268z" />
    <glyph glyph-name="g" unicode="g" horiz-adv-x="1197" vert-adv-y="2275" 
d="M549 -472q-101 0 -191 33.5t-141 99.5q-46 59 -64 129h39q12 -49 46 -98q48 -69 135 -104t184 -35q192 0 328.5 120.5t167.5 314.5l53 335l-6 -12q-78 -155 -213 -245.5t-295 -90.5q-142 0 -243.5 74t-142.5 195.5t-18 265.5q17 107 68.5 204.5t126 170.5t174 116.5
t205.5 43.5q160 0 265.5 -91t135.5 -246q2 -8 2 -12l51 323h31l-157 -995q-36 -226 -178 -361t-363 -135zM596 -1q120 0 240 66q108 59 183.5 162.5t106.5 223.5l19 117q6 119 -36.5 223t-131.5 164q-96 65 -219 65q-121 0 -240 -65q-121 -67 -201.5 -189.5t-101.5 -255.5
q-21 -135 20 -257t142 -188t219 -66z" />
    <glyph glyph-name="h" unicode="h" vert-adv-y="2275" 
d="M245 636l-101 -636h-34l232 1463h34l-99 -623q35 58 82 100q56 52 141.5 79.5t177.5 27.5t168.5 -27.5t117.5 -79.5q82 -103 56 -273l-106 -667h-33l101 636q30 188 -46.5 286.5t-260.5 99.5q-185 -1 -292.5 -99.5t-137.5 -286.5z" />
    <glyph glyph-name="i" unicode="i" horiz-adv-x="319" vert-adv-y="2275" 
d="M375 1364q-21 0 -33 13.5t-8 34.5q4 23 19.5 37t37.5 14t33 -14t8 -37q-4 -20 -20.5 -34t-36.5 -14zM341 1045l-166 -1045h-34l166 1045h34z" />
    <glyph glyph-name="j" unicode="j" horiz-adv-x="458" vert-adv-y="2275" 
d="M514 1364q-21 0 -33 13.5t-8 34.5q4 23 19.5 37t37.5 14t33.5 -14t8.5 -37q-4 -20 -20.5 -34t-37.5 -14zM74 -473q-13 0 -39 2l4 24l18 -1q88 0 129.5 53t55.5 141l206 1299h32l-209 -1316q-16 -99 -61.5 -150.5t-135.5 -51.5z" />
    <glyph glyph-name="k" unicode="k" horiz-adv-x="1067" vert-adv-y="2275" 
d="M196 312l-49 -313h-37l232 1464h37l-174 -1094l849 677h55l-538 -432l386 -615h-47l-368 590z" />
    <glyph glyph-name="l" unicode="l" horiz-adv-x="425" vert-adv-y="2275" 
d="M318 23l-4 -24l-30 -1q-96 -3 -127.5 46.5t-15.5 153.5l203 1277h34l-200 -1258q-8 -58 -3 -101.5t39.5 -68t100.5 -24.5h3z" />
    <glyph glyph-name="m" unicode="m" horiz-adv-x="1658" vert-adv-y="2275" 
d="M245 636l-101 -636h-31l165 1042h31l-32 -202q32 58 76 100q52 52 130 79.5t161 27.5t152 -27.5t105 -79.5q42 -59 52 -145q35 85 98 145q51 52 128.5 79.5t160.5 27.5h2q83 0 151 -27.5t104 -79.5q73 -103 47 -273l-106 -667h-30l101 636q30 188 -37.5 286.5
t-234.5 99.5q-167 -1 -265.5 -99.5t-128.5 -286.5l-101 -636h-30l101 636q30 188 -37.5 286.5t-234.5 99.5q-168 -1 -267 -99.5t-129 -286.5z" />
    <glyph glyph-name="n" unicode="n" vert-adv-y="2275" 
d="M245 636l-101 -636h-34l165 1042h34l-32 -202q35 58 82 100q56 52 141.5 79.5t177.5 27.5t168.5 -27.5t117.5 -79.5q82 -103 56 -273l-106 -667h-33l101 636q30 188 -46.5 286.5t-260.5 99.5q-185 -1 -292.5 -99.5t-137.5 -286.5z" />
    <glyph glyph-name="o" unicode="o" horiz-adv-x="1199" vert-adv-y="2275" 
d="M595 -25q-142 0 -243.5 74t-142.5 195.5t-18 265.5q17 107 68.5 204.5t126 170.5t174 116.5t205.5 43.5q160 0 265.5 -91t135.5 -246q19 -100 3 -198q-16 -99 -66 -199q-78 -155 -213 -245.5t-295 -90.5zM599 -1q120 0 240 66q122 67 202 188.5t101 256.5
q21 134 -20.5 256t-141.5 189q-96 65 -219 65q-121 0 -240 -65q-121 -67 -201.5 -189.5t-101.5 -255.5q-21 -135 20 -257t142 -188t219 -66z" />
    <glyph glyph-name="p" unicode="p" horiz-adv-x="1204" vert-adv-y="2275" 
d="M196 328l-127 -803h-34l238 1503h34l-53 -335q74 156 212.5 254t304.5 98q160 0 266 -90.5t135 -245.5q19 -101 3 -199q-17 -102 -66 -198q-78 -155 -213 -246t-295 -91q-165 0 -272.5 98t-132.5 255zM605 0q124 0 240 65q121 67 201.5 189t101.5 256q21 135 -20 256.5
t-142 188.5q-98 66 -219 66q-119 0 -240 -66q-114 -62 -191.5 -173t-105.5 -238l-10 -67q-13 -125 30 -237.5t136 -174.5q98 -65 219 -65z" />
    <glyph glyph-name="q" unicode="q" horiz-adv-x="1204" vert-adv-y="2275" 
d="M1256 1021l-237 -1496h-34l127 803q-74 -157 -213 -255t-304 -98q-160 0 -266 91t-136 246q-18 102 -2 198q17 102 65 199q79 155 214 245.5t295 90.5q166 0 273 -98t132 -254l52 328h34zM599 0q122 0 239 65q113 62 191.5 174t106.5 238l10 67q13 127 -29.5 238
t-137.5 173q-99 66 -218 66q-121 0 -241 -66q-122 -67 -201.5 -189t-100.5 -256t20.5 -256t140.5 -189q97 -65 220 -65z" />
    <glyph glyph-name="r" unicode="r" horiz-adv-x="586" vert-adv-y="2275" 
d="M245 636l-101 -636h-34l165 1042h34l-32 -202q35 58 82 100q101 94 283 106l-4 -25q-335 -21 -393 -385z" />
    <glyph glyph-name="s" unicode="s" horiz-adv-x="931" vert-adv-y="2275" 
d="M465 -14q-226 0 -292 167q-16 42 -18 101h33q4 -116 82.5 -179t198.5 -63q84 0 161 27.5t132.5 84.5t67.5 131q21 127 -88 188q-39 22 -106 39q-41 11 -121 26q-60 12 -97 22t-81.5 30t-67 46t-34.5 68.5t-3 98.5q18 108 125 189q112 83 273 83q136 0 222 -70.5
t87 -198.5h-33q-4 116 -82.5 179t-198.5 63q-131 0 -237.5 -66t-123.5 -177q-20 -128 87 -188q40 -22 106 -39q38 -10 122 -26q76 -15 120.5 -29t92 -42.5t64.5 -76t6 -116.5q-17 -106 -125 -190q-110 -82 -272 -82z" />
    <glyph glyph-name="t" unicode="t" horiz-adv-x="712" vert-adv-y="2275" 
d="M500 -2q-89 0 -119 51t-15 149l131 822h-225l4 25h225l68 430h34l-68 -430h232l-4 -25h-232l-128 -803q-14 -94 11.5 -144t118.5 -50q49 0 73 1l-4 -23q-51 -3 -102 -3z" />
    <glyph glyph-name="u" unicode="u" vert-adv-y="2275" 
d="M512 0q-92 0 -168.5 27.5t-117.5 79.5q-82 103 -56 273l106 667h33l-101 -636q-30 -188 46.5 -286.5t260.5 -99.5q185 1 292.5 99.5t137.5 286.5l101 636h34l-165 -1042h-34l32 202q-35 -58 -82 -100q-56 -52 -141.5 -79.5t-177.5 -27.5z" />
    <glyph glyph-name="v" unicode="v" horiz-adv-x="1162" vert-adv-y="2275" 
d="M1218 1047l-619 -1047h-36l-287 1047h39l271 -1008l590 1008h42z" />
    <glyph glyph-name="w" unicode="w" horiz-adv-x="1760" vert-adv-y="2275" 
d="M1044 1028l-526 -1033h-38l-203 1057h33l194 -1020l518 1020h52l194 -1022l517 1022h32l-540 -1057h-35z" />
    <glyph glyph-name="x" unicode="x" horiz-adv-x="1107" vert-adv-y="2275" 
d="M633 493l-455 -493h-48l485 518l-339 529h48l317 -503l476 503h46l-506 -529l320 -518h-45z" />
    <glyph glyph-name="y" unicode="y" horiz-adv-x="1162" vert-adv-y="2275" 
d="M1217 1047l-872 -1519h-35l250 438l-284 1081h39l265 -1044l595 1044h42z" />
    <glyph glyph-name="z" unicode="z" horiz-adv-x="977" vert-adv-y="2275" 
d="M871 25l-4 -25h-757l6 37l889 983h-733l4 25h757l-6 -32l-890 -988h734z" />
    <glyph glyph-name="braceleft" unicode="{" horiz-adv-x="566" vert-adv-y="2275" 
d="M389 -358q-99 0 -140 60.5t-25 164.5l89 565q12 70 -17 110t-99 40h-22l4 27h22q70 0 111.5 40t52.5 110l90 566q16 104 76.5 164t159.5 60q51 0 75 -4l-5 -28q-37 5 -68 5q-86 0 -137.5 -49.5t-64.5 -135.5l-89 -560q-19 -118 -85 -152l-56 -28l22 -15l24 -15
q55 -37 38 -153l-89 -560q-14 -86 22 -135t122 -49q30 0 70 5l-5 -28q-32 -5 -76 -5z" />
    <glyph glyph-name="bar" unicode="|" horiz-adv-x="489" vert-adv-y="2275" 
d="M507 1549l-245 -1549h-33l245 1549h33z" />
    <glyph glyph-name="braceright" unicode="}" horiz-adv-x="566" vert-adv-y="2275" 
d="M63 -358q-44 0 -73 5l4 27q44 -4 67 -4q86 0 137.5 48.5t65.5 135.5l89 560q17 118 84 153l30 15l32 15l-27 14l-26 15q-55 32 -36 151l89 560q14 87 -22 136t-123 49q-30 0 -68 -5l5 28q24 4 74 4q99 0 140 -60t25 -164l-90 -566q-11 -69 18.5 -109.5t98.5 -40.5h22
l-4 -27h-22q-69 0 -111 -40t-54 -110l-89 -565q-16 -103 -76.5 -164t-159.5 -61z" />
    <glyph glyph-name="asciitilde" unicode="~" horiz-adv-x="1137" vert-adv-y="2275" 
d="M856 440q-75 0 -206 49q-75 26 -104 34q-64 16 -113 16q-56 0 -114 -23t-103 -65l-25 24q100 104 251 104q73 0 206 -49q85 -29 104 -34q58 -16 112 -16q56 0 113.5 23t102.5 64l27 -23q-100 -104 -251 -104z" />
    <glyph glyph-name="exclamdown" unicode="&#xa1;" horiz-adv-x="428" vert-adv-y="2275" 
d="M361 937q-24 0 -36 15t-8 41q4 23 21.5 37.5t40.5 14.5t36 -15t9 -37q-4 -25 -21.5 -40.5t-41.5 -15.5zM340 754l-172 -1190h-50l205 1190h17z" />
    <glyph glyph-name="cent" unicode="&#xa2;" horiz-adv-x="1151" vert-adv-y="2275" 
d="M636 195l-37 -234h-24l37 235l-16 1q-76 1 -161 41q-157 72 -208 269q-26 107 -7 225q26 166 132.5 305.5t262.5 196.5q59 22 137 30l30 4l37 234h24l-37 -234l29 -4q65 -7 107 -20q106 -35 170 -118t81 -199h-35q-20 135 -102 215t-219 97l-35 5l-162 -1022h17
q83 3 172 40q88 37 157 110t111 164h34q-54 -116 -144.5 -199t-206.5 -118q-40 -12 -113 -20l-17 -3zM580 223l36 -4l162 1024l-18 -1q-202 -20 -337 -163t-167 -347q-20 -129 7.5 -237t109 -182.5t207.5 -89.5z" />
    <glyph glyph-name="sterling" unicode="&#xa3;" horiz-adv-x="1139" vert-adv-y="2275" 
d="M749 -33q-80 0 -219 53q-70 28 -107 38q-63 17 -118 17q-54 0 -114.5 -23t-110.5 -59l-11 18q36 26 76 45q5 2 22 9t26 12q9 4 33 22q15 12 28 25q140 130 170 315q12 77 -9 180l-2 10h-247l5 34h234l-18 49q-17 47 -26 74t-20 68.5t-15 73.5t-4 72.5t6 81.5
q32 196 166.5 304.5t331.5 108.5q206 0 302 -121.5t63 -330.5l-1 -9h-37v4q19 118 -7 217q-29 107 -116.5 159t-208.5 52q-186 0 -307 -104t-151 -292q-22 -140 32 -290l18 -55q14 -38 22 -54l4 -8h426l-5 -34h-407l2 -21q12 -102 2 -169q-28 -172 -141 -280l-58 -56h74
q52 0 110 -16q36 -10 106 -36q49 -18 75 -26.5t71 -18t85 -9.5q105 0 193 54q61 36 106 87l15 -12q-20 -23 -59 -55q-123 -104 -285 -104z" />
    <glyph glyph-name="currency" unicode="&#xa4;" horiz-adv-x="1171" vert-adv-y="2275" 
d="M393 227l-9 12l-179 -156l-20 25l179 157l-9 12q-33 41 -45 106t-2 127q21 131 121 233l11 11l-128 158l27 24l128 -158l14 11q114 87 245 87q60 0 120.5 -24t94.5 -63l9 -11l180 156l20 -24l-175 -154l6 -12q67 -112 48 -234q-20 -126 -123 -237l-10 -12l125 -152
l-27 -24l-127 151l-12 -8l-13 -8q-122 -77 -232 -77q-93 0 -183 57q-19 10 -34 27zM614 170q138 0 251 100t136 240q22 139 -60.5 239t-219.5 100t-250.5 -100.5t-135.5 -238.5q-23 -139 59 -239.5t220 -100.5z" />
    <glyph glyph-name="yen" unicode="&#xa5;" horiz-adv-x="1110" vert-adv-y="2275" 
d="M1211 1463h43l-593 -782l-340 782h34l318 -730zM627 346l-55 -346h-35l55 346h-312l4 29h312l43 267h-312l4 28h661l-4 -28h-314l-43 -267h314l-4 -29h-314z" />
    <glyph glyph-name="brokenbar" unicode="&#xa6;" horiz-adv-x="489" vert-adv-y="2275" 
d="M507 1546l-92 -580h-33l92 580h33zM354 581l-92 -581h-33l92 581h33z" />
    <glyph glyph-name="section" unicode="&#xa7;" horiz-adv-x="1124" vert-adv-y="2275" 
d="M492 -407q-147 0 -229 73.5t-85 214.5h32q5 -108 64 -177q71 -84 222 -84q146 0 238 72q96 73 114 182q32 199 -225 315l-82 37q-194 87 -263 172q-70 87 -51 211q16 100 85 176t172 118l55 22l-38 36q-55 52 -76.5 109.5t-9.5 135.5q15 93 74.5 160t141.5 98t176 31
q146 0 227 -73.5t85 -214.5h-32q-5 106 -65 176q-71 85 -219 85q-156 0 -246 -73q-90 -74 -108 -180q-21 -137 86 -230q44 -37 110 -71q39 -21 125 -61q80 -38 126.5 -65t97.5 -72t69 -104t6 -134q-9 -49 -34 -101q-62 -125 -226 -194l-58 -24l43 -34q113 -93 88 -243
q-14 -93 -74 -160t-141.5 -98t-174.5 -31zM725 175l6 -3l7 3l4 1q59 20 81 31q86 42 144.5 112t72.5 157q16 98 -42 182q-53 78 -268 180l-164 77l-4 -1l-8 -1q-112 -30 -196.5 -111t-101.5 -191q-15 -97 42 -181q43 -62 202 -147q36 -19 225 -108z" />
    <glyph glyph-name="dieresis" unicode="&#xa8;" horiz-adv-x="719" vert-adv-y="2275" 
d="M433 1378q-22 0 -33.5 13t-7.5 35t19.5 36t37.5 14q21 0 32.5 -14.5t8.5 -35.5q-4 -21 -20 -34.5t-37 -13.5zM722 1378q-23 0 -34 13t-7 35q4 23 19.5 36.5t37.5 13.5q21 0 32.5 -14.5t8.5 -35.5q-4 -21 -20 -34.5t-37 -13.5z" />
    <glyph glyph-name="copyright" unicode="&#xa9;" horiz-adv-x="1633" vert-adv-y="2275" 
d="M816 -29q-214 0 -385 99t-266.5 273t-95.5 391q0 162 56 303t154 241.5t237.5 158.5t299.5 58q161 0 300 -58t237.5 -158.5t154.5 -241.5t56 -303q0 -216 -95.5 -390.5t-266.5 -273.5t-386 -99zM816 -7q212 0 375.5 96t252 264.5t88.5 380.5t-88.5 380t-252.5 264
t-375 96q-158 0 -292.5 -56t-227 -154t-144.5 -234.5t-52 -295.5t52 -296t144.5 -235t227 -154t292.5 -56zM814 344q-109 0 -199 62t-128 165q-30 78 -30 163q0 67 16 127q18 69 65 126.5t111 94.5q72 41 165 41q101 0 188.5 -47t128.5 -132q17 -37 25 -68h-31
q-36 127 -152 189q-69 35 -157 35q-103 0 -178 -51t-110 -132.5t-35 -182.5q0 -34 10 -96q27 -155 155 -231q66 -39 158 -39q91 0 156 34q117 62 153 190h32q-32 -117 -124.5 -182.5t-218.5 -65.5z" />
    <glyph glyph-name="ordfeminine" unicode="&#xaa;" horiz-adv-x="504" vert-adv-y="2275" 
d="M276 1264l-5 -1q15 65 64 105q-43 -40 -59 -104zM646 1239l-50 -318h-2l18 114l-26 -24q28 41 37 93l21 136q12 69 -13 111q27 -42 15 -112zM263 932q-55 33 -44 112q15 87 96 118q-79 -33 -92 -118q-11 -77 40 -112z" />
    <glyph glyph-name="guillemotleft" unicode="&#xab;" horiz-adv-x="899" vert-adv-y="1800" 
d="M266 510l148 -419h-40l-148 419l281 418h40zM620 510l147 -419h-38l-148 419l281 418h38z" />
    <glyph glyph-name="logicalnot" unicode="&#xac;" horiz-adv-x="1162" vert-adv-y="2275" 
d="M1176 525l-68 -428h-34l63 395h-988l5 33h1022z" />
    <glyph glyph-name="registered" unicode="&#xae;" horiz-adv-x="1188" vert-adv-y="2275" 
d="M594 425q-227 0 -376 152.5t-149 382.5q0 152 67.5 274t187.5 191.5t270 69.5q166 0 297.5 -87t190.5 -241q38 -103 38 -207q0 -150 -68 -272.5t-188.5 -192.5t-269.5 -70zM594 441q228 0 364 144t136 375t-136 374.5t-364 143.5q-227 0 -364 -144t-137 -374
q0 -231 136.5 -375t364.5 -144zM455 896v-182h-23v490h171q86 0 138.5 -37t52.5 -116q0 -54 -22.5 -87t-73.5 -54l-17 -7l99 -189h-28l-91 186l-11 -1q-58 -4 -86 -4q-10 0 -42.5 1t-50.5 0h-16zM618 1186h-163v-271h163q64 0 107 35t43 101t-43.5 100.5t-106.5 34.5z" />
    <glyph glyph-name="macron" unicode="&#xaf;" horiz-adv-x="757" vert-adv-y="2275" 
d="M891 1417l-4 -27h-576l4 27h576z" />
    <glyph glyph-name="degree" unicode="&#xb0;" horiz-adv-x="744" vert-adv-y="2275" 
d="M507 866q-130 0 -205.5 92t-54.5 224t125 222.5t235 90.5t204.5 -90.5t52.5 -222.5t-124 -224t-233 -92zM511 889q121 0 210 85.5t108 207.5t-43 206t-183 84q-123 0 -211.5 -82.5t-108.5 -207.5q-13 -84 14 -156.5t95 -107.5q61 -29 119 -29z" />
    <glyph glyph-name="plusminus" unicode="&#xb1;" horiz-adv-x="1162" vert-adv-y="2275" 
d="M693 600l-61 -384h-31l61 384h-496l5 33h496l61 386h31l-61 -386h495l-5 -33h-495zM1098 34l-5 -34h-1022l5 34h1022z" />
    <glyph glyph-name="uni00B2" unicode="&#xb2;" horiz-adv-x="392" vert-adv-y="1800" 
d="M495 927l-1 -6h-308l1 10l230 184q97 75 109 157q11 64 -19 103t-94 39t-105.5 -39.5t-51.5 -102.5v-4h-11q11 70 56 110t113 40q69 0 101.5 -37.5t22.5 -106.5q-14 -84 -116 -165l-231 -182h304z" />
    <glyph glyph-name="uni00B3" unicode="&#xb3;" horiz-adv-x="389" vert-adv-y="1800" 
d="M337 917q-127 0 -133 124h12q3 -55 33.5 -87t88.5 -32q63 0 108 34.5t55 99.5q13 80 -58 105q-28 10 -62 12q-15 1 -44 1l1 7q65 0 106 13q75 27 87 103q11 63 -23.5 93t-94.5 30q-103 0 -144 -104h-11q44 108 157 108q66 0 101.5 -32.5t25.5 -94.5q-6 -36 -25 -57
t-60 -46l-24 -15l22 -14q35 -22 49 -46t8 -63q-10 -66 -58 -102.5t-117 -36.5z" />
    <glyph glyph-name="acute" unicode="&#xb4;" horiz-adv-x="623" vert-adv-y="2275" 
d="M649 1650l-179 -298h-25l164 298h40z" />
    <glyph glyph-name="paragraph" unicode="&#xb6;" horiz-adv-x="1170" vert-adv-y="2275" 
d="M871 1436l-295 -1863h-31l163 1027h-34q-317 0 -388 233q-27 87 -9 197q13 85 59 169q73 131 199.5 197.5t275.5 66.5h362l-300 -1890h-34l295 1863h-263z" />
    <glyph glyph-name="periodcentered" unicode="&#xb7;" horiz-adv-x="357" vert-adv-y="2275" 
d="M251 463q-23 0 -35.5 15t-8.5 38q4 25 20.5 40t40.5 15q23 0 36.5 -16t9.5 -39q-4 -22 -22.5 -37.5t-40.5 -15.5z" />
    <glyph glyph-name="cedilla" unicode="&#xb8;" horiz-adv-x="508" vert-adv-y="2275" 
d="M176 -512q-98 -15 -154 20l16 21q58 -28 120 -17q73 13 110 53.5t32.5 87.5t-49.5 94.5t-122 74.5l-11 5l72 141h20l-68 -131q82 -19 131 -64.5t56 -108.5q7 -67 -34.5 -114.5t-118.5 -61.5z" />
    <glyph glyph-name="uni00B9" unicode="&#xb9;" horiz-adv-x="392" vert-adv-y="1800" 
d="M485 923l-1 -6h-259l1 6h124l75 473h-117l2 9l126 -1l-76 -481h125z" />
    <glyph glyph-name="ordmasculine" unicode="&#xba;" horiz-adv-x="589" vert-adv-y="2275" 
d="M440 917q-105 0 -161 76t-39 184q18 108 98 183t184 75t161 -75.5t39 -182.5q-17 -108 -97 -184t-185 -76zM443 934q57 0 114 31q58 31 94 89t46 123q16 98 -31.5 170t-145.5 72t-169 -72t-87 -170q-10 -65 8.5 -123t66.5 -89q47 -31 104 -31z" />
    <glyph glyph-name="guillemotright" unicode="&#xbb;" horiz-adv-x="899" vert-adv-y="1800" 
d="M479 510l-280 -419h-40l282 419l-149 418h40zM832 510l-279 -419h-41l284 419l-151 418h41z" />
    <glyph glyph-name="questiondown" unicode="&#xbf;" horiz-adv-x="1022" vert-adv-y="2275" 
d="M665 922q-24 0 -37 15.5t-9 39.5q3 22 21.5 37.5t41.5 15.5q24 0 36.5 -14t8.5 -39q-10 -55 -62 -55zM423 -483q-69 0 -143 21q-145 41 -194 189q-26 75 -10 177q18 111 77 196t164 172q117 96 148 125q85 78 117 151q17 41 23 80l20 126h33l-20 -126q-15 -95 -88 -180
q-36 -41 -76 -75q-2 -2 -85 -73q-55 -46 -89.5 -78t-76.5 -82t-68 -107t-36 -123q-27 -167 57.5 -265t250.5 -98q171 0 290.5 109.5t146.5 281.5q3 16 7 53h41q-2 -29 -6 -57q-29 -183 -165 -300t-318 -117z" />
    <glyph glyph-name="Agrave" unicode="&#xc0;" horiz-adv-x="1467" vert-adv-y="2275" 
d="M1023 2069l69 -299h-25l-84 299h40zM403 433l-249 -433h-44l843 1463h26l378 -1463h-40l-111 433h-803zM1197 467l-239 932l-536 -932h775z" />
    <glyph glyph-name="Aacute" unicode="&#xc1;" horiz-adv-x="1467" vert-adv-y="2275" 
d="M1138 2069l-182 -299h-23l165 299h40zM403 433l-249 -433h-44l843 1463h26l378 -1463h-40l-111 433h-803zM1197 467l-239 932l-536 -932h775z" />
    <glyph glyph-name="Acircumflex" unicode="&#xc2;" horiz-adv-x="1467" vert-adv-y="2275" 
d="M1250 1800l-215 121l-252 -121l5 33l253 123l214 -123zM403 433l-249 -433h-44l843 1463h26l378 -1463h-40l-111 433h-803zM1197 467l-239 932l-536 -932h775z" />
    <glyph glyph-name="Atilde" unicode="&#xc3;" horiz-adv-x="1467" vert-adv-y="2275" 
d="M1162 1872q-45 0 -123 42q-44 23 -63 30q-37 15 -71 15q-93 0 -132 -80h-29q24 52 68.5 80t101.5 28q50 0 126 -41q37 -21 61 -30q39 -14 71 -14q92 0 133 79h29q-25 -52 -69.5 -80.5t-102.5 -28.5zM403 433l-249 -433h-44l843 1463h26l378 -1463h-40l-111 433h-803z
M1197 467l-239 932l-536 -932h775z" />
    <glyph glyph-name="Adieresis" unicode="&#xc4;" horiz-adv-x="1467" vert-adv-y="2275" 
d="M872 1796q-22 0 -33.5 13t-7.5 35q4 23 19.5 37t37.5 14q21 0 33 -14.5t8 -36.5q-3 -21 -19.5 -34.5t-37.5 -13.5zM1161 1796q-23 0 -34.5 13t-7.5 35q4 23 19.5 37t38.5 14q20 0 32 -15t9 -36t-19.5 -34.5t-37.5 -13.5zM403 433l-249 -433h-44l843 1463h26l378 -1463
h-40l-111 433h-803zM1197 467l-239 932l-536 -932h775z" />
    <glyph glyph-name="Aring" unicode="&#xc5;" horiz-adv-x="1467" vert-adv-y="2275" 
d="M1014 1772q-82 0 -129 55.5t-34 138.5q7 43 33 85q29 50 82 80t109 30q82 0 128.5 -56t32.5 -139q-5 -34 -31 -86q-27 -49 -81 -78.5t-110 -29.5zM1016 1789q75 0 130.5 51t66.5 126q12 76 -26.5 127t-113.5 51q-76 0 -130.5 -51t-66.5 -127t26.5 -126.5t113.5 -50.5z
M403 433l-249 -433h-44l843 1463h26l378 -1463h-40l-111 433h-803zM1197 467l-239 932l-536 -932h775z" />
    <glyph glyph-name="AE" unicode="&#xc6;" horiz-adv-x="2715" vert-adv-y="2275" 
d="M459 511l-308 -511h-41l903 1463h921l-6 -34h-881l-106 -669h740l-5 -34h-740l-110 -692h881l-5 -34h-917l81 511h-407zM871 546l135 854l-528 -854h393z" />
    <glyph glyph-name="Ccedilla" unicode="&#xc7;" horiz-adv-x="1587" vert-adv-y="2275" 
d="M727 -512q-98 -15 -154 20l16 21q58 -28 120 -17q73 13 110 53.5t32.5 87.5t-49.5 94.5t-122 74.5l-11 5l73 144h-1l-8 1l-21 2q-232 22 -362.5 181.5t-133.5 403.5q-2 98 10 173q32 203 147.5 386.5t291.5 276.5q191 100 387 100q242 0 399.5 -131t185.5 -362h-40
q-24 215 -175 339.5t-375 124.5q-153 0 -289 -59t-235 -159.5t-165 -233.5t-90 -282q-16 -120 -7.5 -229t52 -201.5t110.5 -160t168 -106t224 -38.5q224 0 413.5 124t282.5 340h40q-102 -230 -300 -362t-438 -132q-43 0 -52 1l-68 -131q82 -19 131 -64.5t56 -108.5
q7 -67 -34.5 -114.5t-118.5 -61.5z" />
    <glyph glyph-name="Egrave" unicode="&#xc8;" horiz-adv-x="1137" vert-adv-y="2275" 
d="M859 2069l69 -299h-24l-86 299h41zM1032 34l-5 -34h-917l232 1463h917l-6 -34h-880l-106 -669h740l-5 -34h-740l-110 -692h880z" />
    <glyph glyph-name="Eacute" unicode="&#xc9;" horiz-adv-x="1137" vert-adv-y="2275" 
d="M973 2069l-180 -299h-25l165 299h40zM1032 34l-5 -34h-917l232 1463h917l-6 -34h-880l-106 -669h740l-5 -34h-740l-110 -692h880z" />
    <glyph glyph-name="Ecircumflex" unicode="&#xca;" horiz-adv-x="1137" vert-adv-y="2275" 
d="M1087 1800l-215 121l-252 -121l5 33l253 123l214 -123zM1032 34l-5 -34h-917l232 1463h917l-6 -34h-880l-106 -669h740l-5 -34h-740l-110 -692h880z" />
    <glyph glyph-name="Edieresis" unicode="&#xcb;" horiz-adv-x="1137" vert-adv-y="2275" 
d="M709 1796q-23 0 -35 13t-8 35q4 23 20.5 37t38.5 14q20 0 32 -15t9 -36t-19.5 -34.5t-37.5 -13.5zM996 1796q-23 0 -34 13t-7 35q4 23 19.5 37t37.5 14q21 0 33 -14.5t8 -36.5q-3 -21 -19.5 -34.5t-37.5 -13.5zM1032 34l-5 -34h-917l232 1463h917l-6 -34h-880l-106 -669
h740l-5 -34h-740l-110 -692h880z" />
    <glyph glyph-name="Igrave" unicode="&#xcc;" horiz-adv-x="596" vert-adv-y="2275" 
d="M589 2069l69 -299h-25l-84 299h40zM490 27l-4 -27h-376l4 27h170l223 1409h-170l5 27h376l-5 -27h-170l-223 -1409h170z" />
    <glyph glyph-name="Iacute" unicode="&#xcd;" horiz-adv-x="596" vert-adv-y="2275" 
d="M704 2069l-181 -299h-24l165 299h40zM490 27l-4 -27h-376l4 27h170l223 1409h-170l5 27h376l-5 -27h-170l-223 -1409h170z" />
    <glyph glyph-name="Icircumflex" unicode="&#xce;" horiz-adv-x="597" vert-adv-y="2275" 
d="M818 1800l-215 121l-252 -121l5 33l253 123l214 -123zM490 27l-4 -27h-376l4 27h170l223 1409h-170l5 27h376l-5 -27h-168l-223 -1409h168z" />
    <glyph glyph-name="Idieresis" unicode="&#xcf;" horiz-adv-x="596" vert-adv-y="2275" 
d="M438 1796q-22 0 -33.5 13t-7.5 35q4 23 19.5 37t37.5 14q21 0 33 -14.5t8 -36.5q-3 -21 -19.5 -34.5t-37.5 -13.5zM727 1796q-23 0 -34 12.5t-7 35.5t19.5 37t37.5 14q21 0 33 -14.5t8 -36.5q-3 -21 -19.5 -34.5t-37.5 -13.5zM490 27l-4 -27h-376l4 27h170l223 1409h-170
l5 27h376l-5 -27h-170l-223 -1409h170z" />
    <glyph glyph-name="Ntilde" unicode="&#xd1;" horiz-adv-x="1321" vert-adv-y="2275" 
d="M1090 1872q-45 0 -123 42q-44 23 -63 30q-37 15 -71 15q-93 0 -133 -80h-29q51 108 171 108q50 0 125 -41q42 -22 62 -30q38 -14 70 -14q93 0 134 79h28q-25 -52 -69.5 -80.5t-101.5 -28.5zM375 1439l-228 -1439h-37l232 1463h64l772 -1441l229 1441h36l-232 -1463h-63z
" />
    <glyph glyph-name="Ograve" unicode="&#xd2;" horiz-adv-x="1677" vert-adv-y="2275" 
d="M1130 2069l69 -299h-25l-84 299h40zM833 -33q-160 0 -287 59t-205 161.5t-109 243.5t-6 301t101 300.5t186.5 242.5t256.5 161t305 59q213 0 364.5 -100.5t215 -274t29.5 -388.5t-152.5 -389t-302 -275t-396.5 -101zM838 -3q154 0 294 58t245.5 157t177 234t95.5 286
q32 202 -27.5 369t-204 266t-348.5 99q-153 0 -292.5 -58t-244.5 -157.5t-176.5 -233.5t-95.5 -285q-32 -202 27 -369t203 -266.5t347 -99.5z" />
    <glyph glyph-name="Oacute" unicode="&#xd3;" horiz-adv-x="1677" vert-adv-y="2275" 
d="M1245 2069l-182 -299h-23l165 299h40zM833 -33q-160 0 -287 59t-205 161.5t-109 243.5t-6 301t101 300.5t186.5 242.5t256.5 161t305 59q213 0 364.5 -100.5t215 -274t29.5 -388.5t-152.5 -389t-302 -275t-396.5 -101zM838 -3q154 0 294 58t245.5 157t177 234t95.5 286
q32 202 -27.5 369t-204 266t-348.5 99q-153 0 -292.5 -58t-244.5 -157.5t-176.5 -233.5t-95.5 -285q-32 -202 27 -369t203 -266.5t347 -99.5z" />
    <glyph glyph-name="Ocircumflex" unicode="&#xd4;" horiz-adv-x="1677" vert-adv-y="2275" 
d="M1357 1800l-215 121l-250 -121l5 33l251 123l214 -123zM833 -33q-160 0 -287 59t-205 161.5t-109 243.5t-6 301t101 300.5t186.5 242.5t256.5 161t305 59q213 0 364.5 -100.5t215 -274t29.5 -388.5t-152.5 -389t-302 -275t-396.5 -101zM838 -3q154 0 294 58t245.5 157
t177 234t95.5 286q32 202 -27.5 369t-204 266t-348.5 99q-153 0 -292.5 -58t-244.5 -157.5t-176.5 -233.5t-95.5 -285q-32 -202 27 -369t203 -266.5t347 -99.5z" />
    <glyph glyph-name="Otilde" unicode="&#xd5;" horiz-adv-x="1677" vert-adv-y="2275" 
d="M1269 1872q-44 0 -124 42q-42 22 -63 30q-37 15 -71 15q-93 0 -132 -80h-29q51 108 170 108q50 0 126 -41q37 -21 61 -30q39 -14 71 -14q92 0 133 79h29q-25 -52 -69.5 -80.5t-101.5 -28.5zM833 -33q-160 0 -287 59t-205 161.5t-109 243.5t-6 301t101 300.5t186.5 242.5
t256.5 161t305 59q213 0 364.5 -100.5t215 -274t29.5 -388.5t-152.5 -389t-302 -275t-396.5 -101zM838 -3q154 0 294 58t245.5 157t177 234t95.5 286q32 202 -27.5 369t-204 266t-348.5 99q-153 0 -292.5 -58t-244.5 -157.5t-176.5 -233.5t-95.5 -285q-32 -202 27 -369
t203 -266.5t347 -99.5z" />
    <glyph glyph-name="Odieresis" unicode="&#xd6;" horiz-adv-x="1677" vert-adv-y="2275" 
d="M979 1796q-22 0 -33.5 13t-7.5 35q4 23 19.5 37t37.5 14q21 0 33 -14.5t8 -36.5q-3 -21 -19.5 -34.5t-37.5 -13.5zM1268 1796q-23 0 -34 12.5t-7 35.5t19.5 37t37.5 14q20 0 32 -15t9 -36t-19.5 -34.5t-37.5 -13.5zM833 -33q-160 0 -287 59t-205 161.5t-109 243.5t-6 301
t101 300.5t186.5 242.5t256.5 161t305 59q213 0 364.5 -100.5t215 -274t29.5 -388.5t-152.5 -389t-302 -275t-396.5 -101zM838 -3q154 0 294 58t245.5 157t177 234t95.5 286q32 202 -27.5 369t-204 266t-348.5 99q-153 0 -292.5 -58t-244.5 -157.5t-176.5 -233.5t-95.5 -285
q-32 -202 27 -369t203 -266.5t347 -99.5z" />
    <glyph glyph-name="multiply" unicode="&#xd7;" horiz-adv-x="1133" vert-adv-y="2275" 
d="M974 85l-330 401l-460 -403l-19 23l460 404l-333 402l27 24l332 -403l458 401l19 -24l-458 -400l331 -401z" />
    <glyph glyph-name="Oslash" unicode="&#xd8;" horiz-adv-x="1677" vert-adv-y="2275" 
d="M588 9l-14 6l-164 -295l-31 12l163 295l-25 14q-64 35 -109 75q-120 107 -165.5 270t-16.5 346q25 160 101 300.5t186.5 242.5t256.5 161t305 59q60 0 132.5 -10.5t112.5 -29.5l15 -7l157 284l31 -12l-158 -285l14 -7q8 -2 13 -5q177 -94 252.5 -281t39.5 -410
q-34 -215 -152.5 -389t-302 -275t-396.5 -101q-61 0 -130.5 11t-114.5 31zM545 66l14 -7l760 1359l-14 7q-87 41 -235 41q-153 0 -292 -58t-243.5 -157.5t-175.5 -233.5t-95 -285q-22 -139 0 -266.5t94 -234t187 -165.5zM838 -3q154 0 294 58t244.5 157t175.5 234t95 286
q22 139 -0.5 267t-95 234t-188.5 165l-14 7l-758 -1359l14 -7q91 -42 233 -42z" />
    <glyph glyph-name="Ugrave" unicode="&#xd9;" horiz-adv-x="1322" vert-adv-y="2275" 
d="M951 2069l70 -299h-24l-86 299h40zM656 -33q-113 0 -200 31t-141.5 87t-86.5 135t-35 175t12 206l137 862h38l-140 -883q-13 -97 -9 -183.5t35.5 -160t82 -126.5t131 -83t181.5 -30q126 0 232.5 46t181.5 126.5t124 184.5t68 226l140 883h37l-137 -862
q-22 -140 -72.5 -254t-130 -200t-193.5 -133t-255 -47z" />
    <glyph glyph-name="Uacute" unicode="&#xda;" horiz-adv-x="1322" vert-adv-y="2275" 
d="M1066 2069l-180 -299h-25l165 299h40zM656 -33q-113 0 -200 31t-141.5 87t-86.5 135t-35 175t12 206l137 862h38l-140 -883q-13 -97 -9 -183.5t35.5 -160t82 -126.5t131 -83t181.5 -30q126 0 232.5 46t181.5 126.5t124 184.5t68 226l140 883h37l-137 -862
q-22 -140 -72.5 -254t-130 -200t-193.5 -133t-255 -47z" />
    <glyph glyph-name="Ucircumflex" unicode="&#xdb;" horiz-adv-x="1322" vert-adv-y="2275" 
d="M1179 1800l-214 121l-252 -121l5 33l253 123l213 -123zM656 -33q-113 0 -200 31t-141.5 87t-86.5 135t-35 175t12 206l137 862h38l-140 -883q-13 -97 -9 -183.5t35.5 -160t82 -126.5t131 -83t181.5 -30q126 0 232.5 46t181.5 126.5t124 184.5t68 226l140 883h37
l-137 -862q-22 -140 -72.5 -254t-130 -200t-193.5 -133t-255 -47z" />
    <glyph glyph-name="Udieresis" unicode="&#xdc;" horiz-adv-x="1322" vert-adv-y="2275" 
d="M800 1796q-22 0 -33.5 13t-7.5 35t20 36.5t37 14.5t33.5 -14.5t8.5 -36.5q-3 -21 -19.5 -34.5t-38.5 -13.5zM1089 1796q-23 0 -34 13t-7 35q4 23 19.5 37t37.5 14q21 0 33 -14.5t8 -36.5q-3 -21 -19.5 -34.5t-37.5 -13.5zM656 -33q-113 0 -200 31t-141.5 87t-86.5 135
t-35 175t12 206l137 862h38l-140 -883q-13 -97 -9 -183.5t35.5 -160t82 -126.5t131 -83t181.5 -30q126 0 232.5 46t181.5 126.5t124 184.5t68 226l140 883h37l-137 -862q-22 -140 -72.5 -254t-130 -200t-193.5 -133t-255 -47z" />
    <glyph glyph-name="Yacute" unicode="&#xdd;" horiz-adv-x="1412" vert-adv-y="2275" 
d="M1112 2069l-182 -299h-23l165 299h40zM839 736l-117 -736h-37l118 742l-461 721h50l437 -695l659 695h46z" />
    <glyph glyph-name="germandbls" unicode="&#xdf;" horiz-adv-x="1160" vert-adv-y="2275" 
d="M442 1120l-247 -1559h-33l238 1559l1 2l2 7q0 1 3 10q24 71 59 123q73 114 182.5 173.5t237.5 59.5q90 0 163 -21t129.5 -72.5t77.5 -130.5q21 -77 7 -164q-18 -115 -95.5 -199t-194.5 -122l-113 -36l105 -28q119 -33 174 -119t35 -214q-31 -193 -162 -302t-325 -118
l5 29q177 9 294.5 110.5t146.5 280.5q12 76 -3.5 136t-50.5 98t-88 63t-111.5 35.5t-125.5 10.5h-106l5 35q110 0 147 3q92 5 168 35q102 41 171 120t85 182q15 91 -5 161t-69 112.5t-117.5 64t-154.5 21.5q-151 0 -262 -82.5t-164 -231.5l-5 -15q-2 -4 -4 -17z" />
    <glyph glyph-name="agrave" unicode="&#xe0;" horiz-adv-x="1060" vert-adv-y="2275" 
d="M754 1650l70 -298h-23l-87 298h40zM469 -25q-260 0 -310 159q-18 59 -7 132q35 220 261 276q39 10 70.5 14.5t150 14t377.5 26.5l12 76q29 175 -54.5 262t-258.5 87q-165 0 -274.5 -77.5t-144.5 -238.5l-33 -1q36 171 156 255.5t300 84.5q189 0 280.5 -93.5t61.5 -280.5
l-106 -671h-34l42 266q-33 -76 -97 -140q-72 -70 -173 -110.5t-219 -40.5zM473 -3q133 0 238 49q83 38 143 99q101 103 124 246l29 182q-115 -6 -201 -12t-122 -9.5t-79.5 -8t-56.5 -5.5q-126 -14 -171 -33q-162 -68 -189 -239q-12 -73 7 -127t61.5 -84t96.5 -44t120 -14z
" />
    <glyph glyph-name="aacute" unicode="&#xe1;" horiz-adv-x="1060" vert-adv-y="2275" 
d="M869 1650l-180 -298h-24l164 298h40zM469 -25q-260 0 -310 159q-18 59 -7 132q35 220 261 276q39 10 70.5 14.5t150 14t377.5 26.5l12 76q29 175 -54.5 262t-258.5 87q-165 0 -274.5 -77.5t-144.5 -238.5l-33 -1q36 171 156 255.5t300 84.5q189 0 280.5 -93.5
t61.5 -280.5l-106 -671h-34l42 266q-33 -76 -97 -140q-72 -70 -173 -110.5t-219 -40.5zM473 -3q133 0 238 49q83 38 143 99q101 103 124 246l29 182q-115 -6 -201 -12t-122 -9.5t-79.5 -8t-56.5 -5.5q-126 -14 -171 -33q-162 -68 -189 -239q-12 -73 7 -127t61.5 -84
t96.5 -44t120 -14z" />
    <glyph glyph-name="acircumflex" unicode="&#xe2;" horiz-adv-x="1060" vert-adv-y="2275" 
d="M982 1383l-214 120l-251 -120l5 31l251 123l214 -123zM469 -25q-260 0 -310 159q-18 59 -7 132q35 220 261 276q39 10 70.5 14.5t150 14t377.5 26.5l12 76q29 175 -54.5 262t-258.5 87q-165 0 -274.5 -77.5t-144.5 -238.5l-33 -1q36 171 156 255.5t300 84.5
q189 0 280.5 -93.5t61.5 -280.5l-106 -671h-34l42 266q-33 -76 -97 -140q-72 -70 -173 -110.5t-219 -40.5zM473 -3q133 0 238 49q83 38 143 99q101 103 124 246l29 182q-115 -6 -201 -12t-122 -9.5t-79.5 -8t-56.5 -5.5q-126 -14 -171 -33q-162 -68 -189 -239
q-12 -73 7 -127t61.5 -84t96.5 -44t120 -14z" />
    <glyph glyph-name="atilde" unicode="&#xe3;" horiz-adv-x="1060" vert-adv-y="2275" 
d="M894 1454q-47 0 -125 42q-31 17 -62 31q-40 14 -71 14q-92 0 -133 -80h-29q24 52 68.5 80.5t102.5 28.5q46 0 126 -42q35 -19 62 -30q37 -15 70 -15q91 0 134 81h28q-53 -110 -171 -110zM469 -25q-260 0 -310 159q-18 59 -7 132q35 220 261 276q39 10 70.5 14.5t150 14
t377.5 26.5l12 76q29 175 -54.5 262t-258.5 87q-165 0 -274.5 -77.5t-144.5 -238.5l-33 -1q36 171 156 255.5t300 84.5q189 0 280.5 -93.5t61.5 -280.5l-106 -671h-34l42 266q-33 -76 -97 -140q-72 -70 -173 -110.5t-219 -40.5zM473 -3q133 0 238 49q83 38 143 99
q101 103 124 246l29 182q-115 -6 -201 -12t-122 -9.5t-79.5 -8t-56.5 -5.5q-126 -14 -171 -33q-162 -68 -189 -239q-12 -73 7 -127t61.5 -84t96.5 -44t120 -14z" />
    <glyph glyph-name="adieresis" unicode="&#xe4;" horiz-adv-x="1060" vert-adv-y="2275" 
d="M604 1378q-22 0 -33.5 13t-7.5 35t19.5 36t37.5 14q21 0 32.5 -14.5t8.5 -35.5q-4 -21 -20 -34.5t-37 -13.5zM893 1378q-23 0 -34 13t-7 35q4 23 19.5 36.5t37.5 13.5q21 0 32.5 -14.5t8.5 -35.5q-4 -21 -20 -34.5t-37 -13.5zM469 -25q-260 0 -310 159q-18 59 -7 132
q35 220 261 276q39 10 70.5 14.5t150 14t377.5 26.5l12 76q29 175 -54.5 262t-258.5 87q-165 0 -274.5 -77.5t-144.5 -238.5l-33 -1q36 171 156 255.5t300 84.5q189 0 280.5 -93.5t61.5 -280.5l-106 -671h-34l42 266q-33 -76 -97 -140q-72 -70 -173 -110.5t-219 -40.5z
M473 -3q133 0 238 49q83 38 143 99q101 103 124 246l29 182q-115 -6 -201 -12t-122 -9.5t-79.5 -8t-56.5 -5.5q-126 -14 -171 -33q-162 -68 -189 -239q-12 -73 7 -127t61.5 -84t96.5 -44t120 -14z" />
    <glyph glyph-name="aring" unicode="&#xe5;" horiz-adv-x="1060" vert-adv-y="2275" 
d="M746 1354q-83 0 -129.5 55.5t-33.5 139.5q7 41 33 84q29 51 82 80.5t110 29.5q41 0 83 -20q44 -21 65 -70t12 -104q-13 -84 -76 -139.5t-146 -55.5zM749 1370q75 0 129.5 52t66.5 127q12 74 -26.5 125.5t-113.5 51.5q-76 0 -130 -50.5t-66 -126.5t26.5 -127.5
t113.5 -51.5zM469 -25q-260 0 -310 159q-18 59 -7 132q35 220 261 276q39 10 70.5 14.5t150 14t377.5 26.5l12 76q29 175 -54.5 262t-258.5 87q-165 0 -274.5 -77.5t-144.5 -238.5l-33 -1q36 171 156 255.5t300 84.5q189 0 280.5 -93.5t61.5 -280.5l-106 -671h-34l42 266
q-33 -76 -97 -140q-72 -70 -173 -110.5t-219 -40.5zM473 -3q133 0 238 49q83 38 143 99q101 103 124 246l29 182q-115 -6 -201 -12t-122 -9.5t-79.5 -8t-56.5 -5.5q-126 -14 -171 -33q-162 -68 -189 -239q-12 -73 7 -127t61.5 -84t96.5 -44t120 -14z" />
    <glyph glyph-name="ae" unicode="&#xe6;" horiz-adv-x="2294" vert-adv-y="2275" 
d="M469 -25q-260 0 -310 159q-18 58 -7 132q17 108 84 179t175 97q40 9 103 15q18 1 53 3t53 4q367 23 374 24l15 1l14 84q28 176 -55.5 262.5t-257.5 86.5q-165 0 -274.5 -77.5t-144.5 -238.5l-33 -1q37 171 156.5 255.5t299.5 84.5q252 0 327 -164q18 -41 23 -107l3 -40
l52 69q90 117 210 179.5t256 62.5q144 0 248.5 -72t148.5 -193t22 -266l-972 1l-6 -34q-11 -67 2 -152q24 -152 129 -241t262 -89q144 0 268 75.5t201 209.5l30 -10q-82 -139 -217 -219t-286 -80q-124 0 -223 55t-153 156l-45 92l-44 -278h-34l38 243l-37 -46l-37 -45
q-148 -177 -411 -177zM1044 579l-6 -21l-4 -18h939v18q16 200 -90 331t-302 131q-152 0 -280 -82t-204 -226q-29 -55 -53 -133zM473 -3q133 0 238 49q109 50 179 140.5t88 204.5q4 27 11 80t11 80l4 18l-18 -1q-40 -2 -84.5 -5t-98.5 -7t-84 -6q-5 0 -69 -4t-103 -8
q-124 -14 -170 -33q-162 -68 -189 -239q-12 -73 7 -127t61.5 -84t96.5 -44t120 -14z" />
    <glyph glyph-name="ccedilla" unicode="&#xe7;" horiz-adv-x="1171" vert-adv-y="2275" 
d="M532 -499q-98 -15 -154 20l16 21q58 -28 120 -17q73 13 110 53.5t32.5 87.5t-49.5 94.5t-122 74.5l-11 5l70 137l-15 1l-20 3q-119 18 -199.5 97.5t-109.5 192t-9 239.5q17 107 68.5 204.5t126 170.5t174 116.5t205.5 43.5q166 0 272.5 -96.5t131.5 -258.5h-35
q-25 181 -154 265q-100 65 -219 65q-120 0 -240 -65t-200 -188t-101 -257q-21 -133 20 -256.5t140 -188.5q100 -65 219 -65q122 0 240 65q155 84 238 265h35q-76 -159 -212.5 -257t-298.5 -98q-12 0 -38 2l-65 -127q82 -19 131 -64.5t56 -108.5q7 -67 -34.5 -114.5
t-118.5 -61.5z" />
    <glyph glyph-name="egrave" unicode="&#xe8;" horiz-adv-x="1229" vert-adv-y="2275" 
d="M839 1650l70 -298h-25l-85 298h40zM610 -25q-145 0 -250 72.5t-148.5 194.5t-20.5 268q35 224 202.5 379.5t386.5 155.5q145 0 249.5 -71.5t148.5 -192.5t22 -267l-979 1l-4 -35q-6 -66 7 -151q24 -152 128.5 -241t261.5 -89q145 0 269.5 75.5t201.5 209.5l28 -10
q-81 -139 -216 -219t-287 -80zM229 558l-4 -18h951l1 18q11 129 -34 234t-141 166.5t-226 61.5q-152 0 -279.5 -82t-202.5 -226q-46 -88 -59 -133z" />
    <glyph glyph-name="eacute" unicode="&#xe9;" horiz-adv-x="1229" vert-adv-y="2275" 
d="M954 1650l-181 -298h-23l164 298h40zM610 -25q-145 0 -250 72.5t-148.5 194.5t-20.5 268q35 224 202.5 379.5t386.5 155.5q145 0 249.5 -71.5t148.5 -192.5t22 -267l-973 1l-4 -35q-9 -90 1 -151q24 -152 128.5 -241t261.5 -89q145 0 269.5 75.5t201.5 209.5l28 -10
q-81 -139 -216 -219t-287 -80zM241 579l-6 -21l-4 -18h938l1 18q17 199 -90.5 330.5t-303.5 131.5q-152 0 -279.5 -82t-202.5 -226q-33 -62 -53 -133z" />
    <glyph glyph-name="ecircumflex" unicode="&#xea;" horiz-adv-x="1229" vert-adv-y="2275" 
d="M1067 1383l-215 120l-252 -120l5 31l252 123l215 -123zM610 -25q-145 0 -250 72.5t-148.5 194.5t-20.5 268q35 224 202.5 379.5t386.5 155.5q145 0 249.5 -71.5t148.5 -192.5t22 -267l-979 1l-4 -35q-6 -66 7 -151q24 -152 128.5 -241t261.5 -89q145 0 269.5 75.5
t201.5 209.5l28 -10q-81 -139 -216 -219t-287 -80zM229 558l-4 -18h951l1 18q11 129 -34 234t-141 166.5t-226 61.5q-152 0 -279.5 -82t-202.5 -226q-46 -88 -59 -133z" />
    <glyph glyph-name="edieresis" unicode="&#xeb;" horiz-adv-x="1229" vert-adv-y="2275" 
d="M689 1378q-22 0 -33.5 13t-7.5 35q4 23 19.5 36.5t37.5 13.5q21 0 32.5 -14.5t8.5 -35.5q-4 -21 -20 -34.5t-37 -13.5zM978 1378q-23 0 -34.5 13t-7.5 35q4 23 20 36.5t38 13.5q20 0 32 -14.5t9 -35.5q-4 -21 -20 -34.5t-37 -13.5zM610 -25q-145 0 -250 72.5
t-148.5 194.5t-20.5 268q35 224 202.5 379.5t386.5 155.5q145 0 249.5 -71.5t148.5 -192.5t22 -267l-979 1l-4 -35q-6 -66 7 -151q24 -152 128.5 -241t261.5 -89q145 0 269.5 75.5t201.5 209.5l28 -10q-81 -139 -216 -219t-287 -80zM229 558l-4 -18h951l1 18q11 129 -34 234
t-141 166.5t-226 61.5q-152 0 -279.5 -82t-202.5 -226q-46 -88 -59 -133z" />
    <glyph glyph-name="igrave" unicode="&#xec;" horiz-adv-x="286" vert-adv-y="2275" 
d="M366 1650l70 -298h-24l-86 298h40zM323 1045l-166 -1045h-32l166 1045h32z" />
    <glyph glyph-name="iacute" unicode="&#xed;" horiz-adv-x="286" vert-adv-y="2275" 
d="M483 1650l-179 -298h-25l164 298h40zM326 1045l-166 -1045h-33l166 1045h33z" />
    <glyph glyph-name="icircumflex" unicode="&#xee;" horiz-adv-x="325" vert-adv-y="2275" 
d="M616 1383l-215 120l-253 -120l5 31l253 123l215 -123zM345 1045l-166 -1045h-34l166 1045h34z" />
    <glyph glyph-name="idieresis" unicode="&#xef;" horiz-adv-x="324" vert-adv-y="2275" 
d="M236 1378q-23 0 -34.5 13t-7.5 35q3 22 19.5 36t38.5 14q21 0 32.5 -14.5t8.5 -35.5q-4 -21 -20 -34.5t-37 -13.5zM525 1378q-23 0 -34 13t-7 35q4 23 19.5 36.5t37.5 13.5q21 0 32.5 -14.5t8.5 -35.5q-4 -21 -20 -34.5t-37 -13.5zM343 1045l-166 -1045h-32l166 1045h32z
" />
    <glyph glyph-name="ntilde" unicode="&#xf1;" vert-adv-y="2275" 
d="M876 1454q-47 0 -125 42q-42 22 -63 31q-38 14 -70 14q-93 0 -133 -80h-29q24 52 68.5 80.5t102.5 28.5q45 0 125 -42q35 -19 62 -30q37 -15 71 -15q92 0 133 81h29q-53 -110 -171 -110zM245 636l-101 -636h-34l165 1042h34l-32 -202q35 58 82 100q56 52 141.5 79.5
t177.5 27.5t168.5 -27.5t117.5 -79.5q82 -103 56 -273l-106 -667h-33l101 636q30 188 -46.5 286.5t-260.5 99.5q-185 -1 -292.5 -99.5t-137.5 -286.5z" />
    <glyph glyph-name="ograve" unicode="&#xf2;" horiz-adv-x="1199" vert-adv-y="2275" 
d="M824 1650l70 -298h-25l-85 298h40zM595 -25q-142 0 -243.5 74t-142.5 195.5t-18 265.5q17 107 68.5 204.5t126 170.5t174 116.5t205.5 43.5q160 0 265.5 -91t135.5 -246q19 -100 3 -198q-16 -99 -66 -199q-78 -155 -213 -245.5t-295 -90.5zM599 -1q120 0 240 66
q121 67 198 188t98 257q21 135 -17.5 257t-137.5 188q-96 65 -219 65q-121 0 -240 -65q-120 -66 -196 -188t-98 -257q-22 -137 15.5 -258t137.5 -187q101 -66 219 -66z" />
    <glyph glyph-name="oacute" unicode="&#xf3;" horiz-adv-x="1199" vert-adv-y="2275" 
d="M938 1650l-180 -298h-24l165 298h39zM595 -25q-142 0 -243.5 74t-142.5 195.5t-18 265.5q17 107 68.5 204.5t126 170.5t174 116.5t205.5 43.5q160 0 265.5 -91t135.5 -246q19 -100 3 -198q-16 -99 -66 -199q-78 -155 -213 -245.5t-295 -90.5zM599 -1q120 0 240 66
q121 67 198 188t98 257q21 135 -17.5 257t-137.5 188q-96 65 -219 65q-121 0 -240 -65q-120 -66 -196 -188t-98 -257q-22 -137 15.5 -258t137.5 -187q101 -66 219 -66z" />
    <glyph glyph-name="ocircumflex" unicode="&#xf4;" horiz-adv-x="1199" vert-adv-y="2275" 
d="M1052 1383l-215 120l-252 -120l5 31l252 123l215 -123zM595 -25q-142 0 -243.5 74t-142.5 195.5t-18 265.5q17 107 68.5 204.5t126 170.5t174 116.5t205.5 43.5q160 0 265.5 -91t135.5 -246q19 -100 3 -198q-16 -99 -66 -199q-78 -155 -213 -245.5t-295 -90.5zM599 -1
q120 0 240 66q121 67 198 188t98 257q21 135 -17.5 257t-137.5 188q-96 65 -219 65q-121 0 -240 -65q-120 -66 -196 -188t-98 -257q-22 -137 15.5 -258t137.5 -187q101 -66 219 -66z" />
    <glyph glyph-name="otilde" unicode="&#xf5;" horiz-adv-x="1199" vert-adv-y="2275" 
d="M962 1454q-47 0 -123 42q-42 22 -63 31q-38 14 -70 14q-94 0 -133 -80h-29q24 52 68.5 80.5t102.5 28.5q46 0 124 -42q42 -22 62 -30q37 -15 70 -15q94 0 135 81h29q-53 -110 -173 -110zM595 -25q-142 0 -243.5 74t-142.5 195.5t-18 265.5q17 107 68.5 204.5t126 170.5
t174 116.5t205.5 43.5q160 0 265.5 -91t135.5 -246q19 -100 3 -198q-16 -99 -66 -199q-78 -155 -213 -245.5t-295 -90.5zM599 -1q120 0 240 66q121 67 198 188t98 257q21 135 -17.5 257t-137.5 188q-96 65 -219 65q-121 0 -240 -65q-120 -66 -196 -188t-98 -257
q-22 -137 15.5 -258t137.5 -187q101 -66 219 -66z" />
    <glyph glyph-name="odieresis" unicode="&#xf6;" horiz-adv-x="1199" vert-adv-y="2275" 
d="M674 1378q-22 0 -33.5 13t-7.5 35q4 23 19.5 36.5t37.5 13.5q21 0 32.5 -14.5t8.5 -35.5q-4 -21 -20 -34.5t-37 -13.5zM962 1378q-23 0 -34.5 13t-7.5 35q4 23 20 36.5t38 13.5q21 0 33 -14.5t9 -35.5q-4 -21 -20 -34.5t-38 -13.5zM595 -25q-142 0 -243.5 74
t-142.5 195.5t-18 265.5q17 107 68.5 204.5t126 170.5t174 116.5t205.5 43.5q160 0 265.5 -91t135.5 -246q19 -100 3 -198q-16 -99 -66 -199q-78 -155 -213 -245.5t-295 -90.5zM599 -1q120 0 240 66q121 67 198 188t98 257q21 135 -17.5 257t-137.5 188q-96 65 -219 65
q-121 0 -240 -65q-120 -66 -196 -188t-98 -257q-22 -137 15.5 -258t137.5 -187q101 -66 219 -66z" />
    <glyph glyph-name="divide" unicode="&#xf7;" horiz-adv-x="1162" vert-adv-y="2275" 
d="M708 800q-24 0 -37 14.5t-9 37.5q4 25 21.5 40t41.5 15q23 0 36 -15.5t9 -39.5q-4 -22 -22 -37t-40 -15zM1176 525l-5 -33h-1022l5 33h1022zM599 112q-23 0 -36.5 15t-9.5 38q4 24 21.5 39t41.5 15q23 0 36 -15.5t9 -38.5q-4 -22 -21.5 -37.5t-40.5 -15.5z" />
    <glyph glyph-name="oslash" unicode="&#xf8;" horiz-adv-x="1199" vert-adv-y="2275" 
d="M456 -5l-125 -265h-40l131 278l-13 6q-86 41 -141.5 119.5t-74.5 175.5t-2 201q17 107 68.5 204.5t126 170.5t174 116.5t205.5 43.5q77 0 119 -15l15 -6l131 278h40l-131 -279l12 -14q2 -3 9 -8q90 -53 137 -120q50 -73 69 -172.5t3 -198.5q-17 -107 -68 -204.5
t-125.5 -170.5t-174 -116.5t-206.5 -43.5q-75 0 -124 15zM417 43l16 -12l455 967l-14 5q-46 17 -113 17q-120 0 -240 -65q-120 -66 -196 -188t-98 -257q-22 -134 16 -259t137 -187q3 -2 16.5 -9t20.5 -12zM599 -1q120 0 240 66q121 66 198 187t98 258q21 134 -17.5 258
t-137.5 187q-7 5 -20 13t-19 12l-16 12l-456 -970l15 -6q44 -17 115 -17z" />
    <glyph glyph-name="ugrave" unicode="&#xf9;" vert-adv-y="2275" 
d="M736 1650l70 -298h-25l-85 298h40zM512 0q-92 0 -168.5 27.5t-117.5 79.5q-82 103 -56 273l106 667h33l-101 -636q-30 -188 46.5 -286.5t260.5 -99.5q185 1 292.5 99.5t137.5 286.5l101 636h34l-165 -1042h-34l32 202q-35 -58 -82 -100q-56 -52 -141.5 -79.5
t-177.5 -27.5z" />
    <glyph glyph-name="uacute" unicode="&#xfa;" vert-adv-y="2275" 
d="M851 1650l-181 -298h-23l164 298h40zM512 0q-92 0 -168.5 27.5t-117.5 79.5q-82 103 -56 273l106 667h33l-101 -636q-30 -188 46.5 -286.5t260.5 -99.5q185 1 292.5 99.5t137.5 286.5l101 636h34l-165 -1042h-34l32 202q-35 -58 -82 -100q-56 -52 -141.5 -79.5
t-177.5 -27.5z" />
    <glyph glyph-name="ucircumflex" unicode="&#xfb;" vert-adv-y="2275" 
d="M964 1383l-215 120l-250 -120l5 31l250 123l215 -123zM512 0q-92 0 -168.5 27.5t-117.5 79.5q-82 103 -56 273l106 667h33l-101 -636q-30 -188 46.5 -286.5t260.5 -99.5q185 1 292.5 99.5t137.5 286.5l101 636h34l-165 -1042h-34l32 202q-35 -58 -82 -100
q-56 -52 -141.5 -79.5t-177.5 -27.5z" />
    <glyph glyph-name="udieresis" unicode="&#xfc;" vert-adv-y="2275" 
d="M586 1378q-22 0 -33.5 13t-7.5 35t19.5 36t37.5 14q21 0 32.5 -14.5t8.5 -35.5q-4 -21 -20 -34.5t-37 -13.5zM875 1378q-23 0 -34 13t-7 35q4 23 19.5 36.5t37.5 13.5q20 0 32 -14.5t9 -35.5q-4 -21 -20 -34.5t-37 -13.5zM512 0q-92 0 -168.5 27.5t-117.5 79.5
q-82 103 -56 273l106 667h33l-101 -636q-30 -188 46.5 -286.5t260.5 -99.5q185 1 292.5 99.5t137.5 286.5l101 636h34l-165 -1042h-34l32 202q-35 -58 -82 -100q-56 -52 -141.5 -79.5t-177.5 -27.5z" />
    <glyph glyph-name="yacute" unicode="&#xfd;" horiz-adv-x="1162" vert-adv-y="2275" 
d="M919 1650l-180 -298h-24l164 298h40zM1217 1047l-872 -1519h-35l250 438l-284 1081h39l265 -1044l595 1044h42z" />
    <glyph glyph-name="ydieresis" unicode="&#xff;" horiz-adv-x="1162" vert-adv-y="2275" 
d="M654 1378q-22 0 -33.5 13t-7.5 35t19.5 36t37.5 14q21 0 33 -14.5t9 -35.5q-4 -21 -20 -34.5t-38 -13.5zM943 1378q-23 0 -34 13t-7 35q4 23 19.5 36.5t37.5 13.5q21 0 32.5 -14.5t8.5 -35.5q-4 -21 -20 -34.5t-37 -13.5zM1217 1047l-872 -1519h-35l250 438l-284 1081h39
l265 -1044l595 1044h42z" />
    <glyph glyph-name="Amacron" unicode="&#x100;" horiz-adv-x="1467" vert-adv-y="2275" 
d="M1312 1836l-5 -28h-576l5 28h576zM403 433l-249 -433h-44l843 1463h26l378 -1463h-40l-111 433h-803zM1197 467l-239 932l-536 -932h775z" />
    <glyph glyph-name="amacron" unicode="&#x101;" horiz-adv-x="1060" vert-adv-y="2275" 
d="M1042 1417l-4 -27h-576l4 27h576zM469 -25q-260 0 -310 159q-18 59 -7 132q35 220 261 276q39 10 70.5 14.5t150 14t377.5 26.5l12 76q29 175 -54.5 262t-258.5 87q-165 0 -274.5 -77.5t-144.5 -238.5l-33 -1q36 171 156 255.5t300 84.5q189 0 280.5 -93.5t61.5 -280.5
l-106 -671h-34l42 266q-33 -76 -97 -140q-72 -70 -173 -110.5t-219 -40.5zM473 -3q133 0 238 49q83 38 143 99q101 103 124 246l29 182q-115 -6 -201 -12t-122 -9.5t-79.5 -8t-56.5 -5.5q-126 -14 -171 -33q-162 -68 -189 -239q-12 -73 7 -127t61.5 -84t96.5 -44t120 -14z
" />
    <glyph glyph-name="Abreve" unicode="&#x102;" horiz-adv-x="1467" vert-adv-y="2275" 
d="M1017 1798q-97 0 -153 49t-52 140h27q-2 -80 48.5 -124t132.5 -44q83 0 148 44t89 124h27q-25 -91 -97 -140t-170 -49zM403 433l-249 -433h-44l843 1463h26l378 -1463h-40l-111 433h-803zM1197 467l-239 932l-536 -932h775z" />
    <glyph glyph-name="abreve" unicode="&#x103;" horiz-adv-x="1060" vert-adv-y="2275" 
d="M749 1380q-97 0 -153.5 49.5t-52.5 140.5h28q-3 -81 47.5 -124.5t133.5 -43.5t148 44t88 124h27q-25 -92 -96.5 -141t-169.5 -49zM469 -25q-260 0 -310 159q-18 59 -7 132q35 220 261 276q39 10 70.5 14.5t150 14t377.5 26.5l12 76q29 175 -54.5 262t-258.5 87
q-165 0 -274.5 -77.5t-144.5 -238.5l-33 -1q36 171 156 255.5t300 84.5q189 0 280.5 -93.5t61.5 -280.5l-106 -671h-34l42 266q-33 -76 -97 -140q-72 -70 -173 -110.5t-219 -40.5zM473 -3q133 0 238 49q83 38 143 99q101 103 124 246l29 182q-115 -6 -201 -12t-122 -9.5
t-79.5 -8t-56.5 -5.5q-126 -14 -171 -33q-162 -68 -189 -239q-12 -73 7 -127t61.5 -84t96.5 -44t120 -14z" />
    <glyph glyph-name="Cacute" unicode="&#x106;" horiz-adv-x="1587" vert-adv-y="2275" 
d="M1204 2069l-181 -299h-25l165 299h41zM810 -33q-131 0 -245 43t-194 128q-89 94 -122 208q-32 107 -33 213q-2 98 10 173q21 132 76 256.5t149.5 234t213.5 172.5q191 100 387 100q242 0 399.5 -131t185.5 -362h-40q-24 215 -175 339.5t-375 124.5q-153 0 -289 -59
t-235 -159.5t-165 -233.5t-90 -282q-16 -120 -7.5 -229t52 -201.5t110.5 -160t168 -106t224 -38.5q224 0 413.5 124t282.5 340h40q-101 -231 -300 -362.5t-441 -131.5z" />
    <glyph glyph-name="cacute" unicode="&#x107;" horiz-adv-x="1171" vert-adv-y="2275" 
d="M929 1650l-180 -298h-25l165 298h40zM595 -24q-142 0 -243 74t-142.5 195.5t-18.5 264.5q17 106 68.5 203.5t126 171t174 117t205.5 43.5q166 0 272.5 -96.5t131.5 -258.5h-35q-23 179 -154 265q-100 65 -219 65q-120 0 -240 -65q-81 -45 -145.5 -118.5t-103 -156.5
t-52.5 -170q-21 -134 19.5 -256.5t140.5 -188.5q98 -65 219 -65q122 0 240 65q158 85 238 265h35q-77 -162 -214 -258t-303 -96z" />
    <glyph glyph-name="Ccircumflex" unicode="&#x108;" horiz-adv-x="1587" vert-adv-y="2275" 
d="M1317 1800l-215 121l-252 -121l5 33l253 123l214 -123zM810 -33q-131 0 -245 43t-194 128q-89 94 -122 208q-32 107 -33 213q-2 98 10 173q21 132 76 256.5t149.5 234t213.5 172.5q191 100 387 100q242 0 399.5 -131t185.5 -362h-40q-24 215 -175 339.5t-375 124.5
q-153 0 -289 -59t-235 -159.5t-165 -233.5t-90 -282q-16 -120 -7.5 -229t52 -201.5t110.5 -160t168 -106t224 -38.5q224 0 413.5 124t282.5 340h40q-101 -231 -300 -362.5t-441 -131.5z" />
    <glyph glyph-name="ccircumflex" unicode="&#x109;" horiz-adv-x="1171" vert-adv-y="2275" 
d="M1043 1383l-215 120l-252 -120l5 31l252 123l215 -123zM595 -24q-142 0 -243 74t-142.5 195.5t-18.5 264.5q17 106 68.5 203.5t126 171t174 117t205.5 43.5q166 0 272.5 -96.5t131.5 -258.5h-35q-23 179 -154 265q-100 65 -219 65q-120 0 -240 -65q-81 -45 -145.5 -118.5
t-103 -156.5t-52.5 -170q-21 -134 19.5 -256.5t140.5 -188.5q98 -65 219 -65q122 0 240 65q158 85 238 265h35q-77 -162 -214 -258t-303 -96z" />
    <glyph glyph-name="Cdotaccent" unicode="&#x10a;" horiz-adv-x="1587" vert-adv-y="2275" 
d="M1095 1866q-22 0 -33.5 13t-8.5 35q4 23 19.5 37t37.5 14q21 0 33 -14.5t8 -36.5q-3 -21 -19 -34.5t-37 -13.5zM810 -33q-131 0 -245 43t-194 128q-89 94 -122 208q-32 107 -33 213q-2 98 10 173q21 132 76 256.5t149.5 234t213.5 172.5q191 100 387 100
q242 0 399.5 -131t185.5 -362h-40q-24 215 -175 339.5t-375 124.5q-153 0 -289 -59t-235 -159.5t-165 -233.5t-90 -282q-16 -120 -7.5 -229t52 -201.5t110.5 -160t168 -106t224 -38.5q224 0 413.5 124t282.5 340h40q-101 -231 -300 -362.5t-441 -131.5z" />
    <glyph glyph-name="cdotaccent" unicode="&#x10b;" horiz-adv-x="1171" vert-adv-y="2275" 
d="M820 1448q-22 0 -33 13.5t-8 35.5q4 22 19.5 35.5t37.5 13.5q21 0 33 -14t8 -35q-3 -21 -19.5 -35t-37.5 -14zM595 -24q-142 0 -243 74t-142.5 195.5t-18.5 264.5q17 106 68.5 203.5t126 171t174 117t205.5 43.5q166 0 272.5 -96.5t131.5 -258.5h-35q-23 179 -154 265
q-100 65 -219 65q-120 0 -240 -65q-81 -45 -145.5 -118.5t-103 -156.5t-52.5 -170q-21 -134 19.5 -256.5t140.5 -188.5q98 -65 219 -65q122 0 240 65q158 85 238 265h35q-77 -162 -214 -258t-303 -96z" />
    <glyph glyph-name="Ccaron" unicode="&#x10c;" horiz-adv-x="1587" vert-adv-y="2275" 
d="M1343 1962l-5 -33l-254 -123l-213 123l5 32l214 -120zM810 -33q-131 0 -245 43t-194 128q-89 94 -122 208q-32 107 -33 213q-2 98 10 173q21 132 76 256.5t149.5 234t213.5 172.5q191 100 387 100q242 0 399.5 -131t185.5 -362h-40q-24 215 -175 339.5t-375 124.5
q-153 0 -289 -59t-235 -159.5t-165 -233.5t-90 -282q-16 -120 -7.5 -229t52 -201.5t110.5 -160t168 -106t224 -38.5q224 0 413.5 124t282.5 340h40q-101 -231 -300 -362.5t-441 -131.5z" />
    <glyph glyph-name="ccaron" unicode="&#x10d;" horiz-adv-x="1171" vert-adv-y="2275" 
d="M1068 1543l-5 -32l-253 -123l-214 123l5 32l214 -121zM595 -24q-142 0 -243 74t-142.5 195.5t-18.5 264.5q17 106 68.5 203.5t126 171t174 117t205.5 43.5q166 0 272.5 -96.5t131.5 -258.5h-35q-23 179 -154 265q-100 65 -219 65q-120 0 -240 -65q-81 -45 -145.5 -118.5
t-103 -156.5t-52.5 -170q-21 -134 19.5 -256.5t140.5 -188.5q98 -65 219 -65q122 0 240 65q158 85 238 265h35q-77 -162 -214 -258t-303 -96z" />
    <glyph glyph-name="Emacron" unicode="&#x112;" horiz-adv-x="1137" vert-adv-y="2275" 
d="M1147 1836l-5 -28h-574l5 28h574zM1032 34l-5 -34h-917l232 1463h917l-6 -34h-880l-106 -669h740l-5 -34h-740l-110 -692h880z" />
    <glyph glyph-name="emacron" unicode="&#x113;" horiz-adv-x="1229" vert-adv-y="2275" 
d="M1127 1417l-4 -27h-576l4 27h576zM610 -25q-145 0 -250 72.5t-148.5 194.5t-20.5 268q35 224 202.5 379.5t386.5 155.5q145 0 249.5 -71.5t148.5 -192.5t22 -267l-979 1l-4 -35q-6 -66 7 -151q24 -152 128.5 -241t261.5 -89q145 0 269.5 75.5t201.5 209.5l28 -10
q-81 -139 -216 -219t-287 -80zM229 558l-4 -18h951l1 18q11 129 -34 234t-141 166.5t-226 61.5q-152 0 -279.5 -82t-202.5 -226q-46 -88 -59 -133z" />
    <glyph glyph-name="Ebreve" unicode="&#x114;" horiz-adv-x="1137" vert-adv-y="2275" 
d="M854 1798q-98 0 -154 49t-52 140h27q-2 -80 48.5 -124t133.5 -44q82 0 147 44t90 124h25q-25 -91 -96 -140t-169 -49zM1032 34l-5 -34h-917l232 1463h917l-6 -34h-880l-106 -669h740l-5 -34h-740l-110 -692h880z" />
    <glyph glyph-name="ebreve" unicode="&#x115;" horiz-adv-x="1229" vert-adv-y="2275" 
d="M833 1380q-98 0 -153.5 49t-51.5 141h27q-2 -81 48 -124.5t133 -43.5t148 44t89 124h27q-25 -91 -97 -140.5t-170 -49.5zM610 -25q-145 0 -250 72.5t-148.5 194.5t-20.5 268q35 224 202.5 379.5t386.5 155.5q145 0 249.5 -71.5t148.5 -192.5t22 -267l-979 1l-4 -35
q-6 -66 7 -151q24 -152 128.5 -241t261.5 -89q145 0 269.5 75.5t201.5 209.5l28 -10q-81 -139 -216 -219t-287 -80zM229 558l-4 -18h951l1 18q11 129 -34 234t-141 166.5t-226 61.5q-152 0 -279.5 -82t-202.5 -226q-46 -88 -59 -133z" />
    <glyph glyph-name="Edotaccent" unicode="&#x116;" horiz-adv-x="1137" vert-adv-y="2275" 
d="M865 1866q-22 0 -33.5 13t-8.5 35q4 23 19.5 37t37.5 14q21 0 33 -14.5t8 -36.5q-3 -21 -19 -34.5t-37 -13.5zM1032 34l-5 -34h-917l232 1463h917l-6 -34h-880l-106 -669h740l-5 -34h-740l-110 -692h880z" />
    <glyph glyph-name="edotaccent" unicode="&#x117;" horiz-adv-x="1229" vert-adv-y="2275" 
d="M843 1448q-22 0 -33 13.5t-8 35.5q4 22 20 35.5t37 13.5q22 0 34 -14t8 -35q-3 -21 -19.5 -35t-38.5 -14zM610 -25q-145 0 -250 72.5t-148.5 194.5t-20.5 268q35 224 202.5 379.5t386.5 155.5q145 0 249.5 -71.5t148.5 -192.5t22 -267l-979 1l-4 -35q-6 -66 7 -151
q24 -152 128.5 -241t261.5 -89q145 0 269.5 75.5t201.5 209.5l28 -10q-81 -139 -216 -219t-287 -80zM229 558l-4 -18h951l1 18q11 129 -34 234t-141 166.5t-226 61.5q-152 0 -279.5 -82t-202.5 -226q-46 -88 -59 -133z" />
    <glyph glyph-name="Ecaron" unicode="&#x11a;" horiz-adv-x="1137" vert-adv-y="2275" 
d="M1113 1962l-5 -33l-254 -123l-213 123l5 32l214 -120zM1032 34l-5 -34h-917l232 1463h917l-6 -34h-880l-106 -669h740l-5 -34h-740l-110 -692h880z" />
    <glyph glyph-name="ecaron" unicode="&#x11b;" horiz-adv-x="1229" vert-adv-y="2275" 
d="M1092 1543l-5 -32l-253 -123l-214 123l5 32l214 -121zM610 -25q-145 0 -250 72.5t-148.5 194.5t-20.5 268q35 224 202.5 379.5t386.5 155.5q145 0 249.5 -71.5t148.5 -192.5t22 -267l-979 1l-4 -35q-6 -66 7 -151q24 -152 128.5 -241t261.5 -89q145 0 269.5 75.5
t201.5 209.5l28 -10q-81 -139 -216 -219t-287 -80zM229 558l-4 -18h951l1 18q11 129 -34 234t-141 166.5t-226 61.5q-152 0 -279.5 -82t-202.5 -226q-46 -88 -59 -133z" />
    <glyph glyph-name="Gcircumflex" unicode="&#x11c;" horiz-adv-x="1593" vert-adv-y="2275" 
d="M1315 1800l-215 121l-252 -121l5 33l253 123l214 -123zM810 -33q-269 0 -429.5 161.5t-164.5 430.5q-2 98 10 173q21 132 76 256.5t149.5 234t213.5 172.5q191 100 387 100q238 0 394 -120.5t187 -342.5h-39q-30 208 -178.5 321t-368.5 113q-153 0 -290 -59t-237 -159.5
t-167 -233.5t-91 -282t1.5 -282.5t93.5 -234t186.5 -159.5t271.5 -59q128 0 254 48q193 74 324 238q133 169 167 388l6 34h-603l5 34h632l-117 -739h-29l73 460q-57 -139 -157 -247q-108 -117 -253 -181.5t-307 -64.5z" />
    <glyph glyph-name="gcircumflex" unicode="&#x11d;" horiz-adv-x="1197" vert-adv-y="2275" 
d="M1051 1383l-215 120l-252 -120l5 31l252 123l215 -123zM549 -472q-101 0 -191 33.5t-141 99.5q-46 59 -64 129h39q12 -49 46 -98q48 -69 135 -104t184 -35q192 0 328.5 120.5t167.5 314.5l53 335l-6 -12q-78 -155 -213 -245.5t-295 -90.5q-142 0 -243.5 74t-142.5 195.5
t-18 265.5q17 107 68.5 204.5t126 170.5t174 116.5t205.5 43.5q160 0 265.5 -91t135.5 -246q2 -8 2 -12l51 323h31l-157 -995q-36 -226 -178 -361t-363 -135zM596 -1q120 0 240 66q108 59 183.5 162.5t106.5 223.5l19 117q6 119 -36.5 223t-131.5 164q-96 65 -219 65
q-121 0 -240 -65q-121 -67 -201.5 -189.5t-101.5 -255.5q-21 -135 20 -257t142 -188t219 -66z" />
    <glyph glyph-name="Gbreve" unicode="&#x11e;" horiz-adv-x="1593" vert-adv-y="2275" 
d="M1082 1798q-97 0 -153.5 49t-51.5 140h26q-2 -80 48.5 -124t133.5 -44q82 0 147 44t90 124h26q-25 -91 -96.5 -140t-169.5 -49zM810 -33q-269 0 -429.5 161.5t-164.5 430.5q-2 98 10 173q21 132 76 256.5t149.5 234t213.5 172.5q191 100 387 100q238 0 394 -120.5
t187 -342.5h-39q-30 208 -178.5 321t-368.5 113q-153 0 -290 -59t-237 -159.5t-167 -233.5t-91 -282t1.5 -282.5t93.5 -234t186.5 -159.5t271.5 -59q128 0 254 48q193 74 324 238q133 169 167 388l6 34h-603l5 34h632l-117 -739h-29l73 460q-57 -139 -157 -247
q-108 -117 -253 -181.5t-307 -64.5z" />
    <glyph glyph-name="gbreve" unicode="&#x11f;" horiz-adv-x="1197" vert-adv-y="2275" 
d="M817 1380q-98 0 -154 49.5t-51 140.5h27q-3 -80 47.5 -124t133.5 -44t148 44t89 124h26q-25 -92 -96.5 -141t-169.5 -49zM549 -472q-101 0 -191 33.5t-141 99.5q-46 59 -64 129h39q12 -49 46 -98q48 -69 135 -104t184 -35q192 0 328.5 120.5t167.5 314.5l53 335l-6 -12
q-78 -155 -213 -245.5t-295 -90.5q-142 0 -243.5 74t-142.5 195.5t-18 265.5q17 107 68.5 204.5t126 170.5t174 116.5t205.5 43.5q160 0 265.5 -91t135.5 -246q2 -8 2 -12l51 323h31l-157 -995q-36 -226 -178 -361t-363 -135zM596 -1q120 0 240 66q108 59 183.5 162.5
t106.5 223.5l19 117q6 119 -36.5 223t-131.5 164q-96 65 -219 65q-121 0 -240 -65q-121 -67 -201.5 -189.5t-101.5 -255.5q-21 -135 20 -257t142 -188t219 -66z" />
    <glyph glyph-name="Gdotaccent" unicode="&#x120;" horiz-adv-x="1593" vert-adv-y="2275" 
d="M1093 1866q-22 0 -33.5 13t-8.5 35q4 23 19.5 37t37.5 14q21 0 33 -14.5t8 -36.5q-3 -21 -19 -34.5t-37 -13.5zM810 -33q-269 0 -429.5 161.5t-164.5 430.5q-2 98 10 173q21 132 76 256.5t149.5 234t213.5 172.5q191 100 387 100q238 0 394 -120.5t187 -342.5h-39
q-30 208 -178.5 321t-368.5 113q-153 0 -290 -59t-237 -159.5t-167 -233.5t-91 -282t1.5 -282.5t93.5 -234t186.5 -159.5t271.5 -59q128 0 254 48q193 74 324 238q133 169 167 388l6 34h-603l5 34h632l-117 -739h-29l73 460q-57 -139 -157 -247q-108 -117 -253 -181.5
t-307 -64.5z" />
    <glyph glyph-name="gdotaccent" unicode="&#x121;" horiz-adv-x="1197" vert-adv-y="2275" 
d="M827 1448q-22 0 -33 13.5t-8 35.5q4 22 19.5 35.5t37.5 13.5q21 0 33 -14t8 -35q-3 -21 -19.5 -35t-37.5 -14zM549 -472q-101 0 -191 33.5t-141 99.5q-46 59 -64 129h39q12 -49 46 -98q48 -69 135 -104t184 -35q192 0 328.5 120.5t167.5 314.5l53 335l-6 -12
q-78 -155 -213 -245.5t-295 -90.5q-142 0 -243.5 74t-142.5 195.5t-18 265.5q17 107 68.5 204.5t126 170.5t174 116.5t205.5 43.5q160 0 265.5 -91t135.5 -246q2 -8 2 -12l51 323h31l-157 -995q-36 -226 -178 -361t-363 -135zM596 -1q120 0 240 66q108 59 183.5 162.5
t106.5 223.5l19 117q6 119 -36.5 223t-131.5 164q-96 65 -219 65q-121 0 -240 -65q-121 -67 -201.5 -189.5t-101.5 -255.5q-21 -135 20 -257t142 -188t219 -66z" />
    <glyph glyph-name="Itilde" unicode="&#x128;" horiz-adv-x="584" vert-adv-y="2275" 
d="M722 1872q-44 0 -124 42q-44 23 -63 30q-37 15 -71 15q-93 0 -132 -80h-29q51 108 170 108q51 0 126 -41q38 -21 62 -30q37 -14 70 -14q92 0 133 79h29q-25 -52 -69.5 -80.5t-101.5 -28.5zM484 27l-4 -27h-376l4 27h170l223 1409h-170l5 27h376l-5 -27h-170l-223 -1409
h170z" />
    <glyph glyph-name="itilde" unicode="&#x129;" horiz-adv-x="312" vert-adv-y="2275" 
d="M520 1454q-47 0 -125 42q-31 17 -62 31q-40 14 -71 14q-93 0 -133 -80h-29q25 52 69.5 80.5t101.5 28.5q45 0 125 -42q42 -22 63 -30q37 -15 70 -15q92 0 133 81h29q-51 -110 -171 -110zM337 1045l-166 -1045h-32l166 1045h32z" />
    <glyph glyph-name="Imacron" unicode="&#x12a;" horiz-adv-x="599" vert-adv-y="2275" 
d="M879 1836l-5 -28h-576l5 28h576zM492 27l-4 -27h-376l4 27h168l223 1409h-168l5 27h376l-5 -27h-170l-223 -1409h170z" />
    <glyph glyph-name="imacron" unicode="&#x12b;" horiz-adv-x="327" vert-adv-y="2275" 
d="M676 1417l-4 -27h-576l4 27h576zM345 1045l-166 -1045h-34l166 1045h34z" />
    <glyph glyph-name="dotlessi" unicode="&#x131;" horiz-adv-x="317" vert-adv-y="1800" 
d="M341 1045l-166 -1045h-34l166 1045h34z" />
    <glyph glyph-name="Nacute" unicode="&#x143;" horiz-adv-x="1321" vert-adv-y="2275" 
d="M1066 2069l-180 -299h-25l165 299h40zM375 1439l-228 -1439h-37l232 1463h64l772 -1441l229 1441h36l-232 -1463h-63z" />
    <glyph glyph-name="nacute" unicode="&#x144;" vert-adv-y="2275" 
d="M851 1650l-181 -298h-23l164 298h40zM245 636l-101 -636h-34l165 1042h34l-32 -202q35 58 82 100q56 52 141.5 79.5t177.5 27.5t168.5 -27.5t117.5 -79.5q82 -103 56 -273l-106 -667h-33l101 636q30 188 -46.5 286.5t-260.5 99.5q-185 -1 -292.5 -99.5t-137.5 -286.5z
" />
    <glyph glyph-name="Ncaron" unicode="&#x147;" horiz-adv-x="1321" vert-adv-y="2275" 
d="M1205 1962l-5 -33l-253 -123l-213 123l5 32l214 -120zM375 1439l-228 -1439h-37l232 1463h64l772 -1441l229 1441h36l-232 -1463h-63z" />
    <glyph glyph-name="ncaron" unicode="&#x148;" vert-adv-y="2275" 
d="M989 1543l-5 -32l-253 -123l-212 123l5 32l212 -121zM245 636l-101 -636h-34l165 1042h34l-32 -202q35 58 82 100q56 52 141.5 79.5t177.5 27.5t168.5 -27.5t117.5 -79.5q82 -103 56 -273l-106 -667h-33l101 636q30 188 -46.5 286.5t-260.5 99.5q-185 -1 -292.5 -99.5
t-137.5 -286.5z" />
    <glyph glyph-name="Omacron" unicode="&#x14c;" horiz-adv-x="1677" vert-adv-y="2275" 
d="M1418 1836l-5 -28h-576l5 28h576zM833 -33q-160 0 -287 59t-205 161.5t-109 243.5t-6 301t101 300.5t186.5 242.5t256.5 161t305 59q213 0 364.5 -100.5t215 -274t29.5 -388.5t-152.5 -389t-302 -275t-396.5 -101zM838 -3q154 0 294 58t245.5 157t177 234t95.5 286
q32 202 -27.5 369t-204 266t-348.5 99q-153 0 -292.5 -58t-244.5 -157.5t-176.5 -233.5t-95.5 -285q-32 -202 27 -369t203 -266.5t347 -99.5z" />
    <glyph glyph-name="omacron" unicode="&#x14d;" horiz-adv-x="1199" vert-adv-y="2275" 
d="M1111 1417l-4 -27h-575l4 27h575zM595 -25q-142 0 -243.5 74t-142.5 195.5t-18 265.5q17 107 68.5 204.5t126 170.5t174 116.5t205.5 43.5q160 0 265.5 -91t135.5 -246q19 -100 3 -198q-16 -99 -66 -199q-78 -155 -213 -245.5t-295 -90.5zM599 -1q120 0 240 66
q121 67 198 188t98 257q21 135 -17.5 257t-137.5 188q-96 65 -219 65q-121 0 -240 -65q-120 -66 -196 -188t-98 -257q-22 -137 15.5 -258t137.5 -187q101 -66 219 -66z" />
    <glyph glyph-name="Obreve" unicode="&#x14e;" horiz-adv-x="1677" vert-adv-y="2275" 
d="M1123 1798q-97 0 -153 49t-52 140h28q-3 -80 47.5 -124t132.5 -44q83 0 148.5 44t88.5 124h27q-25 -91 -97 -140t-170 -49zM833 -33q-160 0 -287 59t-205 161.5t-109 243.5t-6 301t101 300.5t186.5 242.5t256.5 161t305 59q213 0 364.5 -100.5t215 -274t29.5 -388.5
t-152.5 -389t-302 -275t-396.5 -101zM838 -3q154 0 294 58t245.5 157t177 234t95.5 286q32 202 -27.5 369t-204 266t-348.5 99q-153 0 -292.5 -58t-244.5 -157.5t-176.5 -233.5t-95.5 -285q-32 -202 27 -369t203 -266.5t347 -99.5z" />
    <glyph glyph-name="obreve" unicode="&#x14f;" horiz-adv-x="1199" vert-adv-y="2275" 
d="M818 1380q-98 0 -154 49.5t-51 140.5h27q-3 -80 47.5 -124t133.5 -44t148 44t89 124h26q-25 -92 -96.5 -141t-169.5 -49zM595 -25q-142 0 -243.5 74t-142.5 195.5t-18 265.5q17 107 68.5 204.5t126 170.5t174 116.5t205.5 43.5q160 0 265.5 -91t135.5 -246
q19 -100 3 -198q-16 -99 -66 -199q-78 -155 -213 -245.5t-295 -90.5zM599 -1q120 0 240 66q121 67 198 188t98 257q21 135 -17.5 257t-137.5 188q-96 65 -219 65q-121 0 -240 -65q-120 -66 -196 -188t-98 -257q-22 -137 15.5 -258t137.5 -187q101 -66 219 -66z" />
    <glyph glyph-name="Ohungarumlaut" unicode="&#x150;" horiz-adv-x="1677" vert-adv-y="2275" 
d="M1107 2110l-193 -300h-19l162 300h50zM1399 2110l-192 -300h-19l162 300h49zM833 -33q-160 0 -287 59t-205 161.5t-109 243.5t-6 301t101 300.5t186.5 242.5t256.5 161t305 59q213 0 364.5 -100.5t215 -274t29.5 -388.5t-152.5 -389t-302 -275t-396.5 -101zM838 -3
q154 0 294 58t245.5 157t177 234t95.5 286q32 202 -27.5 369t-204 266t-348.5 99q-153 0 -292.5 -58t-244.5 -157.5t-176.5 -233.5t-95.5 -285q-32 -202 27 -369t203 -266.5t347 -99.5z" />
    <glyph glyph-name="ohungarumlaut" unicode="&#x151;" horiz-adv-x="1199" vert-adv-y="2275" 
d="M801 1691l-193 -299h-19l163 299h49zM1094 1691l-193 -299h-19l163 299h49zM595 -25q-142 0 -243.5 74t-142.5 195.5t-18 265.5q17 107 68.5 204.5t126 170.5t174 116.5t205.5 43.5q160 0 265.5 -91t135.5 -246q19 -100 3 -198q-16 -99 -66 -199q-78 -155 -213 -245.5
t-295 -90.5zM599 -1q120 0 240 66q121 67 198 188t98 257q21 135 -17.5 257t-137.5 188q-96 65 -219 65q-121 0 -240 -65q-120 -66 -196 -188t-98 -257q-22 -137 15.5 -258t137.5 -187q101 -66 219 -66z" />
    <glyph glyph-name="OE" unicode="&#x152;" horiz-adv-x="2848" vert-adv-y="2275" 
d="M833 -33q-160 0 -287 59t-205 161.5t-109 243.5t-6 301t101 300.5t186.5 242.5t256.5 161t305 59q166 0 298.5 -62t215.5 -186q26 -42 56 -109q4 -9 11.5 -27.5t11.5 -27.5l22 -54l69 434h917l-6 -34h-880l-104 -669h738l-5 -34h-737l-113 -692h880l-5 -34h-917l69 434
l-40 -54q-20 -30 -40 -55q-53 -70 -91 -108q-121 -123 -274.5 -186.5t-317.5 -63.5zM838 -3q154 0 293 58t242.5 157.5t174 233.5t94.5 286q32 203 -25.5 369.5t-200 265.5t-346.5 99q-152 0 -291 -58t-242.5 -157.5t-174 -233.5t-94.5 -285t4 -285.5t100 -234t192.5 -157.5
t273.5 -58z" />
    <glyph glyph-name="oe" unicode="&#x153;" horiz-adv-x="2432" vert-adv-y="2275" 
d="M855 -25q-142 0 -243.5 74t-142.5 195.5t-18 265.5q17 107 68.5 204.5t126 170.5t174 116.5t205.5 43.5q150 0 251.5 -79.5t141.5 -221.5l9 -37l9 -36l44 72q32 54 64 93q85 100 201 154.5t239 54.5q144 0 248.5 -72t148.5 -193t22 -266l-972 1l-6 -34q-8 -54 -1 -122
q16 -163 122 -261.5t272 -98.5q144 0 268.5 76t201.5 209l29 -10q-82 -139 -216.5 -219t-286.5 -80q-123 0 -221 54t-151 154q-22 39 -36 92l-11 37l-10 35l-21 -35l-20 -37q-84 -141 -211.5 -220.5t-277.5 -79.5zM859 -1q120 0 240 66q121 67 198 188t98 257
q21 135 -17.5 257t-137.5 188q-96 65 -219 65q-121 0 -240 -65q-120 -66 -196 -188t-98 -257q-22 -137 15.5 -258t137.5 -187q101 -66 219 -66zM1444 579l-12 -39h940l1 18q16 199 -90.5 330.5t-302.5 131.5q-152 0 -280 -82t-203 -226q-25 -49 -53 -133z" />
    <glyph glyph-name="Racute" unicode="&#x154;" horiz-adv-x="1225" vert-adv-y="2275" 
d="M1019 2069l-182 -299h-23l165 299h40zM262 726l-115 -726h-37l232 1463h548q98 0 174.5 -19.5t134 -61t81.5 -114.5t8 -174q-52 -331 -444 -365l-52 -4l291 -725h-50l-280 726h-491zM892 1429h-519l-106 -669h519q86 0 158.5 16.5t138 53t109.5 104t59 161.5
q12 76 -1 134.5t-45 95.5t-82 61t-106.5 33.5t-124.5 9.5z" />
    <glyph glyph-name="racute" unicode="&#x155;" horiz-adv-x="589" vert-adv-y="2275" 
d="M633 1650l-181 -298h-23l164 298h40zM245 636l-101 -636h-34l165 1042h34l-32 -202q35 58 82 100q101 94 283 106l-4 -25q-335 -21 -393 -385z" />
    <glyph glyph-name="Rcaron" unicode="&#x158;" horiz-adv-x="1225" vert-adv-y="2275" 
d="M1157 1962l-5 -33l-254 -123l-213 123l5 32l214 -120zM262 726l-115 -726h-37l232 1463h548q98 0 174.5 -19.5t134 -61t81.5 -114.5t8 -174q-52 -331 -444 -365l-52 -4l291 -725h-50l-280 726h-491zM892 1429h-519l-106 -669h519q86 0 158.5 16.5t138 53t109.5 104
t59 161.5q12 76 -1 134.5t-45 95.5t-82 61t-106.5 33.5t-124.5 9.5z" />
    <glyph glyph-name="rcaron" unicode="&#x159;" horiz-adv-x="590" vert-adv-y="2275" 
d="M773 1543l-5 -32l-253 -123l-214 123l5 32l214 -121zM245 636l-101 -636h-34l165 1042h34l-32 -202q35 58 82 100q101 94 283 106l-4 -25q-335 -21 -393 -385z" />
    <glyph glyph-name="Sacute" unicode="&#x15a;" horiz-adv-x="1260" vert-adv-y="2275" 
d="M1036 2069l-181 -299h-24l165 299h40zM609 -23q-214 0 -329 97q-113 97 -116 285h37q3 -159 85 -245q99 -103 329 -103q158 0 279 56q103 48 174 121.5t86 171.5q6 37 6.5 67.5t-6 57t-15.5 48t-28.5 40t-38 32.5t-50 28t-59.5 24t-72.5 22t-81.5 20.5t-94 20.5
q-156 34 -198 47q-112 34 -168 87q-39 36 -60 94q-20 54 -5 152q15 94 75 170.5t144 122.5t177.5 70.5t184.5 24.5q214 0 329 -97q113 -97 116 -285h-37q-3 159 -85 245q-99 103 -329 103q-158 0 -279 -56q-103 -48 -174 -121.5t-86 -171.5q-6 -36 -5.5 -67t4.5 -55.5
t15 -46t23 -37.5t32 -30.5t37.5 -24.5t44.5 -20.5t48 -17.5t52 -17q70 -21 204 -50q16 -3 57 -12t55.5 -12t47 -11t47 -13.5t39.5 -14.5t39.5 -17.5t32 -21t32.5 -26.5q39 -36 60 -94q20 -54 5 -152q-15 -94 -75 -170.5t-144 -122.5t-177.5 -70.5t-184.5 -24.5z" />
    <glyph glyph-name="sacute" unicode="&#x15b;" horiz-adv-x="931" vert-adv-y="2275" 
d="M804 1650l-180 -298h-25l164 298h41zM465 -14q-226 0 -292 167q-16 42 -18 101h33q4 -116 82.5 -179t198.5 -63q84 0 161 27.5t132.5 84.5t67.5 131q21 127 -88 188q-39 22 -106 39q-41 11 -121 26q-60 12 -97 22t-81.5 30t-67 46t-34.5 68.5t-3 98.5q18 108 125 189
q112 83 273 83q136 0 222 -70.5t87 -198.5h-33q-4 116 -82.5 179t-198.5 63q-131 0 -237.5 -66t-123.5 -177q-20 -128 87 -188q40 -22 106 -39q38 -10 122 -26q76 -15 120.5 -29t92 -42.5t64.5 -76t6 -116.5q-17 -106 -125 -190q-110 -82 -272 -82z" />
    <glyph glyph-name="Scircumflex" unicode="&#x15c;" horiz-adv-x="1260" vert-adv-y="2275" 
d="M1148 1800l-215 121l-250 -121l5 33l252 123l213 -123zM609 -23q-214 0 -329 97q-113 97 -116 285h37q3 -159 85 -245q99 -103 329 -103q158 0 279 56q103 48 174 121.5t86 171.5q6 37 6.5 67.5t-6 57t-15.5 48t-28.5 40t-38 32.5t-50 28t-59.5 24t-72.5 22t-81.5 20.5
t-94 20.5q-156 34 -198 47q-112 34 -168 87q-39 36 -60 94q-20 54 -5 152q15 94 75 170.5t144 122.5t177.5 70.5t184.5 24.5q214 0 329 -97q113 -97 116 -285h-37q-3 159 -85 245q-99 103 -329 103q-158 0 -279 -56q-103 -48 -174 -121.5t-86 -171.5q-6 -36 -5.5 -67
t4.5 -55.5t15 -46t23 -37.5t32 -30.5t37.5 -24.5t44.5 -20.5t48 -17.5t52 -17q70 -21 204 -50q16 -3 57 -12t55.5 -12t47 -11t47 -13.5t39.5 -14.5t39.5 -17.5t32 -21t32.5 -26.5q39 -36 60 -94q20 -54 5 -152q-15 -94 -75 -170.5t-144 -122.5t-177.5 -70.5t-184.5 -24.5z
" />
    <glyph glyph-name="scircumflex" unicode="&#x15d;" horiz-adv-x="931" vert-adv-y="2275" 
d="M918 1383l-215 120l-252 -120l5 31l252 123l215 -123zM465 -14q-226 0 -292 167q-16 42 -18 101h33q4 -116 82.5 -179t198.5 -63q84 0 161 27.5t132.5 84.5t67.5 131q21 127 -88 188q-39 22 -106 39q-41 11 -121 26q-60 12 -97 22t-81.5 30t-67 46t-34.5 68.5t-3 98.5
q18 108 125 189q112 83 273 83q136 0 222 -70.5t87 -198.5h-33q-4 116 -82.5 179t-198.5 63q-131 0 -237.5 -66t-123.5 -177q-20 -128 87 -188q40 -22 106 -39q38 -10 122 -26q76 -15 120.5 -29t92 -42.5t64.5 -76t6 -116.5q-17 -106 -125 -190q-110 -82 -272 -82z" />
    <glyph glyph-name="Scedilla" unicode="&#x15e;" horiz-adv-x="1260" vert-adv-y="2275" 
d="M559 -500q-100 -15 -154 20l16 21q58 -28 120 -17q73 13 109.5 53.5t32 87.5t-49 94.5t-121.5 74.5l-11 5l72 139q-191 9 -293 96q-113 97 -116 285h37q3 -159 85 -245q99 -103 329 -103q158 0 279 56q103 48 174 121.5t86 171.5q6 37 6.5 67.5t-6 57t-15.5 48t-28.5 40
t-38 32.5t-50 28t-59.5 24t-72.5 22t-81.5 20.5t-94 20.5q-156 34 -198 47q-112 34 -168 87q-39 36 -60 94q-20 54 -5 152q15 94 75 170.5t144 122.5t177.5 70.5t184.5 24.5q214 0 329 -97q113 -97 116 -285h-37q-3 159 -85 245q-99 103 -329 103q-158 0 -279 -56
q-103 -48 -174 -121.5t-86 -171.5q-6 -36 -5.5 -67t4.5 -55.5t15 -46t23 -37.5t32 -30.5t37.5 -24.5t44.5 -20.5t48 -17.5t52 -17q70 -21 204 -50q16 -3 57 -12t55.5 -12t47 -11t47 -13.5t39.5 -14.5t39.5 -17.5t32 -21t32.5 -26.5q39 -36 60 -94q20 -54 5 -152
q-15 -94 -75 -170.5t-144 -122.5t-177.5 -70.5t-184.5 -24.5h-18l-66 -128q82 -19 131 -64.5t56 -108.5q7 -67 -34.5 -114.5t-118.5 -61.5z" />
    <glyph glyph-name="scedilla" unicode="&#x15f;" horiz-adv-x="931" vert-adv-y="2275" 
d="M411 -484q-98 -15 -153 20l16 21q56 -28 119 -17q73 13 110 53.5t32.5 87.5t-49.5 94.5t-122 74.5l-11 5l68 133q-189 17 -248 165q-16 42 -18 101h33q4 -116 82.5 -179t198.5 -63q84 0 161 27.5t132.5 84.5t67.5 131q21 127 -88 188q-39 22 -106 39q-41 11 -121 26
q-60 12 -97 22t-81.5 30t-67 46t-34.5 68.5t-3 98.5q18 108 125 189q112 83 273 83q136 0 222 -70.5t87 -198.5h-33q-4 116 -82.5 179t-198.5 63q-131 0 -237.5 -66t-123.5 -177q-20 -128 87 -188q40 -22 106 -39q38 -10 122 -26q76 -15 120.5 -29t92 -42.5t64.5 -76
t6 -116.5q-17 -106 -125 -190q-110 -82 -272 -82q-16 0 -24 1l-63 -122q82 -19 131 -64.5t55 -108.5q7 -67 -34.5 -114.5t-118.5 -61.5z" />
    <glyph glyph-name="Scaron" unicode="&#x160;" horiz-adv-x="1260" vert-adv-y="2275" 
d="M1174 1962l-5 -33l-253 -123l-212 123l5 32l212 -120zM609 -23q-214 0 -329 97q-113 97 -116 285h37q3 -159 85 -245q99 -103 329 -103q158 0 279 56q103 48 174 121.5t86 171.5q6 37 6.5 67.5t-6 57t-15.5 48t-28.5 40t-38 32.5t-50 28t-59.5 24t-72.5 22t-81.5 20.5
t-94 20.5q-156 34 -198 47q-112 34 -168 87q-39 36 -60 94q-20 54 -5 152q15 94 75 170.5t144 122.5t177.5 70.5t184.5 24.5q214 0 329 -97q113 -97 116 -285h-37q-3 159 -85 245q-99 103 -329 103q-158 0 -279 -56q-103 -48 -174 -121.5t-86 -171.5q-6 -36 -5.5 -67
t4.5 -55.5t15 -46t23 -37.5t32 -30.5t37.5 -24.5t44.5 -20.5t48 -17.5t52 -17q70 -21 204 -50q16 -3 57 -12t55.5 -12t47 -11t47 -13.5t39.5 -14.5t39.5 -17.5t32 -21t32.5 -26.5q39 -36 60 -94q20 -54 5 -152q-15 -94 -75 -170.5t-144 -122.5t-177.5 -70.5t-184.5 -24.5z
" />
    <glyph glyph-name="scaron" unicode="&#x161;" horiz-adv-x="931" vert-adv-y="2275" 
d="M943 1543l-5 -32l-253 -123l-214 123l5 32l214 -121zM465 -14q-226 0 -292 167q-16 42 -18 101h33q4 -116 82.5 -179t198.5 -63q84 0 161 27.5t132.5 84.5t67.5 131q21 127 -88 188q-39 22 -106 39q-41 11 -121 26q-60 12 -97 22t-81.5 30t-67 46t-34.5 68.5t-3 98.5
q18 108 125 189q112 83 273 83q136 0 222 -70.5t87 -198.5h-33q-4 116 -82.5 179t-198.5 63q-131 0 -237.5 -66t-123.5 -177q-20 -128 87 -188q40 -22 106 -39q38 -10 122 -26q76 -15 120.5 -29t92 -42.5t64.5 -76t6 -116.5q-17 -106 -125 -190q-110 -82 -272 -82z" />
    <glyph glyph-name="Tcaron" unicode="&#x164;" horiz-adv-x="1265" vert-adv-y="2275" 
d="M1176 1961l-5 -32l-253 -123l-212 123l5 32l213 -120zM876 1429l-226 -1429h-36l226 1429h-504l6 34h1045l-6 -34h-505z" />
    <glyph glyph-name="tcaron" unicode="&#x165;" horiz-adv-x="1124" vert-adv-y="2275" 
d="M500 -2q-89 0 -119 51t-15 149l131 822h-225l4 25h225l74 470h34l-74 -470h232l-4 -25h-232l-128 -803q-14 -94 11.5 -144t118.5 -50q49 0 73 1l-4 -23q-51 -3 -102 -3zM1252 1463l-150 -299h-22l119 299h53z" />
    <glyph glyph-name="Utilde" unicode="&#x168;" horiz-adv-x="1322" vert-adv-y="2275" 
d="M1091 1872q-45 0 -123 42q-44 23 -63 30q-37 15 -71 15q-93 0 -133 -80h-29q51 108 171 108q50 0 125 -41q42 -22 62 -30q38 -14 70 -14q93 0 134 79h28q-25 -52 -69.5 -80.5t-101.5 -28.5zM656 -33q-113 0 -200 31t-141.5 87t-86.5 135t-35 175t12 206l137 862h38
l-140 -883q-13 -97 -9 -183.5t35.5 -160t82 -126.5t131 -83t181.5 -30q126 0 232.5 46t181.5 126.5t124 184.5t68 226l140 883h37l-137 -862q-22 -140 -72.5 -254t-130 -200t-193.5 -133t-255 -47z" />
    <glyph glyph-name="utilde" unicode="&#x169;" vert-adv-y="2275" 
d="M876 1454q-47 0 -125 42q-42 22 -63 31q-38 14 -70 14q-93 0 -133 -80h-29q24 52 68.5 80.5t102.5 28.5q45 0 125 -42q35 -19 62 -30q37 -15 71 -15q92 0 133 81h29q-53 -110 -171 -110zM512 0q-92 0 -168.5 27.5t-117.5 79.5q-82 103 -56 273l106 667h33l-101 -636
q-30 -188 46.5 -286.5t260.5 -99.5q185 1 292.5 99.5t137.5 286.5l101 636h34l-165 -1042h-34l32 202q-35 -58 -82 -100q-56 -52 -141.5 -79.5t-177.5 -27.5z" />
    <glyph glyph-name="Umacron" unicode="&#x16a;" horiz-adv-x="1322" vert-adv-y="2275" 
d="M1240 1836l-5 -28h-576l5 28h576zM656 -33q-113 0 -200 31t-141.5 87t-86.5 135t-35 175t12 206l137 862h38l-140 -883q-13 -97 -9 -183.5t35.5 -160t82 -126.5t131 -83t181.5 -30q126 0 232.5 46t181.5 126.5t124 184.5t68 226l140 883h37l-137 -862
q-22 -140 -72.5 -254t-130 -200t-193.5 -133t-255 -47z" />
    <glyph glyph-name="umacron" unicode="&#x16b;" vert-adv-y="2275" 
d="M1024 1417l-4 -27h-576l4 27h576zM512 0q-92 0 -168.5 27.5t-117.5 79.5q-82 103 -56 273l106 667h33l-101 -636q-30 -188 46.5 -286.5t260.5 -99.5q185 1 292.5 99.5t137.5 286.5l101 636h34l-165 -1042h-34l32 202q-35 -58 -82 -100q-56 -52 -141.5 -79.5t-177.5 -27.5
z" />
    <glyph glyph-name="Ubreve" unicode="&#x16c;" horiz-adv-x="1322" vert-adv-y="2275" 
d="M947 1798q-98 0 -154.5 49t-52.5 140h28q-2 -81 48.5 -124.5t133.5 -43.5t147.5 43.5t87.5 124.5h27q-25 -91 -96.5 -140t-168.5 -49zM656 -33q-113 0 -200 31t-141.5 87t-86.5 135t-35 175t12 206l137 862h38l-140 -883q-13 -97 -9 -183.5t35.5 -160t82 -126.5t131 -83
t181.5 -30q126 0 232.5 46t181.5 126.5t124 184.5t68 226l140 883h37l-137 -862q-22 -140 -72.5 -254t-130 -200t-193.5 -133t-255 -47z" />
    <glyph glyph-name="ubreve" unicode="&#x16d;" vert-adv-y="2275" 
d="M730 1380q-97 0 -153 49.5t-52 140.5h28q-3 -81 47 -124.5t133 -43.5t148.5 44t88.5 124h27q-25 -91 -97 -140.5t-170 -49.5zM512 0q-92 0 -168.5 27.5t-117.5 79.5q-82 103 -56 273l106 667h33l-101 -636q-30 -188 46.5 -286.5t260.5 -99.5q185 1 292.5 99.5
t137.5 286.5l101 636h34l-165 -1042h-34l32 202q-35 -58 -82 -100q-56 -52 -141.5 -79.5t-177.5 -27.5z" />
    <glyph glyph-name="Uring" unicode="&#x16e;" horiz-adv-x="1322" vert-adv-y="2275" 
d="M944 1772q-83 0 -130.5 55.5t-34.5 138.5q7 39 33 85q30 50 83 80t110 30q81 0 127 -56t32 -139q-13 -84 -75 -139t-145 -55zM946 1789q75 0 130.5 51t66.5 126q12 75 -27 126.5t-113 51.5q-76 0 -131 -51t-67 -127q-12 -75 26.5 -126t114.5 -51zM656 -33q-113 0 -200 31
t-141.5 87t-86.5 135t-35 175t12 206l137 862h38l-140 -883q-13 -97 -9 -183.5t35.5 -160t82 -126.5t131 -83t181.5 -30q126 0 232.5 46t181.5 126.5t124 184.5t68 226l140 883h37l-137 -862q-22 -140 -72.5 -254t-130 -200t-193.5 -133t-255 -47z" />
    <glyph glyph-name="uring" unicode="&#x16f;" vert-adv-y="2275" 
d="M727 1354q-82 0 -128.5 56t-33.5 139q8 44 33 84q29 50 82 80t109 30q39 0 84 -20q44 -21 65 -70t12 -104q-5 -35 -31 -87q-28 -49 -82 -78.5t-110 -29.5zM730 1370q76 0 130.5 52t66.5 127t-27 126t-114 51t-129.5 -50.5t-66.5 -126.5t26.5 -127.5t113.5 -51.5zM512 0
q-92 0 -168.5 27.5t-117.5 79.5q-82 103 -56 273l106 667h33l-101 -636q-30 -188 46.5 -286.5t260.5 -99.5q185 1 292.5 99.5t137.5 286.5l101 636h34l-165 -1042h-34l32 202q-35 -58 -82 -100q-56 -52 -141.5 -79.5t-177.5 -27.5z" />
    <glyph glyph-name="Uhungarumlaut" unicode="&#x170;" horiz-adv-x="1322" vert-adv-y="2275" 
d="M929 2110l-192 -300h-20l163 300h49zM1221 2110l-193 -300h-19l163 300h49zM656 -33q-113 0 -200 31t-141.5 87t-86.5 135t-35 175t12 206l137 862h38l-140 -883q-13 -97 -9 -183.5t35.5 -160t82 -126.5t131 -83t181.5 -30q126 0 232.5 46t181.5 126.5t124 184.5t68 226
l140 883h37l-137 -862q-22 -140 -72.5 -254t-130 -200t-193.5 -133t-255 -47z" />
    <glyph glyph-name="uhungarumlaut" unicode="&#x171;" vert-adv-y="2275" 
d="M714 1691l-194 -299h-19l163 299h50zM1006 1691l-193 -299h-19l163 299h49zM512 0q-92 0 -168.5 27.5t-117.5 79.5q-82 103 -56 273l106 667h33l-101 -636q-30 -188 46.5 -286.5t260.5 -99.5q185 1 292.5 99.5t137.5 286.5l101 636h34l-165 -1042h-34l32 202
q-35 -58 -82 -100q-56 -52 -141.5 -79.5t-177.5 -27.5z" />
    <glyph glyph-name="Wcircumflex" unicode="&#x174;" horiz-adv-x="2219" vert-adv-y="2275" 
d="M1628 1800l-214 121l-252 -121l5 33l253 123l213 -123zM2299 1463l-742 -1463l-28 -2l-216 1414l-663 -1412h-33l-275 1463h46l253 -1412l663 1410l1 2h34l215 -1414l704 1414h41z" />
    <glyph glyph-name="wcircumflex" unicode="&#x175;" horiz-adv-x="1760" vert-adv-y="2275" 
d="M1333 1383l-215 120l-252 -120l5 31l252 123l215 -123zM1044 1028l-526 -1033h-38l-203 1057h33l194 -1020l518 1020h52l194 -1022l517 1022h32l-540 -1057h-35z" />
    <glyph glyph-name="Ycircumflex" unicode="&#x176;" horiz-adv-x="1412" vert-adv-y="2275" 
d="M1224 1800l-215 121l-252 -121l5 33l253 123l214 -123zM839 736l-117 -736h-37l118 742l-461 721h50l437 -695l659 695h46z" />
    <glyph glyph-name="ycircumflex" unicode="&#x177;" horiz-adv-x="1162" vert-adv-y="2275" 
d="M1033 1383l-214 120l-252 -120l5 31l252 123l214 -123zM1217 1047l-872 -1519h-35l250 438l-284 1081h39l265 -1044l595 1044h42z" />
    <glyph glyph-name="Ydieresis" unicode="&#x178;" horiz-adv-x="1412" vert-adv-y="2275" 
d="M846 1796q-22 0 -33.5 13t-7.5 35q4 23 19.5 37t37.5 14q21 0 33 -14.5t8 -36.5q-3 -21 -19.5 -34.5t-37.5 -13.5zM1135 1796q-23 0 -35 13t-8 35q4 23 20 37t39 14q20 0 32 -15t9 -36t-19.5 -34.5t-37.5 -13.5zM839 736l-117 -736h-37l118 742l-461 721h50l437 -695
l659 695h46z" />
    <glyph glyph-name="Zacute" unicode="&#x179;" horiz-adv-x="1310" vert-adv-y="2275" 
d="M1060 2069l-181 -299h-24l165 299h40zM1204 34l-5 -34h-1089l7 43l1267 1386h-1039l6 34h1071l-7 -43l-1267 -1386h1056z" />
    <glyph glyph-name="zacute" unicode="&#x17a;" horiz-adv-x="977" vert-adv-y="2275" 
d="M848 1650l-181 -298h-23l164 298h40zM871 25l-4 -25h-757l6 37l889 983h-733l4 25h757l-6 -32l-890 -988h734z" />
    <glyph glyph-name="Zdotaccent" unicode="&#x17b;" horiz-adv-x="1310" vert-adv-y="2275" 
d="M952 1866q-22 0 -33.5 13t-8.5 35q4 23 19.5 37t37.5 14q20 0 32.5 -14.5t8.5 -36.5q-3 -21 -19 -34.5t-37 -13.5zM1204 34l-5 -34h-1089l7 43l1267 1386h-1039l6 34h1071l-7 -43l-1267 -1386h1056z" />
    <glyph glyph-name="zdotaccent" unicode="&#x17c;" horiz-adv-x="977" vert-adv-y="2275" 
d="M737 1448q-22 0 -33 13.5t-8 35.5q4 22 20 35.5t37 13.5q22 0 34 -14t8 -35q-3 -21 -19.5 -35t-38.5 -14zM871 25l-4 -25h-757l6 37l889 983h-733l4 25h757l-6 -32l-890 -988h734z" />
    <glyph glyph-name="Zcaron" unicode="&#x17d;" horiz-adv-x="1310" vert-adv-y="2275" 
d="M1199 1962l-5 -33l-253 -123l-213 123l5 32l214 -120zM1204 34l-5 -34h-1089l7 43l1267 1386h-1039l6 34h1071l-7 -43l-1267 -1386h1056z" />
    <glyph glyph-name="zcaron" unicode="&#x17e;" horiz-adv-x="977" vert-adv-y="2275" 
d="M986 1543l-5 -32l-253 -123l-212 123l5 32l212 -121zM871 25l-4 -25h-757l6 37l889 983h-733l4 25h757l-6 -32l-890 -988h734z" />
    <glyph glyph-name="circumflex" unicode="&#x2c6;" horiz-adv-x="761" vert-adv-y="2275" 
d="M834 1383l-215 120l-252 -120l5 31l252 123l215 -123z" />
    <glyph glyph-name="caron" unicode="&#x2c7;" horiz-adv-x="761" vert-adv-y="2275" 
d="M859 1543l-5 -32l-253 -123l-214 123l5 32l214 -121z" />
    <glyph glyph-name="breve" unicode="&#x2d8;" horiz-adv-x="700" vert-adv-y="2275" 
d="M569 1380q-97 0 -153.5 49.5t-52.5 140.5h28q-3 -81 47.5 -124.5t133.5 -43.5t148 44t88 124h27q-25 -92 -96.5 -141t-169.5 -49z" />
    <glyph glyph-name="dotaccent" unicode="&#x2d9;" horiz-adv-x="431" vert-adv-y="2275" 
d="M444 1448q-22 0 -33 13.5t-8 35.5q4 22 19.5 35.5t37.5 13.5q21 0 33 -14t8 -35q-3 -21 -19.5 -35t-37.5 -14z" />
    <glyph glyph-name="ring" unicode="&#x2da;" horiz-adv-x="567" vert-adv-y="2275" 
d="M499 1354q-83 0 -129.5 55.5t-33.5 139.5q7 41 33 84q29 51 82 80.5t110 29.5q39 0 83 -20q44 -21 65 -70t12 -104q-13 -84 -76 -139.5t-146 -55.5zM502 1370q75 0 129.5 52t66.5 127q12 74 -26.5 125.5t-113.5 51.5q-76 0 -130.5 -50.5t-66.5 -126.5t26.5 -127.5
t114.5 -51.5z" />
    <glyph glyph-name="ogonek" unicode="&#x2db;" horiz-adv-x="509" vert-adv-y="2275" 
d="M196 -434q-76 0 -110.5 50t-21.5 130q13 84 71 150.5t143 105.5l7 -18q-73 -35 -125.5 -97.5t-64.5 -138.5q-10 -67 21.5 -113.5t98.5 -46.5q63 0 122 45l8 -14q-28 -25 -69.5 -39t-79.5 -14z" />
    <glyph glyph-name="tilde" unicode="&#x2dc;" horiz-adv-x="798" vert-adv-y="2275" 
d="M763 1454q-47 0 -125 42q-31 17 -62 31q-40 14 -71 14q-93 0 -133 -80h-29q25 52 69.5 80.5t101.5 28.5q45 0 125 -42q42 -22 63 -30q37 -15 70 -15q92 0 133 81h29q-51 -110 -171 -110z" />
    <glyph glyph-name="hungarumlaut" unicode="&#x2dd;" horiz-adv-x="731" vert-adv-y="2275" 
d="M569 1691l-193 -299h-19l163 299h49zM862 1691l-193 -299h-19l163 299h49z" />
    <glyph glyph-name="Wgrave" unicode="&#x1e80;" horiz-adv-x="2219" vert-adv-y="2275" 
d="M1400 2069l70 -299h-24l-86 299h40zM2299 1463l-742 -1463l-28 -2l-216 1414l-663 -1412h-33l-275 1463h46l253 -1412l663 1410l1 2h34l215 -1414l704 1414h41z" />
    <glyph glyph-name="wgrave" unicode="&#x1e81;" horiz-adv-x="1760" vert-adv-y="2275" 
d="M1105 1650l70 -298h-25l-85 298h40zM1044 1028l-526 -1033h-38l-203 1057h33l194 -1020l518 1020h52l194 -1022l517 1022h32l-540 -1057h-35z" />
    <glyph glyph-name="Wacute" unicode="&#x1e82;" horiz-adv-x="2219" vert-adv-y="2275" 
d="M1515 2069l-180 -299h-25l165 299h40zM2299 1463l-742 -1463l-28 -2l-216 1414l-663 -1412h-33l-275 1463h46l253 -1412l663 1410l1 2h34l215 -1414l704 1414h41z" />
    <glyph glyph-name="wacute" unicode="&#x1e83;" horiz-adv-x="1760" vert-adv-y="2275" 
d="M1219 1650l-180 -298h-25l165 298h40zM1044 1028l-526 -1033h-38l-203 1057h33l194 -1020l518 1020h52l194 -1022l517 1022h32l-540 -1057h-35z" />
    <glyph glyph-name="Wdieresis" unicode="&#x1e84;" horiz-adv-x="2219" vert-adv-y="2275" 
d="M1249 1796q-22 0 -33.5 13t-7.5 35t20 36.5t37 14.5q22 0 34 -14.5t8 -36.5q-3 -21 -19.5 -34.5t-38.5 -13.5zM1538 1796q-23 0 -34 13t-7 35q4 23 19.5 37t37.5 14q21 0 33 -14.5t8 -36.5q-3 -21 -19.5 -34.5t-37.5 -13.5zM2299 1463l-742 -1463l-28 -2l-216 1414
l-663 -1412h-33l-275 1463h46l253 -1412l663 1410l1 2h34l215 -1414l704 1414h41z" />
    <glyph glyph-name="wdieresis" unicode="&#x1e85;" horiz-adv-x="1760" vert-adv-y="2275" 
d="M955 1378q-22 0 -33.5 13t-7.5 35q4 23 19.5 36.5t37.5 13.5q21 0 32.5 -14.5t8.5 -35.5q-4 -21 -20 -34.5t-37 -13.5zM1242 1378q-22 0 -33.5 13t-7.5 35t19.5 36t37.5 14q21 0 33 -14.5t9 -35.5q-4 -21 -20 -34.5t-38 -13.5zM1044 1028l-526 -1033h-38l-203 1057h33
l194 -1020l518 1020h52l194 -1022l517 1022h32l-540 -1057h-35z" />
    <glyph glyph-name="endash" unicode="&#x2013;" horiz-adv-x="992" vert-adv-y="2275" 
d="M1075 523l-4 -27h-992l4 27h992z" />
    <glyph glyph-name="emdash" unicode="&#x2014;" horiz-adv-x="2050" vert-adv-y="2275" 
d="M2133 523l-4 -27h-2050l4 27h2050z" />
    <glyph glyph-name="quoteleft" unicode="&#x2018;" horiz-adv-x="333" vert-adv-y="2275" 
d="M461 1463l-121 -299h-52l150 299h23z" />
    <glyph glyph-name="quoteright" unicode="&#x2019;" horiz-adv-x="333" vert-adv-y="2275" 
d="M461 1463l-150 -299h-23l121 299h52z" />
    <glyph glyph-name="quotesinglbase" unicode="&#x201a;" horiz-adv-x="333" vert-adv-y="2275" 
d="M243 88l-150 -300h-23l121 300h52z" />
    <glyph glyph-name="quotedblleft" unicode="&#x201c;" horiz-adv-x="619" vert-adv-y="2275" 
d="M461 1463l-121 -299h-52l150 299h23zM746 1463l-120 -299h-52l149 299h23z" />
    <glyph glyph-name="quotedblright" unicode="&#x201d;" horiz-adv-x="619" vert-adv-y="2275" 
d="M461 1463l-150 -299h-23l121 299h52zM746 1463l-149 -299h-23l120 299h52z" />
    <glyph glyph-name="quotedblbase" unicode="&#x201e;" horiz-adv-x="619" vert-adv-y="2275" 
d="M243 90l-149 -300h-23l120 300h52zM528 90l-148 -300h-23l119 300h52z" />
    <glyph glyph-name="dagger" unicode="&#x2020;" horiz-adv-x="1031" vert-adv-y="2275" 
d="M689 992l-184 -1164h-32l184 1164h-386l4 27h386l71 444h32l-71 -444h386l-4 -27h-386z" />
    <glyph glyph-name="daggerdbl" unicode="&#x2021;" horiz-adv-x="1031" vert-adv-y="2275" 
d="M575 272l-70 -444h-32l70 444h-386l4 27h386l110 693h-386l4 27h386l71 444h32l-71 -444h386l-4 -27h-386l-110 -693h386l-4 -27h-386z" />
    <glyph glyph-name="bullet" unicode="&#x2022;" horiz-adv-x="1019" vert-adv-y="2275" 
d="M580 452q-116 0 -183.5 83.5t-48.5 200.5q18 118 111.5 201.5t210.5 83.5t185.5 -83.5t50.5 -201.5q-19 -117 -114.5 -200.5t-211.5 -83.5z" />
    <glyph glyph-name="ellipsis" unicode="&#x2026;" horiz-adv-x="1211" vert-adv-y="2275" 
d="M175 -17q-23 0 -35.5 14.5t-8.5 37.5q4 25 20.5 40t40.5 15q23 0 36.5 -15.5t9.5 -39.5q-4 -22 -22 -37t-41 -15zM603 -17q-24 0 -36.5 14.5t-8.5 37.5q4 25 20.5 40t41.5 15q23 0 36 -15.5t9 -39.5q-4 -22 -22 -37t-40 -15zM1030 -17q-23 0 -35.5 14.5t-8.5 37.5
q4 25 20 40t41 15q23 0 36 -15.5t9 -39.5q-4 -22 -21.5 -37t-40.5 -15z" />
    <glyph glyph-name="guilsinglleft" unicode="&#x2039;" horiz-adv-x="546" vert-adv-y="2275" 
d="M267 520l149 -418h-40l-149 418l282 419h40z" />
    <glyph glyph-name="guilsinglright" unicode="&#x203a;" horiz-adv-x="548" vert-adv-y="2275" 
d="M482 520l-281 -418h-40l281 418l-148 419h40z" />
    <glyph glyph-name="fraction" unicode="&#x2044;" horiz-adv-x="608" vert-adv-y="2275" 
d="M909 1463l-948 -1463h-30l948 1463h30z" />
    <glyph glyph-name="Euro" unicode="&#x20ac;" horiz-adv-x="1162" vert-adv-y="2275" 
d="M839 -33q-176 0 -292.5 74t-167.5 202.5t-45 306.5l1 14h-159l5 28h154l2 18l1 17q2 12 4.5 33t5 38.5t5.5 33.5q7 42 25 126l5 18h-157l4 27h161l3 14q77 268 252 423t435 155q153 0 248 -53l-5 -32q-114 56 -248 56q-467 0 -635 -525l-12 -38h508l-4 -27h-509l-4 -15
q-17 -82 -25 -129q-3 -15 -5.5 -33t-5 -39.5t-4.5 -33.5l-2 -18l-1 -16h511l-5 -28h-508v-38q0 -99 13 -172q66 -357 456 -357q133 0 265 55l-5 -31q-118 -54 -265 -54z" />
    <glyph glyph-name="trademark" unicode="&#x2122;" horiz-adv-x="1784" vert-adv-y="2275" 
d="M395 1440v-793h-23v793h-281v23h584v-23h-280zM889 1435v-788h-29v816h35l335 -437l336 437h35v-816h-28v788l-345 -448l-2 4q-8 9 -17 22l-72 97q-73 96 -219 286z" />
    <glyph glyph-name="arrowleft" unicode="&#x2190;" horiz-adv-x="1155" vert-adv-y="2275" 
d="M172 496l277 -496h-37l-289 510l450 509h37l-434 -496h1021l-4 -27h-1021z" />
    <glyph glyph-name="arrowright" unicode="&#x2192;" horiz-adv-x="1155" vert-adv-y="2275" 
d="M1195 510l-452 -510h-36l434 496h-1020l4 27h1020l-277 496h36z" />
    <glyph glyph-name="minus" unicode="&#x2212;" horiz-adv-x="1162" vert-adv-y="2275" 
d="M1176 525l-5 -33h-1022l5 33h1022z" />
    <glyph glyph-name="approxequal" unicode="&#x2248;" horiz-adv-x="1137" vert-adv-y="2275" 
d="M883 612q-73 0 -206 49q-58 22 -104 35q-62 16 -112 16q-56 0 -114 -24t-102 -65l-27 24q100 104 251 104q75 0 208 -49q85 -29 104 -34q62 -16 110 -16q57 0 114 23t102 65l27 -24q-22 -22 -49 -41q-85 -63 -202 -63zM828 268q-34 0 -74 8.5t-62.5 15.5t-71.5 24
q-61 23 -103 35q-64 16 -111 16q-118 0 -216 -88l-26 24q103 104 250 104q74 0 207 -49q78 -28 103 -34q58 -16 113 -16q56 0 113.5 23t102.5 64l27 -24q-100 -103 -252 -103z" />
    <glyph glyph-name="notequal" unicode="&#x2260;" horiz-adv-x="1162" vert-adv-y="2275" 
d="M525 276l-182 -276h-36l183 276h-375l5 34h390l264 397h-591l5 34h606l184 278h36l-184 -278h380l-5 -34h-396l-263 -397h596l-5 -34h-612z" />
    <glyph glyph-name="lessequal" unicode="&#x2264;" horiz-adv-x="1161" vert-adv-y="2275" 
d="M231 711l870 -385l-6 -37l-875 396l8 49l1000 398l-6 -37zM1055 66l-5 -32h-930l5 32h930z" />
    <glyph glyph-name="greaterequal" unicode="&#x2265;" horiz-adv-x="1161" vert-adv-y="2275" 
d="M1165 734l-8 -49l-999 -396l6 37l991 385l-870 384l6 37zM1056 66l-5 -32h-930l5 32h930z" />
    <glyph glyph-name="uniF8FF" unicode="&#xf8ff;" horiz-adv-x="1008" vert-adv-y="2275" 
d="M978 1142v-1016h-948v1016h948zM172 366h109v189h373v98h-373v266h373v97h-483v-646zM725 467h-371v-101h483v650h-112v-182h-371v-104h371v-263zM563 241q8 0 14 4q2 0 5 1h2q7 0 7 5v25q-5 0 -7 4l-3 3l-7 1h-8l-5 4l-4 1q-1 2 -2 3.5t-1 2.5q0 7 7 7h5q5 -3 6 -4
q4 -3 7 -3q1 0 3 -1l2 -1l7 15q0 1 -2 1.5t-5.5 1.5t-6.5 2q-12 4 -14 4q-4 0 -14 -4q-5 -3 -8 -3l-4 -6q-3 -3 -3 -11q0 -2 0.5 -4t0.5 -3q0 -2 2 -3l2.5 -2.5t1.5 -2.5l5 -2q1 0 2.5 -0.5t2.5 -0.5q4 0 8 -4h4l3 -2l5 -3l1 -3q0 -5 -2 -5q-4 -2 -7 -2q-2 0 -14 5
q-3 0 -14 7l-4 -15q6 -8 15 -8q1 0 3.5 -1t4.5 -1q3 -2 9 -2zM270 241q18 0 28 10q9 9 12 27q0 14 -9 20q0 4 -3 6q-1 1 -3 3.5t-4 2.5q-5 5 -21 5q-12 0 -19 -5q-7 -2 -15 -12q-5 -12 -5 -20q0 -11 5 -18q8 -14 13 -15q7 -4 21 -4zM731 241q13 0 17 4q7 2 14 9l-12 12
q-3 -5 -10 -5q-2 -3 -9 -3q-6 0 -9 3l-2 2q-1 0 -5 6q-2 0 -2 11q0 6 2 9q0 1 3 3.5t4 3.5q3 4 9 4q7 0 9 -4q7 -1 10 -7l10 13q0 1 -1 2t-2 2.5t-2 3.5l-7 1l-8 4h-9q-18 0 -24 -11q-12 -5 -12 -26q0 -12 3 -18q9 -13 15 -15q5 -4 18 -4zM228 313h-56v-70h21v26h31v14h-31
v17h35v13zM335 313h-16v-70h18v41l31 -41h19v70h-19v-42zM394 300h23v-57h17v57h21v13h-61v-13zM499 313h-20l-32 -70h20l6 11h29l5 -11h22zM596 300h20v-57h20v57h22v13h-62v-13zM683 313h-18v-70h18v70zM812 313h-20l-32 -70h20l6 11h33l2 -11h22zM270 256q-5 0 -14 7
q-5 8 -5 15q0 6 2 11l3 4l5 3q2 4 9 4q5 0 11 -4q4 -1 7 -7l2 -5v-11q0 -1 -1 -3l-1 -2q-6 -7 -7 -7q-7 -5 -11 -5zM489 295l8 -26h-20zM801 295l9 -26h-20zM59 50l-4 -20h-5l-4 1l-11 44q2 2 4 2h7l4 -30q2 0 2 3q0 5 3 10q1 3 2 5.5t1.5 4t0.5 2.5v5h9l6 -15l3 -15
q2 2 2 4l2 11l3 13q0 2 4 2l6 -2q-6 -9 -6 -18q0 -1 -4 -13l-2 -11v-3h-10v3l-2 5l-3 12l-3 14zM129 47l-4 -17h-8q0 1 -3 1v7l-7 31l-3 6q3 2 5 2h5v-7q3 -3 3 -8l4 -15l8 30h8l2 -2l5 -15l1 -13l9 28q0 2 4 2l5 -2v-5l-2 -8q-1 -2 -2 -5t-1 -4l-6 -23h-5l-3 1l-7 16v8
q0 1 -3 3q-4 -2 -4 -3q0 -5 -1 -8zM202 64l-8 -33l-5 -1l-3 1l-2 7q0 7 -5 17l-1 15l-2 7h8l3 -15l4 -15l3 4l4 26h11l4 -15q1 -15 7 -15v15l2 15h6l5 -2l-2 -5q0 -6 -2 -8q0 -2 -0.5 -5t-0.5 -4l-7 -22l-1 -1h-7l-6 17l-3 13zM284 50v-19h-7v44l1 2h28v-8h-22v-12h17v-7
h-17zM343 30q-14 0 -17 12q-3 9 -3 11q0 9 3 12q0 5 6 5l5 7h8q13 0 20 -15q3 -10 0 -15q-3 -8 -7 -12q-5 -5 -15 -5zM394 60v-30h-9v47h9l18 -30v30h6v-46l-1 -1h-5zM460 69v-39h-9v39h-13v8h36v-8h-14zM493 31l-6 -1h-3q0 1 -2 1l2 6l5 12l6 15q1 1 2.5 4.5t3.5 6.5
q0 2 1 2h5l19 -46q-2 0 -2 -1h-2l-7 1l-2 11h-18zM559 30q-3 0 -6 0.5t-4 0.5q-2 1 -4 4t-3 3l-1 4v5h8q7 -9 10 -9q2 0 5 2q2 2 2 4v3q-1 2 -9 4q-11 0 -11 4q-6 7 -4 12q5 8 11 10h8q9 0 10 -7q3 0 3 -6v-2h-8v2q0 6 -7 6h-2q-6 -4 -6 -6l10 -4q2 -1 6.5 -3.5t6.5 -3.5
q0 -1 1 -3t1 -3q0 -8 -4 -10q-1 -6 -6 -6q-2 -1 -7 -1zM614 69v-39h-8v39h-14v8h36v-8h-14zM654 77v-47h-7v47h7zM696 30q-12 0 -21 17q-2 0 -2 6l2 9q1 8 14 15h6q9 0 12 -7q3 0 3 -3l1 -3l-4 -2h-2l-3 2q-4 6 -7 6l-10 -5q-3 -4 -3 -8l1 -7q0 -3 2 -5q0 -7 8 -7q5 0 9 9h5
q4 0 4 -2l-1 -3q-5 -12 -14 -12zM737 31l-6 -1h-1l-2 1l2 6l3 12q4 8 5 15l7 11q0 2 3 2h7l17 -46q-2 0 -2 -1h-4l-4 1l-5 11h-17zM836 30q-4 0 -12 3q-1 2 -5 9q-7 11 0 25q3 3 5 3q1 1 2 2.5t2 2.5t1 2h8q6 0 8 -2q4 0 4 -5q5 0 5 -3v-3q-2 0 -5 -2h-4v2q-2 5 -8 5
q-8 0 -8 -5q-3 -3 -3 -11q0 -6 3 -11q0 -4 8 -4q6 0 8 9h9v-7l-4 -3q-4 -7 -14 -7zM894 30q-12 0 -16 7q-7 9 -7 16q0 1 5 14q9 9 11 10q4 0 11 -2.5t8 -2.5q8 -2 8 -17q0 -12 -5 -18q-3 -7 -15 -7zM942 31l-4 -1h-4v47h14l3 -15l2 -11v-4l7 13q2 9 2 15v2h16v-47h-10v35
l-6 -15v-12l-2 -7v-1h-7l-2 1l-3 16l-6 17v-33zM345 38q12 0 12 9v13q0 2 -2.5 4t-2.5 3q-6 3 -7 3l-10 -5q0 -3 -2 -3v-9q0 -1 4 -11q4 -4 8 -4zM894 38q4 0 5 2q5 2 5 13q0 12 -5 14l-1 1q-1 1 -2 1q0 1 -2 1q-9 0 -9 -6q0 -1 -1 -5t-1 -6q0 -6 2 -11q0 -4 9 -4zM504 64
l-3 -2l-2 -12h10q-2 1 -2 7l-1 5zM750 64l-3 -2l-3 -12h11l-3 7l-2 5v2zM255 40v-9h-9v9h9zM797 40v-9h-9v9h9z" />
    <glyph glyph-name="_FSHallmark" horiz-adv-x="1414" vert-adv-y="2275" 
d="M1354 1133v-152h-1291v152h1291zM1075 258q-62 0 -105 14q-79 21 -130 80t-51 139l150 -3q0 -6 9 -26q3 -19 22 -38.5t38 -25.5q26 -16 74 -16q54 0 84 18q27 16 27 42q0 46 -122 71q-100 28 -188 70q-78 38 -78 127q0 70 44.5 112t120.5 68q93 12 105 12q62 0 145 -30
q55 -20 88 -69.5t33 -108.5h-154q0 34 -41 63q-4 1 -16.5 7.5t-20.5 7.5q-5 0 -18 3.5t-19 3.5q-36 0 -72 -22q-30 -17 -30 -47q0 -50 29 -63q3 -1 16.5 -7t25 -9.5t23.5 -5.5l58 -16l47 -11q6 -1 22 -5.5t24 -4.5q29 -6 36 -11l32 -15q31 -20 50 -42q18 -39 19 -70
q2 -29 -16 -76q-62 -116 -261 -116zM232 466v-208h-169v643h543v-145h-374v-147h312v-143h-312zM669 261q-28 0 -51 25q-27 23 -27 51q0 29 24 53q21 21 54 21q38 0 62 -23q26 -23 26 -51q0 -30 -26 -56q-29 -20 -62 -20zM1352 179v-152h-1292v152h1292z" />
    <glyph glyph-name="_Fontastica" horiz-adv-x="1085" vert-adv-y="2275" 
d="M220 456v-269h-155l-5 6v934h700v-138h-540v-388h540v-145h-540zM1025 1127v-940h-700v146h540v382h-540v149h540v263h160zM212 33q-13 0 -29 7q-11 3 -19.5 17.5t-8.5 28.5q0 22 17.5 37t39.5 15q26 0 46 -28q8 -8 8 -24q0 -23 -15.5 -38t-38.5 -15zM623 33
q-27 0 -48 16l11 20q17 -15 37 -15q12 0 12 10l-1 2q-2 1 -2 3l-5 4q-2 0 -11 3q-3 1 -9.5 2t-9.5 3q-15 8 -15 27q0 30 41 30q22 0 41 -11l-11 -22q-13 12 -40 12l-1 -1l-2 -7q0 -1 1 -2t1 -2l4 -6q3 0 6.5 -1t4.5 -1q12 0 24.5 -10t12.5 -22q0 -15 -12.5 -23.5t-28.5 -8.5
zM859 33q-16 0 -27 7q-12 5 -20 18.5t-8 27.5q0 10 9 25.5t19 19.5q14 7 27 7q7 0 23 -4q9 -5 18 -14l-16 -18q-3 3 -11.5 8.5t-12.5 5.5q-14 0 -23 -14q-4 -5 -4 -16q0 -20 12 -25q8 -6 15 -6q4 0 13.5 5t10.5 8l16 -15q-12 -20 -41 -20zM101 72v-37h-26v101h75v-20h-49
v-24h47v-20h-47zM304 95v-60h-26v101h25l45 -61v61h26v-101h-24zM442 114v-79h-27v79h-30v22h85v-22h-28zM494 54l-6 -19h-27l42 101h28l42 -101h-28l-6 19h-45zM724 114v-79h-26v79h-30v22h87v-22h-31zM792 136v-101h-26v101h26zM935 54l-9 -19h-26l44 101h28l42 -101h-29
l-8 19h-42zM212 54q11 0 19.5 9.5t8.5 22.5q0 10 -9 20t-19 10q-6 0 -16 -6q-13 -7 -13 -24q0 -14 8 -23t21 -9zM531 73l-15 36l-14 -36h29zM969 73l-14 36l-12 -36h26z" />
    <glyph glyph-name="_www.fontastica.com" horiz-adv-x="1953" vert-adv-y="2275" 
d="M66 353v-60h-34l-2 1v209h158v-31h-122v-87h122v-32h-122zM247 503v-210h-158v32h122v86h-122v33h122v59h36zM1250 310q-46 0 -81 28l18 36q11 -10 30.5 -18.5t32.5 -8.5q4 0 16 4q7 3 7 11t-5 10q-9 6 -29 12q-28 8 -31 10q-11 5 -20 15q-7 10 -7 28q0 27 20.5 40.5
t48.5 13.5q39 0 70 -20l-17 -36q-34 18 -57 18q-18 0 -18 -12t33 -22q24 -5 31 -10q16 -9 20 -16q8 -11 8 -29q0 -27 -20.5 -40.5t-49.5 -13.5zM543 309q-39 0 -66.5 26t-27.5 65t27 64.5t67 25.5t67 -25.5t27 -64.5q0 -40 -26.5 -65.5t-67.5 -25.5zM1656 309
q-38 0 -64.5 26.5t-26.5 64.5q0 39 27 64.5t66 25.5q44 0 70 -30l-26 -32q-16 23 -43 23q-21 0 -34.5 -14.5t-13.5 -35.5q0 -16 6 -26q16 -25 42 -25q23 0 43 20l27 -28q-33 -33 -73 -33zM354 375v-62h-45v174h130v-36h-85v-39h78v-37h-78zM703 417v-104h-43v174h40l80 -105
l-1 105h43v-174h-40zM938 450v-137h-45v137h-52v37h150v-37h-53zM1031 343l-12 -30h-47l75 174h47l73 -174h-48l-12 30h-76zM1426 450v-137h-46v137h-52v37h150v-37h-52zM1542 487v-174h-45v174h45zM1787 343l-12 -30h-47l75 174h47l73 -174h-49l-11 30h-76zM544 348
q20 0 33.5 16t13.5 36q0 7 -7 26q-9 25 -40 25q-21 0 -34.5 -14.5t-13.5 -36.5q0 -21 13.5 -36.5t34.5 -15.5zM1093 378l-23 63l-25 -63h48zM1849 378l-24 63l-24 -63h48z" />
    </font>
</defs>
</svg>
